/* XPM */
static char *d5379589d4b24720da81c519136be3adTzhxqfXVfT4Krd3z[] = {
/* columns rows colors chars-per-pixel */
"64 64 130 2 ",
"   c #000005",
".  c #03060B",
"X  c #060A0D",
"o  c #090B0F",
"O  c #0B0E12",
"+  c #0E1115",
"@  c #111316",
"#  c #13151A",
"$  c #16191E",
"%  c #191A1E",
"&  c #171A21",
"*  c #1B1D22",
"=  c #1E2126",
"-  c #1F2328",
";  c #212226",
":  c #22252A",
">  c #28272C",
",  c #26292E",
"<  c #292A2E",
"1  c #232730",
"2  c #272A31",
"3  c #2A2D32",
"4  c #302F34",
"5  c #2E3136",
"6  c #2E3239",
"7  c #313236",
"8  c #32353A",
"9  c #36393E",
"0  c #393A3E",
"q  c #373B41",
"w  c #3A3D42",
"e  c #3E4146",
"r  c #3E4348",
"t  c #414246",
"y  c #44454A",
"u  c #45464A",
"i  c #444549",
"p  c #42454C",
"a  c #43464D",
"s  c #44474C",
"d  c #46474C",
"f  c #44474E",
"g  c #42454A",
"h  c #43484C",
"j  c #45494C",
"k  c #45484D",
"l  c #44494D",
"z  c #46494E",
"x  c #454A4E",
"c  c #474A4F",
"v  c #464B4F",
"b  c #46494E",
"n  c #48494E",
"m  c #494A4E",
"M  c #494A4F",
"N  c #494B4F",
"B  c #434750",
"V  c #474C50",
"C  c #464B52",
"Z  c #484B50",
"A  c #484B52",
"S  c #494C51",
"D  c #484D51",
"F  c #4B4C51",
"G  c #4A4D52",
"H  c #494E52",
"J  c #4B4E53",
"K  c #4A4F53",
"L  c #4C4D52",
"P  c #4D4E53",
"I  c #4C4F54",
"U  c #4C4F56",
"Y  c #4A4D52",
"T  c #4D5055",
"R  c #4C5155",
"E  c #4E5156",
"W  c #4D5256",
"Q  c #4F5257",
"!  c #4E5156",
"~  c #4E5158",
"^  c #4E545B",
"/  c #505156",
"(  c #505358",
")  c #525358",
"_  c #535459",
"`  c #51545B",
"'  c #52555A",
"]  c #53565B",
"[  c #54555A",
"{  c #54575C",
"}  c #56575C",
"|  c #52555A",
" . c #55585D",
".. c #56595E",
"X. c #575A5F",
"o. c #56595E",
"O. c #535760",
"+. c #585B60",
"@. c #595C61",
"#. c #585D61",
"$. c #5A5D62",
"%. c #5C5F64",
"&. c #5E5F64",
"*. c #5A5D62",
"=. c #5D6065",
"-. c #5F6065",
";. c #5F6267",
":. c #5E6266",
">. c #5F6468",
",. c #606368",
"<. c #616469",
"1. c #62656A",
"2. c #62676B",
"3. c #61656A",
"4. c #65686D",
"5. c #66696E",
"6. c #676A6F",
"7. c #666B6F",
"8. c #66696E",
"9. c #686B70",
"0. c #6A6D72",
"q. c #696C71",
"w. c #6C7175",
"e. c #6E7176",
"r. c #6D7276",
"t. c #6E7176",
"y. c #717479",
"u. c #72757A",
"i. c #73767B",
"p. c #707378",
/* pixels */
"= : 3 3 , 2 3 3 8 0 O @ w q p r e 6 6 9 w e 2 w 8 6 8 e r w w y i i % * 3 e r 9 w w 9 7 9 9 , 3 , 6 9 9 9 q 9 8 y e e e 9 3 3 6 ",
", 3 6 6 8 9 9 8 w e # , t w y t q w r c f e 2 y e w w t c f f M M 0 # 3 e e e r e 8 6 3 3 = * 9 3 , , 6 q e q 6 w 9 8 8 9 w w 8 ",
"3 3 6 9 e y t w e 8 O , 6 6 8 w q r c G G y : y c y e y G _ [ ) w 7 @ 6 c c c R e e w 8 8 6 , 9 3 3 2 6 8 8 6 3 , 3 3 , , 6 8 6 ",
"6 8 9 w c G c t y 9 @ 3 3 q p U c G c c R c , c c c y e y P P M 0 0 % , q y c h q w 9 6 9 9 2 3 3 2 3 8 8 8 9 w 7 q w 9 8 8 8 8 ",
"3 3 8 9 e y e w 0 6 # 6 3 p ~ ` R R y e y e , G V G c e q w 0 8 7 0 * : 8 t c y t 8 6 6 9 3 = 7 8 3 3 6 8 8 7 8 e q 9 q w 9 8 6 ",
"3 6 8 9 w e w 9 9 6 : 9 q f p r c c r w 9 8 , R c G G y q 0 9 8 8 9 * 3 9 w e y 8 8 9 8 8 2 * , w 9 9 9 8 8 8 9 y w 8 9 8 3 3 6 ",
"6 7 8 9 w e w q c 9 , q y r q 8 w w w w 9 9 , c 9 w w q 8 8 9 w t w % : 3 : - : 6 e A e t w , , : 3 8 8 8 9 t c w e e w 8 7 8 w ",
"* = = : 3 6 3 : 8 % . # : * * : : * = 2 2 3 # , , , , , : : < 3 6 ,   X # % % % * % % * : * X # + + + + % = = & & * = = : 3 3 : ",
"% O . O % - 2 7 8 2 , 2 : * & - : + X @ * % % = , : , : : : ; # O , 9 8 6 3 3 6 3 3 3 6 8 8 & 6 e w e t w e e w e h w A U P 7 * ",
"8 * # : 6 6 8 r A f p e 8 3 7 r 8 = % 3 w e e e G c c e q 0 7 : : 3 7 8 w q 8 8 9 9 9 w e e , t { ) _ { _ { ..R G $.+.;.$.{ w 2 ",
"8 % # 3 q 8 8 w r q 8 w w 9 8 q 9 = % , 9 w e y c r w 9 3 3 : % , 3 6 6 8 7 7 9 9 9 9 9 9 q , y G c U { ..$...R $.<.%.;.%.%.w : ",
"6 # # 3 q q q q 8 3 2 8 w q 8 6 0 = % : , 3 9 y c e w 8 3 7 3 : : 6 7 3 3 3 7 q t e e w w 9 : c ..$.5.y.y.y.t.5.5.t.<.$...;.w : ",
", + # 3 9 w w 8 q 8 6 6 6 7 q w e = % , 3 8 e y w 9 8 6 3 3 3 ; 2 9 9 8 9 t e w G G G c e 9 : y R { <.q.9.5.5.,.>.t.t.;.R ) 8 2 ",
": + % 3 8 q q 3 8 3 3 6 8 q q q e % @ 3 9 q w 8 8 8 q w q w 8 < : e c e e c c t U G G c e 8 * w c G ..%.$.;.5.5.$.<.9.$.R / 2 = ",
"< # = q 9 8 9 2 3 2 2 q p C r q e % % 8 w w w 8 9 9 w w w w 8 , = w U c y y y y R R R U f q : t f c _ $.;.4.0.t.<.;.<.$.+.%.3 * ",
": O * w 9 3 3 : 2 3 6 q w w e e 9 % = 0 q 9 y y V c f t w q 8 : 2 w f A R G y e R G G G c w : f G G ..,.<.5.9.<.;.$.,.$._ { 3 : ",
": + , 2 * = & = : 8 8 8 r e 9 r 3 # 6 9 6 y A A G y c y 8 w q * 7 e c N _ .._ _ A G G G y 8 : G +.$..._ ;.5.<.<.$...$.R ) R 6 , ",
"3 O * = % * * : , 3 6 8 e e 8 8 8 # : 6 8 y t t f q 8 3 : 6 8 , , 0 y g t y c G G R G e q w : w A _ ..) _ $.%.,.G R ..R ) G 3 = ",
"6 + % = = : = 3 6 6 6 8 9 9 8 6 , + & = , 6 , 3 3 3 : = = , , : 3 5 : % = , 6 9 y w w w 8 6 * 8 e U _ _ _ $.;.%.<.<.;._ R c 3 : ",
"+   O @ + # O # $ + + + X X o o X X + + # % @ & % * & % * * # + % = = * = : * & : = = = & = @ 3 & = : 3 8 w 9 : , 3 3 , 3 3 : = ",
"O # : : = : = = : % $ % $ $ $ @ 2 8 w 9 e f w w 8 8 , = , , : 3 # , 8 9 8 6 3 7 8 w 8 = : G c c R _ R ...._ y = , 9 e c ) _ _ _ ",
"+ : 6 3 2 6 6 3 8 < : 3 8 8 , = f G G c R _ c w w 8 = % : : , 6 = 6 w e y y i U c w , % : $...) e U _ 4.5.5.;.9 y _ _ _ _ R _ _ ",
"# : 3 3 7 8 9 8 8 6 3 8 w 8 : = c c y c G f e 8 9 3 = = 3 6 3 7 $ , 9 y A y 0 0 y 2 * * 2 ) R ) _ ;.,.t.9.;..., G $.) G c y G G ",
"@ * = 2 8 9 9 8 8 w q q w 2 * , y e y R G t c c 3 = % = 3 6 6 6 # < 0 w 8 , , 7 8 3 2 : 3 { ) R $.<.;.p.t.q.,.3 w R G G f w e w ",
"& = 2 9 3 6 , 9 w 8 8 6 , 8 = 8 9 8 w w 8 8 w 9 # % = : < < : * # 5 3 0 8 3 7 t 8 < , : 8 ;.<.G R $.<.5.4.5..., 9 9 9 8 9 e y y ",
"& , 6 w 8 9 8 9 8 3 3 , : 3 % : 3 3 w e 7 3 , * * : : : ; * * * % 8 < 3 : 3 7 7 7 , , : 6 R $._ G ,.q.5.4.q.$., 8 6 8 y G c e e ",
"= 3 7 8 3 9 8 7 , : : * % = O # : : 8 9 6 6 3 = ; * * % * ; * # $ 5 2 3 3 8 8 3 , * = % % < 8 w y G y q 9 e w * y w 9 w e t c R ",
": , * % + + @ O # # % @ # * + % # # * = * = * O O + @ % ; : = # # & # % + O . o . X * = = = % % : = % * = : 3 2 = 6 q 7 2 3 3 3 ",
"R c 8 6 , # % # # * : = 2 8 9 e w 9 e y w q 3 % : 6 w t e w e y q 9 3 - + # % : 2 3 8 3 6 8 3 3 6 8 8 e c e e e = 9 c y w w 9 3 ",
"_ c q t w * = = : 3 8 3 q e A R A f A G f c w : 7 w f f t t y f h V y 6 * 7 0 w 9 8 3 = , 7 3 8 9 y w 8 9 q w q 3 6 6 6 8 q e e ",
"c e 9 c c = , : , 3 3 : 6 6 q 9 w 9 w w w y w : q w r p C A A C H H V 8 = 8 6 < , 3 9 e G c w y f R e 8 8 w y c : , 2 3 8 e y e ",
"G c e G G = , = 3 3 3 : 8 6 9 6 w q y A C c 8 # 1 6 r B C A ^ O.^ r q 6 : 8 7 4 9 8 w y c w 7 c R +.) R c 8 3 3 : 8 9 3 7 f G y ",
"C C A U C 2 : & : : , 3 3 6 9 t e y A f w w 6 # 6 9 w e y c c y G y 8 , 2 8 w w w e G y 9 w 9 9 c e e c c 9 , : * 6 9 8 9 e A ) ",
"p y c C p : : & 6 3 3 2 , 2 6 q 8 8 w q 6 6 : + 8 9 q 9 w h G G c w 3 : , 3 3 , 8 q G c e y w w 8 w y e 8 2 : , = 8 e w 9 9 q w ",
"w w e e w : : = 3 3 3 , : : : 3 6 3 7 8 6 3 : % 8 q e w w e r r c 9 , : 3 6 6 3 3 8 c c t y e 9 8 w w 8 3 6 8 8 : 9 e w 9 8 6 7 ",
"% % * = = O + + # % * = * % % & % # % * * * % @ % = : = * * - : : % # & = * & % * * 3 , : : = * : : = * * = : , + * : = : : = : ",
"* * = : : % = = + % * = = = = : : = = : , : : : = : = % % : 8 w w w t R R t 8 8 9 3 6 3 : 3 , , 6 6 8 9 6 , 2 8 = 2 3 3 8 9 9 q ",
": : : : 3 = 2 : % = : : : , 3 3 , , : : , : = : : : : * = 3 w f e e c R G t w w A 8 6 3 3 8 8 q c w 8 8 8 3 3 7 : 3 7 8 e e w w ",
"7 6 3 3 8 2 6 2 @ % * & & * : : 2 6 , : , , : : : 2 2 : : 6 q e c c G R R G G R U 6 , 6 8 q w y ) e 3 3 6 8 6 3 : 6 9 w e t e y ",
"w w 9 8 q 3 8 3 + % * * * = : : , 6 , : , , : , 3 3 , = : 3 w y y G { $.$._ G c c : : 6 q w q y 9 9 8 6 6 6 3 , , 8 w e y y c R ",
"6 6 q w 9 8 3 - @ & ; = & * : < : : : : , 3 3 , : < < ; # 7 w t R G _ ;.;._ R R y = * 3 8 w 8 7 3 6 3 : : 3 6 3 ; : q 0 w G f A ",
"w w e e 8 6 3 - @ % * * * ; : < = : : : , 2 , = ; ; : * # 0 c M y G Q ..$.=...R c : : 5 3 6 6 6 e e 9 5 , , 3 3 : < w w i P t w ",
"8 8 q q 6 3 , * # % * * = : : : * = : : : : : * = % * % @ w R P A G G G ) ...._ c * % , : 3 8 q 8 8 7 3 , , 6 8 7 3 8 9 t A t 0 ",
"7 8 9 9 8 6 3 = # % & * * * ; * * = = = : : , 3 ; % * # O 0 c t t w w c G G G ) [ ; % : : 7 w q q 9 8 7 3 2 6 8 3 3 6 8 w M i w ",
"9 9 9 8 3 3 < = O @ # @ @ @ # # * = : : : 3 7 8 = * * # o < 7 3 3 6 w N P M N R M * * < 3 9 w w 8 8 8 8 6 3 6 8 ; < 8 w M P M i ",
": ; * % @ # % # o O @ O O O @ @ : , 2 , , : : : * * % # O * # # * < 7 3 3 8 w w < % * : : < < 3 * * * * = ; ; : # ; ; 3 7 7 w w ",
"# @ @ @ O # % % * * * & & * * * : , , : : = * % * = % % % ; + # # = ; # # * < < > ; : ; ; = # * : : ; & % & % @ % * @ # @ # , 3 ",
", : 2 3 3 7 8 7 8 8 3 3 3 7 7 3 = : : = : : , : : < ; : 3 7 % : ; : < 7 7 3 3 7 : : ; * 3 8 3 7 w w 0 7 8 q q 8 8 0 3 3 : ; 7 8 ",
": : 3 3 3 3 3 3 , 6 , 3 3 6 6 # & : 2 , = = = : , : = : : * * : : = 8 0 3 , % * % & * * : 3 < * = - 9 e 9 w y G e 0 e 3 8 * * 3 ",
"* : 3 6 6 3 2 , , 6 3 3 3 3 6 * = 2 3 , : : , : , : : : : = : , , 3 8 0 9 : @ % * ; * * : < < ; , 3 w e w e r c c g e 3 7 # % * ",
": 2 7 8 7 6 6 6 3 6 3 6 7 8 8 = # = : = = , 6 3 , , , , 2 3 7 7 7 y t M P 3 % : : : : ; : < < : 2 8 w 9 w e w y R N w 6 9 * < : ",
", 3 6 6 3 3 6 8 8 3 , 3 8 w 6 @ & : : * = 2 6 3 2 6 6 3 3 6 6 3 3 w 0 i y ; * : < 3 7 7 7 7 3 : : 6 8 3 8 q 9 e y G 0 7 3 # 7 4 ",
"3 3 6 3 2 2 3 6 7 , , 3 7 9 : O # * = * : 6 8 6 8 8 7 3 , , , : < 5 7 w 7 * < 3 3 7 8 8 8 6 < : , 6 8 < 5 8 8 e y ..R w : O 7 w ",
"* = = = = * = = = * : * & * # o O O + # & : , : : : = % % & * * * # % ; @ o % * : : : : : ; * % * * ; * * ; = < , 6 , ; + o : : ",
"@ @ @ @ # # # # % # % O . O O O * & % # # # O X + O O + # # % * ; * * % % % % ; : ; * * = = = = # o + @ @ # @ # = * % % % , 3 : ",
": : * * = : , 2 7 : : # + = : , 2 : = : : = % # * * : 3 6 3 , 3 : : ; # ; , # : 3 < < 3 7 8 8 8 3 % ; 3 3 6 < < : : 5 < ; 3 7 3 ",
"= : : = = , 3 2 3 6 6 # % * : : , : 2 , , = # : : = = : , : * * * % * : : * # 3 : : : , 3 6 6 3 : = 6 8 6 8 3 3 : - : * & ; = ; ",
"8 6 : : 3 8 7 3 3 6 6 # % = : , 3 , 3 2 , = # = : = : , 2 , : = = * : : : * % , 3 3 3 3 6 7 6 3 = * , , : , , 3 2 : : % % : ; : ",
"q 6 : : 3 6 6 3 3 6 6 # % = : , : = : : - * @ * * * = : , , : = * * ; = = * % : 3 3 6 6 8 9 8 6 * & : ; = , 2 3 , - = @ # = = : ",
", : : : : : , 7 6 6 3 # % = = = * % * * * % + * * * = : : = * % # % * % & * # = : , 3 3 7 8 6 3 * % : : : 2 3 3 5 , , * * < 3 7 ",
"= : , , : = , 8 6 < : + * = = * % # * * * & # : = = = = = * % # # % * % % * # * = : 2 3 3 3 , : * # * * = , , , 3 , 2 = * < 2 7 ",
": : : , , : , 3 , : = O * = * * % % * * * % @ = : : : = * * % # % % * % % & @ & = : 2 3 3 6 3 , = # % % & : , , - = : % % = * : ",
": : : : : : : = : = = O % * % % % # * * * % + * = : = * * * * % % % & % % % + % * : : : , 3 6 6 = % = * & : : 2 : - : % * : ; = ",
"* : : = * = = = = = = O # @ + + # # * * * % + * & * * % % * * * % # % % * & @ * * * * * * : , , % % : : * = : , : * & # & : ; * "
};
