/* XPM */
static char *_081f9b976d44a77ae2db32cc8d39a3d3KiDtTSFQAoeZtLQ[] = {
/* columns rows colors chars-per-pixel */
"64 64 237 2 ",
"   c #050201",
".  c #0B0401",
"X  c #0D0904",
"o  c #0D0C0B",
"O  c #130402",
"+  c #1A0501",
"@  c #140B05",
"#  c #1B0C04",
"$  c #1B0609",
"%  c #140D0A",
"&  c #1A0E0A",
"*  c #170708",
"=  c #0F100A",
"-  c #1C1107",
";  c #15110C",
":  c #1C120C",
">  c #1E190E",
",  c #180F10",
"<  c #151310",
"1  c #1C1411",
"2  c #1E1913",
"3  c #1F1B18",
"4  c #220501",
"5  c #2A0705",
"6  c #220C03",
"7  c #2B0E04",
"8  c #220E09",
"9  c #2B0E0C",
"0  c #320500",
"q  c #330C02",
"w  c #3C0D02",
"e  c #310F09",
"r  c #3B0700",
"t  c #241205",
"y  c #2C1206",
"u  c #23130C",
"i  c #2B150D",
"p  c #24180D",
"a  c #2B190D",
"s  c #361307",
"d  c #3A1405",
"f  c #331807",
"g  c #33140C",
"h  c #3C150B",
"j  c #331A0D",
"k  c #3B1B0E",
"l  c #3B1805",
"z  c #221612",
"x  c #2B1612",
"c  c #241A13",
"v  c #2B1A13",
"b  c #241C19",
"n  c #2C1D1A",
"m  c #331611",
"M  c #3A1612",
"N  c #331C13",
"B  c #3B1B13",
"V  c #351C1A",
"C  c #3A1C1A",
"Z  c #3A240F",
"A  c #2C2016",
"S  c #2D201C",
"D  c #342116",
"F  c #3C2214",
"G  c #34221C",
"H  c #3B231B",
"J  c #3F2919",
"K  c #2C2421",
"L  c #332521",
"P  c #3D2621",
"I  c #3D2A23",
"U  c #430D02",
"Y  c #4D0C05",
"T  c #570D01",
"R  c #5D0900",
"E  c #431305",
"W  c #4C1104",
"Q  c #45160B",
"!  c #4B160A",
"~  c #431A0C",
"^  c #4B1B0D",
"/  c #471A05",
"(  c #541505",
")  c #5B1304",
"_  c #52150A",
"`  c #531B0D",
"'  c #5B1D0C",
"]  c #551809",
"[  c #431C13",
"{  c #4C1D13",
"}  c #411F1C",
"|  c #491F19",
" . c #421710",
".. c #531D12",
"X. c #5C1D12",
"o. c #531B15",
"O. c #631B02",
"+. c #6B1C04",
"@. c #641C0D",
"#. c #6B1D0B",
"$. c #651508",
"%. c #711B05",
"&. c #7F1A05",
"*. c #721D0C",
"=. c #7C1E0C",
"-. c #731400",
";. c #641C12",
":. c #6C1E15",
">. c #731E14",
",. c #44210E",
"<. c #4C210D",
"1. c #52230F",
"2. c #5D200F",
"3. c #442214",
"4. c #4C2314",
"5. c #4D2915",
"6. c #43251A",
"7. c #4C241A",
"8. c #442B1C",
"9. c #4C2A1B",
"0. c #462917",
"q. c #522415",
"w. c #542314",
"e. c #5C2315",
"r. c #55231A",
"t. c #5B231A",
"y. c #522A1B",
"u. c #5C2B1B",
"i. c #5A2916",
"p. c #59311F",
"a. c #65220B",
"s. c #6C290C",
"d. c #6A230C",
"f. c #76260D",
"g. c #632414",
"h. c #6B2312",
"j. c #6A2B15",
"k. c #62231A",
"l. c #6B241B",
"z. c #642B1B",
"x. c #6C2B1B",
"c. c #622814",
"v. c #732413",
"b. c #7D2413",
"n. c #742912",
"m. c #7C2C14",
"M. c #73241B",
"N. c #79251A",
"B. c #752B1D",
"V. c #7A2B1B",
"C. c #6F301F",
"Z. c #7B341C",
"A. c #77321B",
"S. c #432B24",
"D. c #472721",
"F. c #542B21",
"G. c #5C2C21",
"H. c #582721",
"J. c #4C3128",
"K. c #5A3121",
"L. c #642F21",
"P. c #712C21",
"I. c #782C22",
"U. c #6A3727",
"Y. c #7D3122",
"T. c #753727",
"R. c #851E0C",
"E. c #83230D",
"W. c #8A230D",
"Q. c #872908",
"!. c #94240D",
"~. c #97280A",
"^. c #9B300E",
"/. c #832514",
"(. c #8B2512",
"). c #842B14",
"_. c #8B2B15",
"`. c #832C19",
"'. c #8C2D1A",
"]. c #942611",
"[. c #942B14",
"{. c #9B2A15",
"}. c #942E1A",
"|. c #9A2D1A",
" X c #992613",
".X c #8D311D",
"XX c #873519",
"oX c #95331B",
"OX c #9C3718",
"+X c #9A3516",
"@X c #AA2D0E",
"#X c #A42A14",
"$X c #A32E1B",
"%X c #AA2D15",
"&X c #AB3817",
"*X c #A3341A",
"=X c #A83716",
"-X c #B33514",
";X c #B43D1A",
":X c #BA3B1D",
">X c #B53918",
",X c #832C20",
"<X c #8A3723",
"1X c #9B3521",
"2X c #933824",
"3X c #B63B24",
"4X c #A03D28",
"5X c #C13E1B",
"6X c #C63F19",
"7X c #AE431F",
"8X c #BD421B",
"9X c #B5421A",
"0X c #844332",
"qX c #90422D",
"wX c #A54320",
"eX c #A9442B",
"rX c #B84829",
"tX c #BE4B30",
"yX c #CC431C",
"uX c #C2421F",
"iX c #D3461A",
"pX c #D64B1E",
"aX c #E6501E",
"sX c #E14D1D",
"dX c #C84B23",
"fX c #C74525",
"gX c #D44A21",
"hX c #D74D25",
"jX c #D75427",
"kX c #C04A30",
"lX c #E35525",
"zX c #E85827",
"xX c #F45A26",
"cX c #EF612F",
"vX c #F6612E",
"bX c #F66533",
"nX c #EF6534",
/* pixels */
"% ; % & : - u a a v N V V V V N j f d d d E / / ^ ^ e.i.z.e...! 4.^ ~ j 7 i H V C N M j j k Z Z F 0.6.F N N v u # G H a v D N N ",
"; ; ; : : t u a a v N V C C C C B k k ~ ~ ,.<.1.1.1.w.i.z.z.z.u.q.4.3.k 7 y N x m m m j j k Z F 8.8.8.F N v a t O v G v v D v a ",
"; ; ; : # # - t u i i N N V C V B B 3.3.4.4.q.q.i.i.i.u.u.u.t.w.q.4.7.B 7 8 x x m m m B B F J 6.F B j i a v i - O v n x x v a i ",
"; ; : : - - - t t u i m N N C C B B F 6.7.5.4.^ q.i.u.K.u.i.^ Q 5.5.9.F i u v x 9 9 M B B F J F 8.F N N G G G v $ v v t p i p i ",
"; : : : : : u a i i a N C C H H B C 6.9.9.5.{ Q ^ ^ q.u.G.G.r.4.5.3.6.6.i u x x V C } D.D.6.F F J H a u a x p @ @ c c p c c u p ",
"@ @ ; - - - - t u i i g m B B B C B 6.D.F.9.4.Q Q Q Q ^ { 4.7.7.~ d j m t # # # V C C C C m j i 6 # + O O @ .     : z z n v u - ",
"@ @ @ @ @ @ # # t t 7 7 7 e g g m m B [ 7.4.{ Q ^ Q E d E h h h d q y g t 8 8 + 4 4 5 5 4 6 + + # 8 # # & : 1 % X ; ; & 1 : $ # ",
"& : : - - # # # t t 7 7 7 q q q y 7 7 e h ~ Q E ! ! Q Q Q Q h w ~ q f F D N N x i m M C C C C G u p z z z z z 1 1 2 % . O O O @ ",
"p p p p p p u u i a g k 3. .h  .k [ [ h Q { ! U W ! U ..E w.Q [ ~ ~ 3.6.j i v i m C } C N N x i u u u p u : & % , < % @ % & : : ",
"p p p p p p u u j B F 7.F.4.E Q h [ | { ..t.X._ X.' W e.w.u.^ ! E w ~ 3.j j N m m C } C N N x x i p p z z 1 1 ; , 1 % @ % 1 1 : ",
"i i p p a a i i N 6.7.y.K.w.! ! ^ { w.w.k.x.x.g.B.g.' C.U.T.t.` E U ~ 3.k k F j j B } C N N v x i p p p z 1 1 1 1 1 & % % 1 z z ",
"i i i i i x i i F 6.3.4.i.w.` ` ..w.e.g.l.B.Y.V.V.h.#.A.T.T.z.c.` _ ..5.~ 3.F j h B } C N N v x i u u t & & : 1 1 1 1 % & : z p ",
"y i i i i i i i m [ ~ ^ t.e.' 2.g.c.g.@.h.V.,X<Xb.%.*.V.Y.h.h.x.g.X.w.w.4.,.,.s h [ } B m v x i i u u t - : 1 1 ; 1 & $ & : z p ",
"y y i i i i i g 7 h h ^ z.x.g.@.h.h.h.#.*.b.'.2X'.=.b.`.XX+.d.A.h.' X.t.q.4.,.d h [ [ B g x x p a i i p u p z 1 ; 1 & @ # u p u ",
"g g g g g m m j 7 s w E z.T.x.h.h.v.v.v.b./.}.1XoXE.'..X2X+.n.<XM.;.;.e.w.5.,.d d k B h i i p u i i i p p p u : & : & @ $ - u t ",
"g g g m m m m m g s 0 r e.I.B.v.h.v.v.b./._.}.1X[.&.(._.2X+.f.Z.B.h.g.c.t.q.4.d d k B j y i p u u y u p p u - & & ; & @ $ & t t ",
"7 7 7 7 7 y y y y 7 q E g.I.Y.N.v.v.v.b.'.oX|.{.|.W.W.oXXXf.s.Z.j.j.j.c.] w E 5.d h k g y 8 # # 8 t u u u : - & O : & O $ & & & ",
"y y y s y y i i 6 7 d 4.z.M.>.#.v.n.m.b._.}.|.{.].W.W._.m.+.O.a.j.j.g.' ] ` q.5.~ B B g y 8 8 8 8 u u u u : : & # z # . + * + + ",
"y y y y i i i y 6 y k G.U.P.M.N.v.n.V./.(.[.{.{.].].[..XXXn.s.s.j.j.2.( ` u.i.^ 3.[ B g y u u i t t t u t - : - # t # O # p x v ",
"t t u u u t t t t t f y.L.l.M.I.v.V.`.).(.[.|.$X X{.}._.).A.A.j.h.g.' ( 2.u.w.Q ~ k k j i i v v t t t u t - : - # - @ O u G P S.",
"u u u u u u t t a # 6 l ^ ( T $.#.v.`./.(.{.$X$X{.{.[.=.%.d.a.' ' ( ( ' e.` ^ ^ Q h k j N m x i 8 t t u t - - # - t + O i G H P ",
"p p u a a a p p t # 7 l ^ ` ) ) $.#.*.=.R.].{.#X#X{.!.&.+.+.a.h.( W ( e.e.! Q { ~ k k m m i 9 8 8 t t u t - - # - t + O i H H H ",
"u p p i i a a a t t f ,.i.z.l.M.$.%.=.R.!.{.#X#X%X#X].W.b.v.x.P.( ] ' ..` ! ^ { [  .h g g i 9 8 t t t u t - - # # t # + N S.D.6.",
"t t u u y i i i t f k Q ^ g.B.V.V.`.'.}.*X3X3X:X>X#X X(.b.#.;.l.' k.e.` ! { { { [ M g g i i i i 8 t t u t - - # # t # # N D.H B ",
"t t u y i g g g g j [ { X.g.M.N.b.`.'.|.*X>X:X:XfX%X!.(.=.:.l.k._ e.k...^ { { [  .h g 9 i i i i 8 t t u t - # # # # + # i H H N ",
"i i i y i g g g B B ~ Q _ X.:.>.b.`.oX*X&X:X5X5XfX@X!.W.=.v.l.k._ t.k.r...o.7.[ M M g g i y 8 8 8 t t - - - # # - - # # u N C V ",
"i i i g e g g g B  .| ..X.l.M.,Xb.).oX*X;XuXyXyXyX@X~.].b.N.P.k...t.G.H.r.r.7.| [ B m m m i 8 8 u u t - - - - - : # # + # t x x ",
"u u y i e M M M e h [ ..t.l.M.N.b.).[.=X:XdXgXiXyX-X@X]./.N.M.k.o.r.r.o.{ | [ [ B j g y y u 8 8 z u u & & : : : : @ @ O @ & u u ",
"t t 8 9 9 g M g B  .[ w.w.k.l.N./._.+X=X8XgXhXhXpX>X@X].E.v.:.o.t.H.H.7.| | | } C B m i i x x x z z 8 & & : 1 1 ; @ X @ ; 1 ; @ ",
"p t u u 9 9 9 9 B B B ~ ` e.P.Y./.[.OX;XdXjXzXlXpX6X-X X=.>.;.Y { | [  .h h g j g y 8 6 8 8 8 8 8 8 & & & & 1 1 % .   X ; ; X . ",
"> : t u u i i y 7 7 7 q w W ] @.%.Q.^.9XjXzXcXzXlXyX>X{.E.v.;.Y 0 0 0 q q 5 4 4 4 + + O O O O . $ $ * * * % % % o       X X     ",
": : - u p x x m C B 3.[ ^ E Y Y R -.~.;XjXnXbXvXzXpX8X*X).B.l.! Q ~ | 7.7.6. .k B C B F H N i u + + O O O @ @ @ ; o X o o X   X ",
": : : u i v N m g B [ | w.t.t.' +.Q.=X9XjXcXbXxXaXiX8XOXm.x.G.4.q E / <.u.U.U.L.u.y.5.y.y.9.0.8.N n & + c b z K ; 1 2 1 % X o ; ",
"c z p p i v m g B [ [ ~ Q { o.' n.XXwXrXjXnXvXzXsXyX;XOXm.z.y.[ q E <.<.<.w.i.w.u.q.^ 4.y.5.3.F N x # # n L b c @ @ @ % ; ; ; o ",
"c z p p a v v g g j h d h [ w.e.d.).OX7XdXjXlXiXgX5X&X[.v.z.u.{ q ,.y.5.4.4.r.y.y.~ d B 6.6.F j v # + u n L n @ @ X X % 2 3 1 % ",
"c c c x v N N N 7 g k B  . .| ` ) f.oXwXrXdXhXfXfX-X{.E.O.' ..h 7 j 6.3.B [ 6.6.6.B j C F F N N x + 8 n S L S O % @ @ ; b b 1 @ ",
"c c c x v v v N i j m k j s f Q ' Z.qXeXeXrXtXkXtXeX4X<XV.j.t.~ 6 y i m N m B N C m x N v v x x z $ z G n S n @ X @ @ % ; % o . ",
"& # # # t t 8 # 7 6 6 6 4 6 g ~ c.Z.qX<X<X.X2X1X'..X2XqX0X0XT.G.4 + + + 6 6 6 + 8 # # # $ + O @ + O # u & & @ .     . .         ",
"+ + + # # 8 8 # # # 6 6 6 7 j 0.q.e.c.g.@.@.@.@.T T @.j.x.U.U.y.4 + O O + + + O O O O + $ $ $ & + # $ @ $ @ X O % @ @ X X . X X ",
"+ # # u x v N N D D D D N a N 8.~ Q E E ! ^ ^ ! o.` ..w.w.p.U.K.S.I H H P I I S.# O + u n L L L S L v z S n z n n b 1 ; ; & % % ",
"t i x x x v x p u u a v v v v a j j k k k B B B h [ 7.4.~ ,.5.p.J.J.S.S.S.I I I G + + v G G G G v v c c c c z z z z z z z z z z ",
"p x x x i x x p u u u a v v v a a a a a v N N N N F F F k k ,.0.F F H F H H H H G # # v V V V N n v v v b b c z 1 1 2 2 1 1 1 & ",
"v v v i p x p t u t t p v A v p p p p p c v v v D D D D j f j k 6.6.6.F H H D D N + + i v x v x v c c c c c z z z b b b b z , & ",
"x v x u u p p t u - - u v A x u : : > c c b A A D A v a a j j f F F F H H D N N x + # i x v N v v c c c c b c z z 1 1 1 , & * @ ",
"p i i u t p p t t 8 # u v v x t : : p c c A A A D v a a v N N N N V H G G G G G p + $ z x v V v v c c c b b c z z z 1 , & % % % ",
"u p p u t p p u t # 8 u x v x u p c p c v v A D N N N N N N N V x v x x z z p : O   . @ O @ & $ @ @ @ @ @ % @ @ & & % @ @ @ @ @ ",
"t p i p p i i u 8 8 t p x v x p z z z c x v j j N j m m m N C C & * O O . .   . % . X @     .           . X . .                 ",
"p x x x x x i t # 8 u i x x x x z p p a a a j j N N B m N N C G 8 & & : z b S K K b b b 1 & & @ @ @ @ @ & - & & & : z z z z : ; ",
"z c x x x x x z t t t u p p p x u p p a v N N v N N N N N N V N # - : p z v n V L L G v u & z c x c # # c v c c x c p : : : 1 1 ",
"- t t u u u t - # # # & - t t u x a a x x a i u v N N v v N N x t : : p z x v N x v v x 8 # # & p u # # p v c v v c p : : : : : ",
"- t p p p p t - # # # # - - - - t t p p c x x x x v v x i i i u : : - u p z x v v V C V v z p p c p + @ c A c c c c : : : % % % ",
"p c c c c c c p # - - - - : p p & - u p p p z x p x z u t u u t @ @ & - p z v v u x v v v z p : v p @ @ c A c b : : ; ; ; % % % ",
": : c c c c p : - : - - : : : : z c c p - # & # - u u - : u u : @ % ; ; : z c v z z x c c z z : p : X X z b c z ; ; ; % % % % % ",
": : z c c 2 1 : : : : : : : : : : 2 z : : @ : : & : z : : z z : @ X @ @ @ @ @ $ & & & & ; ; ; ; O X     ; : ; 1 ; ; % o X X X   ",
"2 2 c c c 2 c 2 ; ; : ; : ; : ; % ; 1 : ; ; 2 b 1 z z : 1 z z 1 X . . .     . .                   .     X X . X X X X           ",
": : 2 2 2 2 : : ; ; ; ; ; ; ; ; ; 1 1 1 ; ; 1 z z c z 1 1 z z ; X X . . . X X @ @ @ @ % % @ @ X . X     .                       ",
"1 1 1 1 1 : : ; X X % ; ; ; ; ; ; 1 1 ; ; 1 2 1 2 1 1 1 2 z 2 1 o = ; ; ; ; & & : 1 1 z 1 1 2 2 1 1 2 2 2 2 2 1 ; o     o = o o ",
"    . .         X X X X @ ; ; ; ; < < % % ; ; ; 1 1 1 1 2 1 ; % ; ; % % % % ; : 1 z 1 z 1 1 2 2 b z 3 2 2 1 < < 1 ; o o o o o X ",
"; ; ; ; ; % % @ X X . . . X @ ; o ; ; % X ; ; ; 1 1 1 z z 2 ; % < ; ; @ % ; ; : z z z 1 1 1 1 1 1 1 1 ; % % @ X o       o o o o ",
"; : : : ; ; ; ; ; @ X . . . . X . X X X X % ; ; ; ; 1 1 1 1 ; : : ; ; ; ; ; : 1 z z 1 : : : ; ; % % % % @ % % % X       o < o o ",
"% % % % % % % % % % @ @ @ X X .   . X     . X X X X O O @ @ @ @ ; : > 2 c c : p p : & & & : & @ ; ; : : : ; 1 1 1 < % % % ; o o ",
"; ; ; 1 1 1 1 1 @ @ % % % % @ @ @ ; ; X . X X X X X X . . X @ @ ; : 2 c c c z p p - $ $ # & # @ ; ; : : ; ; ; 1 ; ; ; ; ; ; < o ",
"@ % % % % % % % @ @ % & ; & & % ; : : ; @ : ; : @ & : @ @ @ # : ; ; : > p c c p u # # @ # - @ @ @ @ @ @ @ @ % % X X % % ; < < < ",
"@ % % % & & & & % % % & & & & % @ ; ; @ @ : : : : : c z : & & : ; ; ; ; : p c x u # # # # - - @ @ @ & : : : : ; ; ; ; 1 1 1 < < "
};
