/* XPM */
static char *_23cf232b294443db72f0f640ad1847a[] = {
/* columns rows colors chars-per-pixel */
"64 64 218 2 ",
"   c #262C3C",
".  c #3C453B",
"X  c #464A3E",
"o  c #182C43",
"O  c #2F3C4B",
"+  c #37434A",
"@  c #3A4756",
"#  c #3C4B5C",
"$  c #3D4D60",
"%  c #464C42",
"&  c #4A4E46",
"*  c #464D49",
"=  c #4C4F49",
"-  c #4B5146",
";  c #4C524C",
":  c #4F5849",
">  c #52554D",
",  c #545A4E",
"<  c #5E5C4C",
"1  c #444953",
"2  c #424E5D",
"3  c #4E5552",
"4  c #4D575A",
"5  c #4B535C",
"6  c #515653",
"7  c #545657",
"8  c #545A54",
"9  c #5A5D54",
"0  c #545B5B",
"q  c #5A5E5A",
"w  c #615F57",
"e  c #5C6157",
"r  c #5B6957",
"t  c #5C625B",
"y  c #5D6C5D",
"u  c #636053",
"i  c #62655C",
"p  c #63695D",
"a  c #6B6A5E",
"s  c #414F61",
"d  c #455162",
"f  c #4B5563",
"g  c #4D5866",
"h  c #475669",
"j  c #4E5B6B",
"k  c #545C63",
"l  c #555B65",
"z  c #595E62",
"x  c #535D6C",
"c  c #525F71",
"v  c #556262",
"b  c #5D6363",
"n  c #5E6B62",
"m  c #55616D",
"M  c #5B646B",
"N  c #5E6A6C",
"B  c #5E706B",
"V  c #556273",
"C  c #5A6574",
"Z  c #5D6973",
"A  c #596679",
"S  c #5D6A7B",
"D  c #626663",
"F  c #646B63",
"G  c #6A6C62",
"H  c #61676B",
"J  c #646B6B",
"K  c #696D6D",
"L  c #657264",
"P  c #6B7265",
"I  c #65716C",
"U  c #6B746C",
"Y  c #6D7A6D",
"T  c #757567",
"R  c #72746B",
"E  c #747B6C",
"W  c #7C7C6B",
"Q  c #646C74",
"!  c #656C75",
"~  c #696E73",
"^  c #646E7B",
"/  c #667174",
"(  c #6C7374",
")  c #6C7A73",
"_  c #677079",
"`  c #6C747B",
"'  c #6E7A7B",
"]  c #717674",
"[  c #737C74",
"{  c #7B7D72",
"}  c #72767B",
"|  c #747C7C",
" . c #7A7E7B",
".. c #817F6E",
"X. c #817E75",
"o. c #7C826F",
"O. c #6E8075",
"+. c #758275",
"@. c #7B8374",
"#. c #75837C",
"$. c #7B837C",
"%. c #7C897B",
"&. c #84816F",
"*. c #848273",
"=. c #82857C",
"-. c #838B7C",
";. c #8B8878",
":. c #5E6D82",
">. c #636F81",
",. c #6A7582",
"<. c #697685",
"1. c #747C83",
"2. c #757B85",
"3. c #7A7E83",
"4. c #747E8A",
"5. c #758284",
"6. c #7B8384",
"7. c #768980",
"8. c #7D8A83",
"9. c #778289",
"0. c #7D848A",
"q. c #7E8A89",
"w. c #7D8691",
"e. c #7B8893",
"r. c #828585",
"t. c #828C85",
"y. c #898A86",
"u. c #82868B",
"i. c #848B8B",
"p. c #8A8D8D",
"a. c #908E8F",
"s. c #869285",
"d. c #86918B",
"f. c #8B938D",
"g. c #95968A",
"h. c #93948D",
"j. c #858C92",
"k. c #838A96",
"l. c #8A8D92",
"z. c #869194",
"x. c #8D9493",
"c. c #8D9892",
"v. c #8D939A",
"b. c #8A969A",
"n. c #929494",
"m. c #939A94",
"M. c #9B9A95",
"N. c #93969A",
"B. c #969A9C",
"V. c #9A9C9D",
"C. c #A19E9B",
"Z. c #98A098",
"A. c #9CA29C",
"S. c #A4A39D",
"D. c #A9A59F",
"F. c #8E97A3",
"G. c #959BA1",
"H. c #949AA6",
"J. c #9B9DA2",
"K. c #9AA3A5",
"L. c #9DA1A4",
"P. c #9DA2AB",
"I. c #9EA4B1",
"U. c #A3A3A4",
"Y. c #AAA6A2",
"T. c #A4A9A5",
"R. c #ACAAA4",
"E. c #A4A5AA",
"W. c #A8A7AB",
"Q. c #A6A9AB",
"!. c #ABABAC",
"~. c #B1ADA6",
"^. c #B2AEA9",
"/. c #A7B0AB",
"(. c #AEB1AC",
"). c #B3B2AD",
"_. c #B8B4AE",
"`. c #A6ABB4",
"'. c #A6ABB5",
"]. c #ADAEB2",
"[. c #B0AFB2",
"{. c #AFB1B2",
"}. c #AEB0B9",
"|. c #B3B3B4",
" X c #B9B6B4",
".X c #B7B9B4",
"XX c #BBBAB5",
"oX c #B5B6B9",
"OX c #B9B7B9",
"+X c #B7B8B9",
"@X c #BBBBBC",
"#X c #C1BEBE",
"$X c #BFC0BD",
"%X c #C3C1BE",
"&X c #BDBEC1",
"*X c #B8BBC5",
"=X c #C0BFC1",
"-X c #BFC0C2",
";X c #C4C3C4",
":X c #C6C5C5",
">X c #C9C6C6",
",X c #C5C5CA",
"<X c #C9C7C8",
"1X c #C9C8C8",
"2X c #CCCACB",
"3X c #D1CDCE",
"4X c #D4D0CF",
"5X c #CCCBD2",
"6X c #D3CFD1",
"7X c #D5D1D2",
"8X c #DAD5D6",
"9X c #D4D3D9",
"0X c #DBD7D9",
"qX c #DED9DB",
"wX c #E1DCDC",
"eX c #DDDDE6",
"rX c #E6E1E3",
"tX c #EBE6E6",
/* pixels */
"{.L.V.x.` ' ( ) J q 9 t q r.J.N.B.p.|.<X1X1X .W { F M k 4 M Q 9.9._ l 0 M ,.^ S j x (.M.A.S.v t % % Q |. X_. Xi.B.x.m.[ %.%.%.8.",
"%X@X;X X' ) / | J 3 3 = > 0.U.B.J.v.<X2X<X|.0.N.9.u.N.E.@X;X@X2X:X%X&XOXU.M 1.1.Q f n.p.M.x.J D 8 9 J  X X).XX` ] D F b %.%.%.t.",
"@X$X%Xp.N ) ( ' 0 J 7.) M l.U.x.L.x.OX|.J.J.].].OX2X7X<X;X@X2X:X:X:X<X3X:XM `.|.W.N._ N Q f.] t & 3 v  XXX XXX6.t i i i b %.@.B.",
" X).r.t t t ( [ | s.y %.8.G.J.B.B.0.l.J.{.@X2X<X2X1X:X;X@X:X:X:X:X;X|.@X|.M @XOXOX@X@XW.u.M 4 Z k.k.w.V.XX X@XV.9 i 9 i i M ) V.",
"[ b t i i F D N t.[ n 0 _ E.V.x.v.].=X@X:XOXOX:X2X2X1X1X2X2X2X;XOX|.|.;XC.4.;XOX+XOX@XOX+X].j.Q 0.A.N.l. X^. X X( e i i i ' ' ' ",
"#.b i e i P K ( U U %.%.l.J.l.V.@X7X1XOX;X;X;X;X&X@XW.U.f.$.$.( U | $.$.H ` ].|.OX@X@X@X@X&X:X{.J f n.x.W.). XXXY.8 G a I #.#.#.",
"+.b i i G i / $.s.Y @.[ N.l.W.1X2X1X@X;X#X1XOXU.V.J.H v y y L P L L y n P [ ( [ i.Q.|.@XOX@X&X@X@XN.Z 0.x.XX X X@XU.q b 7.#.O.O.",
"8.I 9 i b +.d.) t.s.F } P.OX2X2X1X;X;X@XU.V.V.D.R.XXa.N E y y F y y n F p L Y P r n [ V.OX@X+X+X|.&X].6.v U.@X X).XXT.1.) O.%.#.",
"U J N [ #.%.s.#.[ %.x.E.|.2X@X:X@X|.W.B.C.R.~.~.Y.^.M.N { L L L U Y L F y n y y p L F L 0.V.&X-X|.|.@X@Xl._ !.@X).).XXXXV.i.J U ",
"n U ) %.[ L %.%.P  .!.OX@X;XOX:XOXn.V.~.~.R.R.R.~.).C.+ n F K | F 8 t U L r L L F F P [ [ F 3.OX@X!.!.@X&Xi.M !.@X X!._.#X@XI Y ",
"%.Y Y I J O.-.L l.W.:X;XOX:X:X!.n.R.~.R.R.R.~.R.M.V.E.W.,X2XN.OX;Xn.l.3.^ 0.J n r U Y P Y U o ,.U.OX!.OX+X@Xi.H V. XXX XXXY.B +.",
"@.%.%.-.U [ t 1.`.=X;X<X:X2XT.M.^.R.Y.R.~.S.M.y.&X[.3XrXqX@X&X2X<X3X8XV.k.E.N.v.3.I Y +.E   1./.| B.&XOX|.|.@Xi.k V.Y.).%XV.Y %.",
"L [ +.) J 4 Q `.@X;X|.@X<XE.U.~.R.Y.~.R.n.E.<X|.W.<X3XqX@X;X4X3X3X3X7XM.F.V.B.J.L.x.6.I k 9.x.A.A.1.x.-X|.{.@X|.1.Q.@Xn.V.| I [ ",
"T.V.Q k b b j.|.<X:X@X@XU.U.~.Y.R.^.D.V.&X[.n.} j.;X#XOXOX8X2X2X<X;X<X} P.L.J.J.B.B.L.N.Q A.f.v r.T.( l.OX+XOX&XQ._ |.&X<X|.!.n.",
"8XqXW.2 q 2 E.2X:X;X:XV.V.~.Y.Y._.S.2.9XwXoX*X;X;X7X|.V.u.N.p.v.N.n.n.4.0.l.B.J.J.B.N.L.J.1.( c.d.A.m.Q N.@XOXOX&XN.1.3X7X0X7X|.",
"3X3X2XQ Z j.2X<X;X1XW.M.^.R.R.).M.# w.3Xu.@XtX<XN.L.U.|.3.U.T.Q.(.Q.Q.{.U.x.p.u.B.L.B.J.B.L.l.m.m.m.m.B.6.U.+X!.+X&X( U.0X3X{.<X",
"8X8X6XQ G.<X2X1X:X|.n. XD.R.).C.W.5XJ.0.oX!.@XV.U.(.).XXn.B.Q.T.Q.L.V.T.Q.Q.(.A.x.l.V.J.N.B.J.l.r.m.M.n.c.t.W.!.{.;XQ.Q @X=X@XwX",
"W.T.V.0.L.2X:X:X2Xu.b D.).).M.].8X8XW.,X0XN.V.|.).!.R. XV.N.+X(.(.Q.Q.Q.(.T.T.Q.Q.,.j.n.J.N.B.L.l.d.A.c.p.c.6.|.|.@X@Xl.H J.N.R.",
"). .M J.!.@X2X2X|.J.G.5 y.R.l.7X7X#X].;Xx.Q.).!.!.)..X XS.` x.x.x.i.p.A.T.T.U.T.6.*X7Xl.x.J.B.B.U.u.f.f.6.0.t.B.|.OX@X!.Q A.S.r.",
"A.R.1.L.|.;X3X2XL.|.|.E.Q O ].2X=XM.} M.).).T.!..X).n.} Q 5.' Z 5.Q Z q.| i.A.n.I.7XwX1Xl.n.J.N.B.B.| f.8.M.Z.i.|.|.OX@Xp.6.n.n.",
"M.n.N.!.OX1X7X|.W.@X|.|.J.E.;X|.OX#Xp.(.).!.). XV.| Z 1.| ' 1.| i.0.1.d.t.8.( Q 9X7X2XwX2XN.B.B.N.V.x.6.| 8.f.t.E.OX|.OXL._ T.T.",
"Y.V.J.|.1X1X:XJ.OX|.OX|.N.J.;X7X0XU.+X.X(.).).p.Z 1.q.J | / ` [ i.6.6.t.8.8.8.' N.8X7X7X7X2Xr.J.B.N.E.j.f.m.U 5 3.&XOX|.].1.M.Y.",
"j.0.W.OXOX:X{.`.:X|.|.E.OX6X].<XOX@ V.XX+X X6.Z 6.1.| ' 5._ 2 A 6.k #.d.t.$.8.8.| x.<X&X=X:X|.p.J.N.J.N.c.h.f | ( |.-XOX+XN.Z M ",
"N.N.W.OX|.;XQ.|.;X|.{.W.8X7X6XOX} d d  .).x.w.0.Q 6.6.0.` m z.,X*XoXE.| #.8.8.8.d.#.l.2XW.@XwXJ.x.B.N.E.6.g K.m.J x.-X|.@XQ.0.3.",
"1.N.<X@X=X|.J.&X!.@XU.@X8X2XwXOX+ C C @ f l.0.m S _ 1.` 1.B L.wX0XwX0X6Xl.U f.t.8.d.' |.V._ <XOX6.L.B.E.N.| f.[ p.| @X@X;X@X` j.",
"B.l.!.#X;X|.E.|.!.@XN.|.7X3XqXr.# m V g 4.0.Q 4.l.} 9.q.| ( j.2X3X;X<X>Xr.0 ( f.t.8.s.x.W.v.l.n.Q B.J.J.B.[ A.A.f.b OX:X-X;X} j.",
"j.} V l ( | &X@XOX@XE.x.@XwX2Xf f x A x m 5 6.0.p.1.| ' 5.z.` 1X3X7X0XM.i R i | t.#.8.| W.l.J.|.J.N.L.J.J.r.=.F @ # J.;X@X@Xl.Q ",
"B.n.( $ h ^ <X:X!.|.} V.h.R.V.s g g x ^ 4.5 x x.k N Q 5.x.Q S E.V.W.|.P p P W F #.#.t.8.u.W.p.].7Xu.E.J.E.6.,.`.*X*XV.@XOX@XV.0 ",
"U.} @ e.`.Q.,X;X|.Q.G.`.P.4.l g x g j ` 6._ 9.( M t.( M ` v.E.{.N.% 6 G { G { { ( $.8.d.| J.f | 6.1.E.J.J.l.*XrX8X8XW.@XOX;XW.0 ",
"j.1 4.`.!.].,X-X{.J.6XwX0X7X} 2 g g f Q Q Q 1.k _ -.=.J e.1X@X|.r.> i q { T F p v 8.8.t.d.N b.z.z.0.J.J.V.N.|.8X3X7X[.|.|.|.OXM ",
"v.C *X|.!.!.2X-X].L.3X7X3X6X_ d x d x r.R b b d g =.-.t.k.|.;X;XX.& 9 9 k b 6.V.r.8.t.t.d.i.c.q.f.6.J.J.J.N.].qX2X8X|.{.@XOX@XQ ",
"u.H.:XOXL.J.;X{.OXU.<X6X3X3XM g V V C =.P 9 p 1.Q v E ` x.M.R.R.i & & X i.|.!.%XY.7.8.8.d.8.d.6.d.6.J.L.J.B.W.0X6XrXOX{.@X@XOX} ",
"0._ _ u.u.j.n.V.|.J.2X7X3X2Xz x S C S t.P : 8 $.$.I U J M.g.g.h.V.y.t.J p._.C.D.h.d.t.d.d.6.d.q.d.0.J.J.L.J.Q.7X<X[.v.x.0.Q ^ 9.",
"J b 0 0 M m x m | } |.3X8X6XQ f V V ^ $.e e t b 0.f.V.x.y.M.g.h.D.R..XR.U._.S.~.p.I [ $.t.6.d.q.d.0.L.U.J.N.N.V._ @ k M t v b J ",
"3 6 ; 3 F 5 J i 0 0 J r.U.2Xu.# V :.S ] t i e | {.R.(.).6.g.g.m.D.).XXy.V.).^.).y.@.{ [ ~ 6.d.q.d.6.B.B.j.3.J b 0 t t 8 8 6 ; 3 ",
"8 6 3 3 t 5 i ; ; 8 > t + z _ f x Z V ] P t p F A.R.R.).!.] $.y.S.D.p.,.1.u.Y.Y.{ *...;.{ q.i.t.i.0.u.( M ; ; ; 3 ; ; 3 3 3 3 3 ",
"q 0 3 8 0 5 t & & & ; > i 8 Z 2.Z V c Q E t F , 6.).R.!.Y.*XoX}.E.2.,.i.j.' 0.| *.W W *.[ d.t.i.u.1.q ; - - * 3 8 8 8 9 3 3 0 q ",
"t t 8 6 5 5 8 > > ; ; & & > 9 D M m V d ] P t , 6 n. XD.W.7X8XqX7X1.j.x.p.Z ` { *.W ..{ 6.d.j.| t ; 3 3 3 3 3 3 ; 0 6 0 3 8 t t ",
"p i e t F F q 8 ; ; > > = & ; > t z j.` 0 E 9 8 e t M.Q.5X7X2X2X>Xj.v.0.S <.$.*.W W *.] z.p.J 9 8 3 3 8 8 * 3 M r.N.Q M F t i p ",
"8 9 9 9 9 9 t i t t 8 ; > > & & ; > D N.} 9 i ; 9 e 8 0.;X7XqX7X0XW.b ^ 9.@.*.W W *.T 1.l.t 8 8 3 3 8 - 0 3.N.E.W.OXl.3 p , 9 9 ",
"p i e e t e 9 8 9 t i t 8 ; 8 ; & = ; % l.l.9 e , 9 G t 8 r.U.R.^.y.M  .*.&.W W *...j.0.; 8 ; 3 8 3 4 0.U.{.W.W.U.W.N.k G e i i ",
"D t q t i > e t t 9 9 e p D 3 i 8 = ; ; ; y.3.e G t e i p D F W T *.;.*.W W W ;.W u.r.0 8 3 3 8 3 ~ J.].W.U.U.E.Q.].U.5 v t t D ",
"V.c.m.( 1.N.J 6 > e t 9 F F 2 f t 9 = & > & y.p.% , G { { U { &.....W W W *.*.T l.r.8 8 3 3 3 4 u.W.W.W.W.E.W.W.N.l.i.q.i.c.m.m.",
"c.f.A.6.`.<XOX].p.q - G R f c x j b 9 = & ; ; p.3.( F P @.] =.&...&...*...T [ 9.j.0 8 3 8 - 0 G.].W.U.W.].U.l.6.i.f.Z.A.f.f.m.m.",
"f.m.A.6.*X@X@X1X1X@XB.D 3 x V V V j 0 8 ; & > % l.|.|.6.( M { W W W W R [ i.b.j.; 8 3 8 % Z P.W.U.U.W.Q.N.0.t.c.m.M.c.f.f.B.M.m.",
"c.c.f.2.2X2X<X=X;X1X7X&X} O x V V S V z 9 & & ; q n.1X1X@XQ.V.M.n.T.6.6.Z.m.6.q 3 ; 6 ; Q E.W.L.U.W.U.r.i.m.m.f.f.m.c.m.m.f.f.c.",
"].U.W.v.V.!.;X<X1X2X1X1X=XN.s j V >.>.x b 9 & ; - H W.#X;X1X<X<X%X<XU.$.Z.M 4 0 ; ; ; 0 J.W.U.W.].B.6.c.m.f.f.m.M.m.t. .( J.U.}.",
"3X7X8X2X;X{.L.U.:X7X:X@XOXOXJ.g V >.^ V f b 8 & ; > 6.W.@X@X<X#X@X%X^.| i.l t 3 3 8 0 N.W.W.W.|.B.6.m.f.f.c.M.m.t._ 2.G.` 2X3X3X",
":X<X:X:X1X2X2X@XE.|.<XOX!.|.<X{.f x C S V f i ; & ; t n.).<X2X<X<X3X;XQ l.D 8 ; 8 8 l.|.W.W.].N.i.B.f.f.c.M.6.6.B._ z.U.0.+X1X:X",
"2X7X3X1X<X<X<X2X<Xl 6.OX@XOXOX1XW.2 V C S V z q & ; % 3.u.V.U.V.C.U.V.0.3.; 3 ; D M } T.].].V.6.M.m.f.m.m.0.0.| | e.L.L.i.].7X2X",
"oXW.U.OX<X2X<X4XM.0 ; K ].|.|.OX2XB.# C A C V D , & & 9 l.i.t.t.t.d.d.v.0 3 ; 0 J V j x n.U.0.m.f.c.m.f.} ` L.6.9.P.N.i.9.j.|.*X",
"|.J.Q 0 ] V.;XXXk 9 % . 0 ].OXOX;X1X1.j S V V Z i ; ; % 3.n.f.f.f.f.x.} 6 8 3 D M V C x @ Q m.f.f.m.m.0.N.x.p.i.L.i.j.G.].5X2X2X",
"7X#Xk D 6 + K H 8 % . & X ~ OXOX;X1X&XV A S C V J , & & D N.t.t.c.f.u.b 3 ; 0 J j C x j V N.M.c.c.n.( j.x.i.0.x.v.`.<XrX8XQ.N.OX",
"tX<X5 i 9 i 0 0 * % & & 9 - r.;X;X;X2XN.h >.S V z i ; ; % p.x.f.m.x.3.; 6 ; t l f x g # 9.A.f.c.m.6.0.` ` | M F.,XrX0XwX7X&XqXwX",
">X} 4 i , > > , 8 3 8 > 8 t ; W.;X@X@X@XZ A S A x D > ; % } 6.t 6 1.} ; 3 6 b 5 x x f g m.f.f.m.t.g ` v.P.v.F.eXtX>Xy.@X=XU.;X#X",
"5.5.` 7 9 8 & , t q ; - ; 9 > ( :X;X:X6Xn.# C C j z 9 & & F l.F v l.J ; ; q b f x x 2 | B.f.f.c.J F k 1.t.k.}.0X<X].J.l.J.r.M 5.",
"q.i.q.i.N 3 , 9 9 7 8 * ; 8 8 * W.2X;X1X|.2 V C V x t ; ; 6 ( J ( 0.t 3 ; b x A A V j x.m.f.m.8.0 t 9 b h 9X0X4.5XwX!.| G a ( q.",
"5.7.6.i.D 0 ; 8 6 9 9 6 8 8 > > } =X&X:X<X_ j Z V x D ; ; 9 0 0 | l.3 D t J c C C x Z B.f.f.m.( t 3 8 X P.qXwX|.wX^.9 G a a J 5.",
"#.i.i.Q q w 5 4 q q q 0 0 t ; 8 0 Q.;X&X;Xn.@ x V V v > = 8 0 2.z.2.x 5 5 k A C m h 0.T.m.m.f.t 9 ; ; H <X;X8X#X`.R T a a P G ) ",
"6.( ( M D b D q z x D q 0 D e e ; V.2X;X@XV.j 5.6.q.q > ; 8 6 L.oX( P F ~ m V V V c Q $.$.A.6.8 , 8 - J.wXqX#XQ <.K u G a < K w.",
"|.| ` l c K b J M J D 9 6 6 6 z 5 v.2X@X@X].[ -.o.W t & ; - 9 u.U.G 9 9 a M x A C x j.u.9.z 0 9 - ; 0 v.8X3X4.H.E.L.i.a i P.5X6X",
"!.+.m.6.f q b 8 6 z 8 8 9 ` H.H.E.v.&X|.@X;X[ W T E p ; - % 8 2.l.i , 9 a M V C V V Q.p.U.~ 0 t 8 9 v 0.B.` V v.E.T.Q.f.H.0X7X7X",
"B.t.c.c.m V M J b 9 = > , l.!.N.U.x.].OX:X;X[ E E o.F 6 ; & t 5.k.G > > G ^ S S m x B.M.r.j.b t ; 8 J {.+XoXG.0.L.L.T.N.5X3X7X7X",
"( c.c.i.5.q.| 6.( > = 9 O 6.L.N.J.j.!.&X1X<X| o.E @.U 8 8 9 P w.v.{ i 9 R ^ S Z V m !.A.x.T.F t ; - _ XXXXXX).u.B.c.m.| t.U.{.;X"
};
