/* XPM */
static char *_cf43886048441e79599069055ec7c7d[] = {
/* columns rows colors chars-per-pixel */
"64 64 82 1 ",
"  c #020100",
". c #090602",
"X c #0D0A05",
"o c #0E0C09",
"O c #110D07",
"+ c #110E0A",
"@ c #14110D",
"# c #161412",
"$ c #181713",
"% c #1B1915",
"& c #1D1C1A",
"* c #201F1C",
"= c #22201F",
"- c #252422",
"; c #282725",
": c #2D2C2A",
"> c #302F2D",
", c #32312F",
"< c #353432",
"1 c #383735",
"2 c #3A3936",
"3 c #3D3B39",
"4 c #403F3D",
"5 c #42413E",
"6 c #454442",
"7 c #484745",
"8 c #4A4946",
"9 c #4C4C4B",
"0 c #504F4E",
"q c #51504F",
"w c #535352",
"e c #585755",
"r c #5A5956",
"t c #5C5B5A",
"y c #605F5D",
"u c #62605F",
"i c #646362",
"p c #696867",
"a c #6C6C6B",
"s c #BEBBB6",
"d c #C1BEBA",
"f c #C8C5C0",
"g c #CDCAC5",
"h c #CECCC8",
"j c #D1CECB",
"k c #D5D2CE",
"l c #D8D4CE",
"z c #D5D4D2",
"x c #D9D6D2",
"c c #DCD9D6",
"v c #DEDCD9",
"b c #E1DFDC",
"n c #E3E1DE",
"m c #E6E4E2",
"M c #E8E6E3",
"N c #EAE8E6",
"B c #EDEBE6",
"V c #EBE9E8",
"C c #EDEBE8",
"Z c #EDECEA",
"A c #EFEEEC",
"S c #F1EFEB",
"D c #F1EFEC",
"F c #F1F0EE",
"G c #F4F1EE",
"H c #F7F4EE",
"J c #F3F2F0",
"K c #F4F2F0",
"L c #F6F4F1",
"P c #F4F4F4",
"I c #F7F7F7",
"U c #F9F6F2",
"Y c #F8F7F4",
"T c #FAF9F6",
"R c #F7F7F8",
"E c #FAFAF8",
"W c #F9FAFA",
"Q c #FBFBFB",
"! c #FCFBFB",
"~ c #FEFDFB",
"^ c #FCFCFC",
"/ c #FFFFFF",
/* pixels */
";;;,21<:,:;-;3,9W//////~//~///Fm0$:---:2;*-*-:#9MT////AW////M/T/",
"3>1841>-----::+9I//~/////LY//LZWr:553<<6732:<2%9MT////LJ///////K",
"3:>:---;---;::->m/////!//T~Y/F/Wr,<,1237w551:; wZ////KBLm/////~S",
":::::---;:2>-;o9Y//JLKn//////W/W9-32;-::==----=;n////LkK///L////",
":<1,233564<:-; rmW/mI/mJ///////W9-<:::;::-:;-;X8I////T~W//Jn////",
";:,::<26553,:- wMW/jI//!////A//W9+:-----<;::-;@9W/////~///CC////",
":,,;;;;-;23613<<N//T////U//!L//W9X;;:::-<1-::;$9W/////////nS////",
">,;;:::;:3<<>336C/~Y////~G/////W9.>>>:;-:<--;: wK//DW//////mI///",
"<53,;;-;:;:--- qW//LW////H/////W9X:-----;:;--: rcmKKW///T~/NkxW/",
"3<,1<,:;-----;X9W///W~//Db///W/W9@;--;;---;;--owxI//////////DZ~G",
"::::,::::;;--:.9WIY//!I/W/////!I9o;;;--;;;---:@9~///////////////",
"-----;-*==---;o9W/W////////////W9 ;------;;-::+9W///////////////",
"-------:::-*=:*9W/T////////////W9 ;---:;--;-::@9W///////WlcI/W//",
";;-----;::::;:+9W//////////////W9=1::;::::;;:<$9W///////bc/T~Mm~",
"@*#       +X.X 6W//////////////W7 ===+$$@@X&-% 6W///////F//////L",
"89w999986799996iJWWWWWIWWWWWWWWJyqq9q97999w99w9iNWWWWWWInTWWWWWW",
"WIIWTWWWW/WWWWWIu69999799999996tZFWWWWIYWTInWWWIt799999q48999999",
"Y/T~///!WD/////W8 + o+@++++X+= 7W/////////Ix///W9 =#@o&:=#X. .  ",
"I//T///ZIY!//T/Lw$::-:-;:><<173wW//////////ZD//We12<:-::::::-;::",
"/JYvZ//MW/!////W9$3,:><1;==;;3<eW////////~//II/W9*1:;=---&&&=-%&",
"KK/Wj//AT!/////T9@3332<::;--=- 9F!//////////Tk~W9=,---=,5<23213:",
"////SW/////////Ww&::26;:;---;;OwDT!/////~T///MY/9$:;:-;333<<2192",
"///N///////////I9$<::59<-----:X9/KS///!ZMbV///Tx<-;-:;1935<::=:-",
"~mgT////WL/////Z0@1>:<32;-;--;.9W/I//!YCIYn///Wf8->:;=,5<<;;--:-",
"lNn!////IZ/T///W9X:-;3433,-;;:&tW/////////~Y///W9&<<1<13,*-&--::",
"J//////////FU//W9@:::363<73--::eW////UT////JF~/W9@:::<31:;==-;;*",
"/T!/////WM//!LWRq@<,:;,38<<<:<%9W////SL////Il//We>5<32*--;=--&*&",
"////////SN////Nbw$,::,<7q,:<<:@9W//~~WnTTLFNmW/Leq913<<;;-;;:::;",
"///////T!F/////I9$,<,::<<,:;<<+9W/~///WLT!W////Z92,,133<:>1<<::;",
"////////Wk/////S8*:261>:,><423<wI/JJ//////////Wnp$2362::><<:----",
"/////////////!~W6 -&*&$=&&>2:12wW//Fm/////~////K9 $;,-;=-#ooX+  ",
"WKIWWTWWWcJWWIJIawew99q6909et47iJWWFzLWWBjjIWWWKy6w99999qw99ew99",
"969099999-799w9anCWWWWWJIWWIhV/Ji79rtq9q5>9iyw7iI~Vm/WWWIWWWLLTW",
"#X.oXXX$X-%@*# <c//////////Kc//W7 -,==*::3;$#$ 9I/vL/////////~/~",
":-=---::--;<:<-8I/////////YU/KYIp11:::<33q72<:-3Z/z//////////KGG",
"-162:,,----;;:X9ImY/////////~LZCt>3<<,<2121<:1&qW////////////LY/",
"-:351<;&-;;--;.9TYWW/////////W/Wr;:;<6631;--:<&9W///////////////",
"-=$#&=-=-&---:&q///vZ/KY////!!/W0=<<>,-&&=-:->;9W/////CF////////",
"-&:4<::,<<:-=--6n///W///////IL/Wp21:,------::;&5z///!Knn////////",
"-:161;-365<<>;@6BT///W/////~!/WLrX--:-=----:;,:tL///LBWK////////",
"-151<1-<<;-:23-9/Y///WL/////W//V,=;-;:-;--;=;67wW/T///KY//////GI",
"3q3-36:,>;--<1&eW///////JW//mJ/I9#;--:;-;=>::<X9W/Y~//T!////~WUN",
"98>:<<44---:<1:9M///////mc//AA/Ww-:----;;192;:$wT/~//~!/////!T//",
"9,;----6<--:11&8J///////Dj/////W9;5::,,:<6<;::=e/UL////////G~///",
";---;;-<:::;,::eW//////Y/v/~/DFW9.<:::<112>:>,oeZST//////~!/////",
":::::::<<322<63wW~/////~/LW/~Y~W0-315;:,123::,-wD//K///////G////",
",,+ --=,;--:-3%eKL////////B///FI9 =::@@ +;:,%= 7W///jc//////////",
"te9qtyqwwrw,ww7aMLJWWWWWW/dz/IWLt2w09weut3q8976iJWWWbmWWIJWWTWZC",
"IJIWWWYTAFBmWWWAarttpyrq9q83997pMKWW/TTckMWCIJWIp8w9rt9098w00w53",
"///~///W///////Ww>35;=-$o@&&@& <J///vm/LT/L////W8 ;,--*@$$+@%=*-",
"M/WA/~L////!~//T9;333<1<::::;:&eW/LTcW///~L/WK/W9:532232:,,:<<::",
"//////L////~/YTW9X;2q31:;;-;<2<uI/TYI/W~!!/////W9X<2323<:::,<:;;",
"M////TZ/~///~mcCe@:34<1:;-::42=8F////Tv///W////W9X:,<>>::>;--;:>",
"m////KL//////xFKw$<,23,,;<33,<-9F/////////~////W9.1,2;-><<;----:",
"W////~////////Mvt:3::<<,<<><,,$wW/WT///////////W9+:-;-;--;--;-:<",
"JT///~////////IB8:3,:;33<::,<2;wY/cM/YMS~//////W9+-----:,:---:<3",
"LcW/////!//////W9<3;22><1<,,,,>yI/ks//TLI//////WwX;;;:-;:---;>:6",
"/kC//L////U////W9$:>9t9<;:153<;uW/nd////L//////W9+;------;:1,---",
"/Fb/KK/~//!KT//Wq*:<:6rr6,>;:<*eW/YU///WZ//DnBcnq ------;1>-----",
"~Lc/mF/Y~///bW/Wq27::-2r01:;::+9W/LZ////~//NJFMI9 -;-----;=-11-;",
"//U/IF///WWKFZ/W9,3>:::2993,;:$9W/WZ///~S//////W9 -*=--;:12:37:-",
"//!TT//////T!!/Ww*::::::3123:,%9W/WF///////////W9 ----:37451:2<:",
"//GnT//////////Wr;<>;;:,206:>,@9W//////!K///T!/W9 ;::,<4221-:<3:",
"///!/G~~BnFBWU/T9$<<<;-:;30<::%8I/////////~I///W9X:;-:<<:;:->:1-"
};
