/* XPM */
static char *_3fa9bcc216a452fbc5f479183cbbbb9[] = {
/* columns rows colors chars-per-pixel */
"64 64 164 2 ",
"   c #675B48",
".  c #6C614F",
"X  c #6E6353",
"o  c #716657",
"O  c #716759",
"+  c #746A5B",
"@  c #786E5F",
"#  c #746C62",
"$  c #7C7367",
"%  c #7E766A",
"&  c #726C7E",
"*  c #7F7B73",
"=  c #80776B",
"-  c #827A6D",
";  c #837D74",
":  c #857F78",
">  c #838076",
",  c #8A8274",
"<  c #86847C",
"1  c #89857D",
"2  c #8B887F",
"3  c #948A7E",
"4  c #998F7F",
"5  c #6B698D",
"6  c #746F81",
"7  c #726E8E",
"8  c #767082",
"9  c #797384",
"0  c #686692",
"q  c #767393",
"w  c #7A7795",
"e  c #7F7C95",
"r  c #77749A",
"t  c #7E7B9B",
"y  c #817F93",
"u  c #827F9A",
"i  c #878780",
"p  c #8B8680",
"a  c #8D8A82",
"s  c #8B858C",
"d  c #8E888C",
"f  c #928E84",
"g  c #988F82",
"h  c #928D8C",
"j  c #939187",
"k  c #9B9285",
"l  c #95938B",
"z  c #9D9589",
"x  c #9C998D",
"c  c #858196",
"v  c #85819B",
"b  c #8A869C",
"n  c #8D899D",
"m  c #948F93",
"M  c #928E9D",
"N  c #9D9A94",
"B  c #9C999F",
"V  c #A0978A",
"C  c #A29A8C",
"Z  c #A69F92",
"A  c #A89F91",
"S  c #A09E99",
"D  c #ABA393",
"F  c #A3A19C",
"G  c #AEA79B",
"H  c #AFA99D",
"J  c #B1AB9E",
"K  c #8784A0",
"L  c #8A86A3",
"P  c #8E8AA2",
"I  c #8F8CA8",
"U  c #928EA3",
"Y  c #9591A5",
"T  c #9A95A5",
"R  c #9E9AA6",
"E  c #9592A9",
"W  c #9995AB",
"Q  c #9D99AC",
"!  c #9E9AB0",
"~  c #A29EA4",
"^  c #A29EAC",
"/  c #A29EB1",
"(  c #A6A2A6",
")  c #A9A5A6",
"_  c #ACA8A5",
"`  c #A6A2AD",
"'  c #A9A5AD",
"]  c #AEA9AD",
"[  c #B4ADA1",
"{  c #B1ACAE",
"}  c #B6B0A3",
"|  c #B9B2A5",
" . c #B5B0AD",
".. c #BAB6AB",
"X. c #BEBAAE",
"o. c #A6A2B1",
"O. c #AAA6B2",
"+. c #ADA9B3",
"@. c #ABA7B9",
"#. c #ADA9BB",
"$. c #B2ADB3",
"%. c #B2AEB9",
"&. c #B6B1B5",
"*. c #BAB5B5",
"=. c #BCBAB5",
"-. c #B6B2B9",
";. c #BAB5B9",
":. c #BEBBBA",
">. c #C2BDB3",
",. c #C2BEBB",
"<. c #C5C1B5",
"1. c #C9C3B6",
"2. c #C5C1BC",
"3. c #CBC5BB",
"4. c #CEC9BC",
"5. c #D1CBBE",
"6. c #BEBBC5",
"7. c #C3BEC0",
"8. c #C6C2C1",
"9. c #CAC6C1",
"0. c #CEC9C2",
"q. c #CECBC9",
"w. c #D3CEC3",
"e. c #D3CECA",
"r. c #D6D1C4",
"t. c #D9D4C7",
"y. c #DAD5C6",
"u. c #D6D2C8",
"i. c #DAD5C8",
"p. c #DBD6CA",
"a. c #DCD7C9",
"s. c #DCD7CA",
"d. c #DED9CA",
"f. c #DDD9CC",
"g. c #DEDAD1",
"h. c #E0DBCB",
"j. c #E1DBCD",
"k. c #E1DCCD",
"l. c #E4DFCF",
"z. c #E0DCD1",
"x. c #E3DED0",
"c. c #E6E0D2",
"v. c #E7E2D4",
"b. c #E9E3D3",
"n. c #E6E2D8",
"m. c #E8E7DF",
"M. c #EDE9DB",
"N. c #DBDBE4",
"B. c #DFDEEA",
"V. c #EAEAE3",
"C. c #E9E9E5",
"Z. c #EBEBE6",
"A. c #E3E2EC",
"S. c #E7E6EF",
"D. c #F2F0E7",
"F. c #F5F3EC",
"G. c #EBE9F0",
"H. c #EFEDF3",
"J. c #F3F2F4",
"K. c #FDFCF6",
"L. c #FFFEF6",
"P. c #F4F2F9",
"I. c #FFFFFB",
"U. c #FFFFFF",
/* pixels */
"% a :.=.*.=.=.=.2.2.:.*.=.:.:.:.=.=.:.2.=.=.:.2.=.,.*.=.:.:.F : a N :.:.2.:.=.=.=.=.:.=.:.=.:.=.=.=.=.*.=.*.:.:.:.=.=.=.*.:.N # ",
"l V.L.I.U.U.U.U.S.J.I.U.U.U.I.U.U.U.U.U.U.U.H.A.U.J.U.U.I.U.D.f < C.U.L.U.I.U.U.U.U.U.U.I.U.U.I.U.U.U.U.U.U.U.U.U.I.I.U.L.I.D.j ",
"l z.y.9.%.W Q 9.O.o.w.r.,.w.d.d.f.f.0.:.w.u.U Y 9.b E @.q.k.j.C j z.s.4.=.O.-.y.f.v.i.r.0.4.f.f.r.f.r.9.i.j.d.f.i.+.W ;.r.k.d.Z ",
"1 >.*.Q +.+.2.,.:.9.2.:.&.^ 0.2.,.0.Q +.%.&.&.%.=.,.O.o.Q 9.r.k p <.3.^ W O.O.O.0.w.;.3.W &.l.s.k.h.&.Y 0.&.w.9.Q E Q E +.n.w.k ",
"f =.U %.:.;.w.d.2.+.-.;.;.:.&.W Q &.;.&.+.E E ,.k.w.;.:.+.o.5.k < <.' W ,.-.:.` / +.;.;.O.%.:.2.,.,.&.O.;.%.O.E Q %.%.8./ :.r.C ",
"a >.U ~ &.Y 0.s.s.>.,.%.r.j.i.w.r.i.j.r.+.;.0.y.s.3.P ;.+.Q 4.k p =.Y ' %.+.+.;.2.0.d.i.w.w.o.%.+.^ w.w.i.k.0.,.%.^ ^ +.O.+.3.C ",
"f >.U =.w.2.s.r.r.4.s.d.s.i.i.r.i.i.y.s.d.d.s.y.i.r.,.u.9.#.5.g < >.~ ^ =.+.O.i.d.s.i.i.i.d.y.s.i.r.d.r.y.y.i.d.i.o.o.;.+.&.4.V ",
"f >.=.,.d.d.i.y.i.r.y.i.i.i.i.y.i.4.r.i.i.i.i.i.i.r.r.d.9.e.w.k < >.3.^ o.;.i.i.i.i.i.i.i.i.i.i.i.i.i.i.i.y.r.i.i.i.;.O.;.f.5.C ",
"x M R =.3.d.i.i.i.i.y.i.i.i.i.i.s.w.5.s.i.i.i.y.r.i.r.=.$.+.R C < =.3.1.Q 2.d.i.i.i.y.i.i.i.y.i.i.i.i.i.i.i.i.i.i.d.,.^ w.k.3.C ",
"x ) Y ,.+.w.i.i.i.y.r.i.i.i.i.y.r.i.r.i.i.i.i.i.y.y.>.E ,.W ) C < >.3.3.+.w.s.i.i.y.r.i.i.y.r.i.i.i.i.s.i.i.i.i.i.i.3.+.y.k.4.z ",
"f >.3.&.+.,.d.w.y.i.i.y.r.i.i.i.y.i.i.i.i.i.i.i.y.d.&.v ;.f.3.k p >.4.] ' d.i.i.i.i.i.i.i.i.i.i.i.i.r.4.s.i.r.y.i.r.k.;.7.k.4.z ",
"a <.>.&.-.%.d.r.i.i.i.i.y.i.i.i.i.i.i.i.i.i.i.i.y.y.O.^ ;.u.5.k 1 <.3.1.] y.i.i.i.i.i.i.i.i.w.y.i.s.r.3.f.r.w.i.y.w.i.;.u.f.4.V ",
"a <.] ` $.r.y.4.y.y.i.i.i.i.i.i.i.i.i.i.i.i.i.i.y.y.<.' %.,.5.k p <. .b ` r.i.i.i.i.i.i.i.i.y.i.i.i.s.r.i.i.r.i.i.i.r.+.o.0.5.k ",
"1 >.=.Y &.k.y.y.i.r.i.i.i.i.i.i.i.i.i.i.i.i.i.s.w.w.s.&.^ u.5.g < >.>.&.%.>.y.i.i.i.i.i.i.i.i.i.s.w.r.4.r.s.r.y.i.d.w.*.,.i.4.k ",
"a =.4.=.$.s.y.i.i.s.i.i.i.i.i.i.y.i.i.i.i.i.i.i.y.y.y.%.w.k.5.k p >.3.y.:.Q i.s.i.i.i.i.i.i.i.i.i.y.y.s.i.i.i.i.i.y.^ 2.c.f.4.z ",
"a >.4.*.W 3.y.i.i.r.i.r.y.i.i.i.r.i.i.i.i.i.i.y.i.y.w.W 2.j.4.C p >.4.5.:.+.i.w.i.i.i.i.i.i.i.i.i.i.i.i.y.i.i.i.i.s.%.,.k.f.4.C ",
"f X.5.=.E 0.y.i.i.r.r.i.y.r.i.r.s.i.i.i.i.i.i.i.i.w.w.P e.M.3.k < >.w.w.=.' 4.w.r.y.i.i.i.i.y.i.i.i.i.i.r.y.i.i.i.d.%.2.z.f.4.z ",
"j >.4.1.%.s.i.i.i.i.y.s.i.y.i.y.i.i.i.i.i.i.i.i.s.w.y.] 9.c.w.3 1 >.>.k.,.^ y.y.y.y.y.i.i.y.w.i.i.i.r.i.y.5.s.i.i.y.Q 2.c.f.4.z ",
"a <.=.U &.j.y.i.i.i.i.r.y.i.s.5.r.i.i.i.i.i.i.y.y.3.s.&.T w.w.3 < 3.>.$.&.w.y.w.s.y.r.y.i.s.r.y.i.i.y.y.i.y.y.i.i.s.0.;.:.y.4.k ",
"f <.] ^ ' r.i.i.i.i.i.y.i.i.i.i.i.i.i.i.i.i.i.i.y.s.w.+.-.,.w.g 1 3.*.b ` r.r.s.i.i.s.r.y.i.i.i.i.i.y.r.s.y.r.i.i.s.r.+.` w.5.k ",
"a <.>.] ` O.d.i.i.i.i.i.i.i.i.i.i.i.i.i.i.i.i.i.i.d.` ^ %.w.4.k < 3.1.>.&.i.r.i.i.i.i.i.i.i.y.i.i.i.i.i.i.i.i.i.i.i.i.;.w.f.4.z ",
"< <.<.$.Q ;.j.r.y.i.i.i.i.i.y.i.i.i.i.i.i.i.i.i.i.d.&.u &.f.4.3 < <.5.] ] y.i.i.i.i.i.i.i.y.r.i.i.i.i.i.i.i.i.i.i.i.j.&.:.k.4.k ",
"j ( b =.W w.y.y.i.i.i.i.i.y.r.i.i.i.i.i.r.y.i.i.i.d.0.I 8.Q { C a >.r.0.` 3.d.y.i.i.i.i.i.i.i.i.y.w.d.i.i.i.i.i.i.s.w.%.i.k.4.z ",
"j M Y $.2.d.r.w.i.y.r.i.i.i.i.i.i.i.i.i.i.i.i.i.y.w.d.2.,.^ M C a 1.4.>.U :.d.i.i.i.i.y.i.i.i.s.w.w.w.r.i.i.y.r.i.d.2.+.y.j.4.z ",
"p >.*.=.d.i.y.y.i.y.r.i.i.i.i.i.i.i.i.i.r.y.i.i.i.y.s.k.8.0.3.k 1 <.3.M W %.r.4.i.i.i.r.i.i.i.i.y.s.r.w.i.i.i.y.i.i.,.%.;.f.4.k ",
"f >.U =.w.1.y.y.i.i.y.d.d.4.r.s.s.5.r.s.d.d.s.i.r.y.9.r.e.Q 4.z 1 >.R U +.Q T r.y.s.5.r.r.d.i.s.s.i.d.s.i.i.s.d.i.%.-.2.;.:.4.C ",
"a >.b ` &.Y 9.d.r.3.&.` w.h.i.w.w.y.s.r.^ $.0.d.s.,.c :.6.Q w.C a ..b U O.Q Y ' :.0.y.y.w.0.^ $.+.^ 0.r.i.k.0.2.;.+.+.&.;.%.3.V ",
"j X.n ` ;.&.w.y.*.L t Q ' $.' P P +.$.` Y 0 t ,.h.w.{ $.^ #.g.z p <.` L :.^ O.I U ` { *.` $.,.:.,.,.&.' ;.&.O.Q Q ;.&.2.O.;.4.V ",
"l .._ Y ` ` >.=.&.=.+.$.R n 3.,.,.3.U R ' ' &.$.:.,.^ ^ Q 2.1.z p X.=.R P W Y R 3.3.] 3.M :.c.5.y.h.&.W 3.=.w.3.` Q o.Q +.s.4.C ",
"> ..<.*.Y U U =.T n 4.1.{ >.5.w.r.r.>.$.3.4.c M >.n u U ,.y.<.g < ..>.1.] Y ` 5.5.y.r.w.=.4.5.1.5.5.3.=.3.5.5.w.5.` Y $.w.s.<.k ",
": k [ [ [ [ [ [ 9 m J [ | [ [ [ [ J [ | [ [ d 6 [ [ J [ | } C 3 : k J [ | J J | [ H [ | [ } [ J [ [ [ | [ J J [ [ [ H | | [ C , ",
"* * + o o .   X @ o + O O @ o . O + + O O X @ . + @ O O X o : 1 N : O O X O O X X o + X + o X @ @ @ + X . X O X O o + O o + < 1 ",
"1 N =.:.=.=.:.:.9.=.=.=.:.2.:.:.2.2.:.=.=.:.2.2.:.:.=.:.:.2.F p h S =.=.:.2.:.2.2.2.=.:.:.:.:.:.:.2.2.=.=.=.2.2.=.=.:.=.=.,.F p ",
"l C.U.F.U.U.U.U.N.P.U.U.U.U.L.L.U.U.U.U.U.U.G.B.U.U.U.U.I.U.D.N a m.L.I.U.U.U.U.A.A.U.L.L.I.U.U.I.U.U.I.U.I.G.A.I.U.U.U.I.U.D.N ",
"j z.d.=.Q Q Q 9.T n w.w.:.0.s.y.y.f.0.;.w.r.v c 2.I K E =.h.v.g i f.d.2.! Q W 9.^ c g.w.&.3.k.i.y.b.i.,.u.w.Y W 0.W Q o.9.y.j.Z ",
"1 >.=.Q ` ` ,.:.&.;.+.+.^ U 9.:.:.3.e Q ' ` $.+.:.:.W W w :.f.3 * 3.=.L o.^ 2.,.;.:.] ] ` W 0.,.8.w.U ` %.-.:.&.=.2.` +./ 9.5.k ",
"a >.b R &.&.w.s.,.E L ^ ' &.$.U U $.{ ` T 0 t ,.k.w.&.%.^ Q 3.k < >.b Q $.&.w.j.2.Q E ` +.&.;.E Y +.=.+.O.Q W 2.d.r.&.&.%.o.4.C ",
"a =.c ^ &.U 3.i.d.0.&.` w.k.s.w.w.s.k.w.^ $.0.d.s.3.P &.o.v 3.z p >.t Q $.P 3.d.s.3.;.O.r.d.w.r.4.y.d.w.O.;.0.d.s.0.U $.%.Q 4.C ",
"l >.b =.w.0.i.w.i.s.s.s.d.i.i.s.s.i.y.s.d.d.d.i.i.d.3.i.8.n 4.z 2 =.u =.w.0.d.i.y.r.s.d.s.i.i.i.d.y.w.d.d.d.s.y.i.d.9.w.0.o.3.C ",
"a >.*.=.d.s.y.r.i.i.w.w.r.y.i.i.i.i.i.i.i.i.i.i.y.y.y.k.8.>.4.V < 4.,.{ z.d.y.y.i.i.i.i.i.i.i.i.i.i.s.w.r.i.i.r.r.i.s.k.9.w.4.z ",
"f n M $.,.d.i.i.i.i.i.r.i.i.i.i.i.i.i.i.i.i.i.y.r.i.d.,.:.^ s A a n Y ' 2.d.r.r.s.r.y.i.y.y.r.y.s.y.i.y.r.i.y.s.w.r.d.2.,.O.T C ",
"x ( u &.E w.s.i.i.i.i.i.i.i.y.i.i.i.y.i.i.i.i.i.i.i.2.v =.Q &.C l R e $.P 0.d.y.w.s.y.i.y.4.4.i.y.w.y.y.y.i.i.i.y.r.w.Q 9.^ ] D ",
"f <.1.] I ;.d.y.i.i.i.i.i.i.r.y.s.y.r.i.i.i.i.i.y.j.+.r +.f.i.k < >.>.' L ;.r.w.5.s.r.y.i.r.i.i.y.w.w.w.r.y.r.r.y.f.;.Q ,.i.4.z ",
"1 >.>.' ` O.y.y.i.i.i.i.i.i.i.y.y.i.r.i.i.i.i.i.i.y.^ Y $.r.5.k < <.>.' ^ O.y.y.s.i.r.r.i.i.i.i.y.w.w.y.s.i.y.y.i.d.O.+.:.r.4.k ",
"a <.' R +.w.r.i.i.i.i.i.i.i.i.r.w.5.w.i.i.i.i.i.i.y.w.' %.,.5.C p <.) R ' w.y.y.y.r.4.r.i.i.i.i.i.y.i.y.<.y.i.i.i.y.w.%.%.8.5.k ",
"p <.>.P &.h.r.i.i.i.i.i.i.i.i.i.i.y.i.i.i.i.i.i.i.i.d.&.Q u.5.k a >.*.U $.d.i.i.i.y.s.5.r.i.i.i.i.r.y.s.5.w.s.i.y.w.k.&.^ w.4.k ",
"1 >.5.1.%.i.r.i.i.i.i.i.i.i.i.i.i.i.y.i.y.i.i.i.i.y.y.+.w.k.3.z a >.4.1.+.i.i.i.i.i.i.i.i.i.i.y.i.5.y.i.s.i.i.i.i.i.i.%.w.k.5.z ",
"f >.4.=.U w.y.i.i.i.i.i.i.i.i.i.i.i.i.y.r.i.i.y.w.r.4.U 8.k.4.z a >.1.=.Y w.s.i.i.i.i.i.y.r.i.r.i.i.i.i.y.i.i.i.i.s.w.W 9.j.4.C ",
"j =.5.=.U w.i.i.i.i.i.i.i.i.i.i.i.i.i.i.i.i.y.y.y.s.w.P ,.y.4.g < X.X.=.U w.s.i.i.i.i.i.r.i.i.i.i.i.i.y.r.i.i.i.i.s.r.Y 0.j.3.C ",
"j >.4.1.+.w.r.i.i.y.i.i.i.i.i.y.i.i.i.i.i.i.r.i.i.y.i.+.3.d.4.k < >.X.>.%.s.i.i.i.i.i.i.y.5.s.i.i.i.i.i.i.i.i.i.i.i.r.] w.k.5.C ",
"a <.=.U &.y.r.i.y.r.i.y.i.i.y.r.r.y.i.i.i.i.y.w.i.i.y.$.o.w.4.k < <...b &.j.y.i.i.i.i.i.i.w.y.i.i.i.i.i.i.i.i.i.i.i.d.;.o.i.4.V ",
"< <.' R O.r.s.i.y.r.s.r.y.i.i.i.y.i.i.i.i.i.y.w.i.s.w.+.+.,.5.g 1 1.) ^ +.w.s.i.i.i.i.i.i.i.i.i.i.i.i.i.i.i.i.i.i.s.r.%.%.8.4.z ",
"p <.1.' Q ` d.i.i.i.r.y.r.i.i.i.i.r.i.i.i.i.i.i.i.d.` ` ;.w.5.z 2 >.=.' ` ' y.i.i.i.i.i.i.i.y.i.i.i.i.i.y.r.i.i.i.d.O.O.;.i.y.C ",
"j >.<.^ q &.d.i.i.i.y.y.y.i.i.i.i.4.r.r.i.i.i.i.i.s.*.I :.w.5.C a >.>.' U ;.s.i.i.i.i.i.i.i.i.i.i.i.i.i.i.y.i.i.i.d.;.E :.f.w.C ",
"j B q ] u 0.d.i.i.i.s.i.i.i.i.i.i.s.i.y.i.i.s.r.y.d.0.Q ,.P { 4 < ~ u &.E w.s.i.i.i.i.i.i.i.i.i.i.i.i.i.i.s.r.y.i.s.w.Q 8.E :.C ",
"x y y ` ,.d.i.i.i.y.r.i.i.i.y.r.r.y.i.s.i.i.r.y.y.y.d.2.:.#.T z < n U +.2.s.i.i.i.i.y.i.i.i.i.i.i.i.i.i.i.i.y.i.i.i.s.2.:.^ M C ",
"a >. .&.h.s.i.i.i.y.y.i.i.i.i.y.y.i.i.r.y.i.y.i.y.r.s.d.9.0.4.k p >.=. .y.r.r.s.i.i.w.y.i.i.i.i.i.i.i.i.i.i.y.r.i.i.y.s.9.0.4.k ",
"a =.q &.w.9.d.i.y.s.d.d.s.i.i.s.s.i.y.5.d.d.y.i.y.r.3.w.9./ 4.V < >.n { 4.0.y.i.y.s.d.d.s.y.i.s.i.i.i.s.d.d.s.y.i.s.3.w.9.W 4.z ",
"a =.5 U $.P 9.s.d.0.&.` r.k.i.w.w.s.j.r.O.*.w.s.y.1.Y ;.O.#.r.k 2 <.e ^ %.Y 9.i.s.0.:.' 3.k.i.w.w.r.d.w.` =.w.d.s.9.U *.O.U 3.C ",
"a >.7 b +.$.w.h.,.L t ` +.=.%.E W $.*.%.' P W ,.k.w.&.;.` Q w.k p >.U O.$.*.w.d.,.Q W O.] &.$.Y Y $.&.' ` W W 2.d.w.*.;.o.W 4.k ",
"a >.] q Y T ,.:.$.=.$.$.' Q 3.,.2.3.Q +.$.] =.&.,.,.O.O.Q 0.4.k 2 X.] E ` ' 2.2.&.,.=.&.` Q 3.,.,.3.^ O.&.;.,.&.,.,.` ^ W 0.5.k ",
"2 ..1.{ c u P ,.M b 4.1.&.1.r.w.r.r.1.&.3.4.b T =.U c Y ,.s.1.3 : ..<.&.U U T >.R U 3.3.&.1.r.r.w.r.>.&.1.3.U T ,.U P U ,.d.<.k ",
"f g J [ [ J J | & d J [ } J J J H J [ [ J [ d 8 J J H J [ [ C 3 ; k H J H H J J 9 h J [ [ J J G J J J [ [ J d 9 J [ J J [ [ C k ",
"; < = $ = - ; - , , - - % - - $ - % - % % - , , - % - $ $ ; f F f a - - = - - % - - - % $ % % , - $ % $ + = , , - # ; ; ; - < N "
};
