/* XPM */
static char *fcd0f985dc5c41c7acf205329a6401f5[] = {
/* columns rows colors chars-per-pixel */
"64 64 220 2 ",
"   c #000000",
".  c #0D0000",
"X  c #00000C",
"o  c #130200",
"O  c #1A0300",
"+  c #140C06",
"@  c #1C0B00",
"#  c #1B1004",
"$  c #18120E",
"%  c #000214",
"&  c #050C16",
"*  c #0B0E12",
"=  c #00011C",
"-  c #000B1B",
";  c #0D1115",
":  c #0D121E",
">  c #11151A",
",  c #220000",
"<  c #240C00",
"1  c #241402",
"2  c #291601",
"3  c #2C1B01",
"4  c #241709",
"5  c #26190A",
"6  c #2A1D0D",
"7  c #301D04",
"8  c #241C14",
"9  c #2A1E13",
"0  c #352301",
"q  c #392600",
"w  c #3D2A04",
"e  c #34230A",
"r  c #37270A",
"t  c #3B2A0A",
"y  c #2D2112",
"u  c #2D241A",
"i  c #332515",
"p  c #3B2B15",
"a  c #332619",
"s  c #35291D",
"d  c #3A2C1D",
"f  c #000324",
"g  c #000C24",
"h  c #00002B",
"j  c #000D29",
"k  c #011326",
"l  c #0E1725",
"z  c #00142B",
"x  c #02192C",
"c  c #0D1A2C",
"v  c #111924",
"b  c #141B26",
"n  c #131D2C",
"m  c #001433",
"M  c #041A33",
"N  c #0B1D33",
"B  c #001C3C",
"V  c #0B1E3A",
"C  c #121F32",
"Z  c #1B222D",
"A  c #0C2036",
"S  c #05213D",
"D  c #0D223C",
"F  c #152334",
"G  c #14243B",
"H  c #192638",
"J  c #1A263A",
"K  c #1E2B3D",
"L  c #2D2720",
"P  c #352C22",
"I  c #3A2E22",
"U  c #3D3125",
"Y  c #3D342B",
"T  c #3B342C",
"R  c #212A39",
"E  c #27313D",
"W  c #3F3831",
"Q  c #463413",
"!  c #433424",
"~  c #42362A",
"^  c #44392D",
"/  c #4A3D2E",
"(  c #433B37",
")  c #443D34",
"_  c #493E32",
"`  c #4B4236",
"'  c #45403B",
"]  c #4C443A",
"[  c #4F483F",
"{  c #514536",
"}  c #51463A",
"|  c #54493D",
" . c #5A4D3E",
".. c #001F45",
"X. c #042142",
"o. c #0C2343",
"O. c #01264A",
"+. c #0C264A",
"@. c #0D294D",
"#. c #132643",
"$. c #192743",
"%. c #142945",
"&. c #1A2A44",
"*. c #132749",
"=. c #142B4C",
"-. c #1A2D4B",
";. c #1D314D",
":. c #002751",
">. c #0D2C53",
",. c #0C2F5A",
"<. c #152D52",
"1. c #192F52",
"2. c #172E58",
"3. c #0F305C",
"4. c #163156",
"5. c #1B3254",
"6. c #15325B",
"7. c #1A345B",
"8. c #1D395B",
"9. c #212D44",
"0. c #212F4A",
"q. c #263145",
"w. c #2A3445",
"e. c #23324C",
"r. c #2A334B",
"t. c #2C394E",
"y. c #233554",
"u. c #283752",
"i. c #253855",
"p. c #2B3A54",
"a. c #21365A",
"s. c #24395C",
"d. c #2B3C5B",
"f. c #313F5F",
"g. c #0E3663",
"h. c #163562",
"j. c #1A3661",
"k. c #1C3963",
"l. c #183A67",
"z. c #233C63",
"x. c #2B3E61",
"c. c #2E405C",
"v. c #364355",
"b. c #32415C",
"n. c #39465C",
"m. c #3C4A5D",
"M. c #274066",
"N. c #2C4063",
"B. c #24426D",
"V. c #2C4369",
"C. c #324464",
"Z. c #3B4B64",
"A. c #32466B",
"S. c #34496C",
"D. c #384B68",
"F. c #314B74",
"G. c #3A547C",
"H. c #4C4842",
"J. c #544C43",
"K. c #5A4F42",
"L. c #524E49",
"P. c #5C5144",
"I. c #56514B",
"U. c #5C544A",
"Y. c #404C5E",
"T. c #615446",
"R. c #645847",
"E. c #615649",
"W. c #645A4D",
"Q. c #695D4E",
"!. c #655D51",
"~. c #695F52",
"^. c #6C6255",
"/. c #6E6559",
"(. c #6E685D",
"). c #726657",
"_. c #706759",
"`. c #746B5D",
"'. c #796E5E",
"]. c #404E63",
"[. c #435165",
"{. c #6E6961",
"}. c #766E61",
"|. c #786F61",
" X c #777064",
".X c #7B7365",
"XX c #777168",
"oX c #7D766A",
"OX c #7F786C",
"+X c #7D7770",
"@X c #7E7972",
"#X c #817666",
"$X c #807768",
"%X c #837B6C",
"&X c #887E6F",
"*X c #857E71",
"=X c #887F70",
"-X c #847F79",
";X c #878074",
":X c #898172",
">X c #8A8274",
",X c #8B8374",
"<X c #8E8576",
"1X c #86817A",
"2X c #8D8679",
"3X c #8F887B",
"4X c #908676",
"5X c #928877",
"6X c #908778",
"7X c #938A7B",
"8X c #988E7E",
"9X c #99907F",
"0X c #958E81",
"qX c #979083",
"wX c #9B9283",
"eX c #9D968A",
"rX c #A09687",
"tX c #A29A8B",
"yX c #A39C92",
"uX c #A8A090",
/* pixels */
".X*X+X+X@X*X-XU.G [.Y.m.Z.n.e.=.~.%X`.'.%X|.`. X|.|.oXXXoXoX XY ) W._ /.|.`.|. X}.oXOX%XoX|. XE.^.:X%X/.%X3XoX/.-.=.=.7.5.e.b.p.",
"<XwXrX7X2X7X7XK.x A.F.V.V.V.M.6.~.7X8X7X7X=X:X%X%X>X7X0X7X0X4X! ) 7X&X$X%X.XoX>X<X>X7X7X>X>X6XP.!..X<X7X7X$X`. Xp.@.<.<.7.z.M.M.",
">X:X7X:X:X$X X/ - 5.l.l.7.k.k.>.U.&X$X%X`.`.`.|.%X X=X:X2X0X'.! # Q. X`./._.|.oX$X#X%X X.X$X%X| | $X%X2X<XoXoX|.i.@.4.=.<.4.6.=.",
"%X>X>X%X%X<X7XK.z a.7.k.k.7.k.>.K.<X%X`.`./. X.X=X:X=X>X:X=X`.d 8 W. X X_.|.oX$X$X&X$X$X#X#X%X{ ^.<X%X%X:X:X%X=XC.>.=.4.7.4.8.5.",
"K.%X<X:X=X7X4X| z a.7.k.k.7.k.S ] %X<X#X/.oXoX`..X>X:X=X%X$X).y u U.`.%X|.|.%X%X%X%X$X%X$XoX%X} U.$X%X$X%X%X&X>Xx.6.7.7.5.7.8.$.",
") %X<X$X:X7X6XP.j a.7.7.j.7.8.j ] $X%X.X`.`.`.`.|.%X=X=X$XoX).9 8 W. XoXoX`..X$X#X.X#X`.|. X#X_ J.$X%X$X%X7X&X%Xx.h.7.7.5.7.k.C ",
"] .X#X$X%X:X=XK.z d.e.i.s.i.u.F d `.`.`.$X`.|. X X;X;X%X`. X^.9 8 ~.$XoX.X`.'.'./..X$X.X`.`..X_ U.$X X$XoX>X&X$XN.k.s.a.5.7.z.J ",
"y q q t q q q i                 P `._._.oX|.|. XoX=X=XoX`. X).9 u _.oX X_..XoX_.`.%X$X%X>XoX#X} ) |.`././.P.).| k f     j : X X ",
"w.Z.Z.n.Z.Z.].C I.1X*XoXoX@X-XU.5 _.#X|.oX`._.`.|.|.oX X XoX'.9 8 ~.|.`.oX$XoX$X#X>X<X>X:X%X&XK.m d.x.1.$.o.5.f  .&X X}. X X&XW.",
"R C.V.N.V.N.C.M J.wXeX>X7XeXeXE.Y _.'. XoX.X|..X`.oX$XoX|.$X'.a $ ^.$X`.|.%X%X$X%X4X7X%X%X7X4XE.O.l.6.7.5.5.a.z ` 7X7X<X%X0XwXQ.",
"c 1.6.<.+.=.*.k ^ %X%X%X%X=X:XP.} `.`._.oXoX`.oX%X X XoX%X$X`.s $ ^..X`.|.oX<X%X:X:X7X=X%X4X7XP.:.z.7.5.7.7.5.k ) %X<X$X>X7X4XK.",
"C 5.1.=.*.<.y.k ` :X2XoX.X$X%X`.]  X.X XoX.X`.%X%X|.$X X;XoX).a 8 W.|.$XoX$X>X<X<X:X7X<X%X:X4XE.X.k.7.k.j.7.5.j | :X<X&X%X&X<X| ",
"C 7.<.*.*.*.1.g ` %X%X.X$XoX=XoXK.oXoX$X%X%X X.XoX_.`.$XoXoX).5 8 I P..X<X7X7X<X0X7X>X>X=X:X>XP...8.=.7.7.7.a.M ` &X<X7X>X7X8XP.",
"c 1.1.<.*.*.-.f ] $X$X:X|.oX%X`.] |..X.X X%X$XoX$X.X$X>X%XoX.X9 u P a { |.:XwX7XwX6X7X7X>X%X=X| @.5.*.*.1.l.z.j | %X<X%X7X7X5XP.",
"C &.y.5.-.-.e.c ] `.%X=X.X%X%X`.|  XoX$X.X.X$XoX`.^.^.~.~.W.T.s u ^ P 9 U P.|.%X#X#X#X%X%X>X&X| D e.$.$.5.s.p.M W.%X$X#X$X.X#XT.",
"X   X = %       @ a U ` K.E.^.| ] Q.W.P.K.} | U 3 e O , o . O #               0 ~ ( ) ( ( ] ] W     X X X       7 e o a y 9 2 d ",
"H.oX%X X/.|.oX|.~.P.|.|.^.(.|./.*X7X3X:X2X2X7X X5.$.q.C.Z.w.[.A !.3X-X*X@XoXoXoXS.F.C.S.A.A.G.8.!.!.' ] | *XoX}.oXoX*XT.Y ` `.Y ",
"] =X%X:X$X%X7X<X6X:X7XwX7X>X7X^.`.>X2X0X7X7X<X=XC.<.5.s.x.s.C.M U.wXwXeX7X7XuX7Xz.3.2.j.6.<.8.m W.rXyXyX7X6XwX<XoX7XrX7X%X%X#X^ ",
") `._..X X.X.X.X<X6X%X7X2X:X2XP./.=X2X2X%X$X%X$X0.+.*.o.V o.*.g ` %X%X>XwX0XuX>Xz.l.j.j.7.5.5.G P $X<X>X7X:X%X%X`._.#X`./. X/.P ",
"] oX.X%X&X:X$XoX>X7X7X7X:X>X7XW.|.<X<X%X X$XoX%Xd.+.*.<.=.<.5.j K.>X>X7XeXwXtXrXd.,.k.j.*.<.8.M K.%X&X>X7X8X7X7X&X`.|.$X`._._._ ",
")  X&X>X<X2X2X:X%X%X%X0X2X:X<X^.OX=XoXoX%X:X%X=Xi.>.7.<.1.2.5.z ` :X7XeXwX2X%XwXS.,.=.7.j.j.7.S ] oX:X>XwXwX4X:X|. X.X%X.X`.|.] ",
"]  X:X7X>X<XqX>X%X:X$X0X7X:X7X~.OX=X%X:X=X7X4X>Xp.2.j.<.<.2.7.k Y >X7X0XeX7X%XoXN.h.7.7.7.7.8.o.} &X:X%X7X9X<X`./._.$X=X$X`. X] ",
"]  X$X7X<X2X3X%X:X%X=X>X:X$X6X/.|.%X$X:X#X7X7X2Xp.:.6.=.,.2.i.c ) %X7X7XwX7X%X$Xs.g.h.6.2.7.1...| &X$X#X&X:X4X$X^.oX|.%X$X`.`._ ",
") oXoX:X<X%X%X>X%X X%X=X:X>X7X_.`. X.X=X=X>X2X$Xp.C.a.<.f.M   X 6 ! R.W.{ W.<XE.= C.i.s.y.y.u.h [ <X4X:X%X`.%X$X X`._.|.oX%X$X_ ",
") :X<X>X>X%X/.oX=X%X%X=X:X%XwX'.5.p.i.d.d.N.N.A.=X2X2X0X7X^.|.P.F f.-.<.<.1.a.p.oX7X>X%X%X%X$XQ.| 6X>X>X%X`.|.|._.%X$X%X=X>X$X] ",
"T $X<X<X:X<X X.X4X=X X=X%X%X<XE.O.4.@.7.k.=.O.V.=X<X0XqX>X=X:XP.z x.j.k.z.B.g.d.>X7X>X:X7X<X&X#XK.:X$X=X`._.|..X`.$X4X>X$XOX X` ",
"s |.$XoX%X%X$X$X%X&X%X%X XoX>XP.O.8.5.7.5.5.;.G E.%X2X*X X|.$X` f $.7.j.7.j.l.G %X7X<X&X>X%X<X#XK.:X%XoX X|.`.|.oX$X7X>X X`.oX} ",
"^ $X<X X3X$X.X%X%X>X:X`.:X%X%X| X.5.5.5.7.5.5.% T $X>X=XoXoX$X} g -.6.6.7.k.h.d.,X7X<X<X>X:X7X>XK.:X%X%X X`. X`. X|. X X|. X|.I ",
"I oX4XoX7X:X#X%X%X:X<X X=X$XoX} o.;.=.5.5.*.;.g ] *X2X XoX:X:X{ m 5.=.6.7.7.3.C.>X>X<X:X>X%X$X&XW.&X|.oX X`.%X X`.>X|.|.|..XW.a ",
"u `.W.|.>X3X7X&X$X$X>X<X<X>X%X| M 5.=.*.*.*.;.k ] ;X>X$X|.oX=X| m a.l.k.j.k.h.d.2X9X<X<X:X X X`.!.%X|. X`.|._./..X$X XoX`.~. .9 ",
"8 / d } E..X7X%X>X:X%X<X7X6X$X} z 1.y.e.e.e.u.c ` |.$X X`.|.$X| z p.i.a.i.i.s.&..XwX7X4X<X7X<X`.P.oXoX$X`./././.K.K.P.E.` I ! 8 ",
"+ O O . o 2 a 7 < 2 3 1 i 7 e @ x Z             6 q r 0 0 q q y                 ` :X2X:X%X=X=X!.6 I U U a 4 O o   o   .       + ",
"8 ) ] K.] _ E.XX@X-X*X%X XoX%XU.(.>X|. X+X@X-XU.G m.v.n.n.Z.].F J.;X*XP.*X*X*X^.-.d.y.d.a.$.e.*.P.`.^.^.(.!.|.@X!.~ ] ' ) ) ] u ",
"P >XeXrXtX<X<X7XwXeXeX7X7XwX7XW.^.7X7X7X7X2X7XU.x b.d.d.N.V.C.J Y `.%X%X7XwXeX!.m 7.6.2.6.4.1...K.<X<X%X:X$X%X>X:X:X7X0X<X2X.Xa ",
"$ /.<X%XoX.X XoX%X<X7X7X7X&X$X{ J.>X%X%X%X=X4X| k 5.4.=.o.#.G - H.`.%X2X%X<X7X{ f a.7.2.$.*.-.M ] %X`.`.%X.X_.oX/.!.%X$X|.Q.K.P ",
"+ `.>X$X XoX.X%X%X7X7X2X<X>X>X} ) 7X<X$X%X7X4XK.z a.5.5.8.-.i.z ] ;X3X%X>X:X:X| f 5.<.6.<.*.-.S ] %X$X X XoX=X XoX%X=X$X XoX.X8 ",
"8 `.%X`. X>X$X X.X4X=X<X:X7X7X .U.:X%X%X:X:X7XP.j a.<.*.7.7.;.k ) XXOXOX X$X$X} g -.*.<.<.#.-.=._ oX%X%X$X%X$X3X7X<XoXoX X.X/.8 ",
"5 `.%X X/. XoX|.`.oX4X7X:X%X4XE.^.:X:X$X7X7X7X .j a.5.=.5.5.8.k ) -X>X$X$X%X:XK.f -.#.*.%.%.;.D T $X$XoX:X:X<X7X7X:X%X$X`.`./.8 ",
"U.:X=X&X.X/.oX7X<X;X<X&X$X&X8X| /.wX:X$X7X>X>XW.D 7.5.-.=.-.;.k ` %X<X%XoXoX%X| k q.&.;.=.=.y.N T `.$X$X`.$X&X7X7X<X>X%X/. X_.a ",
"J.7X=XoXoXoX%X=X2X>X=X:X=X:X<X} !.%X^ K.P.! t / N G X % : % * % 3 I ! ! t q t y       = 5.-.=   T `.%XoX|. XoXtX0X7X7X$X X|.|.` ",
"[ .XoX X%X<X>X*X1X*X0X7X=X:X%X^ S 9.M $.*.&.N.%.!.`.E.!..X`.'._.t.#.<.7.u.p.n.F J.oX}.!.oX;X|.| T `.oX|. XoX>XeXeXqX7X:X X|..X} ",
"] %X=X=X%X<X;X*X*X1X2XwX7X<X.X1 b %.-.5.5.z.B.9.`.%XoXoX:X:X:X=Xb.7.a.a.s.z.c.x J.>X%XoX%X=X7XE.u |.oX%X2X%X%X<X3X0X2X>X=XoX$X} ",
") =X<X:X:X$XoX%X X2XeX7X7X7X'.5 n 5.<.<.5.7.k.%.|.>X%XoX%X=X=X%X9.4.7.*.=.1.4.z ^  X%X%X XoX$X_ 9 `.=X%X$X XoX=X X$X7X>X%X<X=X] ",
"J.>X;X<X>X%X}.OX;X0XeX7X7X7X`.y b ;.*.*.*.5.7.i.%X=XoXoX>X%X%XoXe.<.1.=.7.6.5.k ` >X%X.X=X%X=X} o !.oX2XoX`.=X>X%X=X2X%X X>X X) ",
"] ;X>X;X>X<X%XoX;X7X7X7X4X7X%X2 F -.%.*.=.7.>.p.%X#X%X%XoX X X|.e.+.=.4.<.4.8.g ] >X:X:X:X$X:XK.o /.%X3X*X%X-X=X$X=X7X=XoX%X|.P ",
"s |.7X>X:X=X%XoX%X%X$X:XwX0X`.5 n $.G %.<.-.=.0.|.oX%X3X$X`.oXoXu.>.=.*.=.7.8.z ] %X7X7X%X3X7X| .  X7X%X X=X3X>X=X%X>X=X=X;X_.a ",
"I ^. X$X=X%X X%X|. X`.!.^.W.R.s v R n F &.-.$.w.(.%X>X%X XoX=X X0.a.y.-.a.a.u.N | _..X:X=X=X>XK.y W.`.W.K.!.^././.~.!.!.W.E.P.s ",
"@     < d K.K.^ P s e < o . < 4         % X X   < P.E.K.| K.| U   = % f %         5 a d i 6 d U .             O 3 , O O O . 1 @ ",
"I.-X*X|._.2X:X/.D G q.v.m.].m.c ) W.^ Y T ^ ~ (.oX%X/.!.^.}.|.` H.oX%X|.oXoX}.*XXXQ. .} { } W.P I.1X-X-X*X@X-XU.N Y.Y.E w.].w.E ",
"J.7XwX7X8X:X#XW.J *.;.e.u.p.t.- ) <X<XoX%X$X_. X2X7X%XoX%X>X=X| ] %X2X%X%X>X7XwX<X$X<XrXwXeX7Xp I.7XwX0XqXwX7XP.z p.d.e.R r.b.q.",
"P `.7X`. X&X$XP.f $.V V M V N * # o W. X_.^._.`.`.|. X|.oX XoX) T |./.`.|. X%X X`.oX7X7X2X7X.X1 )  X%X=X%XoX$X} k $.o.-.=.k -.b ",
"J.%X>X_.`. XoX` = $.V G *.%.J & P {.W.^.`. X X`.|.|.`.oX%XoXoX] T oX|.oX X X`.%X%XoX7X2X7X>X#X6 ) =X2X=X%X$X6XP.z a.*.*.5.5.$.F ",
"J.&X%XoX X|._.~ z $.#.=.=.#.&.l y  X:X XW. X%X|.|.`.`. X`. XoX^ ] 7X:X%X%XoX.X%X:X:X$X%X=X:X.X1 ] :X7X2X0X<X:XP.g ;.%.=.*.*.$.v ",
"] %X$X&X X`.|._ j -.#.=.*.=.$.b 6 /.oX.X|._./. X X`. XoX|.|. X^ J.wX<X$X=XoX>X$X:X>X%X%X$X>X$X< J.>X:X2X7X<X<XP.f &.=.<.=.6.5.J ",
") ).#X&XoX/._._ k q.9.K e.e.q.b 8 /. X`.%X%X X`..X.X X=XoX X_.^ ] >X%X X X$X$X>X7X:X%X:X:X0X=XO ] %X=XoX%X2X4XP.g 5.8.&.0.a.u.Z ",
"6 w q q 0 2 3 y                 u ~.oX#X$X$X X X|.oX`. X XoX`.U J.7X7X=X%X%X%X<X0X<X$X>X3X0X=X^ 1 d 0 r p w Q r - R             ",
"q.m.n.Z.D.Z.].F L.+XoX+X@X*X*XI.# `.oX>X%X$X%X X/.$X.X/.$XoX_.^ U.7X7X4X>X7X:X<X2X7X>X2X7X7XwXP.#.p.e.b.v.C.D.t.`.6X/.|.@X XoXU.",
"R d.x.x.F.V.C.N K.>X>X0X7X2X<XP.o oX<X%X<X:X$X%X7X%X X`.<X#X%X} [ wX8X=X%X<X>X2X:X>X3X7X>X7X7XP.+.z.5.i.u.V.M.f.*X2XrXwXwX=X=XK.",
": #.+.o.=.=.-.k )  X%X%XoX.X%X ..  XwX$X:X<X X.X#X`.`._.'.%X7X) W 7X4X$X%X7X<X=X;X3X0X7X=X:X$XP.B *.<.+.>.<...r.%XoX<X:X7X|._.^ ",
"v $.%.%.*.5.y.k ` OX=X%X$X7X7X| o |.7X<X7X<X`.oX|.oX|.|._. X X~ W :X>X%X:X7X>X%X$X:X2X>X=X#X%XK.X.5.1.<.6.4.>.r. X`.<X4X4X#X X` ",
"l $.%.%.*.=.5.z ` =X=X*X%X<X<X} # _.%X%X%XoX=XoX|.`. X.X_.oX#X! T %X5X%X&X%X%X<X%X$X%X=X%X<X2XK.X.k.7.=.*.4.>.&.oXoX%X<X:X<X$X_ ",
"l -.%.%.=.=.5.x ] *X=X%X2X7X7X` L `.4X>X:X>X:XoX|. X$X%X X$X.Xa U $X:X:X<X>X:X:X=X%X$X=X$X%X>XW.:.5.<.4.=.5.o.9. XoX X%X:X%X%X_ ",
"v -.$.G -.-.&.k ` |.`.!.$X:X4X_ J.&X4X<X<X7X$X^._. X X`.'.`.).I u E.U. X:X:X:XoX.X`._. XoX X$XE...8.<.1.-.5.=.u.%X=X%X7X:X X|.} ",
"* ; ; * ; > > & u U s 4 i U | } u { _ } ~ Y P 4 s U P s P I ~ 8 $ 4 @ a I ~ U P P P s s U U ~ P D 1.*.c n $.-.D U.oX>X X_ Y ! s "
};
