/* XPM */
static char *d2f40fb68c4341ebf9f85236030376b9oeAv2Bd7ZK8w9SpS[] = {
/* columns rows colors chars-per-pixel */
"64 64 241 2 ",
"   c #6D4728",
".  c #764C2C",
"X  c #7D522A",
"o  c #83471D",
"O  c #9A551A",
"+  c #A45C1B",
"@  c #87562A",
"#  c #995824",
"$  c #90542F",
"%  c #865B38",
"&  c #8E643E",
"*  c #95623B",
"=  c #9A6838",
"-  c #A8642B",
";  c #B86D29",
":  c #A66A37",
">  c #A36B3D",
",  c #B46D35",
"<  c #A97739",
"1  c #AC743C",
"2  c #B5763A",
"3  c #BC7D3D",
"4  c #C67D39",
"5  c #8D5F41",
"6  c #8C6947",
"7  c #956A44",
"8  c #9B6B44",
"9  c #976A48",
"0  c #956D4B",
"q  c #98714A",
"w  c #9C724C",
"e  c #8D6C52",
"r  c #9B7351",
"t  c #9A7756",
"y  c #9D7B54",
"u  c #A46E43",
"i  c #A66E48",
"p  c #B16F40",
"a  c #A47245",
"s  c #AA7444",
"d  c #AC7A45",
"f  c #A4744B",
"g  c #AA764B",
"h  c #A3794B",
"j  c #AC7B4D",
"k  c #B37A44",
"l  c #BA7D46",
"z  c #B27C4C",
"x  c #B87B48",
"c  c #A27551",
"v  c #A47A53",
"b  c #AB7D53",
"n  c #AA7D59",
"m  c #B27E52",
"M  c #B27D59",
"N  c #B17E64",
"B  c #C67F44",
"V  c #AD803A",
"C  c #BA833C",
"Z  c #D3852C",
"A  c #C7863A",
"S  c #D9883E",
"D  c #B58245",
"F  c #BD8444",
"G  c #B4814D",
"H  c #BB844C",
"J  c #B48A4E",
"K  c #BB8949",
"L  c #BE8C4E",
"P  c #AD8255",
"I  c #A5825A",
"U  c #AC845B",
"Y  c #B48454",
"T  c #BA8554",
"R  c #B28A55",
"E  c #BC8A55",
"W  c #B3855B",
"Q  c #BB865A",
"!  c #B48A5C",
"~  c #BB8B5C",
"^  c #B2925D",
"/  c #BC955B",
"(  c #BB925C",
")  c #A78664",
"_  c #AC8563",
"`  c #AE8B63",
"'  c #B38663",
"]  c #B58C63",
"[  c #BB8D62",
"{  c #B68B68",
"}  c #BA8D69",
"|  c #B59363",
" . c #BC9364",
".. c #B69864",
"X. c #BD9A63",
"o. c #B5916A",
"O. c #BD946A",
"+. c #BD996C",
"@. c #BB8E71",
"#. c #BD9571",
"$. c #BE9A72",
"%. c #B99878",
"&. c #C48645",
"*. c #CE8B44",
"=. c #C4854C",
"-. c #C38B4C",
";. c #CB8D4C",
":. c #D08C48",
">. c #CC9547",
",. c #C5924C",
"<. c #CC934C",
"1. c #D9974B",
"2. c #C28753",
"3. c #C28B54",
"4. c #CB8D54",
"5. c #C28C5C",
"6. c #CB8F5A",
"7. c #C49352",
"8. c #CA9355",
"9. c #C79A56",
"0. c #CB9954",
"q. c #C3915C",
"w. c #CA935B",
"e. c #CD9A5D",
"r. c #D39C54",
"t. c #DB9D57",
"y. c #D39658",
"u. c #D39C5D",
"i. c #E19E54",
"p. c #D7A35A",
"a. c #DBA25D",
"s. c #E8A64D",
"d. c #E2A657",
"f. c #C28F61",
"g. c #C18E69",
"h. c #C39364",
"j. c #CA9562",
"k. c #C49965",
"l. c #CB9A65",
"z. c #C3956B",
"x. c #CA9669",
"c. c #C49A6B",
"v. c #CB9C6C",
"b. c #D49B63",
"n. c #D19E6C",
"m. c #C29572",
"M. c #C49C73",
"N. c #CB9E72",
"B. c #C69D79",
"V. c #D29F71",
"C. c #C5A16E",
"Z. c #CDA568",
"A. c #CDA26E",
"S. c #D4A363",
"D. c #DCA565",
"F. c #D5AA65",
"G. c #DAAA65",
"H. c #D3A36C",
"J. c #DAA56A",
"K. c #D4AB6B",
"L. c #DBAB6B",
"P. c #DEB16E",
"I. c #C4A273",
"U. c #CCA274",
"Y. c #CBA975",
"T. c #C4A37B",
"R. c #CCA47A",
"E. c #CDAA7B",
"W. c #D3A474",
"Q. c #D8A774",
"!. c #D4AA75",
"~. c #DBAB74",
"^. c #D2A67A",
"/. c #D8A678",
"(. c #D4AB7B",
"). c #DAAD7B",
"_. c #DCB275",
"`. c #D6B17D",
"'. c #DBB578",
"]. c #DCB17D",
"[. c #E3AD68",
"{. c #E3B26D",
"}. c #E0AE74",
"|. c #E2B474",
" X c #E5BA75",
".X c #E2B47C",
"XX c #E4BB7D",
"oX c #E8BA7B",
"OX c #C39F80",
"+X c #CCA581",
"@X c #CDAC82",
"#X c #CCA888",
"$X c #D5AC83",
"%X c #D4AA85",
"&X c #D9AE81",
"*X c #D4AF89",
"=X c #CFB280",
"-X c #D6B282",
";X c #DCB383",
":X c #DDB985",
">X c #D4B28C",
",X c #DCB48A",
"<X c #DEB98B",
"1X c #D5B592",
"2X c #D8B89A",
"3X c #E1B583",
"4X c #E8B782",
"5X c #E4BA85",
"6X c #EABD85",
"7X c #E1B689",
"8X c #E4BC8B",
"9X c #E9BE8A",
"0X c #E4BD91",
"qX c #E7BF96",
"wX c #E0BEA0",
"eX c #EAC185",
"rX c #E6C18E",
"tX c #EAC28C",
"yX c #F0C789",
"uX c #E6C392",
"iX c #E9C291",
"pX c #EBC593",
"aX c #EDC995",
"sX c #E4C29B",
"dX c #EAC599",
"fX c #EDCB9B",
"gX c #F1C793",
"hX c #F1CA94",
"jX c #F2CD9B",
"kX c #F3D19D",
"lX c #E6C6A4",
"zX c #ECCBA3",
"xX c #EDCDAA",
"cX c #F1CEA1",
"vX c #EED1AB",
"bX c #F3D2A3",
"nX c #F2D3AC",
"mX c #F8D7A8",
"MX c #EFD3B0",
"NX c #F2D5B3",
"BX c #F5DAB7",
/* pixels */
"&X^.U.3X).U.!.).!.H.n.W.3X7X3X.X(.5X5X7X7X5X6X6X5X5X5X5X8X5X7X7X(.dXzXdXzXzXfXqX0X;X;X6X5X.X).].Q.Q.).XX;X].].].3X/.Q.).3X;X).~.",
"7X(.).! q h.U.b [ j.l.b $X8XiXM.t iX8XpX/.!.I.R.E.I.O.b (.iXfXN.6 *X#Xe 2XnXzXxXT.6 6 Y.tXv P rX7X;X6X(.@ R.O.c.U.z.). .U.3X0 U.",
";X).v > T ;X].z 3XtX7Xf.U.iX5X> 5.tX5XiX3X: k G ~ 2.h.;X8XiX<XW J.M.} w.OXnXzXfX@.v.j.(.rXl 2.:X7X7X8XO.*.z.p 5.c.^.8XW.N.^.- N.",
"3Xb a b.[ ;X].v.v.5XI.+.5X].% # c.pXrXiXrXm U.7XiXN.7XiX0X7Xf -.~.B.~ ^.2XNXzXB.R.M.z.U.;X&.2.:X8X:Xy q.w.;XB 6.h.^.8X(.O.(.4 x.",
"v.> b.w.x.;X7XtXtX8XtXpXtX8 - i ;X5X8XpX;X^.Q.8X0X).;X5XuX] E L.(.>Xw.$XlXwXlX,X<X:X;X;X;XH 6.<X7Xu 8.D.W.8X2 2.~ ^.8X).R.7X:.v.",
"T x 6.3.H.3Xz.U.:X5X5X8XU.> ;.v.5Xh c aX^.8X].*X8X7X(.5X*XY L.H.,XsX[ #.2X_ lXBX1Xr { fXrXd h.0X[ 3 J.e.;X:XF v.z.W.6XI r N.;.v.",
"= 5.Q ~ v.5Xx.[ [ 9XtX0X8Xc.q.3XU.F - E.hXtXpXpXpX8XuXpXN.j.x.x.0XzXR.R.R.0XNXzXf u.F ] rXO.8Xv.: l.l.v.8X5Xf.tXv.W.8X6.:.z.x.5X",
"q.~ x.~ [ ].n.x.* (.;Xz.R.v.v.(.;Xq.z 3Xh.! ~ [ c.h.8X,Xa $X,XN.,XxX%X:X;X2XNXzX[ ~.S.^.8X$X5X1 E 8X).A.(.;Xz.iXh.W.8X2.j.B.^.8X",
").Q.Q.W.).7X7X;XH.Q.).H.!.5X].5X5X8XpXaX;X8X7X;X,X;X8XfX:XfXcX0XuXnXzXsXzXxXNXnXzX%X,XcXjX9XpX6X5X9X5X].).5X5XtX8X8XpXtXsXdX5X5X",
"b j g W W ] [ h.k.h.c. .c. .] O.+.c.M.M.(.(.R.T.E.E.$X>X-XT.@X+X@X#X*X1X2X1X#X@X>X>X<X-X(.U.I.c. .Q  .h.E Y  .! ] | M.E.+XT.$.| ",
"S.D.u.u.w.u.F.'.'.-.L.S.G.p.;.0.C e.K.F._.5X_.K.K.A.!.K.!.!.(.`.'.;X`.-X(.`.-X,X:X;X].!._.H.e.e.S.K.F.L.L.S.e.Z.e.0.e.l.A.8.2 ; ",
"^.Q.v./.).).4X.X3X6X5X8X7X9XtXtX5XtXtXpXhXpXjXjXmXbXbXkXbXjXjX8X,XsXnXnXnXnXxXnXbXcXaXtXtX9X6X5X5X5X6X5XtXtXtXtXtX6X~.).8X5X6X4X",
"T T b Y ;X5X .  X c.tX8X0X8X8X8Xv _ uXfX+.T.<XI ` ,X+.o.zXdX] y R U %.lXBXMXm.O.M.U. .~ ).U.R.aX8X8X7X8Xo.] 5XtX].(.].5XiXuX+.U.",
".X].].].;XW f &.*.P I.8XpX8XtX(.3.E 0X8Xs *XR.q.H. .d R.mX@XJ |.|.6Xc.1XBXvXsXzX8X!..X;X8XW.U.aXrX8X9X].1 5.N.c.~ : ~ +XR.$XH l.",
"&X;X;X&X:X> 8 l p 8 % 5XtX8X^.0 8.j.].P <.:XbXaX:XW l.*XbXpX~ v.(.].N.xXBXNXNX2Xt = U uXfX:X^.pXuX9X(.w 2 A.).h.H.oX(.U.).N.w.W.",
";X;X;X:X7Xv.v.z.z.R.^.7XtX].w y.&.v.o.e.w.dXfXtXI e.x.(.0XbX0X0XfXsXlXBXNXMXnX$.3.[.4 -XbX:X^.pXpX8Xq -.k ].(.9X5Xc.9X;X;Xq.Q.uX",
"7X7X;X7X^.U z.] ,XdXtXpXtX~ 2 &.T v.H.y.*XfXcX+.2.6.U.Q  .E.zXxXvXxXvXMXnXbXmXzXH.t.D.fXbX7XQ.aXtXv B ;.N.8Xv 8X;Xu tXU.z.5.U.8X",
"X 0 ;X5Xv.M.pXz.*X<X`.pX:Xu 5.j.N.kX].N.dXbXbX8Xv.R.pX;X;Xw fXbXzXnXnXnXnX1X%.#X+X#.R.@X>X8Xh.jX:Xc.4.3.8X5XU.pXrXl.hX:XW.w.G :X",
"> @ U 8X).z.,XM.R.= o U.~ o ).;Xv.8X;XN.U.8XdXzX(.^.rXzXsXl <XdXuX*XM.>XsXE.q.e.K.S.<.C +X0X, R.pXrXl.v.9X;Xc.#.c.c.O.M.(.v.v.7X",
"(./.^.).;X5X8X8X7X~..X8X].N.8X9X8X5X5X^.^.].fXbX5X:XrXpXpX;X<X0X,X,X8X;XuX7XjXgXyX6X6XtXmXfX~.c.^.tX!.U.~.Q.j.!.).).Q.).).5X).].",
"b j h f f v b P P U ! ! U P !  .O. .~  . .O. .|  . .| O.O.o.+.+.| $.+XR.T.T.I.T.+.M.T.T.$.I.I.I.c.c.O.k. .h.k.C.c.c.C.U.c.v.k.c.",
"L.S.S.L.~.L.J.L.{.{.S.G.S.e.3.H 4.L. X{.p.r.{.|.|.|.5X5XXX.XXX5XeXXXXX5XtX5XXX5XtX5XXX5X6XXXL.S.L._.|.L.|.|.L.L.L.L.G.P.J.F.K.S.",
"7X;X;XN.] ,X;X3Xz.U ].3Xv.W.5X3Xv.] ;XtX5X5XU.].].!.W.:XpXpXaXaX*X8XjX8X<XfXaXM.$.rXkXuXI.| ;XtXgXaX;XpX:X`.tX8X8X5X8X5XtX9X].(.",
"O.c.M.] %X*X^.).a T 5X).Y 5X;X;XE 7.!.tXpXW. .v.;Xv.v.7XfXdXfX:X9 8XpX+.dXjX] J K f pXb 1 -.g 8XkX' b aX .! 7XaXaXaX$Xb (.jX+.b ",
"N.c.c.R.,X&X7X[ k l.5X/.j 3XtX^.a.u.U.pXiXv.;XH.].;X(.$XdXfXjXC.l 8XuXU.bXzX8X6XtXtXpXpXiXaXiXjX@X2 w.fXz.W tX-XI.8X8Xg &XaXA.i ",
"Q.W.:X8X,X7XU = -.v.5X/.s 3XtX].e.a.h.iXaXv.(.l.v.].].N.8XhX) a T dXfXN.fXzXfXpXpXpXjXfXjXpXjXI.< S ^.bXN.5.` . @ & :Xm 0XfX$Xz ",
"z z U.R.&Xy 1 d.T ).).v.> U.rXW.k H C.:XaXv.(.l.v.;X(.^.5X_ C i.Q.aX0Xc.uXpXkXjXjXjXaXuX!.tXE.1 s.4.uXfXW.2.p ;.-.; P T 5XhXrX7X",
"/.).&X7XU.= u.x h.].A.Y 2 z.).v.l.3 U.`.:XU.:Xj.A.;X(.].z.> u.b.uX;XM.h.U.<XuX(.Y.@XU.(.-X5Xs 1.*.;XfXjXv.A.4.4 2., h.q.).(.8X-X",
").3X3X7Xv.T M [ ]..X.Xn.: ).Q.5Xv.e.j.T A.aXuXj.U.:X(.W.;X(.N.,XfXdX(.w.8XuXd E uXfXfXkXkXrX5Xn.Q.pXpXfXv.A.5Xw.T v.6XT ).~ a - ",
"0 v ] c.s h.j.~ O.U.~.!.> (.6X5X).z  .5XpXpX8Xq.N.7X).U.8XpX(.;XuXpXpXE pX).1.z ;XjXfXaXpXrXpX(.!.:XpX,Xv.O.5X8X:XtXc.~ z.9Xy.S ",
"z.h.[ O.).).W.W.U.W.].].Q..X5X5X6X].].5XtXtXaX6XtXaXpXiXpXfX<X8X8XpXkX7XkXaX].5XaXjXkXjXjXpXjX;X^.(.rX;X5X5X8XpXtX8Xk.tX^.tXpX3X",
"g g v v c 8 9 P ~ Y T R  .T b ! ~ ~ ( Y m !  .I.I.T.E.E.U.C.I.U.U.I.I.Y.U.Y.U.U.=XE.Y.E.Y.Y.I.T.Y.Y.Y.E.R.E.@XR.R.U.U.N.E.U. .k.",
"5.z j g f b g T 4.4.x e.w.4.=.x 8.e.e.3.2.L.~.K.!.!.!.).5X_.L._.3X_._.~.L.K._.~.Z.K.K.Z.Z.K.F.e.7.9.e.<.&.,.0.0.7.<.;.>.>.>.A A ",
"&X(.&X&X8XM.$.&X5 O.].).).Q.v W.5Xv.c.3X5X(.-XpXiXqXpXaXaX:XU. .[ c.5XhXaXhX;XT.aXkXhXkX;X!.U.C.W.W.!.].tXeXtXtX5XtX9X6X6X5X.X5X",
"' ].,X,X0Xz.z.M.f ! ].).6XP . 3X).P 8X5XU.* * :XpXuXpX;XP ! U.].5XA.f ! tXrXh 2 M.kXjX<Xh.H.j.j.q.e.e.~ pX-X7 (.tX` v tX| 7 ;X8X",
"@ v c.B.*X{ m.M._ [ ;X.X| X f 5X!.b 5X5X~ l 5.9X<XpXpXtX_..XA.A.C.(.].5XjX(.1 H.W.aXpXpXaXjXaXaXpXtXtXpXpXY 1.[ -X; Z c.E A O.tX",
"z.~ P n O.m N.#.b W 3Xr . o [ tX!.P 5X].T -.f ! % (.tX(.c.U.c.k.U.(.R.E.aXc.k U.5XE.fXpX<X5X8XpXuXrXrXaXaXj.4 v.8X=.4 .Xj.A H.pX",
"h.h.v.M.m.U.;Xv.W W b + 4 > ].).h.b ].;XH.3.E W g !.tXY ~ 5.k b P f s * (.U.-.~ eXc.@X!.E E b E G G g ;XaXpX:XaXaXtX5XtX5X;XtX8X",
"8 ! (.^.O.& 8 ;XN.v Y , * v.;X(.z g W.;X!.x Y b [ 5XtXtXtXpXtXtXhXhXeXtXaX8X3.E W.= N.tXtXeX5X5X.X~.]..XtX8X7X8X<X,XrX8X;X(.tX8X",
"v.h. .z.[ j.Q.8Xc.q .X! ~ !.7X5Xv.a 5X].h.w.S.q. .O.tX(.U.(.(.U.(.-XE.`.pXaXH E P 7.pXuX-X:X:X<X8X8X8XtX;X= < < V D D Y G > ] 8X",
"W d * g j ! P M.A.j :XW.Y b N.)./.z.7Xv.v.T q.r.-.E 8Xq.~ ~ T E q.( 9.D c.aX .-.a.q.rXk.D D K D D d >  .;X- 1.1.i.d.1.1.t.<.R ;X",
"5.5.j.Q j.Y a W W.R.%X%X' [ v.W.].].].;X].W.^.&X].tXrX5XtX6X5X~.].6XeXXX!.tXtX~.3X;XrX].5X4XoX.X5X4XoX.XtX;X5X8XpXrX;X;X).v.l..X",
"3.E ( c.[ ]  .( R R ! ! Y / X.X.( X.X.^ ^ ..X.X.....| R ^ ..^ R ( R ^ ^ ^ X.X./ k.k.X.X.X.X.X.k.+.+.C.C.C.k. . . .] Y G D L q.E ",
"~.L.|.).&X).).].5X6X5X5X.X_.XX.XXX6X5XeXeX5XtXyXeX5X5X6XeXeXL.P.oX|.P.XXtX5X X{.{.{.oXoXoX|. XoX X X|.F.G.F.G.r.a.p.r.p.d.[.oX_.",
"Q.~.v.@ @.+X@.*X' _ ;X*X(.(.(.&XO.` ,X] ;X7X+.o.;X&X].$.U U $X8XU.R.rX;X$XpX8XR.-XpXI.+.z. .c.h. .[ 7XtXM.;X3X3X8XuXrX7X7X8X8X].",
"f ! [ : m.%.@.,Xg a ;X,X&X[ O.;X5.s 3Xa $X7X( S.z.;X(.Y 8.s 5X5XT ^.pXh.k.pX:XY c.pX;X-X(.;X].W.^.c.W 8X> ;X8X:XuX8X8XiX8XU.].;X",
"q.c.Q u { _ +X%XY u ) o._ 9 v ! ~ G ;X].;X .w. .O.f M.).&XtXE.R Z.;XaX .U.pXtXP ^.pXI.c.c.c.k.h.v.c.l.5Xl.5XU.8 I.rX8X9XO.: v.5X",
").4Xa b ).,X,X$XN.N.c.[  .(.^./.h.W ;XU ].P e.5.).~.A.;XtXE.R G.h.8XuXh.U.pX5XY (.pXrXpXhXaXaXaXpXtXaXtXc.5X .;.).8X8X5X2.=.c.;X",
"v.c.f _ &X;X,X;X&XR.c.z.~ N.;X;Xv.b ;Xh.!.h.q.w.I.U 7X5X;X= d.e.W.8XrX~ !.rX8XT ^.pX(. .%X].E.-X<Xc.U.5XT ).E 8.,X8X7Xz.q.*.j.W.",
"h.b 5.9 *X,X;X;X$XR.M.P w &X;X:Xv.s ;X,X;Xc.v.~ s j.7X5X:Xl.=.j.5X8X:XE !.tX8X5.^.tX^.j.).].R.W.U.~ Q.8XW.5Xl.-.,X` c.].v.k U.! ",
"h.Y n } ' $X(.(.N.f P  .^.;X&X).~ E N.P (.v.j.Q.S.W (.5X5X8Xq.h.;X8XW.l.h.tXW.Y ~ tXv.[ -X(.;X;X(. .(.;XT 5XU.k ' s (.8XW.8 g q.",
"Q.Q.v.Q.v.R.;X&X&X3X7X&X&X;X;X;XQ.).).~.;X7X).H.}.v.v.7X5X8X~.h.z.;XW.].]..Xj.~.H.;X5XQ.v.H.l.v.j.j C.3XE 5X!.;.e.~ ;X3Xv.F t.m ",
"U U b v U ` o.o.] o.#.$.o.M.M. .[ [ c.M.U.N.U.U.N.U.U.M.U.R.R.U.M.M.T.R.M.M.U.U.Y.E.(.-X-X(.(.(.$X(.(.U.!.;X-XU.^.(.).^.^.W.Q.H.",
"K K K K H 3.-.3.w.w.9.e.j.~ q.8.7.8.8.7.-.7.L L L L -.r.p.a.<.;.0.<.<.8.0.0.<.9.0.9.7.7.,.,.,.,.,.-.C 3 D k k G z k s 1 d j Y R ",
"H.h.h.H.W./.;X/.^.W.W.Q./.N.M.).Q.~.~.!.).).Q.Q.~.).}.l.R ( |.).)..X}.oX.X~.oXoX~._.oXoXoXoX.X|.|.|.}.|.D.D.D.D.D.[.a.t.a.t.r.t.",
"v.  v ^.^.^.%X$X0 r (.W.[ N.R.(.(.).v r (.].).&X;X&Xt @ - O 9 &X(.) (.c.+.;X].e     o..X8XU.o.7X;X;XO.o.5X-X;X$Xr ] ;XR.U ^.].o.",
"9 # W W.W.^.^._ z 2.M.^.~ v.(.U.^.N.f 5.(.).(.].8X;X] j.f.f.W %XW.Y [ j.j.M.] z l 2 a v.U.Q.j.;X;X].T E ;X3X8X+.*.z ).!.d !.].z ",
"* : [ W.v.V.r q 3.E ^.!.h.W.).(.c.6 k ~ ).).^.).<X,X;X&X%X%X%X%X%Xh.h.h.l.j * T H x ~ w Y W.c.;X(.n ;.6.].(.) j ;.5.:XW.T /.].l ",
", i W.U.Q.' u j.Y h.v.z.P +.U.M.% z H N.).(.^.(.&X&X^.^.$XW.W.W.(.R.U.5.j.2.;.8 8 8 f ;.w. .~ ].0 H <.l./.f Y j.=.U.;XU.T H.^.f.",
"$ h.N.W.z.g 5.' W v.z.h.W h.c.8 2 =.T (.]./.)..X).(.W.U.v.N.Q.W.^.#X^.f.5.T Y G j j.n.j.W.l.l.U k y.T /. .;.8.H j.;XO.O.j T l.^.",
"b x.v.N.} [ N ' ! U.W.v.b ^.^.v.T j [ ^.c.8 7 ] ).U.z.P v y n h.v.+X;X&X5.g [ h.T v.3X).3XW.U.h.2.2.v.N.H 0.Q x U.,X0X(.m n.Q.W.",
"f [ z.N.n n B.] [ z.N.U.W R.(.^.~ Q O.U.b l F s v.b c [ z.O.c % h.R.&X(.T g v.v.Y v.] 6  .h.[ ].h.~ N.~ , h.M.[ N.*X,XR.m N.W.^.",
"b ! c.^.g.m.N.[ ! [ z.U.' B.^.Q.h.[  .v.c.A.U.v.).&XN.[ W [ N.W.).;X/.H.b.q.~ v.l.H.d 3 b h.v.].h.~ h.l.q.(.R.O.z.N.*X+XY N.U.[ ",
"8 w 0 r r 0 0 w w r r e 0 w 9 9 7 7 q j h w P g U ) U v v W ' I _ ! ! b b [ P W [ [ [ [ O.c.c.c.z.k.c.c.c.N.R.R.R.M.R.R.M.x.x.x."
};
