/* XPM */
static char *d324b14969a442c3e48916c945ba7620xUQ8mwgvyNciOr6D[] = {
/* columns rows colors chars-per-pixel */
"64 64 207 2 ",
"   c #3C1912",
".  c #491A08",
"X  c #5D2C0C",
"o  c #552E19",
"O  c #5C311C",
"+  c #6C330E",
"@  c #622E17",
"#  c #6C3514",
"$  c #63331D",
"%  c #6C361A",
"&  c #6B391C",
"*  c #763E1C",
"=  c #5E3B28",
"-  c #643A24",
";  c #6C3B23",
":  c #683925",
">  c #733E21",
",  c #7C3F20",
"<  c #7D421D",
"1  c #6D4026",
"2  c #6D432B",
"3  c #744224",
"4  c #7C4527",
"5  c #7F4827",
"6  c #74452A",
"7  c #7E4729",
"8  c #76482F",
"9  c #7D4B2C",
"0  c #684731",
"q  c #6E4C33",
"w  c #6F4F39",
"e  c #744C33",
"r  c #7A4E32",
"t  c #715337",
"y  c #7D5235",
"u  c #73543C",
"i  c #7B5539",
"p  c #77583F",
"a  c #7D5B3F",
"s  c #755D45",
"d  c #7C5E44",
"f  c #7E674A",
"g  c #814727",
"h  c #854A24",
"j  c #804729",
"k  c #834D2D",
"l  c #8A4E2A",
"z  c #87512E",
"x  c #8C522C",
"c  c #92552D",
"v  c #94582F",
"b  c #854E31",
"n  c #835333",
"m  c #8A5432",
"M  c #8C5A36",
"N  c #845738",
"B  c #865938",
"V  c #845A3C",
"C  c #8B5D3C",
"Z  c #925731",
"A  c #955B34",
"S  c #995D35",
"D  c #925E3A",
"F  c #995F38",
"G  c #87603D",
"H  c #8C613D",
"J  c #9C6236",
"K  c #94623C",
"L  c #9C643B",
"P  c #9D693D",
"I  c #A1663B",
"U  c #A5693A",
"Y  c #A36A3D",
"T  c #A6713E",
"R  c #845E41",
"E  c #846345",
"W  c #8C6444",
"Q  c #8C6947",
"!  c #856649",
"~  c #8B6649",
"^  c #856B4B",
"/  c #8D6B4B",
"(  c #916643",
")  c #956B46",
"_  c #9C6B43",
"`  c #936C4C",
"'  c #996F4A",
"]  c #8E734C",
"[  c #997046",
"{  c #95714E",
"}  c #9B724D",
"|  c #936E51",
" . c #8E7253",
".. c #957352",
"X. c #997654",
"o. c #957956",
"O. c #9C7954",
"+. c #977D5B",
"@. c #9C7C5A",
"#. c #A46C41",
"$. c #A86E42",
"%. c #A57145",
"&. c #AB7345",
"*. c #AF7947",
"=. c #A3754B",
"-. c #AC7649",
";. c #A5794E",
":. c #AD7A4C",
">. c #B07746",
",. c #B07947",
"<. c #B37C4C",
"1. c #B87F4E",
"2. c #A17750",
"3. c #A47C53",
"4. c #AD7E52",
"5. c #A37E5A",
"6. c #B37F51",
"7. c #9D805B",
"8. c #B6814E",
"9. c #B9824E",
"0. c #A78356",
"q. c #AC8255",
"w. c #A4815B",
"e. c #AB855B",
"r. c #AE895C",
"t. c #B48453",
"y. c #BB8552",
"u. c #B38856",
"i. c #BD8A55",
"p. c #B38759",
"a. c #B48A5C",
"s. c #BC8D5A",
"d. c #BD915D",
"f. c #9D8665",
"g. c #A58867",
"h. c #A68866",
"j. c #AD8C63",
"k. c #AA8D69",
"l. c #B38D62",
"z. c #BA8F61",
"x. c #AE9066",
"c. c #B49264",
"v. c #BB9463",
"b. c #BE9865",
"n. c #B5936A",
"m. c #BC9769",
"M. c #BD9B6B",
"N. c #BD9E71",
"B. c #C18C56",
"V. c #C28E59",
"C. c #C69057",
"Z. c #C89357",
"A. c #C5925B",
"S. c #C9965D",
"D. c #CB995E",
"F. c #C39662",
"G. c #CA9760",
"H. c #C49A65",
"J. c #CD9C62",
"K. c #C49D6B",
"L. c #CA9E69",
"P. c #D09E63",
"I. c #C09F71",
"U. c #CEA065",
"Y. c #C5A16D",
"T. c #CBA26B",
"R. c #C9A86E",
"E. c #D3A266",
"W. c #D4A669",
"Q. c #DAA76B",
"!. c #D6A96B",
"~. c #D6A96C",
"^. c #D7AA6E",
"/. c #D9A96B",
"(. c #D9AD6D",
"). c #DAAC6D",
"_. c #DDB06F",
"`. c #C3A272",
"'. c #CAA673",
"]. c #CEA571",
"[. c #CDAA76",
"{. c #CDAD7A",
"}. c #D1A770",
"|. c #D5AA72",
" X c #D5AB72",
".X c #D5AA74",
"XX c #D6AD75",
"oX c #DAAE73",
"OX c #D9AE76",
"+X c #D1AD78",
"@X c #D8AF78",
"#X c #CEB17D",
"$X c #D7B077",
"%X c #DCB173",
"&X c #DAB075",
"*X c #D4B27C",
"=X c #DAB379",
"-X c #DCB47A",
";X c #DDB57A",
":X c #DEB87E",
">X c #E1B574",
",X c #E2B875",
"<X c #E0B67B",
"1X c #E2BA7D",
"2X c #DAB581",
"3X c #DEBA80",
"4X c #E2BD82",
/* pixels */
"OXOXOXOXOXOXOXOXOX.X.XOXq.u Y.H.m.@XOXXXXXXX.X|.].T.G ..=X&X=XXXT.T.T.=X-X-X-XT.t c.].XXv.n.XXXXXX|.^.^.}.}.}.}.T.}.e...].H.|.-X",
"J.J.E.E.E.E.E.E.E.P.J.P.9.X.K.L.^.W.W.W.W.W.W.W.W.Q.:.v.>X%X%XoXU.U.W.&X-X%X&X(.3.W.J.d.F.^.E.E.W.W.W.W.W.W.W.E.W.W.i.l.E.J.!.(.",
"F.G.E.E.E.E.J.J.E.J.J.J.$.2.W.P.P.E.P.J.J.G.A.A.A.E.-.a./.(.(.%X&X&X%XoX!.oXoXW.} s.a.F.P.J.P.E.J.G.A.A.V.S.E.E.J.E.8.0.J.A.E.!.",
"A.s.A.J.J.S.S.V.A.J.J.<.A =.P.S.J.J.J.A.A.A.Z.A.B.J._ q.W.W.!.!.^.!.W.W.!.^.^.W.( 0.S.S.S.D.J.A.y.i.i.i.B.S.J.D.P.S.Y 0.S.B.S.E.",
"V.i.i.A.A.i.i.B.A.V.-.L A ) V.S.S.S.S.S.A.A.B.i.A.y.D [ s.E.W.W.!././.^.^.E.G.t.C =.9.A.Z.S.A.A.V.A.A.S.S.D.S.S.B.&.A =.C.y.i.P.",
"i.B.B.i.i.y.1.<.&.L x x h 3 A #.&.*.<.<.-.Y Y Y L A 3 B J Y <.8.y.y.i.i.t.&.$.v & A S Y >.<.9.9.9.9.1.<.<.*.-.$.J c h n U &.<.8.",
"& $ V ` { { { W R 6 ` { ` ! ` ~ W ~ e % 2 ` ` ` ` ` W i p ......o...i : V H : V Q { { / / ` ` ` ` ` ` Q ( y ; 3 6 X.@.o.O./ e ..",
"o.{.-X:X:X1X=X{.4XN.K.<X-X-X=X&XOX&Xa.  N.&XoXoXXXoXE.n.*X1X1X<X:X-X=.] R.m.n.n.'.|.=X-X:X:X-X-X-X-X=XXXXXJ.H   `.4X1X1X1X1X'.k.",
"{.1X(._._._.Y.=X>X1XM.E./.W.W.W.W.W.B.W $XP.E.E.E.F.`.-X(.^.^.^.(.E.$.{ M.XX,X%X}.T.L.L.W.^.(.(.(.(././.!.W.T +.4X(.%X%X%X%X1X-X",
"Y.(.(.(.%XT.'.>X%X_.:XM.W.W.W.W.E.E.y.V T.P.E.P.v.{.-X/.!.^.!./.^.J.U @.-X/./.(._.%X%X^.T.T.U.E.W.!./.!.E.E.Y r.>X(.(._.%X%X%X%X",
"Y.(.^.(.(.b.%X(.%X%X_.&Xv.E.E.E.E.P.9.W T.J.S.b.|.(.E.!.!.!.!.W.!.S.L c.(.W././.^.^.^.(.(.(.^.T.L.G.J.J.P.J.P c.%X!.(.(.(.(.%X%X",
"Y./.W.(.v.T.(.(.(.(.(.(.^.s.E.E.J.J.&.} U.A.K.^.W.E.W.W.W.W.W.E.W.V.J a.!.W.!./.!.!.!.!.!.!././.^.W.U.A.i.<.z v.(.E.W./.^.(.(.(.",
"K.E.!.F.r./.W.!.W.W.W.!.(.L.u.P.J.S.&.9 w.T.E.P.E.E.E.E.E.E.P.E.E.i.J 0.!.E.W.W.W.W.W.W.W.W.W.W.G.A.J.W.V.t.9 c./.J.E.W.W.E.W.!.",
"b.P.J.{ J.E.J.J.E.W.W.W.W./.d.t.D.i.I Q '.D.D.J.P.P.P.J.J.P.P.D.J.y.I 3.^.J.E.E.E.E.E.E.J.J.J.E.S.B.S.J.B.V.&.r.E.J.P.J.J.E.E.E.",
"v.P.:.s.E.J.S.J.J.P.E.E.E.E.W.u.8.&.v O.W.A.S.S.S.J.D.J.D.S.D.S.S.<.I } U.D.J.J.J.J.J.A.A.A.B.S.P.J.J.B.i.i.&.0.P.S.S.J.E.E.E.E.",
"a.y.3.J.S.S.S.S.S.S.D.J.D.J.D.A._ L S } J.V.A.A.S.S.S.S.S.S.A.A.A.&.I ' F.V.S.S.S.D.S.y.y.B.A.S.S.A.i.9.9.9.I 3.S.A.A.S.S.G.J.J.",
"3._ s.C.A.S.S.A.A.A.S.S.S.S.B.8.%.C A y u.V.A.A.A.A.A.A.A.A.V.A.9.L I W s.9.V.V.A.A.V.V.V.V.V.i.y.1.1.1.1.1.J 3.t.i.i.B.B.B.i.i.",
"~ ;.y.y.B.A.A.A.V.V.B.i.i.8.*.#.L L n y _ $.*.<.1.y.y.i.i.B.i.<.L L S N =.&.9.y.i.i.i.i.i.y.y.9.1.1.1.<.&.$.M ) L $.<.1.1.1.<.<.",
"o U J J J I U $.$.I #.I S A A A A v h 3 A c v c A A A L J S A v Z Z h 3 K v S Y Y I U Y Y Y Y Y $.Y L L A l , & x l c A J L Y Y ",
"^ X.O.X.o.X...8 6 ( r ~ { ..o.X.X.o.X.o.@.@.O.X.V C y 1 ~ ` ` ` / / ! s ^ C ( 6 N X.X.X.X.X.X.X.V W V @ e ` / f ....{ { ` ` y N ",
"4X4X4X4X4X4X4Xq.q n.b.-X:X3X4X4X4X4X4X4X4X4X4X4XH.4.%.f.2X=X-X-X-X-X:X:X-Xe.L.Q M.1X:X:X:X3X:X4XK.p.p.f {.:X3X4X4X1X4X1X:X1XH.) ",
"^.(.(.(.(.^.(.i.R ].%XoX(.(.oXoX%X%X%XoXoXoXoXoX^.=.D Y./.W.W.E.J.J.G.E./.d.P W L./.!./.!.!.!.!.(.s.n l.>X/.(.(.(.(.%X(.(.%X%Xu.",
"^.^.^.^.!.!.^.-.` |.W.^.^.!.^.(.^.^.^.^.|.oXoX!.E.s.; b.E.J.s.s.s.B.y.d.W.E.s.y d.E.J.J.J.E.E.J.W.W.L 0./.!.(.(.(.(.(.(.(.(.^.E.",
"J.J.J.U.E.W.F.S Q F.J.W.W.W.^.^.W.W.E.E.E.E.E.J.G.1.n b.D.G.A.A.A.A.A.J.J.G.S.B q.J.J.P.P.J.J.J.E.A.L 3.E.E.W.!.W.W.!.W.W.!./.S.",
"J.J.J.J.G.i.Y A C L #.<.i.V.A.F.A.A.A.A.A.A.y.8.&.S C d.A.A.A.S.A.A.A.V.i.t.$.n _ 1.i.V.V.A.V.V.y.-.A ( -.u.V.A.A.S.J.J.J.J.A.<.",
"m m m M m 7 b 9 e B k 7 j m k b k k b m m m M 5 4 7 0 W m M M z A D M m b k j $ ; 4 j k k k m m m z + e 4 x < 7 n B C K D D m m ",
"N.N.j. .{.#X#X#X#X{.{.{.w.n.{.[.'.[.[.'.'.`.2 7.`.K.`.`.`.`.`.x.@.j.m.Y.`.`.`.N.N.I.`.`.N.M...u e./ k.I.b.+.f.{.{.{.{.[.'.'.3.0 ",
"!.(.E.M.,XoX^.%X,X,X,X,X,X}.T.%X,X,X&X%X%X(.K u.E.W./.^.(.^.^.oXXX].T.T.W./.(.(.(.(.(.(.(.(.G.} H.].^.H.v.{.1X>X>X%X%X>X%X%XE./ ",
"S.A.A.v.!.s.C.A.(.(.^.(.(.%XoXL.L.^._.(.(.E.K C =.2.4.u.s.A.A.S.J.E.E.U.L.L.G.J.J.E.E.E.J.J.q.3.J.A.a.M.OX(.!.^.(.(.(.^.J.A.s.e.",
"C.B.8.c.!.J.S.E.W.S.S.E.(.W.^.(.W.L.U.^.^.J.K p.J.H.H.H.b.v.a.a.e.q.q.t.u.t.8.:.*.&.=.3.z.A.:.( ;.e.L.W.E.E.!.W.U.J.J.W.J.G.i.3.",
"<.y.y.a.E.J.s.A.d.i.B.i.J.S.S.G.G.F.A.H.U.A.C :.C.Z.S.S.D.D.J.J.G.G.F.F.d.d.s.t.} ` l.H.V.i._ R a.S.D.S.J.E.J.A.A.Z.i.G.J.P.<.2.",
"A.A.y.;.D.S.A.G.A.u.s.A.s.C.B.V.F.G.J.G.A.<.n #.B.B.V.V.V.V.A.A.A.A.A.Z.S.Z.A.F.K.L.s.4.t.i.%._ Z.B.V.A.A.S.y.B.B.y.V.S.S.V.I ) ",
"i.B.:.B <.A.J.G.J.J.J.J.A.s.s.S.J.G.S.S.S.6.r K <.B.B.B.B.B.B.V.V.V.V.A.B.s.F.F.i.:.6.y.B.y.$.B y.i.B.V.V.V.y.<.1.i.i.y.1.&.A C ",
"J L l r A S Y *.1.<.<.1.y.y.y.8.8.8.8.<.&.S % k c Y &.&.<.<.&.&.<.*.&.&.&.*.&.#._ $.&.&.$.I z X z A I I I I #.#.I J S v A c z n ",
"..` ` q - ` O.R u @.@.X.R e / X.O.X.{ ` ` ` ^ / | ` ` ` r ; V B N W ` / ` V 1 O / ../ ! R R d s ~ ~ ` ~ ~ i & ; i ~ ` ` ` ` V w ",
"|.^.|.F.{ '.v.v.v.T.OX&X^.K.m.c.v.T.|.%X&XXXXXXX}.T.|.|.:.] }.b.c.XX&XOXOX|.q.^ -X-X-X-X-X-X:X=XXXXX=X=X-X].u n.'.'.].T.K.Y.K.K.",
"A.S.E.S.3.H.A.E.E.G.A.J.W.W.W.E.H.s.s.A.A.S.J.D.S.A.J.W.<.0.b.v.W.W.W.W.W.W.A.e.W.W.!.!././.J.D.S.A.A.!./.W.3.A.i.y.i.s.F.H.J.J.",
"S.G.P.B.} J.S.S.S.J.G.A.S.J.J.J.E.E.J.F.s.s.A.A.A.G.J.P.&./ T.E.J.A.S.E.E.E.A.} Z.S.E.E.W.W.A.B.B.B.G.W.E.i.W p.p.s.A.S.S.G.A.A.",
"V.V.y.&.( s.A.A.A.S.S.G.A.A.S.J.J.J.J.J.A.A.i.s.S.J.J.A.A ;.P.S.S.A.S.P.P.G.*.Q <.y.V.S.J.J.J.G.J.J.G.y.-.I ) y.9.B.B.V.A.A.y.i.",
"L A x x 2 C A _ _ L #.L S v S %.<.<.1.8.y.i.y.9.9.1.*.J * B <.*.,.<.y.<.$.A A B M L &.<.y.8.<.<.&.I S A A Z 6 A S I I Y $.$.Y L ",
"`.`.`.`.M.K.n.= Q l.o. .k.k.k.g.g.g.g.w.W 3 W ` ` ` ` { /  .....{ / 2 Q ..` 1 u ..' ) B - ~ ..| | ..X.O.X...^ ..X.....a R O.O.} ",
",X,X,X,X>X%XoX4.K.v.K.OXOXoX%XOXXXOX|..XK.a K.|.XXOX&X=X-X-X-X-X-X-XY.n.[.^.W I.^.E.F.j.M.=X:X:X-X-X-X=X-X-X-X&X&X&XOX}.v.j.b.L.",
"W.W.W.!.J.J.A.} a.J.E.E.D.D.A.A.A.S.J.J.S.;.S.P.E.E.W.W.W.W.W.W.W.W.^.U.u.y.=.y.y.3.n.|.(././././././.!.!.!.!.!.!.!.W.E.s.0.l.;.",
"J.J.S.U.J.G.F.=.S.S.S.S.A.A.A.V.A.S.S.G.A.) i.S.J.J.P.E.E.E.E.E.E.P.J.S.S.=.r O.p.v.v.d.F.J.J.E.W.W.W.E.E.W.E.W.E.J.F.v.F.E.P.S.",
"S.A.s.J.E.U.J.=.i.B.A.s.s.B.V.A.A.A.A.A.y.) 3.4.V.S.S.S.S.S.S.S.A.A.B.t.-.Y N ;.i.y.B.A.A.d.d.A.A.G.J.J.P.J.P.J.d.a.F.G.D.A.A.A.",
"A.B.G.J.J.J.S.C L #.$.#.#.&.&.%.$.#.#.#.L 9 L L #.&.<.8.8.8.1.1.-.Y L A A S n <.9.y.y.i.B.B.B.s.s.s.s.A.A.S.A.s.s.A.A.A.A.A.i.&.",
"p.p.p.q.;.=._ - 9 b b k 7 k k z k l A x > . 3 k n n N N N B N 9 k C C C C B q Q _ K L F S L $.#.I I Y Y L Y Y &.<.<.-.<.-.L v l ",
"{.{.{.{.{.{.{.{.'.'.'.`.v.r.3./ l.O.. o.`.`.'.{.{.{.{.*X*X+X*Xw.^ |.].+X[.[.[.'.'.r.0 @.w.W - 2 W ` ` ` ` ` ` ` ` ` ` y 2 ..5.w.",
"%XW.E./.(.(.(.^.^.(._._.%X^.G.;.u.E.W K.>XoX(.%X^.J.P.A.E.^.(.s.=.E.P.E.E.E.W.W.W./.H.e.G.i.E s.W.|.|.|.|.|.XX|.|.^.|.=.) ^.!.!.",
"W.J.A.J.W.W.E.J.J.W.W.W.J.A.A.B.C -.;.F.W.E.E.W.A.C.A.A.E.W.Q.<.) J.J.J.J.J.J.J.J.J.S.<.L T } <.V.P.J.P.P.E.P.J.J.E.A.L %.S.S.S.",
"W.W.W.W.E.E.E.E.E.E.J.S.i.y.y.<.#.M r t.D.J.J.J.G.G.J.E.J.A.t.K H Z.S.S.S.S.J.J.S.A.y.-.L B H %.&.B.J.J.J.J.J.J.J.V.#.D K i.S.J.",
"6.8.y.i.V.A.A.A.V.i.<.$.L L A c x Z 4 k U &.<.<.<.<.&.Y L S v x 3 Y <.9.i.B.i.8.*.$.S A S l 2 Z S S &.y.y.i.y.-.L x x l 4 S Y <.",
"8 R ` ` } } ' ' C C ( ( C 3 E { ../ w E { ' ' ` ` ` ` ` ` ` ` / E / ' ( m 9 B K m y ` ` ` ` ! / X.} B : ` V i ..X.X.X... ...` y ",
"j.=XOXOXOXOXXXY.l.T.XXXXF.d '.-X:X:X+X'.'.+X=X:X:X:X3X:X:X:X-X=X-X=X&X^.q @.}.a.r.Y.=X=X-X-X-X-X&XoXF...`.m.}.&X&X&X&X&X&XOXOXF.",
"^.E.E.W.W.J.v.F.E.G.J.E.S.5.^.E.^.(.%X%X^.T.T.T.W.!.(.(./././.W.W.W.E.J.} b.a.F.^./.W.W.W.^.!.W.W.E.A.w.H.W.!.W.W.W.W.W.W.W.E.S.",
"G.S.E.G.a.s.G.J.S.A.i.J.C.} L.E.E.F.J.(.(.oXoX^.W.U.L.U.E.E.W.E.E.E.J.S.( u.A.P.E.E.G.A.J.W.E.E.E.P.<.r.W.J.E.E.J.J.J.U.E.J.J.s.",
"J.A.:.=.s.D.S.i.y.y.V.S.y.` L.S.J.S.J.E.E.W.E.W.W.W.E.J.G.S.S.S.S.A.S.B.B :.B.B.S.J.J.J.J.J.J.J.D.y.&.3.J.S.S.G.S.S.S.S.S.J.A.<.",
"_ M Y <.9.y.y.i.y.y.y.1.Y R F.A.S.J.J.J.P.P.P.E.E.E.P.J.S.A.V.V.V.A.B.&.N K *.i.i.B.A.S.S.G.S.V.8.<.#.( 1.V.A.A.S.S.S.S.A.y.&.L ",
"> Z L I #.#.$.$.$.$.$.$.L r _ &.-.:.t.y.y.y.y.y.y.y.1.<.<.<.9.9.1.&.L v 9 K A L $.$.&.Y L J S c v v # n A A Y #.$.$.$.#.L A S A ",
"R W ( N y W ( W W B 9 b 6 o 6 5 g g j B ( ) ) ` ' } } } } } ' ) ) ) ) ( e - B V B y : ` 5.5.w.w.w.@.X...` Q ` ' } ' ' ` ( W H C ",
"|.^.K.c.Y.!.^.^.^.L.a.s.H.v.l.l.j.l.! ` s.H.J.L.L.U.L.L.K.T.T.T.T.K.K.K.n.k.a.F.v.s.! [.<X<X1X1X1X1X1X<X&X}.T.T.T.^.^.^.!.!.W.J.",
"G.v.F.W.E.S.J.J.E.E.E.P.G.P.P.P.P.E.u.=.t.t.t.4.t.i.i.s.y.4.a.s.v.F.L.U.U.E.A.;.<.i.=.A.E.E.W.W.W./.!./.^.(.^.W.U.J.G.J.J.G.L.K.",
"s.F.J.S.S.S.S.S.S.G.S.S.A.V.i.B.B.A.*.4.B.B.V.V.V.V.s.i.s.A.F.J.J.D.D.D.D.S.A.*.K L C y.S.E.E.E.E.G.A.J.J.A.A.E.J.G.A.s.s.F.G.S.",
"V.V.V.V.V.V.B.V.V.V.V.i.y.y.8.1.8.i.L _ ,.1.9.y.i.B.B.B.V.A.A.V.V.A.A.V.i.<.#.Y P z y =.&.i.A.G.S.i.s.A.y.y.y.s.V.V.V.A.B.t.y.i."
};
