/* XPM */
static char *_678487272784d52fb4a46f34a174633chDGkIFKhVLkbTXi[] = {
/* columns rows colors chars-per-pixel */
"64 64 27 1 ",
"  c #F4C376",
". c #F5C778",
"X c #F6CD7D",
"o c #F6D17F",
"O c #F6CF80",
"+ c #F7D482",
"@ c #F7D784",
"# c #F8D682",
"$ c #F8D784",
"% c #F7D883",
"& c #F7D884",
"* c #F7DC87",
"= c #F8D983",
"- c #F8DA86",
"; c #F8DE87",
": c #F7DC88",
"> c #F9DE88",
", c #F9E087",
"< c #F7E089",
"1 c #F9E289",
"2 c #F9E48B",
"3 c #F9E38C",
"4 c #FAE78C",
"5 c #FAE88F",
"6 c #FAEA90",
"7 c #FAED91",
"8 c #FBEF94",
/* pixels */
"&+oo+@;11>@+++++@&@+oXoo++&121-++oooooo+-;144441>-;>>&+;16411&X.",
"@$-&;11&++XXXXXXXXXXo++-;11>+ooo++*>1123111*&->6644-+XXXXoX..XX+",
"+$&;1-+XX++++++++O+++;121;+XX+->1243133;+Xo+oXXXo+XXXoooXXX+&>12",
"+&&-+XX++@-;;;;&-++->11-+Xo+;1241-++oXXXX+@>131&+o+->11144444454",
"11;&+++&;144555455441@oXX+;11;&+o+++++o++#++o++-;:11566541>@XXXX",
"41>>>>1241>;>---;>>&+Xo+;1;&+oXXo++&;11;&+++++XX+++XX+++XXXXXXXX",
"+++;475>@+XXXXXXXXXXo+;>;+o++++++-1241&+@&124443>&+oX   X+;111&+",
"XXX++@+XXXXXXX++XXX+@-&+o+&>3454441-+o+$&;--@->1445651%+-11>1477",
"oXo+XXXXX++$-;>;;-&;>&&->21;14441&XXX+$-@+XX+oXo#&11>>>>-+XXXX+>",
"541&++++%;11454145422441;+oXXXXXXXX+@--+oo+->-&&+XX.X++@+++oXX. ",
"411244425211>-+++&-;;&+oXo++%%+o++-1441;;>1;--&---;-*>1144421114",
" X@&&;11;@+++XXoXXXXXXo&144112564411&+&11;+o++$--&*1311446668751",
"+$++o++XXXXX+O++++oo+&;1>&++o+*11&+XXXXXXXX+++$$++oXXX. XXXXXX.X",
"4&++++++++++@-;>11221&+oXXXXXXXXXXX++&-&+@---&@++++++ooooXXXXXX+",
"+++++++++@;12455544;%+-;;;111;&++-;1445652>&$$++++#-&-;&-&--;;11",
"++++--;;;444>+oXXXXX+;155654555554441>--;&++$$@++++#-;;111212221",
"#++@->1241@XXo+o++&-&&++@+++++->3>-+++++++++@-;;;;;11122;;;%ooXX",
"+++&---&-oXo&>4541*@++++++++++XXoo+++++++--;1225552,=++oXXXXXo+;",
"-;1*&#++++@*>-++oXXXo+&&--->11>&&@&-&;112222441;;-+oo%;;;;=+++++",
"12;+++++&;>>@+oXXo+&>342246641;>;;12454541>-++++o++++&17522;;-+X",
"+++&;;1>>1-+o+@-12441;>1111-++&>124>>;++++++++++++++oXXoo+&14665",
"@->>>1>-++o+@>441>>+Xo+++XXXo+;>;&+XXXXXXo++-&&&&--%++XXo+-;;>&&",
">>;&@+XXoX+-11;+XXXX++++oX++&>*&+XXXXXo+++@&&&&&-12421-&&&+oXXXX",
";$++++OXX+&>&+XXoo+--++++@;>>-+oX++++@;;11111-&**;&+;454;@+ooo++",
"o+++++++-;&+XX+&>1>&++-->11;+oo+++&;1442464;-&&-+oXo++&&-$+++&-&",
"XX++&122;-+++&>11-++&;111;&++++;114541;+ooXXX++++++++oXo+&144111",
"1-&11;++++;1141+Xo@;11;&+++++--1441&+oXXXXo+oo+++++++++$@+>41&-;",
"5552;XX+-1441&oX+&>-&+++Xo++-;-&++XXXX++$-;--&++++++++@-+oXXXX++",
"+&-+XX+&;++oXXo+&-&+oXO+++-;&@+XXXO+++@;125664;++++---&+++o+XXXX",
"+++++@&&+XXXo+-&&+ooo++->11;@++o++++-;1>-++&-@&++@>44211-@++++++",
"466421>;&-;;11>+++++&;121-@++@&-;;;111;++XXXXX++&;1:&%-1444>1411",
"&->>1;;;14554>++-;12541=++++&>256664;+++++++o+-&-&+XXXXo+->57534",
"..XXXo++++++XX+;141;;%XX++&&*;-@&&&+o+++&;1111>-@++++++XXXXXoXo+",
"XXXXXX++XXXo++&-++XXXXX+&&&-+oXXXXXXX++->11441-++++++@++++XXXXXX",
"+++++--&@++->>@+XXXXX++>>&++o+++&@+o+@&*-@+++++++++--;141-&;&--+",
"111221111444>+++@&--;11>%++++-1466411>-&++++++++@->1411146754567",
"6761;++++&-+XX+&>45541-++++&>1>&&-141-++++++++@-;11>-+XXo++oooo+",
"+++XX++++XXXo+$-&&>;++o++->>;+XXXXXXXo++++@&-;11;-+oXXo+XXX++++X",
"XXXo+@&&&@+++@@++XXXXX+&>>-++o++++oXXo++->4552;&++X+++;1441>>>>&",
"XXo+-&-&*>>;--$++oXo+&>>&++o++-;13441;;>1111>+++++++++&&:1>++&&1",
"++&&----&;12;&&>111111;++oo+&>124444441-+oX++++++++&-+XXXXXX+&;1",
",11>&#++#+o++++&1454>+oo++&->;&++++++++XX+++++++&&>1421>&&>11;+X",
"54;+o+o++++XoooXXXXXX+++->11-$+XXXX++X++++@+++&>1344>-;141;@+oXX",
"++Xo+++XXXX+++@--&+++@->1>-++$@++++++@->>1141243>&+XXXX+++XXo+++",
"XXo+&;>>&+++-;>134444441-+XO++++-;&--;,243>>>>&+XXXXo+oXXXX+->11",
"++->>1>>14444>-+oo+@-;;+XX++++@&>>>11;;&+XXXXXXX++&&&&;;--;1441;",
"&&>&-++++&>>-+XXXXXXXXoo+++->>111>-&-&++oo+++-;14455556774>-+oXX",
"-&@+XXXo++XXXX+++&;>1>&--*>>>;;;&+o++++@&>1221>1-&&++++o++oXXXXo",
"-@@@+++oXX+Oo+@;1541;-;;11;-++oXXo++++++@;1>++oXXXXXXXXXXoo++@-;",
"+@&>444>++++&;>>;-++o+++++oo+XXo++++++#$++ooo++++++-1122111>>112",
"++++-1411;;;1>;$+XX+++++++++++-;&+++@11+++o++&>34111;@&;>6641-+X",
"++ooXXo%12211&+++++@---++@@&>11-@#@++++o+@&-&>1111&+XXXXXXXXXXXX",
"@+++-;,221-++o+++;11>-+++@-&;++++-;>-++@->1>-&+ooo++-121>;++o++&",
">>>;1421&+XXo++;141;+oo+@&-&&&-;>>13111>>;&++++++++&;1;-&;1311<1",
">>;-%+o++++++->>&+XXX+&->&&$@->>&++o++&&+oo+++@@&&@@+XXXXo+&;&+o",
"@$++++o++$;11>-+Xo+-;11>-++++O+oXOXX+++oXo+++&;11&&++++&--+XXXXX",
"XXXXX++++++&+oX++&--11-++++++@@++++++++++&*>>>11>&@&;11211411;&+",
"Xo+++++++oXXX+&-;&@+XXXo++&;12211331>;;>1>11--&+++++;;&++++-;454",
"11>>&&&--;>>111;*>11>----;>;;1>;>1314541;-+oOOOXoo+oXXXXXXXXXX&;",
";---&*>1111>-+oo+++++->11;&+ooXOXXX++@@++oo+OO+++++++o++-;;;-+XX",
"++-&;11;+oXo+++++++ooo+++oXXo++++++OXXXO+++&--;1111>>>-;11121>-+",
"&&*>;-+oo+;11>>:;>>>;;-+++++->1;--;>&&@-;>>>11111;-;;>-&+oX++&-;",
">>&&+oo++-;--&&-;1441>->>11>>1>-->14541;--&&@+++XXX++o+XXXo+++--",
"-+++++++++XX+++++++++o++&;;++oo++++++++++++++++++++++++++++@&-&+"
};
