/* XPM */
static char *fd3493d8ab9e4229d94b2ac9e91fce01IAOb7B9DcwDuOimM[] = {
/* columns rows colors chars-per-pixel */
"64 64 77 1 ",
"  c #867667",
". c #897A64",
"X c #867C6C",
"o c #8B7D6D",
"O c #907F6C",
"+ c #877D70",
"@ c #8D7F71",
"# c #8A806E",
"$ c #94856E",
"% c #99876E",
"& c #878172",
"* c #8E8273",
"= c #8C867C",
"- c #948574",
"; c #988774",
": c #968975",
"> c #9B8B76",
", c #948779",
"< c #968A7A",
"1 c #9C8D7A",
"2 c #97917E",
"3 c #9E907C",
"4 c #A18E76",
"5 c #A18F7B",
"6 c #A29275",
"7 c #A3937D",
"8 c #A9967E",
"9 c #A7987F",
"0 c #AA987F",
"q c #9C8E81",
"w c #9E9281",
"e c #A39581",
"r c #A49480",
"t c #A69683",
"y c #A49684",
"u c #A89784",
"i c #A79882",
"p c #A79986",
"a c #A99981",
"s c #AD9B83",
"d c #AA9C83",
"f c #AF9D83",
"g c #A99884",
"h c #AE9A85",
"j c #AB9C87",
"k c #AC9C85",
"l c #A39488",
"z c #A69A8A",
"x c #A99C88",
"c c #AC9C88",
"v c #AC9D89",
"b c #AC9E89",
"n c #B19B80",
"m c #B19D85",
"M c #B09F87",
"N c #B19E8B",
"B c #AE9F93",
"V c #AEA084",
"C c #AEA08B",
"Z c #B3A286",
"A c #B3A189",
"S c #B4A088",
"D c #B1A18C",
"F c #B3A28C",
"G c #B4A08D",
"H c #B4A28D",
"J c #B8A48B",
"K c #B9A68D",
"L c #BBAA8D",
"P c #BDA88F",
"I c #B1A391",
"U c #B4A491",
"Y c #B8A692",
"T c #BBAA93",
"R c #C1AE99",
"E c #C3B195",
"W c #C3B39C",
/* pixels */
"g7irrigikukae99r99999rrraa737>3771>gkr69krrgr79ugr774r7679r7rraa",
",,7r->91re,37*;93X$1677>>3<11;71>eg7r7677q>n3-17w17<6r>7198aaVar",
"eI71yD6yG7p9.<c71ck61;7r97rh>gN7M4>17rA74ea77j197s4ja>p1cj3rur11",
"1;rr16rgM%ahrru>7MfM->u177667>1>*wjs077ra9ger7ra976k7Akrs7g161kD",
"jG>r7161u76a67s71**<3A7r9ar97NJkZLkg0r76k97rr1kMg7479*1f,y7771s8",
"78kcja1<l>3711g17YAa7kg7ug67arera61y94rpCkaa11113r79apD>eNNk9677",
"re33g9>hTANu>rceDkkku7egGhaa7ggrrr9kaaKAMkkkaGhu9a9a99aAG8999999",
"3eygaa7uggeggcjgy31717775r996r7746669a9716rr979r7377716611333337",
"gs8gj33a9aergagkcccDarg7kauhhugssa;6jrfci7r17r9r939rggrrrraarrri",
"7<:u9>169rr17g3<ia9ar7$511$eg>;31;119a11e18111769r37179ry17717d7",
"7ek777ri976r71<cA:1<M7r711gce7Dprg1g9arS7j6kk77r961Zkrrr1>1qaa>7",
"gpM61;e>-;6rwcec9zzIh3Y079GrrcYM0Ka$r9-141a19r7>;ar,gk97ySAkS7er",
"p7a;3hrgrgk1kPgT9GYGrwAfNgu9y<w1-;rkD9gckZrr63:1a73gM167ro @u9gg",
"3397,3:cuG7ererUaakrA73;r1396jG3ypGMga>e1g993<cka63Ms7771AKNkrMA",
"e:7><Acgkc7jggcggaak91:g9aAaaDGATTk3a67ZgA;#=A87r7era7977gre4979",
"w3p3cAa9igecppgggajggggGcDcggyyyyggcrrGf87yURA$6g67rrgr996i9rr1e",
"akDAh5regpepjcggprcrrgcgerguucggppggrrrr7euAsa69997ggr769aa77777",
"1>>1eaju7ragcgcygcgprrrrerye7rerrg9yrpe17yh93e9777rrgrerrr>3677r",
"+eygiere1ee,yAcccpgggNDcggckgcy79wks98-eae39hj71rgggcr3r99;1ka6>",
"C7>c:,11rK4cGq1gyyr71rcceypw7erDrNro,1179rku79>70>9ye1r713gA9;1g",
"g>>7cGAkeg>eryuyyCCr11eppyp1p73r6yqcc1kk3wcu7>>k>111p7KAg56Mr;;1",
"gc7cgr99eg>cMeKh1gkuGDADgGGNWDgIcCEGTK97Aweh1p9wwArGug03eh>81GG0",
"7:>g777r7c7jg771gAMNgucghk9ggcgA8ksrMAGa97AshAVAA0sh77ae-7;9rkrr",
"1->3>-11<e131e77g3egr7e11>3rrpee7rera77chy8rca69ua9a79a3wp37697e",
"jegcj9ryrgrpyp7yyaruaguu7ghjpgkruereyrr3139eee11ww7171>1MGAu9a7r",
"e>,<-311g1,<1>,e97i3:1,>7wr1y12e7cIccgyrr7ggurrjaak0a967e777ee11",
"eeGka37M7euDy1gK4<<1celc&71e1qJuy7cgr79r>311r>1311ar769rrurr7rcg",
"rc1+*@*117M6Xa8g>gU9y3cdDA7U9c81Gy<qr7:;jJK5:>777c7u>,er3:w1yeau",
":1oCCcry1e3:jN9a4NawB9y91za9a>eiGKKKN1qr:e>6<,-1>9h7eUg<<prCM<<:",
">>egygyNugega7rcey1wIkyg3UA1r>s99999rrGKGgy6rUAc97ara88AYkTD1CTN",
"e1>uccchghug11>reyesADcgaAr7r676r77r9ar1jgAG9uhsgAik1yq<-a1ega7a",
"111;->;1111>>>>1111<>7e769re79999rrarakcc71akrcg669aaAKYGg7M87e1",
"7yyyw1;7gpyr715hr7ccgpyywegrye>7wwrr73er73e317777e3yw;>17guhr7ew",
">1rw<eycq16r><13<<17a>rrrrrcDrg911rpg117ge1rcjgjjueccpey7e1egrei",
"ecg<pr363g$1,rgrrGNj7eccyyckr11q3Da37>13rrrhgrg1ijragji1gygAgeje",
"cyg7>9:3chge<uy79uugchhkcgk9415g6;a611uu99rN>1>,k611<>wUkcG<ersy",
"e1r,,11e;711<eer1,<egry:1c171<eaag987>rg711g7c9kVd9YTAAg9ukwIaaw",
"yy1>ckay13>7<ccirCCygregRDka6GGnns9976kh977977k8aAki9a9ecuyDY7Gj",
"111>1737r3117ka6aragr7cDu9aa9a6ru73r9r779uha6777k669rr7DJ7gr7ra7",
"11111111>7717r7131>1>3yyeer1136661>69616117697rr77794yy1grr737i1",
"1e1311>>1yr7rrrpr7e1rryyrgrrr31617979999rrr961errr777pjjyyyeece1",
"re1>>>1a11;ep,1137e3;re175hr193171>661797ep99gr997uu7rr7yrr9u79Y",
";;*1O11X;1--><y7C77<7r7r1rg1a9>:1->6$;>6>3111>17>1>1:6er7;rrrrC6",
"11,>;1-<7>:r8cD7k6i3rgra9014871ch7a;1f176ygra>D6rp71ykrDrDrAkf17",
":->g1ykg;>;j11r5r1,3gyy,919a666s46649171>3e16:k1kkj969cA399gaa73",
"11,5;e1>7;-c1<71g1j79cyy619999631669>>91aAkca;99>17679r917k99a73",
">3:3>>711;;cSa137rrrjrasuu7rrr7rp9961a61974797g77e7gr67aggr177re",
";q>1>7131r>ks:317p77greer7rr5117egg9666116791;57371rr97991uygrpc",
"111>-11>3ur41131771erepr571977e1177>16113171>>1>1e33e7e7grcrrgye",
"1ij131rre>73<1;7r7w1>p7841777egeyra975799k77r779MMkkaNAggegc9ryy",
"ee1,6eg:1peoukuu6>qpr;yg>1>r713rr713gg199>39667;1>17ep71rgpr7agg",
"33>ygg<;7r1>>1577qGgUc9;er;c1rkM>1111g391;96r86>73jgU7yyecAa7177",
";>11p<93>rce7yyc731yj7e-11;7$9r7;7n66a6671>91;,17>d7GdUTUkkrIIcr",
"3316cya;:rD>11,776rC7ccGak3,;ee9$>>>7g1a1>777aucZ7a7KM9ggrCDkajj",
"N9>;yy13:7g7>7ccr7ra1191>9>Ckuh91>>19kk711991>66r167r17geAKke3rp",
"11113116>rAa4u08r1;1111;>11r>7>;;;>71>117617777p777777rg7aakjcjg",
"e33e3e7icgrr1137777117r7733>eper71179a79317;98u1r177ss8s87yeggkg",
"11,<we3>j$ee31>77177g1>e:r->9;6711;>$7r1;i7r11-<rre-e13rrgjcDcA9",
":<pgeg7cg7g>13e81r768>s9i97k1>61g16>>711691966rjr6<u17DGrr887ak9",
":1gr7r>1e1>771381er48799ga6aa>wa$9n7:>11$37rk>aaGAZZir-cNcMregac",
"Ma117j>yj31rM8au>39r7;,g99;194ngey*:ri6$1k18a1766ka1g1cGacakag8r",
"133r1c7ji1c61117699797kV661167*crr7ZGg>>;191699991996rGhuracaa61",
"7>;ep7>rcri1;>1117116716a31>1$us4ka9>616>;6>>1:>1>>197111111ar>3",
"7>>13179Ag3e1717r769670rgee7776a9re:<1>7796117re9kagkgjakcgca9eg"
};
