/* XPM */
static char *_c20d35fc9174d85ca9259821f743933Cmxt4af2GgV9V2OU[] = {
/* columns rows colors chars-per-pixel */
"64 64 115 2 ",
"   c #1367CD",
".  c #136DCF",
"X  c #1471CF",
"o  c #1473D1",
"O  c #147BD3",
"+  c #187CD2",
"@  c #107EDC",
"#  c #1183DD",
"$  c #1D87DD",
"%  c #1C88DE",
"&  c #2582D5",
"*  c #2887D9",
"=  c #2389DE",
"-  c #298BDC",
";  c #358EDC",
":  c #3791DE",
">  c #3991DE",
",  c #1C8AE0",
"<  c #228CE0",
"1  c #2A8EE1",
"2  c #2B91E3",
"3  c #3495E4",
"4  c #3B95E3",
"5  c #3698E7",
"6  c #3699E8",
"7  c #3A9AE8",
"8  c #4F93DC",
"9  c #5294DA",
"0  c #5A9ADE",
"q  c #4C9CE5",
"w  c #449DE8",
"e  c #509EE4",
"r  c #5B9DE1",
"t  c #46A2EE",
"y  c #4BA3EE",
"u  c #54A1E7",
"i  c #58A1E6",
"p  c #59A3E9",
"a  c #51A8EF",
"s  c #5BAAEF",
"d  c #4DA7F0",
"f  c #4FA8F1",
"g  c #52A8F1",
"h  c #59AEF5",
"j  c #57B0F6",
"k  c #5AB0F7",
"l  c #5DB1F8",
"z  c #6DAEED",
"x  c #79ADE7",
"c  c #75B2EF",
"v  c #7EB3EC",
"b  c #61AEF0",
"n  c #67BFFF",
"m  c #76B3F0",
"M  c #7CB6F1",
"N  c #7DB8F3",
"B  c #67C3FF",
"V  c #6BC2FF",
"C  c #6EC9FF",
"Z  c #75CDFF",
"A  c #7ACDFF",
"S  c #6ED1FF",
"D  c #75D4FF",
"F  c #7BD5FF",
"G  c #7DDAFF",
"H  c #80B2E9",
"J  c #81BBF5",
"K  c #81D7FF",
"L  c #82DDFF",
"P  c #89DDFF",
"I  c #86E0FF",
"U  c #8CE1FF",
"Y  c #93E5FF",
"T  c #94E6FF",
"R  c #95E6FF",
"E  c #98E7FF",
"W  c #99E7FF",
"Q  c #98E9FF",
"!  c #9BE9FF",
"~  c #A1EDFF",
"^  c #AAECFF",
"/  c #B6E7FF",
"(  c #BCE5FF",
")  c #BFEDFF",
"_  c #A7F2FF",
"`  c #ADF4FF",
"'  c #AEF4FF",
"]  c #AFF6FF",
"[  c #B1F5FF",
"{  c #B0F7FF",
"}  c #B2F8FF",
"|  c #B4F9FF",
" . c #B7FBFF",
".. c #B8FBFF",
"X. c #BBFFFF",
"o. c #BDFFFF",
"O. c #C0EDFF",
"+. c #C4F0FF",
"@. c #CFF6FF",
"#. c #C3FFFF",
"$. c #C4FFFF",
"%. c #CBF9FF",
"&. c #C8FFFF",
"*. c #CCFFFF",
"=. c #D1FBFF",
"-. c #D1FFFF",
";. c #D5FFFF",
":. c #D8FFFF",
">. c #DDFFFF",
",. c #E1FFFF",
"<. c #E6FFFF",
"1. c #EBFFFF",
"2. c #ECFFFF",
"3. c azure",
"4. c #F4FFFF",
/* pixels */
"1.1.1.1.1.1.1.1.1.1.1.1.2.;.L Z # m 2.1.1.1.1.1.1.1.1.1.1.1.1.1.1.1.1.1.1.1.1.1.1.1.1.1.2.,.U F * 9 ,.2.1.1.1.1.1.1.1.1.1.1.1.1.",
"<.<.<.<.<.<.<.<.<.<.<.<.2.;.L Z # c 2.1.<.<.<.<.1.1.<.<.<.<.1.1.<.<.<.<.<.<.<.<.<.<.<.<.2.,.U F * 8 ,.2.<.<.<.<.1.1.<.<.<.<.1.1.",
"#.#.#.#.#.#.#.#.#.#.#.&.3.;.L Z o x 2.,.o.#.#.&.2.,.#.#.#.&.1.<.#.#.#.#.#.#.#.#.#.#.#.$.1.,.I F 2 q ,.1.#.#.#.$.<.1.$.#.#.$.<.2.",
"o.o.o.o.#.o.o.o.o.o.X.$.2.-.L Z o x 2.,.o.#.X.$.1.,.#.o.o.#.<.,.o.o.o.o.o.o.o.o.o.o.o.o.<.,.U F 2 q ,.1.#.o.o.o.,.<.$.o.o.o.,.1.",
"o.#.o.&.2.>.o.o.#.o.o.o.$.| L Z # m 2.1.1.,.o.#.#.&.1.,.o.o.#.#.o.#.o.#.1.<.#.o.#.o.o.o.$.o.I F 2 q ,.2.1.<.$.o.#.$.<.1.$.o.#.#.",
"o.o.o.&.1.>.o.o.o.o.o.o.o.] L Z # c 2.1.1.>.o.o.o.$.1.,.o.o.o.o.o.o.o.#.<.,.#.o.o.o.o.o.o.| L F 2 q ,.2.<.<.#.o.o.o.,.<.#.o.o.o.",
"o.o.o.#.$.#.o.o.o.o.#.} L L L Z o x 2.,.o.#.o.o.o.#.#.#.o.o.o.o.o.o.o.o.#.#.o.o.o.o.#.X.I L L F 2 q ,.1.#.#.o.o.o.o.#.#.o.o.o.o.",
"o.o.o.o.X.X.o.o.o.o.#.} G L L Z o x 2.,.o.o.o.o.o.o.o.o.o.o.o.o.o.o.o.o.X.X.o.o.o.o.#.X.L G L F 2 q ,.1.#.o.o.o.o.o.o.o.o.o.o.o.",
"#.o.#.} G T #.o.#.#.o.o.#.] L Z # c 2.1.1.,.o.o.o.o.o.#.#.#.o.o.#.#.#.X.L I X.#.#.#.o.o.o...I F 2 q ,.2.<.<.#.o.o.o.o.#.#.#.o.o.",
"X.X.#.{ F Y #.o.X.o.o.o.o.] L Z # m 2.1.1.>.o.o.o.o.o.o.X.X.o.o.X.X.#.X.L I X.#.X.o.o.o.o.| I F 2 q ,.2.<.<.#.o.o.o.o.o.X.X.o.o.",
"L Q #.o.X.X.#.| L T #.| L L L Z # m 2.,.#.#.#.#.#.o.#.X.L U #.X.L U o.#.X.X.#.o.I I o.o.I L L F 2 q ,.1.$.#.#.o.#.o.#.o.U L X.#.",
"D U o.o.o.o.o.] D I o.] F F L Z # m 2.>.| X.X.X.X.X.o.} F L X.| F L ..o.o.o.o.| G L ..X.L F L F 2 q >.1...X.X.X.X.X.o.X.L F } o.",
"L L I I I I I I L L I I L L I A # m 4.>.L I I I I I I I L L I I L L I I I I I I L L P P L L L L 2 q <.2.U L I I I I I I L L I I ",
"F F F F F F F F F F F F F F L Z # c 1.-.D F F F F F F F F F F F F F F F F F F F F F F F F F G F 2 q :.,.K D F F F F F F F F F F ",
"7 7 6 5 : 4 6 6 6 6 6 6 6 6 6 3 1 2 p u 6 6 6 6 6 6 6 6 6 6 7 7 7 7 6 6 6 5 : > 5 5 : : 5 6 6 5 1 2 0 0 > : > : 5 6 6 6 6 6 7 7 ",
"1 1 2 - & * 1 1 2 1 1 1 1 1 2 2 2 2 , < 1 1 1 1 1 1 1 1 1 2 1 1 1 1 2 2 1 1 & & 2 1 & & 1 1 1 1 2 2 O O & & & & 1 1 2 1 1 2 1 1 ",
"# m :.:.;.:.:.:.;.:.:.:.:.:.:.:.:.:.:.:.:.:.:.:.:.:.:.;.:.%.F Z 1 p =.:.;.:.:.:.:.:.:.:.:.:.:.:.:.:.:.:.:.:.:.:.:.:.:.;.:.;.P Z ",
"# N 3.2.2.2.2.2.2.2.2.2.2.2.2.2.2.2.2.2.2.2.2.2.2.2.2.2.3.,.I F < p <.3.1.2.2.2.2.2.2.2.2.2.2.2.2.2.2.2.2.2.2.2.2.2.2.2.3.1.T G ",
"# N 2.>.#.$.#.*.1.,.#.$.#.*.1.,.#.$.$.$.$.$.$.$.$.$.#.&.2.:.L D < p ,.1.#.#.#.$.<.<.$.#.$.$.$.$.$.$.$.$.$.#.$.$.$.$.#.#.<.<.Y F ",
"# N 3.>.X.o.X.$.2.>.X.o.X.$.2.,.X.o.o.o.o.o.o.o.o.o.X.#.2.:.L D < p ,.1.o.o.o.o.1.<.#.X.o.o.o.o.o.o.o.o.o.o.o.o.o.o.o.o.<.<.Y F ",
"# N 2.<.<.>.o.#.$.*.<.>.o.#.$.$.o.#.o.$.<.>.#.#.#.#.#.#.&.o.L D , p ,.2.<.,.#.o.$.&.,.,.#.o.#.o.o.#.o.#.,.,.#.o.#.o.o.o.$.$.I F ",
"# N 2.1.2.,.o.o.X.$.2.,.o.o.o.o.o.o.o.$.2.,.o.o.o.#.#.o.o.} L D , p ,.2.1.<.#.o.o.#.1.1.#.o.o.o.o.o.o.#.1.1.#.o.o.o.o.o.o.X.I G ",
"# N 3.,.$.$.o.o.o.#.&.$.o.o.o.o.o.o.o.#.$.$.o.o.o.o.#...U I L D O r ,.1.$.$.o.o.o.#.$.$.o.o.o.o.o.o.o.o.$.$.#.#.o.o.o.o.T I L G ",
"# N 3.>.X.o.o.o.o.o.o.o.o.o.o.o.o.o.o.o.o.o.o.o.o.o.#.| G F L D O 0 ,.1.X.X.o.o.o.o.o.o.o.o.o.o.o.o.o.o.o.o.#.o.o.o.o.o.L D L L ",
"# N 2.<.<.:.o.o.o.o.#.o.o.o.#.#.o.o.#.| P E o.o.o.o.o.o.X.] L D % i ,.2.,.>.#.o.o.o.o.#.o.o.o.o.o.o.#.o.U U X.#.o.o.o.o.X.| I G ",
"# N 2.1.2.,.o.o.o.o.o.o.o.o.#.o.o.o.#.| D I o.o.o.o.o.o.$.| L D , p ,.2.1.<.#.o.o.o.o.#.o.o.o.o.o.o.#.o.L G X.#.o.o.o.o.#.#.I G ",
"# N 2.,.$.$.o.o.o.o.#.| I Q #.| I Q #.o.} | #.| I T #.X.U I L D , p ,.1.$.$.o.o.o.o.o.o.U Y o.o.U Y o.o.} | o.o.Y U X.o.Y I L G ",
"# N 3.,.X.o.o.o.#.o.#.} D U $.| D U #.#.#.#.#.| D L #.| F F L D , p <.1.o.o.#.#.o.o.#.o.G L o.o.G L o.#.#.#.#.o.L G X.#.L F L G ",
"= h Q T U Y U Y U U U U L L U U L L U U U U U U L L U U L L L D 1 w T Q U U U U U U U U L L U U L L U U U U U U L L U U L L L L ",
"- d G F G G G G G G G G L G G G L G G G G G G G L G G G L L L D 1 6 D F G G G G G G G G L L G G L L G G G G G G G L G G G L L G ",
"* ; e q q q q q y y y y y y y y t y y y q q y y y y y y q q q q 2 2 y y y y y y q q y y y y y y t y q q y y y y y y y y y y q q ",
"O O o o o o X O # # # # # # $ = - = # # X O # # # # # # o o o o , , # # # # # # o o # # # # $ $ - = o o # # # # # # # # # # O X ",
"@.@.@.@.@.@.@.@.@.@.@.@.=.) Z V # z =.@.@.@.@.@.@.@.@.@.@.@.@.@.@.@.@.@.@.@.@.@.@.@.@.@.=.%.F C 2 q O.=.@.@.@.@.@.@.@.@.@.@.@.@.",
"3.3.3.3.3.3.3.3.3.3.3.2.4.:.I D # M 3.3.3.3.3.3.3.3.3.3.3.3.3.3.3.3.3.3.3.3.3.3.3.3.3.3.4.1.Y G 2 q <.4.2.3.3.3.3.3.3.3.3.3.3.3.",
"$.$.$.$.&.&.$.$.$.$.$.*.2.-.G Z # m 1.,.$.$.$.*.1.,.$.$.$.$.$.&.$.$.$.$.$.$.$.$.$.$.$.$.1.,.I D * 8 >.1.$.$.$.$.<.<.&.$.$.$.,.1.",
"o.o.o.o.X.X.o.o.o.o.X.$.3.;.L Z # m 2.,.| o.X.$.2.,.X.X.o.o.o.o.o.o.o.o.X.X.o.o.o.o.X.o.1.,.I F * 8 ,.1.o.X.o.o.<.1.#.X.o.o.<.2.",
"o.#.o.&.<.:.o.o.#.#.o.#.*...L Z # m 2.1.,.:.o.#.&.*.,.>.o.o.#.#.#.#.o.#.,.>.#.o.#.#.o.o.&.#.I F 1 q ,.2.,.>.#.o.$.&.>.,.#.o.&.&.",
"o.#.X.&.3.,.o.o.o.o.o.o.#.] L Z # m 2.1.2.,.o.o.X.$.2.<.o.o.#.o.o.o.o.#.2.1.#.o.o.o.o.o.o...I F 2 q ,.2.1.1.#.o.o.o.<.2.$.o.o.X.",
"o.o.o.#.&.$.o.o.o.o.#.| Y U L Z # m 2.<.&.&.o.o.o.#.&.$.o.o.o.#.o.o.o.o.&.&.#.o.o.o.#.X.T U L F 2 q ,.2.&.$.#.o.o.#.$.&.#.o.#.o.",
"o.o.o.o.#.o.o.o.o.o.#.{ D F L Z # m 3.,.X.o.o.o.o.o.o.o.o.o.o.o.o.o.o.o.#.#.o.o.o.o.#.o.G D L G 2 q ,.1.X.X.o.o.o.o.o.o.o.o.o.o.",
"o.o.#.| I Q #.o.o.o.o.X.| _ L Z # m 2.1.,.:.o.o.o.o.#.o.o.o.o.o.o.o.#.X.Y T o.#.o.o.o.o.| ] L F 2 q ,.2.,.>.#.o.o.o.o.#.o.o.o.o.",
"#.o.#.] D U #.o.#.#.o.o.$.| L Z # m 2.1.2.<.o.o.o.o.o.o.#.#.o.o.#.#.#.X.F L X.#.o.#.o.o.$.o.I F 2 q ,.2.2.1.$.o.#.o.o.o.#.#.o.o.",
"U Q #.X.] } #.| U Q #.| U I L Z # m 2.,.$.$.o.o.o.o.#.X.U E o.X.U T o.o.{ } o.o.Y T o.o.Y U L F 2 q ,.1.&.$.#.o.o.o.o.o.T Y X.#.",
"D Y #.#.$.#.$.} D I $.} D F L Z # m 3.<.X.o.#.#.#.#.#.| D L #.X.F L o.#.#.#.#.o.G L o.o.G F L F 2 q <.2.o.o.#.#.#.#.#.o.L F | #.",
"L L Y Y Y Y Y U L L Y U L L L Z % a ~ Q Y Y Y Y Y Y Y U L L Y Y L L U Y Y Y Y Y L L Y Y L L L F 2 4 E ~ Y Y Y Y Y Y Y Y L L U Y ",
"L L G G G G G G L L G G L G I Z $ t F F G G G G G G G G L L G G L L G G G G G G L L G G L L L G 2 2 D F G G G G G G G G L L G G ",
"q y g g g g g g f a u u f f g y * > h g g g g g g g g g f f f f d y u u g g g g f f g g f f g f 2 3 a h g g g g g g g g f f f f ",
"+ O # @ @ @ @ @ # @   o @ @ @ @ o O @ @ @ @ @ @ @ @ @ @ @ # # % - $ . . @ # @ @ # # @ @ # # @ # # # # @ @ @ @ @ @ @ @ @ # # # % ",
"# z +.O.O.O.O.O.O.O.O.O.O.O.O.O.O.O.O.O.O.O.O.O.O.O.O.) O./ Z n 1 q ( O.) O.O.O.O.O.O.O.O.O.O.O.O.O.O.O.O.O.O.O.O.O.O.O.O.) A B ",
"# J 4.3.3.4.4.4.3.3.4.4.4.4.4.4.4.4.4.4.4.4.4.4.4.4.4.3.4.,.U F < p 1.4.3.4.4.4.3.3.4.4.4.4.4.4.4.4.4.4.4.4.4.4.4.4.4.3.4.3.Q G ",
"O v 2.>.$.&.$.*.1.>.&.&.&.&.&.&.&.&.&.&.&.&.&.&.&.&.&.*.1.:.L D < p ,.<.&.&.&.&.<.<.*.&.&.&.&.&.&.&.&.&.&.&.&.&.&.&.&.&.<.<.Y D ",
"o H 3.>.| X.X.$.3.,.X.X.o.o.o.o.o.o.o.o.X.X.o.o.o.o.X.#.3.>.I D < p ,.1.X.X.X.o.1.1.o.X.o.o.o.o.o.o.o.o.X.X.o.o.o.o.o.o.1.1.Y F ",
"@ M 2.<.>.;.o.#.*.-.>.;.o.#.o.#.o.#.o.$.>.;.o.o.#.#.o.#.-.#.L D # r ,.1.>.:.#.#.*.*.:.:.#.o.#.o.#.#.o.#.:.:.#.o.#.#.o.o.*.&.U F ",
"# N 2.1.3.,.o.o.X.$.3.<.o.o.o.o.o.#.o.&.3.<.o.o.o.o.o.o.#.| L D O 0 ,.2.2.1.#.o.X.#.2.2.#.o.o.o.#.o.o.#.2.2.#.o.o.o.o.o.o.o.I G ",
"# N 2.,.*.&.o.#.o.#.*.&.o.o.o.o.o.o.o.#.*.&.o.o.o.o.#.X.Q T L D % i ,.1.*.*.#.o.o.#.*.*.#.#.o.#.#.#.o.o.&.&.#.o.#.#.o.o.Q T L G ",
"# N 3.>.| X.o.o.o.o.X.o.#.o.o.o.o.o.#.o.o.o.o.o.o.o.#.| D D L F , p ,.1.X.X.o.o.o.o.o.o.o.o.o.o.o.o.o.o.o.o.o.o.o.o.o.o.L D G L ",
"# N 2.<.:.;.o.o.o.o.#.o.o.o.#.o.o.o.#.X.T ~ #.o.o.o.#.X.] ~ L D , p ,.1.:.:.#.o.o.o.o.o.o.o.o.o.o.o.o.o.Q Q X.#.o.o.o.o.] _ L G ",
"# N 2.1.3.<.o.o.o.o.o.o.#.#.o.#.#.#.#.} S L #.#.#.#.o.o.&.o.L D , p ,.2.2.1.#.o.#.o.o.o.#.#.o.o.#.#.#.o.F F X.#.#.#.o.o.$.$.I F ",
"# N 2.,.*.&.o.o.o.o.#.| T ~ #.| T ~ o.X._ ] o.X.T ~ o.X.Q Y L D , p ,.1.*.*.o.o.o.o.o.o.Q Q o.o.Q Q X.o._ _ o.o.Q Q X.o.Q T L G ",
"# N 4.,.o.#.#.#.$.#.$.| D I $.| D U #.#.$.$.$.| D L $.X.F F L D , p 1.2.o.o.#.#.#.#.$.o.G G o.#.G L o.#.$.$.$.#.L F X.#.L F L G ",
"% b { ^ E Q E E E E Q T G L Q T G L Q Q E E Q T G L Q T L G L D 1 w ^ ] E Q Q Q E E Q E L L E E L L E Q E E Q E L L T Q L G L G ",
"- d G G G G G G G G G G I L G G L L G G G G G G L L G L I L I F 1 6 D G G G G G G G G G L L G G L L G G G G G G L L G G L L I I ",
"* 4 b s s s s s s h k k j h k k h h k k s h k k j h k k s s h a 1 2 k l h k k k s h k k k h k k h h k k k k k k h h k k h j h s ",
"& & O O O O O O O O = = = = = = = = = $ o O = = = = = = O O O + 2 1 = = = = = = O O = = = = = = = = = = = = = = = = = = = = O O "
};
