/* XPM */
static char *eb254925abf14e26df4bd8fe491a61a6Nqs71imz6COptQuN[] = {
/* columns rows colors chars-per-pixel */
"64 64 99 2 ",
"   c #00356A",
".  c #003B6D",
"X  c #003E71",
"o  c #00406F",
"O  c #014172",
"+  c #00467A",
"@  c #004A7B",
"#  c #0D4D7E",
"$  c #144573",
"%  c #154977",
"&  c #194876",
"*  c #124D7D",
"=  c #194F7E",
"-  c #15507F",
";  c #1B517F",
":  c #2C4F77",
">  c #224F7A",
",  c #23517C",
"<  c #2D517A",
"1  c #33557C",
"2  c #0D4F80",
"3  c #114F80",
"4  c #155180",
"5  c #1B5381",
"6  c #225582",
"7  c #265986",
"8  c #2B5A84",
"9  c #325C85",
"0  c #385F87",
"q  c #335F88",
"w  c #2F618C",
"e  c #386087",
"r  c #34648D",
"t  c #3A668D",
"y  c #3D688E",
"u  c #356690",
"i  c #3D6C94",
"p  c #476485",
"a  c #4B6786",
"s  c #43678B",
"d  c #46698D",
"f  c #4A6B8D",
"g  c #4E6F90",
"h  c #4F7090",
"j  c #47789E",
"k  c #4A799F",
"l  c #517192",
"z  c #4B7DA2",
"x  c #4F80A5",
"c  c #4F84AA",
"v  c #5281A5",
"b  c #5486AB",
"n  c #5689AD",
"m  c #5A8BAE",
"M  c #578CB0",
"N  c #5B8DB0",
"B  c #5F90B2",
"V  c #618EAF",
"C  c #758EA4",
"Z  c #798FA2",
"A  c #6390AF",
"S  c #6D93AF",
"D  c #7A93A7",
"F  c #7C95AA",
"G  c #6691B0",
"H  c #6A94B1",
"J  c #7397B0",
"K  c #759AB4",
"L  c #799DB5",
"P  c #7B9EB6",
"I  c #7C9EB4",
"U  c #7E9FB6",
"Y  c #7EA0B7",
"T  c #8297A8",
"R  c #8399AA",
"E  c #819AAD",
"W  c #849BAC",
"Q  c #869DAE",
"!  c #889EAD",
"~  c #879FB2",
"^  c #809FB4",
"/  c #8AA0AF",
"(  c #8CA1AF",
")  c #87A0B2",
"_  c #80A0B5",
"`  c #83A0B4",
"'  c #8AA2B2",
"]  c #8DA3B2",
"[  c #8DA4B3",
"{  c #8BA3B4",
"}  c #8CA4B4",
"|  c #93A7B3",
" . c #93A7B4",
".. c #94A7B4",
"X. c #93A8B5",
"o. c #95A8B4",
"O. c #96A9B4",
"+. c #98ABB6",
"@. c #9AADB8",
/* pixels */
" . . . . . . . . . . . .o.) m v @ f .. .|  . . . . . . . . . . . . . . . . . . . . . . ...[ V b % : ( o.|  . . . . . . . . . . .",
" . . . . . . . . . . . .o.~ m v + f .. .|  . . . . . . . . . . . . . . . . .}  . .}  . ...[ V b % < ( o.|  . . . . . . . . . . .",
"U U U U U U U U U U U _ o.~ m v . p o.} P U U _ ..} U U U _  .} U U U U U U U U U U U U  .[ m b 5 9 ] X.U U U U  . ._ U U U  ...",
"P P P P U P P P P P P U ..~ m v . p o.} P U P U  .} U P P U  .} P P P P P P P P P P P P  .] m b 5 9 ] X.U P P P }  .U P P P }  .",
"P U P _ ..} P P U P P P Y K m v @ f .. .| } P U U _  .} P P U U P U P U  . .U P U P P P Y P m b 5 9 ] o.|  .U P U U  . .U P U U ",
"P P P _ | } P P P P P P P K m v + f .. .| } P P P U  .} P P P P P P P U  .} U P P P P P P K m b 5 9 ] o.|  .U P P P }  .U P P P ",
"P P P U U U P P P P U K m m N v . p o.} P U P P P U U U P P P P P P P P U U P P P P U P m m m n 5 9 ] X.U P P P P P U U P P P P ",
"P P P P P P P P P P U K n m N v . p o.} P P P P P P P P P P P P P P P P P P P P P P U P m n m n 5 9 ] X.P P P P P P P P P P P P ",
"U P U K n A U P U U P P U K m v + f .. .| } P P P P P U U U P P U U U P m m P U U U P P P P m b 5 9 ] o.|  .U P P P P U U U P P ",
"P P U K n A U P P P P P P K m v @ f .. .| } P P P P P P P P P P P P U P m m P U P P P P P K m b 5 9 ] o.|  .U P P P P P P P P P ",
"m G U P P P Y K m A Y K m m m v @ f o.} U U U U U P U P m V U P m V P U P P P P m m P P m m m n 5 8 ] X.U U U P U P P P V m P U ",
"b V P P P P P K b m P K n n m v @ f ..} K P P P P P P K b m P K n m P P P P P K n m P P m n m n 5 8 /  .P P P P P P P P m n K P ",
"m m m m m m m m m m m m m m N v @ f +.{ m m m m m m m m m m m m m m m m m m m m m m m m m m m m 5 9 | o.V m m m m m m m m m m m ",
"n b b b b b b b n n b b n b m x @ d | ~ b b b b b b b b n n b b n b b b b b b b n n b b n n n b 5 8 ! ] n b b b b b b b n n b b ",
"7 7 7 7 > , 7 7 7 7 7 7 7 7 7 7 - 6 0 q 7 7 7 7 7 7 7 7 7 7 7 7 7 7 7 7 7 7 , , 7 7 , , 7 7 7 7 5 ; 1 1 , > > , 7 7 7 7 7 7 7 7 ",
"= = 5 = $ % 5 5 ; 5 5 5 5 5 ; 5 6 5 # - 5 5 5 5 5 5 5 5 5 ; ; ; = = ; ; 5 ; $ $ ; ; $ $ ; 5 5 5 6 5 O O $ $ $ $ ; 5 ; 5 5 ; ; ; ",
"@ f / ! ! ! ! ! ! ! ! ! ! ! ! ! ! ! ! ! ! ! ! ! ! ! ! ! ! E b x 4 q W / ! ! ! ! ! ! ! ! ! ! ! ! ! ! ! ! ! ! ! ! ! ! ! ! ! Q m c ",
"@ h +.o.o.o.o.o.o.o.o.o.o.o.o.o.o.o.o.o.o.o.o.o.o.o.o.o.+.} N b * e | o. .o.o.o.o.o.o.o.o.o.o.o.o.o.o.o.o.o.o.o.o.o.o.o.o.X.A n ",
"@ g o.} U U U _ | } U U U _ | } U U U U U U U U U U U ^ ..' m b * q ]  .U U U U | | ^ U U U U U U U U U U U U U U U U U  .| V n ",
"@ g o.} P P P _ ..} P P P _ ..} P P P P P P P P P P P U ..' m b * q [  .P P P P  . .U P P P P P P P P P P P P P P P P P  .| V n ",
"@ g o. . .} P U U _  .} P U Y U P U P _  .} P P U U P P _ P m b * q ] o.| } U P U _ } } U P U P P U P U } } U P U P P P _ U m n ",
"@ g o. .o.} P P P _ o.} P P P P P P P _ o.} P P P P P P P K m b * q ] o.|  .U P P U  . .U P P P P P P U  . .U P P P P P P P m n ",
"@ g o.} U U P P P U _ U P P P P P P P U _ U P P P P U K V m m v O 1 ]  .U U P P P U Y Y P P P P P P P P Y Y P P P P P P A m m n ",
"@ g o.} P P P P P P P P P P P P P P P P P P P P P P U K n n m v O 1 ]  .P P P P P P P P P P P P P P P P P P P P P P P P m b m m ",
"@ g o. . .} P P P P U P P P P P P P U K m G P P P P P P P K m b # q ] o.[ } U P P P P U P P P P P P U P V V P U P P P P K K m n ",
"@ g o. .o.} P P P P P P P P P P P P U K b m P P P P P P Y K m b 3 e ] o.|  .U P P P P P P P P P P P U P m n P U P P P P Y U m n ",
"@ g o.} U Y P P P P U K m G U K m G U P K K U K m G U P V m m b # q ]  .^ Y P P P P P P V V P P V V P P K K P P A V P P A m m n ",
"@ g o.} P P P P U P U K b m Y K b m U U U U U K b m U K n n m b # q |  .P P U U P P U P n m P P n m P U U U U P m n P U m b m n ",
"* t H A V V V V V V V m m m V m m m V V V V V m m m V m m m m b ; 7 V G V V V V V V V V m m m m m m V V V m V V m m m V m m m m ",
"= r n n n n n n n n n n m n n n m m n n n n n n m m n n m m m b ; 7 b n n n n n n n n n m m n n m m n n n n n n n m n n m m m m ",
"% > 9 9 9 9 9 q r r r r r r r r r r r r 9 q r r r r r r 8 8 8 8 5 6 r r r r r r 9 9 r r r r r r r r 9 9 r r r r r r r r r r 8 8 ",
"O . . . . .   X @ @ @ @ @ @ # * = * @ +   . @ @ @ @ @ + . . . . # # @ @ @ @ @ @ . . @ @ @ @ # # = * . . @ @ @ @ @ @ @ @ @ @ .   ",
"T T R R R R R R R R R R W D v k @ s R R T R R R R R R R R R R R R R R R R R R R R R R R W F v z 5 8 D W R R R R R R R R R R R R ",
"o.o.o.o.o.o.o.o.o.o.o.o.@.{ N v @ f +.o.o.o.o.o.o.o.o.o.o.o.o.o.o.o.o.o.o.o.o.o.o.o.o.o.+. .G n 5 9 | @.o.o.o.o.o.o.o.o.o.o.o.o.",
"^ ^ ^ ^ ^ ^ ^ ^ ^ ^ U _ o.~ m v @ f  .} U ^ U _ | [ ^ U ^ ^ ^ ^ ^ ^ ^ ^ ^ ^ ^ ^ ^ ^ U ^ | ] m b % < (  .^ U U ^ | | _ U ^ ^ [ | ",
"P P P P P P P P P P P U o.) m v @ f o.} K P P U ..} P P P P P P P P P P P P P P P P P P  .[ m b % : ( X.P P P P  . .U P P P  ...",
"P U P _  .} P P U U P U _ P m v @ f .. .} } P U _ _ } } P P U U U U P U } } U P U U P P _ U m b ; 8 ] o.[ } U P _ _ } } U P _ _ ",
"P U P _ o.} P P P P P P U K m v @ f .. .o.} P P P U o. .P P P P P P P U .. .U P P P P P P P m b 5 9 ] o.|  .U P P P  .o.U P P P ",
"P P P U _ U P P P P U K V m m v @ f o.} ^ _ P P P U _ _ P P P P P P P P _ _ P P P P U P A V m n 5 9 ] o.^ _ U P P U _ _ U P U P ",
"P P P P P P P P P P U K b b m v @ f o.} K P P P P P P P P P P P P P P P P P P P P P U P n b m n 5 9 ] X.P P P P P P P P P P P P ",
"P P U K m H U P P P P P K H m v @ f .. .} } P P P P U P P P P P P P U P V A P U P P P P K K m n 5 9 ] o.[ } U P P P P U P P P P ",
"U P Y K c V U P U U P P _ K m v @ f .. .o. .P P P P P P U U P P U U U P n m P U P U P P Y P m b 5 9 ] o.o. .U P U P P P U U P P ",
"V H U P K K U K m H U K V m m v @ f o.} ^ _ P P P P U P V G P P V G P P K K P P A A P P A V m n 5 9 ] X.^ _ U P P P P P G V P U ",
"b V U U Y U Y K b m Y K b n m v @ f o. .P P U U U U Y K b m U P b m P U Y Y Y P n m P P n n m n 5 9 ] o.P P U U U U U P m n K Y ",
"m m A V V V G V m m A V m m m v @ t S S V A A A A V A V m m A V m m V A V V A V m m V V m m m n 5 7 V H V A A A A A A V m m V A ",
"m m n n n n n n m m n n m m N v * w n n n n n n n n n n m m n m m m n n n n n n m m n n m m m n 6 6 b n n n n n n n n n m m n n ",
"q q r r r r r r r r q e r r u r & , t t r r r r r r r r r r r r r r q q r r r r r r r r r r r r 6 6 r t r r r r r r r r r r r r ",
". O + + + + + + + O   . + + + + . X + + + + + + + + + + + + @ @ = *     + + + + + + + + + + + + @ @ + + + + + + + + + + + + @ @ ",
"@ s F D D D D D D D D D D D D D Z D D D D D D D D D D D F C z j 5 q C D D D D D D D D D D D D D D D D D D D D D D D D D D D v z ",
"@ l @.+.+.+.+.+.+.+.@.@.+.+.+.@.@.@.+.+.+.+.+.+.+.+.+.+.@.} B b * e X.@.+.+.+.+.+.+.+.+.+.@.+.+.@.@.+.@.+.+.+.+.+.+.@.+.@.o.G n ",
"O f ..[ ^ _ ^ _ | [ ^ ^ ^ ^ ^ ^ ^ ^ ^ ^ ^ ^ ^ ^ ^ ^ ^ _ | ' m v * q ]  .^ ^ ^ _ | | _ ^ ^ ^ ^ ^ ^ ^ ^ ^ ^ ^ ^ ^ ^ ^ ^ ^ | | V b ",
". a o.} K P P _ o.} P P P P P P P P P P P P P P P P P U o.] m b 4 e [  .P P P P  . .P P P P P P P P P P P P P P P P P P  .| V n ",
"+ f o. .} { P U _ _ } { P U P U P U P U } { P P U U P U _ U m v + 9 ] X.{ { U U _ _ } } U P U P P U P U } } U P U U P P _ _ m n ",
"@ h o. .o.} P P P _ o. .P P P P P U P _ o. .P P P P P P Y K m v o 1 ] o.o. .U P P U o...U P P P P P P U ....U P P P P P P P m n ",
"@ g o.} _ _ P P P U _ _ P P P P P P P U _ _ P P P P U P G A m b @ 9 ]  ._ _ U P P U _ _ P P P P P P P P _ _ U P P P P P H G m n ",
"@ g o.} K P P P P P P P P P P P P P P P P P P P P P U K b b m b 2 e ]  .P P P P P P P P P P P P P P P P P P P P P P P P m b n m ",
"@ g o. .{ _ P P P P U P P P P P P P U P G H P P P P U P K H m b # q ] X.{ { U P P P P P P P P P P P P P H H P U P P P P K H m n ",
"@ g o. .o. .P P P P P P Y U P U Y U Y K c m P U U U P P _ P m b * q ] o.o. .U P U P P P Y U P P Y U U P n n P U U Y P P _ Y m n ",
"@ g o.} _ _ P P P P U K G H U K G H P P H K P P G H P P G A m b # q ] | _ _ P P P P P P G G P P G H P P K K P P H G P P H G m n ",
"@ h +.} P U U U Y U Y K b m _ K b m Y Y Y Y Y K b m Y P n n m b # 0 | o.P P U U U U Y P n n P U n m P Y Y Y Y U m n P Y m b m n ",
"# y J S A G G G G G G A n m H A n m G G A A G A n m G A m n m v - 8 S J A G G G G G G G m m G G m m A G G G G G m m A G m n m n ",
"= u M M n M M M M n n m N N n m N N n n M n n m N N n m N N N n ; 7 b M n n n n M M n n N N n n N N m n n n n n N N m n N N N N ",
"% , y t t t t t t y i i i i i i i i i i t y i i i i i i t t t r 5 6 i i i i i i t t i i i i i i i i i i i i i i i i i i i i t t ",
"$ $ . . . . . . . O * * * * * * * * * * . O * * * * * * . . . O 5 5 * * * * * * . . * * * * * * * * * * * * * * * * * * * * O . "
};
