/* XPM */
static char *_e6fc997f6c74bc9f996138e3def37cf0lcgSn6eeS20VUO1[] = {
/* columns rows colors chars-per-pixel */
"64 64 119 2 ",
"   c #003E7C",
".  c #00427E",
"X  c #004580",
"o  c #014A83",
"O  c #004F8A",
"+  c #154E85",
"@  c #00538E",
"#  c #175186",
"$  c #195186",
"%  c #1A548B",
"&  c #1B588D",
"*  c #005591",
"=  c #095790",
"-  c #005892",
";  c #0C5B94",
":  c #145B93",
">  c #1D5E95",
",  c #275C8F",
"<  c #285D8F",
"1  c #345D8C",
"2  c #215F96",
"3  c #295E91",
"4  c #1E6097",
"5  c #1E6299",
"6  c #216097",
"7  c #2B6194",
"8  c #246499",
"9  c #2A659A",
"0  c #2E6A9E",
"q  c #356091",
"w  c #3C6492",
"e  c #3E6997",
"r  c #346A9C",
"t  c #396B9C",
"y  c #3D709F",
"u  c #3773A5",
"i  c #3B73A5",
"p  c #3E77A8",
"a  c #3F78A8",
"s  c #406F9E",
"d  c #41709F",
"f  c #53759D",
"g  c #587A9E",
"h  c #4174A3",
"j  c #4679A6",
"k  c #4D7AA4",
"l  c #437BAA",
"z  c #4A7BA8",
"x  c #567EA7",
"c  c #597CA2",
"v  c #4780AE",
"b  c #4880AE",
"n  c #5B80A7",
"m  c #5C83AA",
"M  c #568EBB",
"N  c #5591BE",
"B  c #5C95BF",
"V  c #6397BF",
"C  c #5E97C1",
"Z  c #5F98C3",
"A  c #5E9DCA",
"S  c #629CC5",
"D  c #639FCA",
"F  c #66A2CC",
"G  c #6BA4CD",
"H  c #71A7CD",
"J  c #78A7CA",
"K  c #73A8CF",
"L  c #7AABCF",
"P  c #66A5D0",
"I  c #6BA6D0",
"U  c #6DA8D1",
"Y  c #76ABD0",
"T  c #7AACD0",
"R  c #8BA7BF",
"E  c #8FA8BF",
"W  c #8EACC4",
"Q  c #83AECE",
"!  c #90ADC4",
"~  c #9AB3C7",
"^  c #96B2C8",
"/  c #9AB4C9",
"(  c #9EB9CD",
")  c #85B3D3",
"_  c #8AB6D4",
"`  c #8EB9D5",
"'  c #8EB9D6",
"]  c #8FBAD6",
"[  c #93BAD5",
"{  c #91BAD6",
"}  c #95BBD5",
"|  c #93BCD6",
" . c #94BCD6",
".. c #9DBBD1",
"X. c #9FBCD1",
"o. c #98BDD5",
"O. c #99BDD5",
"+. c #97BFD8",
"@. c #98BFD8",
"#. c #A0B9CB",
"$. c #A1BACC",
"%. c #A1BBCD",
"&. c #A5BECF",
"*. c #A5BFD1",
"=. c #A8BFD0",
"-. c #A7C0D3",
";. c #A5C1D5",
":. c #A9C2D3",
">. c #ABC3D3",
",. c #ADC4D2",
"<. c #AEC4D3",
"1. c #A9C3D4",
"2. c #AAC4D4",
"3. c #AEC4D4",
"4. c #AFC7D5",
"5. c #B1C7D4",
"6. c #B0C6D5",
"7. c #B3CAD6",
"8. c #B4CBD8",
/* pixels */
"3.3.3.3.3.3.3.3.3.3.3.3.6.X.G Z * x 3.3.<.3.3.3.3.3.3.3.3.3.3.3.3.3.3.3.3.3.3.3.3.3.3.3.3.:.H D % 1 &.3.<.3.3.3.3.3.3.3.3.3.3.3.",
"2.2.2.2.2.2.2.2.2.2.2.1.6.X.G Z * x 3.3.:.2.2.2.3.3.2.2.2.2.3.3.2.2.2.2.2.2.2.2.2.2.2.1.3.:.H D % 1 &.3.:.2.2.2.3.3.2.2.2.2.3.3.",
" . . . .{ |  . . . .{ o.6.X.G C X f 3.1.{  .{ o.3.1.| | {  .3.2. .|  . .| |  . . . .|  .3.:.G D 6 t *.3.{ { |  .2.3. .{  . .1.3.",
"{ { { { { { { { { { ]  .3...G C X f 3.1.{ { ]  .3.;.{ { {  .2.1.{ { { { { { { { { { { { 2.-.G D 8 t *.3.{ { { { 1.2. .{ { { ;.3.",
"{ { { o.3.;.{ { { { { {  ._ G Z * x 3.3.<.;.{ { {  .3.1.{ { { { { { {  .3.2. .{ { { { {  .{ G D 5 t *.3.<.2. .{ {  .2.3. .{ { { ",
"{ { {  .<.;.{ { { { { { { ) G Z * x 3.3.<.;.{ { {  .3.1.{ { { { { { { | 2.1.{ { { { { { { _ G D 5 t *.3.:.1. .{ { { 1.2. .{ { { ",
"{ { { {  . .{ { { { | _ G F I C X f 3.1.{ { { { { {  .{ { { { { { { { {  . .{ { { { { ] G G G F 5 t *.3.{ { { { { { {  .{ { { { ",
"{ { { { ] ] { { { { | _ F F I C X f 3.1.{ { { { { { { { { { { { { { { { ] ] { { { { { ] G F G F 5 t *.3.{ { { { { { { { { { { { ",
"| { | _ F K { { { { { { { ) G Z * x 3.3.<.;.{ { { { { { | | { { | { | ] G G ] | { | { { { ] G D 5 t *.3.:.2. .{ { { { { | | { { ",
"] ] | _ F K { { ] { { { { ) G Z * x 3.3.<.;.{ { { { { { ] ] { { ] ] { ] G G ] { ] ] { { { ] G D 5 t *.3.:.1. .{ { { { { ] { { { ",
"G T | { ] ]  ._ G K  ._ G G G S * x 3.1.{  .{ { { { | ] G K { ] G K { | ] ] | { G G { { G G G F 5 t *.3.}  .{ { { { | { K G ] | ",
"D K { { { { { ) D G { ) F F G C * x 3.;.] ] ] ] ] ] { _ D G ] _ F G ] { { { { ] F F ] ] F F G F 5 t &.3.] ] ] ] ] ] { ] G F _ { ",
"G G G G G G G G G G G G G G I S * x 7.;.G G G G G G G G G G G G G G G G G G G G G G G G G G G F 5 t :.3.K G G G G G G G G G G G ",
"F D D D D D D D F F D D F D G C * x <...D D D D D D D D F F D D F D D D D D D D F F D D F F F S 5 r $.-.F D D D D D D D F F D D ",
"r 0 0 9 < 7 0 0 0 0 0 0 0 0 0 0 > 9 d t 0 0 0 0 0 0 0 0 0 0 r r r 0 0 0 0 0 3 3 0 0 3 3 0 0 0 0 4 6 w w 3 3 3 3 0 0 0 0 0 0 0 0 ",
"> > 6 > + % 6 6 6 6 6 6 6 6 6 6 8 8 : : 6 6 6 6 6 6 6 6 6 6 > > > > 6 6 6 > # # 6 2 $ # 6 6 6 6 8 8 o o # # + # > 6 6 6 6 6 > > ",
"- n $.$.#.$.$.$.$.$.$.$.$.$.$.$.$.$.$.$.$.$.$.$.$.$.$.$.$./ D C > t / $.$.$.$.$.$.$.$.$.$.$.$.$.$.$.$.$.$.$.$.$.$.$.$.$.$.( G Z ",
"* m 7.7.3.3.3.3.6.7.3.3.3.3.6.6.3.3.3.3.3.3.3.3.3.3.3.3.7.;.U D : d :.7.3.3.3.3.6.6.3.3.3.3.3.3.3.3.3.3.3.3.3.3.3.3.3.3.7.3.K F ",
"- n 3.;.{  .{ o.<.;.}  .{ o.<.;.{ }  . .} } }  .}  .|  .3.*.G S : d =.3.}  . . .:.:. .}  .} } }  .} } } } } } } } } } } 2.:.H F ",
"- m 7.;.] { ]  .3.;.] | ]  .3.;.] { { { { { { { { | ]  .3.*.G S : d :.3.{ { { | 3.2.{ ] { { { { { { { { { { { { { { { { 2.:.K F ",
"- m 3.2.1.;.{ {  .o.2.;.{ {  . .| | {  .2.;.{ { { { { { o.{ G S : d :.3.:.;.| {  . .1.1.{ { { { { | | { 1.1. .{ { { | |  . .G F ",
"* m 3.3.<.;.{ { ]  .<.1.{ { { { { | {  .<.1.{ { { { { { { _ G S : d :.3.<.2.| { { { 3.3.{ { { { { { | | 3.3. .{ { { | { { ] G F ",
"- m 6.;. . .{ { { {  . .{ { { { { { { {  . .{ { { { | ] K G G S O e :.3. . .{ { { {  . .{ { { { { { { {  . .{ { { { | { K G G F ",
"- n 6.;.] { { { { { { { { { { { { { { { { { { { { { | _ F F G S o w :.3.] ] { { { | { { { { { { { { { { { { { { { { { { G D G G ",
"- m 3.2.1.;.{ { { { { { { { { { { { | _ G Y { { { { { { ] ) G S : s :.3.:.;.| { { { { { { { { { { { { { K K ] | { { { { ] _ G F ",
"- m 3.3.<.1.{ { { { { { { { { { { { | _ D G { { { { { {  .] G S : h :.3.<.2.| { { { { { { { { { { { { { G F ] | { { { {  .{ G F ",
"- m 7.;. . .{ { { { | _ G T | _ G T { { _ _ | ] G Y { ] K G G S : d :.3. . .{ { { { { { K K ] { K K ] { _ _ { { K K ] { K G G F ",
"* m 7.;.] { | | { {  ._ D G  ._ A H { {  .{  ._ D G | ] F F G S ; d :.3.{ { { { { { { { F F ] { F F ] | | | { { G F ] { G D F F ",
": l T K K K K K K K K H G G K H G G K K K K K H G G K K G G G S > r J T K K K K K K K K G G K K G G K K K K K K G G K K G G G G ",
": p F F F F F F F F F F G G F F G G F F F F F F G G F F G G G S > 0 D F F F F F F F F F G G F F G G F F F F F F G G F F G G G G ",
"% , t t t t t t i i i i i i i i i i i i t t i i i i i i r r r r 6 8 i i i i i i t t i i i i i i i i t t i i i i i i i i i i r r ",
"o o . X X X . o - * * * * - : : > : - @ . o * * * * - @ X X . X : ; * * * * - * X X * - * - : : > : X X * * * * * * * * - * X . ",
"~ ~ ~ ~ ~ ~ ~ ~ / / / / / W Z M - k / / ~ ~ / / / / / / ~ ~ ~ ~ / / / / / / / / ~ ~ / / / ^ S C 8 r ! / / / / / / / / / / / ~ ~ ",
"7.7.7.7.7.7.7.7.7.7.7.7.7.;.I S * n 7.7.7.7.7.7.7.7.7.7.7.7.7.7.7.7.7.7.7.7.7.7.7.7.7.7.7.3.Y F 8 t :.8.7.7.7.7.7.7.7.7.7.7.7.7.",
" . . . . . . . . . .} o.<...G C * x 3.1.}  .} o.<.:. . . . . . . . . . . . . . . . . . .<.-.G D & q &.3.}  . . .:.:.o. . . .:.<.",
"{ { { { ] ] { { { { ]  .6.X.G Z * x 6.1.] { ]  .3.1.] ] { { { { { { { { ] ] { { { { ] { 3.:.G D % 1 &.3.{ ] { { 2.3.{ ] { { 1.3.",
"{ { {  .1.;.{ { { { { { o.] G Z * x 3.3.1.;.{ {  .o.1.;.{ { { { { { {  .1.;.| { { { { { o.} G D > r *.3.-.;. .{  .o.;.1. .{  . .",
"{ { ] o.6.1.{ { { { { { | ) G Z * x 3.3.<.1.{ { ]  .<.2.{ { { { { { {  .3.3.| { { { { { | ] G D 8 t *.3.<.3. .{ { { 2.<. .{ { ] ",
"{ { { { o. .{ { { { | _ K H G S * x 3.1. . .{ { { {  . .{ { { { { { { {  . .{ { { { { ] K K G F 5 t *.3.o. .{ { { {  . .{ { { { ",
"{ { { { { { { { { {  ._ D D G S * x 6.;.] ] { { { { { { { { { { { { { { { { { { { { { ] F D G F 5 t *.3.] ] { { { { { { { { { { ",
"{ { | _ G T { { { { { ] _ ) G Z * x 3.3.1.;.{ { { { { { { { { { { { { ] K K { { { { { { _ ) G F 5 t *.3.-.;. .{ { { { { { { { { ",
"| {  .) A K | { { { { { +._ G Z * x 3.3.<.1.{ { { { { { | { { { | { | ] F G ] | { | { {  .{ G D 8 t *.3.<.3. .{ { { { { { { { { ",
"K T | ] ) _ { _ H T | _ K G G S * x 3.1. . .{ { { { | ] K Y { ] K Y { { _ _ { { K K { { K H G F 5 t *.3.o. .{ { { { { { Y K ] { ",
"D K  .|  .|  ._ A G  ._ D F G Z * x 6.1.] { { { { {  .] D G | ] D G { |  . .{ { F F { { F F G F 5 t =.3.{ { { { { { | { G F ]  .",
"G G K K K K K H G G K K G F G Z = h L L K K K K K K K K G G K K G G K K H H K H G G K K G G G F 8 9 J T K K K K K K K K G G K K ",
"G G F F F F F F G G F F G G I Z : u F F F F F F F F F F G G F F G G F F F F F F G G F F G G G F 8 9 A F F F F F F F F F G G F F ",
"t i l l l l l l a i t i a a l i % 7 l l l l l l l l l l a a a a a i t y l l l l a a l l a a l a 8 9 h l l l l l l l l l a a a a ",
"o o * * * * * @ * O   X * @ * @ X o * * * * * * * * * * * * * = > :   . @ * * * * * * * * * * * - - * * * * * * * * * * * * * = ",
"- k ! ! ! ! ! ! ! ! ! ! ! ! ! ! E W ! ! ! ! ! ! ! ! ! W ! W B M 4 t R ! W ! ! ! ! ! ! ! ! ! ! ! ! ! ! ! ! ! ! ! ! ! ! ! ! W V N ",
"- m 8.7.7.7.7.7.7.7.8.8.7.7.7.7.8.8.7.7.7.7.7.7.7.7.7.7.8.2.U D : h 3.8.7.7.7.7.7.7.7.7.7.7.7.7.7.7.7.7.7.7.7.7.7.7.7.7.7.7.T F ",
"o c 3.-.} o. .o.<.-.o.o.o.o.o.o.o.o.o.o.o.o.o.o.o.o. .o.<.*.G S : s *.2.o.o. .o.:.:.o. .o.o.o.o.o.o.o.o.o.o.o.o.o.o.o. .:.:.H D ",
". g 7.;.] ] ]  .6.;.] ] { { { { { { { { ] ] { { { { ]  .6.*.G S : h :.3.] ] ] { 3.3.{ ] { { { { { { { { ] ] { { { { { { 3.<.K F ",
"@ n 6.2.;.;.{  .o.o.;.;.{ { { { { { {  .;.;.{ { { { { { o.{ G S @ e :.3.;.;.{ { o.o.;.;.{ { { { { { { { ;.;. .{ { { { { o.o.H F ",
"- m 3.3.6.1.{ { ]  .6.2.{ { { { { { {  .6.2.{ { { { { { | _ G S o w =.3.<.3.| { ] { <.3.{ { { { { { { { 3.3. .{ { { { { | { G F ",
"* m 6.1.o.o.{ { {  .o.o.{ { { { { { { { o.o.{ { { { | ] T K G S ; e :.3.o.o.{ { { { o.o.{ { { { { { { { o.o.{ { { { { { T Y G F ",
"- n 7.;.] ] { { { { ] { { { { { { { { { | | { { { { | _ D D G S : h :.3.] ] { { { { { { { { { { { { { { | | { { { { { { G A F G ",
"- m 6.2.;.o.{ { { { { { { { { { { { | ] Y T { { { { { ] ) T G S : d :.3.;.;.{ { { { { { { { { { { { { { T T ] { { { { { ) ) G F ",
"* m 3.3.6.2.{ { { { { {  .| { {  .|  ._ A G { | | | { { @.{ G S : d :.3.6.3. .{ { { { {  .| { {  .| | { F F ] | |  .{ {  . .G F ",
"- n 3.1.o.o.{ { { { { ] Y T | ] Y T { ] ) ) { ] Y T { ] T K G S : d :.3.o.o.{ { { { { { T T { { T T ] { ) ) { { T T ] { T Y G F ",
"* m 7.2.{ |  . . .|  ._ A H o._ A H  . . . . .] D G  .] F F G S ; d <.6.{ |  . . .|  .{ F F {  .F G {  . . . .{ G F ]  .G F G F ",
"; z ) Q L T Y Y Y Y T K F G T K F G T T L L T K F G T K F F G S > r Q ) L T T T Y Y T Y F F Y Y F F L T Y Y T Y G F K T G F F F ",
"> a P P F P P P P F F G I I F G I I F F P F F G I I F G I I U F > 0 F P F F F F P P F F I I G G I I G F F F F F I I G F I I I I ",
"% 7 z j j j j j j l b v l l b v l l b l j l b v l l b l j j j h 6 9 l b l b b l j j l b l l b b l l b b b b b b l l v b l l l h ",
"$ + o o o o o o X o : : : : : : : : : : X o : : : : : : o o X o 6 6 : : : : : : o o : : : : : : : : : : : : : : : : : : : : o X "
};
