/* XPM */
static char *da7503cf2b8041aafa935213d40925a0ZKbzrTgFTi01h439[] = {
/* columns rows colors chars-per-pixel */
"64 64 134 2 ",
"   c #004691",
".  c #004E95",
"X  c #004F98",
"o  c #005296",
"O  c #085596",
"+  c #005599",
"@  c #01599C",
"#  c #09599B",
"$  c #1B5E9D",
"%  c #005DA3",
"&  c #0161A5",
"*  c #0064AA",
"=  c #0B66A9",
"-  c #0069AE",
";  c #0D69AC",
":  c #1D63A3",
">  c #1767AA",
",  c #156AAC",
"<  c #1A6AAD",
"1  c #146DB0",
"2  c #1A6EB0",
"3  c #2165A4",
"4  c #236EAF",
"5  c #2F6DA9",
"6  c #3D6EA5",
"7  c #306FAB",
"8  c #2770AF",
"9  c #3272AE",
"0  c #3E71AA",
"q  c #226FB0",
"w  c #2572B2",
"e  c #2A73B2",
"r  c #3075B4",
"t  c #3579B6",
"y  c #3E7BB4",
"u  c #367CBA",
"i  c #397EBA",
"p  c #4675AB",
"a  c #4879AE",
"s  c #427DB6",
"d  c #497BB1",
"f  c #437FB8",
"g  c #4A80B6",
"h  c #4482BB",
"j  c #4B84BB",
"k  c #5D8EBF",
"l  c #628AB7",
"z  c #628AB8",
"x  c #688FBA",
"c  c #6992BF",
"v  c #4587C1",
"b  c #4689C3",
"n  c #4B8DC5",
"m  c #518EC3",
"M  c #5D8FC1",
"N  c #5490C5",
"B  c #5496CD",
"V  c #6594C4",
"C  c #6A97C5",
"Z  c #6C9AC7",
"A  c #6C9AC8",
"S  c #709DCA",
"D  c #63A6DB",
"F  c #65A9DE",
"G  c #6BAFE2",
"H  c #6EB2E4",
"J  c #6DB6EB",
"K  c #6FB9ED",
"L  c #71B3E5",
"P  c #73B7E9",
"I  c #75BBED",
"U  c #79BEEE",
"Y  c #76BEF0",
"T  c #79BFF0",
"R  c #77C1F4",
"E  c #7CC1F2",
"W  c #80BDEB",
"Q  c #8CC5EF",
"!  c #84C4F2",
"~  c #88C7F3",
"^  c #8DC9F4",
"/  c #92CCF5",
"(  c #9ACCF2",
")  c #9BD1F6",
"_  c #9ED4F8",
"`  c #A3C5E3",
"'  c #A8C6E1",
"]  c #A9CBE7",
"[  c #A7CCEA",
"{  c #ACCEE8",
"}  c #B5D3EB",
"|  c #B8D6EC",
" . c #BCD9EF",
".. c #A1D1F4",
"X. c #A3D6F9",
"o. c #A6D9FB",
"O. c #ACDBFA",
"+. c #ABDCFB",
"@. c #AFDDFB",
"#. c #A8DBFC",
"$. c #AADBFC",
"%. c #AADCFC",
"&. c #AEDDFC",
"*. c #B3D6F0",
"=. c #BDDCF1",
"-. c #B8DBF4",
";. c #BBDDF6",
":. c #B2DEFB",
">. c #B3DEFB",
",. c #B3DFFB",
"<. c #B1DFFD",
"1. c #BFE0F7",
"2. c #B4E0FD",
"3. c #BCE2FA",
"4. c #C2DFF3",
"5. c #C3E0F4",
"6. c #C4E0F4",
"7. c #C6E3F7",
"8. c #CBE6F7",
"9. c #CFE8F7",
"0. c #C2E3FA",
"q. c #C5E3F8",
"w. c #C3E4FA",
"e. c #C7E4F8",
"r. c #C7E5F9",
"t. c #C8E6F9",
"y. c #CBE7FA",
"u. c #CCE7F9",
"i. c #CDE8F9",
"p. c #CEEAFC",
"a. c #D0EAF9",
"s. c #D2ECFC",
"d. c #D3EDFC",
"f. c #D5F0FF",
/* pixels */
"u.u.u.u.u.u.u.u.u.u.u.t.i.;.E L * V i.u.t.u.u.u.t.t.u.u.u.u.t.t.u.u.u.u.u.u.u.u.u.u.u.t.i.q.! I : 6 4.p.t.u.u.u.t.t.u.u.u.u.t.t.",
"t.t.t.t.t.t.t.t.t.t.t.r.i.;.E L * V i.t.r.t.t.t.t.t.t.t.t.t.t.t.t.t.t.t.t.t.t.t.t.t.t.r.i.q.! I : 6 4.i.r.t.t.t.t.t.t.t.t.t.t.t.",
"&.&.&.&.&.&.&.&.&.&.&.:.a.;.E H o z i.r.$.&.&.:.i.r.&.&.&.:.u.t.@.&.&.&.&.&.&.&.&.&.&.@.i.r.! I w s 5.i.@.&.&.@.t.t.:.&.&.:.t.u.",
"$.$.$.%.&.%.$.$.$.%.$.@.i.;.E H . l i.r.$.&.$.&.t.r.&.%.$.@.t.r.%.$.%.$.%.%.$.$.$.%.$.$.t.0.! I e s 7.i.O.%.$.%.r.t.@.%.$.%.r.t.",
"%.&.$.:.i.w.%.%.&.%.%.%.<.X.E L * V i.t.t.r.%.&.&.:.t.r.%.%.&.&.%.&.%.@.t.t.&.%.&.%.%.%.<.$.! I w s 5.i.t.t.@.%.&.@.r.t.@.%.&.&.",
"%.%.$.:.u.0.%.%.%.%.%.$.$._ E L * V i.t.t.w.%.%.$.@.t.r.%.%.%.%.%.%.%.&.t.r.&.%.%.%.%.$.$.X.E I w s 5.i.t.r.@.%.%.%.r.t.&.$.%.$.",
"%.%.%.&.&.&.%.%.%.$.&.X.E U E L . z i.r.$.&.%.%.%.&.@.&.%.%.%.%.%.%.%.%.&.&.%.%.%.%.&.$.! E E U w s 7.i.O.&.%.%.%.%.&.@.%.%.%.%.",
"$.%.%.$.o.$.%.%.$.$.&.X.T U E L . l i.r.$.%.%.%.%.%.%.%.$.%.%.%.$.$.%.%.$.$.%.%.$.$.&.$.E U E U w s 7.i.O.%.%.%.%.%.%.%.$.$.%.%.",
"&.%.&.X.U ~ &.%.&.&.%.$.&._ E L * V i.t.t.r.%.%.%.%.%.&.&.&.%.%.&.&.&.o.E ! $.&.&.&.%.$.%.o.! I w f 5.i.t.t.@.$.%.%.%.&.&.&.%.%.",
"$.$.&.X.I ~ &.$.o.$.%.$.%._ E L * V i.t.t.w.%.%.%.%.%.$.$.$.%.%.$.$.&.o.E ! $.&.o.$.%.$.%.o.E I w s 5.i.t.r.@.$.%.%.%.%.$.$.$.%.",
"E ^ &.%.o.$.&.X.T ~ &.X.E E E L * V i.r.@.&.&.&.&.%.&.o.E ! &.$.E ! $.&.o.o.&.$.! ! $.$.! E E U w s 7.p.@.&.&.%.&.%.&.%.! E o.&.",
"I ! $.$.$.$.$._ I ! +._ I I E L * V i.0.o.o.$.$.$.$.$.X.I E $.X.I E o.$.$.$.$.o.U U o.o.U I T U w f 4.t.$.o.$.$.$.$.$.$.E I X.$.",
"E E ! ! ! ! ! E E E ! ! E E E L * V d.0.E ! ! ! ! ! ! ! E E ! ! E E ! ! ! ! ! ! E E ! ! E E E U w s 7.p.! E ! ! ! ! ! ! E E ! ! ",
"I I I I I I I I I I I I I I T H * V 8.-.I I I I I I I I I I I I I I I I I I I I I I I I I I U I w s =.7.U I I I I I I I I I I I ",
"i u u t 5 9 u u u u u u u u u t q e j h u u u u u u u u u u i i i u u u u u 7 7 u u 7 7 u u u u w e p p 7 5 7 7 u u u u u u u u ",
"4 4 e 4 $ : w w e e w w w w e e e e 1 2 w w w w w w w w e e w q 4 4 e e w 4 $ $ e 8 $ $ w w w w e e @ @ $ $ $ $ 4 w w w e e w q ",
"- V =.=. .=.=.=.=.=.=.=.=.=.=.=.=.=.=.=.=.=.=.=.=.=.=.=.=.*.I H w j } =.=.=.=.=.=.=.=.=.=.=.=.=.=.=.=.=.=.=.=.=.=.=.=.=.=.=.W J ",
"- A d.i.i.p.i.i.i.i.i.i.i.i.i.i.i.i.i.i.i.i.i.i.i.i.i.i.d.r.! I 2 j t.d.i.i.p.p.i.i.p.p.i.i.i.i.i.i.p.p.p.p.p.p.i.i.i.i.a.i.~ Y ",
"- Z i.0.O.@.@.:.u.r.@.@.@.:.u.r.@.@.@.@.@.@.@.@.@.@.@.:.i.1.E P 2 j 7.t.O.@.@.:.t.t.:.@.@.@.@.@.@.@.@.@.@.@.@.@.@.@.@.@.t.t.! I ",
"- A a.w.o.%.o.:.i.w.$.%.$.:.i.r.$.%.%.$.$.$.$.%.$.%.$.@.i.1.E P 2 j 7.t.$.$.$.%.t.t.&.$.%.$.%.%.%.%.$.$.$.$.%.%.%.%.$.$.t.t.~ I ",
"- A i.t.r.0.%.&.@.:.t.0.$.&.:.@.%.&.%.:.t.0.%.%.&.&.%.%.<.$.E P 1 j 7.i.r.r.&.%.:.:.r.r.&.%.&.%.%.&.%.&.r.r.@.%.&.%.%.%.<.@.! I ",
"- A i.t.u.r.%.%.$.:.i.r.$.%.$.$.%.%.$.:.i.r.%.%.%.%.%.$.%.X.E I 1 j 7.i.t.t.&.%.$.&.t.t.&.%.%.%.%.%.%.&.t.t.@.$.%.%.%.$.%.o.! I ",
"- A a.r.@.&.%.%.%.&.:.@.%.%.%.%.%.%.%.&.:.@.%.%.%.%.&.o.! ! E P % a 7.t.:.&.%.%.%.&.:.:.%.%.%.%.%.%.%.%.:.:.%.%.%.%.%.$.~ ! E T ",
"- Z a.w.o.$.%.%.%.%.$.$.%.%.%.%.%.%.%.%.%.%.%.%.%.$.&.X.I I E P @ p 7.t.$.$.%.%.%.%.$.$.%.%.%.%.%.%.%.%.%.%.%.%.%.$.%.$.E I T T ",
"- A i.t.r.0.%.%.%.%.&.%.%.%.%.%.%.%.&.X.! ^ %.%.%.%.%.$.o._ E P , j 7.i.r.w.&.%.%.%.%.&.%.%.%.%.%.%.&.$.! ! o.&.%.%.%.$.o.X.! I ",
"- A i.t.u.r.%.%.%.%.%.%.%.%.%.%.%.$.&.X.I ! %.%.%.%.%.%.&.o.E I 1 j 7.i.u.t.&.$.%.%.%.%.%.%.%.%.%.%.&.$.T T o.&.$.%.%.$.&.&.! I ",
"- A i.r.:.<.%.%.%.$.&.X.! ^ &.X.! ^ &.$.X.X.&.o.! ^ &.o.! ! E I 1 j 7.t.:.<.%.%.%.%.%.$.! ! $.$.! ! $.%.X.X.%.$.~ ! o.%.~ ! E T ",
"- Z a.r.o.$.+.%.&.$.&.X.I ! &.X.I ! &.&.&.&.&.X.I ! &.o.I I E I 1 j 7.i.$.$.&.&.+.+.&.$.U U $.$.I U $.&.&.&.&.$.T I o.&.E I U U ",
", m / ^ ! ! ! ! ! ! ! ! T E ! ! T E ! ! ! ! ! ! T E ! ! E T E I q i Q ^ ! ! ! ! ! ! ! ! E E ! ! E E ! ! ! ! ! ! E E ! ! E E E T ",
"< b R Y Y T T T T T Y T E T Y T E T Y T T T Y T E T Y T E T E P w u I Y I T T T Y T Y T E E T T E E T Y T T T T E E T Y E E E E ",
"3 5 s s s s s f b b b b v v b b v v b h s s b b v v b v s s s y e e v n b b b v s s v b v v b v v v s s v b b b v v b b b v s s ",
"@ + . o o o . + - * * * * * , , < < - & . + * * * * - * o o . + , , * * * * * * o o * - * * , , < < o o * * * * * * * * * * + . ",
"} } } } } } } } } } } } | [ H F - M } } } } } } } } } } } } } } } } } } } } } } } } } } } { P G e s { | } } } } } } } } } } } } ",
"d.d.d.d.d.d.d.d.d.d.d.p.d.0.E L * C d.d.d.d.d.d.d.d.d.d.d.d.d.d.d.d.d.d.d.d.d.d.d.d.d.d.d.t.~ T e s t.d.i.d.d.d.d.d.d.d.d.d.d.d.",
":.:.:.:.:.:.:.:.:.:.@.:.i.;.E H * V u.r.O.:.@.:.t.r.:.:.:.:.:.:.:.:.:.:.:.:.:.:.:.:.:.:.t.7.! I 3 0 4.t.:.:.:.:.r.t.:.:.:.:.r.8.",
"%.$.$.$.$.$.$.$.$.%.o.:.a.;.E L * V i.r.o.$.o.&.i.r.$.o.%.$.$.$.$.$.$.$.$.$.$.$.$.$.$.$.u.r.! I : 6 7.p.$.o.$.%.t.t.&.o.$.%.r.i.",
"%.&.$.:.r.3.%.%.&.&.%.@.2.X.E L * V i.t.r.0.%.&.:.:.r.0.%.%.&.&.%.%.%.&.r.w.&.%.&.&.%.+.:.O.! I w s 5.i.r.w.@.%.:.:.w.r.@.%.:.:.",
"%.&.$.:.a.r.%.%.%.%.%.$.&._ E L * V i.t.u.r.%.%.o.@.i.t.%.%.%.%.%.%.%.@.u.t.&.$.%.%.%.$.%.o.! I w f 5.i.9.t.@.%.$.%.t.i.@.$.$.$.",
"%.%.%.&.:.:.%.%.%.%.&.X.! ! E L * V i.r.:.:.%.%.%.&.:.:.%.%.%.%.%.%.%.%.:.:.%.%.%.%.&.$.~ ! E U w s 5.i.:.:.&.%.%.&.:.:.&.%.&.%.",
"%.%.%.%.%.%.%.%.%.$.&.X.I I E L * V i.r.o.$.%.%.%.%.$.$.%.%.%.%.%.%.%.%.%.%.%.%.%.$.&.$.U I E U w s 7.i.$.o.%.%.%.%.$.$.%.%.%.%.",
"%.%.&.X.! / &.%.%.%.%.$.X.) E L * V i.t.r.3.%.%.%.%.&.%.%.%.%.%.%.%.&.$.! ~ $.&.%.%.%.$.X._ E I w s 5.i.r.w.&.$.%.%.%.&.%.%.%.%.",
"&.%.&._ K ! &.%.&.&.%.%.2.X.E L * V i.t.u.r.%.%.%.%.%.%.&.&.%.%.&.&.&.o.I T $.&.%.&.%.%.<.$.! I w s 5.i.9.t.@.$.&.%.%.%.&.&.%.%.",
"! / &.$._ X.&.X.! / &.X.! ! E L * V i.r.:.:.%.%.%.$.&.o.! ^ %.$.! ^ $.%.X.X.%.$.~ ~ $.$.~ ! E U w s 5.i.:.:.&.%.%.%.%.$.^ ! o.&.",
"I ! &.&.&.&.&.X.I ! <.X.I I E L * V a.r.$.%.&.&.&.&.&.o.I E &.$.I E $.&.&.&.&.$.U U $.$.U I E U w s 7.i.$.%.&.&.&.&.&.%.E I o.&.",
"T E ~ ~ ! ! ~ ! T E ~ ! T U E H = n / / ~ ~ ~ ~ ~ ~ ~ ! T E ~ ! T E ! ~ ! ! ~ ! T T ! ~ E T E U e t Q / ~ ~ ~ ~ ~ ~ ~ ~ E T ! ~ ",
"E E T T T T T T E E Y T E E E L , v Y Y Y T T T T T T T E E T T E E T T T T T T E E T T E E E U e e I Y Y T T T T T T T E E T Y ",
"h h n n n n n n n n j j n n n v 3 9 n n n n n n n n n n n n n n b b j j n n n n n n n n n n n n e r n n n n n n n n n n n n n n ",
"O @ * * * * * * * %   X * * * % o + * * * * * * * * * * * * * = < , . . * * * * * * * * * * * * - - * * * * * * * * * * * * * = ",
"* k { ] ] ] ] ] ] ] ' ] ] ] ] ] ' ' ] ] ] ] ] ] ] ] ] ] { ` G D w h ` ] ] ] ] ] ] ] ] ] ] ] ] ] ] ] ] ] ] ] ] ] ] ] ] ] ] ] L F ",
"- S f.d.d.d.d.d.d.d.d.d.d.d.d.d.d.d.d.d.d.d.d.d.d.d.d.d.d.r.! I 2 j i.f.d.d.d.d.d.d.d.d.d.d.d.d.d.d.d.d.d.d.d.d.d.d.d.d.d.d.^ E ",
"@ c i.0.:.:.:.:.8.0.:.:.:.:.:.:.:.:.:.:.:.:.:.:.:.:.:.:.t.;.E P 2 j 7.t.:.:.:.:.t.r.:.:.:.:.:.:.:.:.:.:.:.:.:.:.:.:.:.:.r.r.! I ",
". x a.w.o.$.o.:.a.r.o.o.%.$.$.$.%.$.$.$.o.o.$.$.$.%.o.@.a.5.E P 2 j 7.t.o.o.$.%.u.t.%.o.%.$.$.$.$.$.$.$.o.o.$.$.$.$.$.$.t.t.~ Y ",
"& C i.t.0.3.%.@.:.3.w.3.%.&.%.&.%.&.%.:.w.3.%.%.&.&.%.@.3.O.E P & d 7.i.0.3.&.&.:.2.0.0.&.%.&.%.%.&.%.&.0.0.&.%.&.&.%.%.:.:.! I ",
"- A i.t.a.r.%.%.o.:.a.r.$.%.%.%.%.&.$.:.a.t.%.%.%.%.%.$.&.X.E P @ p 7.i.9.t.&.%.$.&.u.i.&.%.%.%.%.%.%.&.i.i.@.$.%.%.%.$.%.%.! I ",
"- Z i.r.:.:.%.%.%.@.2.:.%.%.%.%.%.%.%.&.:.:.%.%.%.%.&.o.^ ~ E P = g 7.t.:.:.&.%.%.&.:.:.%.%.%.%.%.%.%.%.:.:.&.%.%.%.%.$./ ^ E T ",
"- Z a.w.X.$.%.%.%.%.$.$.%.%.%.%.%.%.%.%.%.%.%.%.%.$.&.X.I I E I 1 j 7.t.o.o.%.%.%.%.$.$.%.%.%.%.%.%.%.%.%.%.%.%.%.%.%.$.T K T T ",
"- A i.t.0.3.%.%.%.%.&.%.$.%.%.%.%.$.&.o.^ / %.%.$.$.&.$._ / E I 1 j 7.i.0.3.&.%.%.%.%.%.%.%.%.%.%.$.%.$./ / $.&.$.$.%.$._ ) E U ",
"- A i.u.a.r.%.%.%.%.%.%.&.&.%.&.&.&.&.X.J E %.&.&.&.%.%.2.$.E P 1 j 7.i.9.u.&.%.&.%.%.%.&.&.%.%.&.&.&.$.I I o.&.&.&.%.%.2.&.! I ",
"- Z i.r.:.:.$.$.%.$.&.o.^ / &.o.^ / %.o.) _ %.o.^ / %.o.^ ~ E I 1 j 7.t.:.:.%.$.%.$.%.$.^ ^ $.$.^ / $.%.) ) $.$./ ^ o.$./ ^ E T ",
"- A d.r.$.&.&.&.&.&.<.X.I ! 2.X.K ! &.&.<.&.<.o.I ! &.o.I I E I 1 j 8.i.%.%.&.&.&.&.&.%.U U %.&.I T $.&.<.<.&.&.T I $.&.E I T T ",
"; N ..( ^ ^ ^ ^ ^ ^ ^ ~ U E / ~ U E ^ ^ ^ ^ ^ ~ U E ^ ^ U U E P 2 h ( _ ^ ^ ^ ^ ^ ^ ^ ^ U U ^ ^ U U ^ ^ ^ ^ ^ ^ T U ^ ^ E U U U ",
"< n R R E R R R R E E E E E E E E E E E R E E E E E E E E E ! I w u Y R E E E E R R E E E E E E E E E E E E E E E E E E E E E E ",
": 9 N m m m m m m N B B B B B B B B B B m N B B B B B B m n m n w e B B B B B B m m B B B B B B B B B B B B B B B B B B B B m n ",
"$ $ + + + + + + + @ < < < < < < < < < > o @ < < < < < > + + + # e w < < < < < > + + > < < < < < < < < < < < < < < < < < < < @ + "
};
