/* XPM */
static char *ea614fa803114f39c98d3ad461938c3f5PoK5XyCU0BaF3qx[] = {
/* columns rows colors chars-per-pixel */
"64 64 247 2 ",
"   c #040304",
".  c #0B0303",
"X  c #0C0C0C",
"o  c #0C0904",
"O  c #140908",
"+  c #16120D",
"@  c #160B11",
"#  c #131313",
"$  c #1B1B1B",
"%  c #1B1616",
"&  c #0C1118",
"*  c #2A100F",
"=  c #242424",
"-  c #2B2929",
";  c #373736",
":  c #2D312D",
">  c #212526",
",  c #4E2F2E",
"<  c #762729",
"1  c #6E3531",
"2  c #5A1D15",
"3  c #324536",
"4  c #504738",
"5  c #754837",
"6  c #1B3442",
"7  c #553E46",
"8  c #733D44",
"9  c #385050",
"0  c #3B5B68",
"q  c #375E76",
"w  c #3B6675",
"e  c #484948",
"r  c #4A5956",
"t  c #565A57",
"y  c #4F5349",
"u  c #65574B",
"i  c #7A5556",
"p  c #6D4A50",
"a  c #56675A",
"s  c #4A6458",
"d  c #6D685A",
"f  c #4D5C66",
"g  c #586668",
"h  c #47697B",
"j  c #576C75",
"k  c #5A747A",
"l  c #506B6B",
"z  c #676866",
"x  c #746C67",
"c  c #79766A",
"v  c #6A7778",
"b  c #777A79",
"n  c #6C6F71",
"m  c #6C5861",
"M  c #88383A",
"N  c #8B3234",
"B  c #894635",
"V  c #8B3E48",
"C  c #9A4848",
"Z  c #8B4C58",
"A  c #974C54",
"S  c #895558",
"D  c #98565A",
"F  c #8E524A",
"G  c #A5594C",
"H  c #A75659",
"J  c #B55C59",
"K  c #A34A4A",
"L  c #99675A",
"P  c #916B59",
"I  c #AA6659",
"U  c #B6665B",
"Y  c #AF6B50",
"T  c #995A67",
"R  c #8B5461",
"E  c #A35B64",
"W  c #A85A66",
"Q  c #B55C64",
"!  c #986965",
"~  c #9A6675",
"^  c #977577",
"/  c #8E726D",
"(  c #A8666A",
")  c #BB6564",
"_  c #B4646B",
"`  c #BC6B6B",
"'  c #B76768",
"]  c #AA7767",
"[  c #B6756A",
"{  c #AA6875",
"}  c #BC6B73",
"|  c #B76A75",
" . c #A87676",
".. c #B87578",
"X. c #C5625E",
"o. c #C46A68",
"O. c #C7736C",
"+. c #C36D73",
"@. c #C56976",
"#. c #C47275",
"$. c #CA7474",
"%. c #C4747B",
"&. c #CB757B",
"*. c #CA7A7A",
"=. c #D2797A",
"-. c #C35E5A",
";. c #73847A",
":. c #85837A",
">. c #9B8779",
",. c #99856D",
"<. c #AA8677",
"1. c #B28A76",
"2. c #C68779",
"3. c #CB8C77",
"4. c #486D86",
"5. c #497689",
"6. c #577586",
"7. c #4B7995",
"8. c #557C94",
"9. c #566E89",
"0. c #647B87",
"q. c #6F7D89",
"w. c #4D7FA0",
"e. c #8C7886",
"r. c #BA7682",
"t. c #A57484",
"y. c #C67984",
"u. c #D57B85",
"i. c #C57C90",
"p. c #57829A",
"a. c #5F808B",
"s. c #678394",
"d. c #7A8996",
"f. c #7E969D",
"g. c #70838A",
"h. c #5789A9",
"j. c #6A91A8",
"k. c #70A3B8",
"l. c #3B85CA",
"z. c #3D8ACE",
"x. c #3784C8",
"c. c #3F8CD0",
"v. c #4285CB",
"b. c #4489CE",
"n. c #498CCE",
"m. c #4C90CF",
"M. c #438DD2",
"N. c #4A8ED1",
"B. c #4591D5",
"V. c #4D92D3",
"C. c #4B96DA",
"Z. c #4D9ADD",
"A. c #4794D8",
"S. c #5195D5",
"D. c #559AD6",
"F. c #549ADB",
"G. c #599EDA",
"H. c #5498D8",
"J. c #6A9DCD",
"K. c #54A6DE",
"L. c #5DA2DC",
"P. c #5BA9DA",
"I. c #4EA0DA",
"U. c #61A5DE",
"Y. c #64ADDC",
"T. c #6BADDD",
"R. c #65A7D5",
"E. c #69B1DD",
"W. c #69B8DB",
"Q. c #79B9DA",
"!. c #71A9CE",
"~. c #4F9DE0",
"^. c #529DE1",
"/. c #53A3E3",
"(. c #59A6E5",
"). c #5EB0E8",
"_. c #64AAE2",
"`. c #6BADE3",
"'. c #65A8E4",
"]. c #66B1E3",
"[. c #6DB3E2",
"{. c #6DB9E5",
"}. c #6BB6EA",
"|. c #72B5E4",
" X c #75BAE6",
".X c #73BCEA",
"XX c #7ABDEB",
"oX c #79B8E6",
"OX c #74B3EB",
"+X c #6F9FE1",
"@X c #76C3DE",
"#X c #78C2EB",
"$X c #79C4F4",
"%X c #6FC0EE",
"&X c #888889",
"*X c #9B8587",
"=X c #889899",
"-X c #979896",
";X c #90908D",
":X c #A99886",
">X c #B89888",
",X c #AD8C90",
"<X c #95A399",
"1X c #B2A28B",
"2X c #B3A997",
"3X c #869BA4",
"4X c #959DA8",
"5X c #88A5A9",
"6X c #93ACB5",
"7X c #95AFB0",
"8X c #B0B2AF",
"9X c #A894A4",
"0X c #C78689",
"qX c #D6848A",
"wX c #CD9590",
"eX c #C9AA92",
"rX c #D2B4AE",
"tX c #E8B3AD",
"yX c #E09297",
"uX c #B9C9BA",
"iX c #CBC5B6",
"pX c #EDCFB8",
"aX c #9ABDD5",
"sX c #8CB5CE",
"dX c #A5BAC4",
"fX c #82BDE4",
"gX c #8BC8DC",
"hX c #95C8DB",
"jX c #92C6D1",
"kX c #A5CCD8",
"lX c #A8D3DD",
"zX c #B0CCD0",
"xX c #84C3E4",
"cX c #88C7EA",
"vX c #95CAE5",
"bX c #9AD2E9",
"nX c #84C9F2",
"mX c #90D0F0",
"MX c #ACD5E3",
"NX c #A6D5E8",
"BX c #B6DAE6",
"VX c #A9D8EE",
"CX c #BDE2EE",
"ZX c #CED3CD",
"AX c #EFD4C9",
"SX c #F5E6D2",
"DX c #DDEBEC",
/* pixels */
"V.V.V.V.V.N.N.N.N.N.n.n.n.n.n.n.v.v.v.v.v.v.v.v.v.v.v.v.v.v.v.l.l.x.x.x.x.x.x.x.x.x.x.x.x.x.x.l.l.x.l.l.l.l.l.l.z.z.z.z.z.z.c.c.",
"S.V.V.V.V.V.V.N.N.N.N.n.n.n.n.n.n.n.v.v.v.v.v.v.v.v.v.v.v.v.v.v.l.l.l.l.l.l.l.l.l.l.l.l.l.l.l.l.l.l.l.l.l.l.z.z.z.z.z.z.z.c.c.c.",
"S.S.S.S.V.V.V.V.N.N.n.n.n.n.n.n.n.n.n.n.n.v.v.v.v.v.v.v.v.v.v.v.l.l.l.l.l.l.l.l.l.l.l.l.l.l.l.l.l.l.l.z.z.z.z.z.z.z.z.z.c.M.M.M.",
"H.S.S.S.S.S.S.S.V.V.V.N.N.n.n.n.n.N.N.N.n.n.n.n.v.v.v.v.v.v.v.b.l.l.l.l.l.l.l.l.l.l.l.l.l.l.l.z.z.z.z.z.z.z.z.z.z.c.c.c.M.M.M.M.",
"H.H.H.H.H.H.H.S.V.V.V.V.V.V.V.m.N.N.N.N.n.n.n.n.n.n.n.v.v.n.n.n.v.b.b.b.b.b.b.b.b.b.b.b.b.b.z.z.z.z.z.z.c.c.c.c.c.c.c.M.M.M.M.B.",
"F.H.H.H.H.H.H.H.S.S.S.V.V.V.V.V.N.N.N.N.N.N.N.N.n.n.n.n.n.n.n.n.n.M.M.M.M.M.M.M.M.M.M.M.M.M.M.M.M.c.c.M.c.M.M.M.M.M.M.M.B.B.B.B.",
"G.G.H.H.H.H.H.H.S.S.S.S.S.S.V.V.V.V.N.N.N.N.n.n.n.n.n.n.n.n.n.n.N.M.M.M.M.M.N.N.M.M.M.M.M.M.M.M.M.M.M.M.M.M.B.B.M.M.M.B.B.B.B.B.",
"G.G.G.H.H.H.H.H.S.S.S.S.S.S.V.V.V.V.V.N.V.N.N.N.n.n.n.n.n.n.n.N.N.M.M.M.M.M.M.M.M.M.M.M.M.M.M.M.M.M.M.M.M.B.B.B.M.M.B.B.B.B.B.B.",
"(.(.(.L.L.G.G.G.H.H.H.S.S.S.S.S.S.S.S.V.V.V.m.m.m.n.m.m.m.m.m.V.N.M.M.M.M.N.A.A.M.M.M.M.M.M.M.B.B.B.B.B.B.B.B.B.B.B.A.A.C.C.C.C.",
"'.'.(.(.L.G.G.G.H.H.H.H.H.S.S.S.S.S.S.S.V.V.V.V.V.V.V.V.V.m.V.V.N.A.N.M.M.A.A.A.N.A.A.A.B.B.B.B.B.B.B.B.B.A.A.A.A.A.C.C.C.C.C.C.",
"'.'.'.'.L.L.L.L.G.G.G.G.H.H.H.H.S.S.S.S.S.S.S.S.V.V.V.V.V.V.V.V.C.A.A.A.A.A.A.A.A.A.A.A.A.A.A.A.A.B.A.A.C.C.C.C.C.C.C.C.Z.Z.Z.Z.",
"'.'.'.'.'.L.L.L.L.L.G.G.G.G.G.G.H.H.H.H.S.S.S.S.S.S.S.S.S.S.S.S.F.Z.Z.Z.Z.Z.C.Z.C.A.C.C.C.C.C.C.C.C.C.C.C.Z.Z.Z.Z.Z.Z.Z.Z.~.~.Z.",
"'.'.'.'._.'.U.U.L.L.L.L.L.L.L.L.G.G.H.H.H.H.H.H.H.H.H.H.H.H.H.H.F.F.F.F.Z.Z.Z.Z.Z.Z.Z.Z.Z.Z.Z.Z.Z.Z.Z.Z.Z.Z.Z.Z.Z.Z.Z.~.^.^.^.^.",
"`.`.`._.'.'._._.U.U.U.U.L.L.L.L.G.G.G.G.G.G.H.H.G.G.G.G.G.G.G.G.^.^.^.^.^.F.F.F.F.F.F.F.F.Z.Z.Z.Z.Z.Z.Z.~.~.^.^.^.^.^.^.^.^././.",
"`.`.`.`._.'.'.'._._._.'.U.U.U.U.L.L.L.L.G.G.G.G.G.G.G.G.G.G.G.G.^./.^.^.^.^.^.F.^.^.^.^.F.F.F.F.^.~.~.^.^.^.^.^.^.^.^./././././.",
"[.`.[.`.`._.`.'.'.'.'.U.U.U.U.U.U.U.L.L.L.G.L.G.J.J.J.J.J.J.J.J.J.R.L.G.G.F.^.~.^.^.^.^.^.F.F.F.^.~.~.^././././././././././.(.(.",
"|. X|.[.`.`.`.`.T.T.T.T.R.R.R.R.+X+X'.(.(.L.P.R.k.sX5X=X;Xn e t 9.9.w.J.|._.I.Z./././././.K.K.K.K./././././././././.(.(.(.(.(.(.",
" X X X|.|.[.[.`.[.[.T.T.T.T.T.T.+X+X'.'.(.(.R.!.k.f.&X;X1X^ 1 , - > 6 q h.R.)./././.(.(.K.P.P.P.K.K.K.K.K.K.K.K.K.K.K.(.).).].].",
"XXXXXX X X X X X X X|.|.[.E.E.`.T.`.`.}.]._.R.J.6X7X8XrXpXeX! i 4 : > 6 q k.[.G.(.(.(.(.L.P.P.P.P.P.P.P.P.P.P.P.P.P.P.)._.].}.}.",
"XXXXXXXXXX XXX X X X X X X[.[.[.|.OXOX}.].U.R.J.k.8XZXAXrX>X<. .i 4 - & 6 8.oXT.'.'.'.'.U.Y.Y.P.Y.Y.Y.Y.Y.Y.Y.Y._.].].].].].].].",
"XXXXXXXXXXXXXXXX X X X X|.|.|.|. X[.}.].].`.!.sX3XzXSXAXeX<.] ! ! S u - & h sXQ.T.`.`.`.T.T.Y.Y.Y.Y.Y.Y.Y.Y.Y.Y.E.E.E.E.E.E.E.E.",
"$X#X#X#XXXXXXXXXXXXXoX X X X X|.[.W.].].}.|.fXaXdX8XAXpX>X! i 5 I L P 4 > h sX!.T.|.|.|.`.`.E.E.E.E.E.E.E.E.E.E.Y.Y.T.E.E.[.[.{.",
"nXnXnXxXxX#XxX#XxXXXXXXXXXoXoX XW.W.{.{. XoXsXsX4X/ *XeX! , 2 1 1 < 5 , - 6.aXQ.Q.|.|.|.|.[.].].].].[.].[.].[.].[.[.].[.{. X X.X",
"nXnXnXnXcXcXcXcXcXcXxXxXfXfXXXoX@X@X#X#XoXQ.sX6X&X7 p 1.F * * F U B 5 4 : 0.aX!.|.OXOXOXOX}.{.{.{.{.{.{.{.{.{.{..X.X.X{. X{.{.{.",
"mXmXmXcXcXcXcXxXxXxXxXxXxXxXxXxXW.cXcXQ.Q.vXsXd.n *X^ 1 2 * 1 D U G P i g f.aXfX XXXXX$X$X$X.X}.#X%X.X.X.X.X%X%X]..X#X%X.X%X%X.X",
"mXvXvXvXmXmXbXbXvXvXvXvXvXvXcXxXgXgXxXxXvXvXkXdX9X,X! p F L L I U I L u g 3XhXQ.XX.X.X.X.X.X%X%X.X.X.X{..X.X%X#X$X#X.X#X%X{..X$X",
"bXbXvXvXvXvXvXvXvXvXvXvXvXgXgXgXhXjXsXgXvXaXaXzXZXrX<.F F ( ] I G [ L u b dXbXxXnX$X.X.X$X$X#X#XnXnXnXnXnXnXnXnXnX#X XnXnX#X#XnX",
"VXVXVXVXNXNXNXNXNXNXNXNXbXbXbXNXlXjXhXbXbXhXjXzXZXAXrX! D I ( I G [ L d =XkXhXcXnX$XnXnXmXmXcX@XxXxXxXxXxX@XQ.@XxXgXxXcXmXmXcXxX",
"MXMXMXMXMXMXMXMXMXMXkXkXkXkXMXMXkXlXNXNXNXbXhXdX8XrXeX] ] [ G C I U L >.8XzXjXgXmXcXcXmXmXbXgXgXhXhXvXhXvXvXvXbXhXbXbXjXhXbXbXhX",
"CXCXBXBXBXMXMXMXMXMXMXMXMXMXMXMXBXMXlXMXVXVXlXzXZXSXpXwX] I I ` Y G ! 1XZXBXlXVXbXbXbXbXhXlXlXlXlXlXlXlXlXMXMXBXkXMXMXkXjXlXMXlX",
"CXCXCXBXBXBXCXCXBXBXCXCXCXBXlXzXCXzX6XjXhXhXkXzX8XrX>XL B < N G Y G ] 2XuXzXlXhXhXbXVXMXlXkXzXzX7X7X5X5Xf.f.f.3X5X6XzXBXzXzX6XzX",
"6X6X5X5X6XdXzXBX6X6XdXzXdX7X5Xf.8Xb f k a.k a.=X<X:X^ <.wX2.I G Y Y ] 1.-X7X7Xs.5XaXMXBXzXzX7X7X<X=X;.v z a a a r a ;XZXZX<X&X4X",
"s a g g g k d.3X0.d.d.b ;.=X<X;X&Xx x x m x c u / <.5 L tXpXAX3.G Y 2.1.<.,X;Xq.v d.4XdXZXZXuXZXuXiXiXrX2X1X:X1X,.>.:X2X8X8X2X-X",
":.c x z m m n e.e.b m z -XiX2X/ :X*X>.*X,X>XeX>X<.] ] tX1.L tXyX3.Y Y ] D p R 9X9X&Xn g z z a c c d 4 u >.1X<.<.<.,.P d d x c :.",
":X>.>.*Xe./ e.,Xe.e./ ^ 2XiXrX,XtXtXrXrXrXrXwX0XwX..L 2.D 1 [ 3.3.Y Y 2.( 1 8 ^ ,Xx 7 : 9 e 9 r r r e t :.<X8XiXZXiX-Xc g g n v ",
"1. .<.wX,Xt.t.wXt.,XwX,X,XwXrXrXtXAXtXtXtXwX .( ( ..< 2 H _ ' 2.Y Y 2.3.2.( p , ~ m 7 7 t e : : 9 f f f f g g.4Xg.g.v k j k k k ",
"*.[ [ 2...E W r.i.i.y.r.r.0XqX0X..wXqX0XyXqX} } H yXH < K H H +.I [ [ [ [ ..( 8 ~ ^ ^ *X9X;Xn j h 4.w q 4.h h h 0 0 h 4.5.7.4.4.",
"3.O.` ` _ H Q y.y.y.} | } &.y.} _ +.} _ +.#.&.u.u.qXyXu.V N K C I ] [ [ ` ` ` #.F S S / *X&Xb g.j.h.p.p.j.j.8.7.j.j.p.p.p.8.7.7.",
"O.o.U U H H ` y.| y.u.y.} } } +.#.+.+.` Q Q @.@.&.Q u.qXQ Q @.W D L ( %.$.) ) O.` [ ( ^ *Xe.n 0.4.w.7.7.7.7.5.8.7.5.4.4.7.7.p.p.",
"G G G G F F D E ..y.y.y.y...| W _ _ %.&.Q @.=.o.u.u.@.Q @.u.@._ { ( ( _ #.$.-.K J U (  .,X,Xe.d.8.h.p.7.8.8.8.j.8.p.p.p.p.p.8.7.",
"3.3.wXwXwX1.] ! S p S  . .,X0X....| _ _ | } o.o.@.@.@.@.@.@.} | r.{ ( _ ) J -.o.X.J H (  .*X*X&Xq.0.a.6.6.6.6.6.h 6.6.6.6.6.6.s.",
"<.1.1.>X>X>X<. . .! i 1 , , i ! ( ( ( ( | _ } qX@.@.@.} } | | | ..{ _ ` ) J -.X.X.U ' |  .t.*X,X8X4X4X=X=X=Xd.3Xd.f.3X3Xf.f.f.f.",
"1.1.:X1X:X:X:X>.>.:X*X/ x u , * 1 S S !  .( _ qX%.%.%.%.} | | | { { _ } o.o.X.o.o.o.O... .{  .*X*Xx :.:.b ;.v g.=X=X3X3X3X=X=X=X",
"u u u u u y 4 4 - 4 , ; y y - O * 1 i S  .{ E } y.y.y.y.&.%.....( { } #.$.o.o.o.o.o.o.} | (  .,Xu 4 c d e t r r r f g g j j j j ",
"o o o o o o o o   % O   . O o % . , i i ~ r.| _ %.%.&.y.y.%.%.%.Q | %.&.&.&.$.+.Q J _ ` | | ..>X:X1XAX:Xu :.g.v v v 0.0.0.g.s.s.",
"+ + + + + + + + $ - - + + O . . . , p p S  .y._ | | +.%.&.*.*.%.Q } &.&.&.&.&.%.#.} ` ` ' ' ` 1.1.1XSX:.: n v j k k h h 6.6.6.6.",
"= = = $ $ % + o + + % % + + % + . * p i p T y.| Q _ +.#.&.&.#.#.Q +.&.&.%.%.%.} y.%.%.` H G U [ 1.:XSX;X; g.d.s.8.8.8.8.8.8.8.7.",
"$ $ % % % @ o . o - x b ; o o O . . p ^ i Z r.y._ } +.&.&.&.&.$.J +.&.#.+.#.%.} ` } } ' K C U 2. .>.SX-Xe g.0.6.6.6.8.8.p.p.8.7.",
"$ $ % # # X X X # $ b 9X= X X X . . , ~ Z T A y...| _ _ %.u.&.) ' ' ` O.o.) ) O.) =.C C ) H H [  .^ SX2X3 k 6.k 6.9.9.4.4.5.7.8.",
"$ $ % % # X X X X % &X8X$   X X o . , R Z T V W y._ E _ y.y.+.) H I ' ) O.O.o.o.U =.C M J ) } ..! / SX8X9 l j j 8.0.9.9.9.9.4.5.",
"$ $ % % # X X X % # b -X#   %   X . - R S T V A | | _ ( } %.#.' ' ` ` ) O.$.o.J J O.C N H ' &...1.<.SXiXz ;.a.s.f h 4.6.8.8.p.p.",
"$ $ % % # X X X = $ b ;X  X $   X . * S R { A D Z ..0X_ H } &.+.#.*.$.` o.=.O.J J ) N N H Q +...<.,.AXiXz k j 6.s.s.s.s.8.8.5.5.",
"% % % % # X X X $ = &X-XX X $     . * R T ( T E V ( ...._ _ +.+._ *.*.) ) =.=.O.O.J N C Q H _ ..wX1.pXiX;.;.k a.6.6.6.9.4.w w w ",
"% % % % # # X X   : ;X;XX   X X   . * i R T E E E Z A ..y.` Q ` ` *.*.o.) o.O.O.=.G N H _ H | ..] ,.eX:Xa s s 0 0 0 q h h 4.5.5.",
"% % % # # # X X X : z z   X X X X o O i R T ( E ( A Z ( %.%._ W %.*.$.$.O.o.) U =.K < C W W %...1.eXpX2Xz a l l a.a.a.p.p.p.7.5.",
"% % % # # # X X = = : =   $ X   X X . i T ~ { W D { ( A H y.%.A #.` #.=.3.$.O.o.O.C < M A _ y...1.eXpX2Xc a l k 0 w h 6.6.6.5.5.",
"% % # X X # # # = : # X X   # X   X @ p ~ Z T r.{ { ( T D W _ _ H ` *.=.O.) o.$.$.C < M ( W E ..] eXSX2X3 s s 9 0 0 0 0 0 0 w w ",
"X # $ $ $ % X X $ : $ $ $ X X     . O p ~ R T { { { { T D E _ ` y.*.&.&.$.O.$.$.$.C < M H E D ] 3.eXSX2X3 s s s l l f 0 0 0 0 0 ",
"= $ # o     X # - ; $ # # X # # X X O p { R R E { ..{ E D E Q _ qX*.+.$.=.=.$.$.) M 2 < A D A ( I 1.pXeX4 y 3 3 9 9 9 f f j k k ",
"X X % $ $ $ % # $ - X       X X % @ @ p t.T R R { ..r.{ E E W W } _ Q $.qXqX$.O.J M 2 < A D T  .I 3.pXeX4 y 3 3 > 6 r g v v b b ",
"= $ % X         : y e e e ; : = # @ O p t.~ T R T { r...{ { W H H A H +.u.=.$.$.) C < < A ( { ..2.eXSX1X- y y 9 r g g n n z z z ",
"    X % = ; e t = ; = = = % #       . 7 t.~ T T Z T { r.r...| W W A H ` &.$.$.=.+.H 1 < Z T (  .[ 3.pX1X4 z a z v v n n z x c c ",
"; e t z t ; = X = ; # X X   X X     O 7 t.~ T T Z T ( { ..r.} | W A H +.u.&.$.*.+.H M < Z T ( { ] ] pXiXd ;.z v g g z z z x / :.",
"e ; = X     X % % - # X #   X   X @ @ p t.~ T T T T ~ ( { r...| W C H *.yXqX+.+.#._ V 1 Z ( { ..[ F >X1Xy y : 9 e r t t u u u u "
};
