/* XPM */
static char *_7de8e80c0e24eaeae6e91ff3087b4e43tH7VgwanDugCOls[] = {
/* columns rows colors chars-per-pixel */
"64 64 239 2 ",
"   c #040202",
".  c #0B0502",
"X  c #0B0A05",
"o  c #05090C",
"O  c #0C0C0C",
"+  c #08060A",
"@  c #120402",
"#  c #120A04",
"$  c #140C0C",
"%  c #1A0D0D",
"&  c #190904",
"*  c #0E100C",
"=  c #13120D",
"-  c #19110C",
";  c #0B0D13",
":  c #0C0E18",
">  c #070813",
",  c #120D13",
"<  c #160D18",
"1  c #0E1115",
"2  c #0D111A",
"3  c #121214",
"4  c #1B1514",
"5  c #12131A",
"6  c #1A151B",
"7  c #1C191C",
"8  c #380900",
"9  c #28150A",
"0  c #251918",
"q  c #2E130C",
"w  c #2B201D",
"e  c #362317",
"r  c #3B200F",
"t  c #1D1A22",
"y  c #0E1621",
"u  c #241C21",
"i  c #2C2323",
"p  c #322524",
"a  c #352B2B",
"s  c #3A2A2A",
"d  c #362825",
"f  c #3C3332",
"g  c #3E383B",
"h  c #39302F",
"j  c #491A0A",
"k  c #462619",
"l  c #592919",
"z  c #432D2A",
"x  c #45342E",
"c  c #57382A",
"v  c #433433",
"b  c #453B3B",
"n  c #4B3C3B",
"m  c #493836",
"M  c #543D38",
"N  c #502F28",
"B  c #69392A",
"V  c #693D31",
"C  c #713D2D",
"Z  c #61341F",
"A  c #58433B",
"S  c #4B413D",
"D  c #79472D",
"F  c #664437",
"G  c #7A4C3C",
"H  c #764837",
"J  c #7B523C",
"K  c #6D4732",
"L  c #4C4342",
"P  c #4D4749",
"I  c #524444",
"U  c #554B4A",
"Y  c #5A4C4B",
"T  c #594945",
"R  c #5D5252",
"E  c #5D595A",
"W  c #5F504B",
"Q  c #634C48",
"!  c #784E43",
"~  c #6A524A",
"^  c #7D5343",
"/  c #77574A",
"(  c #635453",
")  c #6B5D5B",
"_  c #685A57",
"`  c #755D56",
"'  c #644E51",
"]  c #6C615E",
"[  c #7C645D",
"{  c #786158",
"}  c #6C6462",
"|  c #726363",
" . c #786A67",
".. c #7B716D",
"X. c #7D7373",
"o. c #83452E",
"O. c #884B36",
"+. c #83543D",
"@. c #8B543B",
"#. c #875739",
"$. c #915A3E",
"%. c #835444",
"&. c #8B5B44",
"*. c #845B4A",
"=. c #8B5D4C",
"-. c #875745",
";. c #935E44",
":. c #935E4B",
">. c #925641",
",. c #895D52",
"<. c #935E50",
"1. c #8C624B",
"2. c #8A6347",
"3. c #94634D",
"4. c #9A634D",
"5. c #94664B",
"6. c #846154",
"7. c #8C6354",
"8. c #88675A",
"9. c #926453",
"0. c #9B6552",
"q. c #946A53",
"w. c #9C6A53",
"e. c #946B5B",
"r. c #9B6D5B",
"t. c #93665A",
"y. c #94725D",
"u. c #9C725C",
"i. c #9B7155",
"p. c #A16D55",
"a. c #A3735B",
"s. c #A6765C",
"d. c #826B64",
"f. c #896E66",
"g. c #946D62",
"h. c #9A6D63",
"j. c #8B726C",
"k. c #87736A",
"l. c #9C7364",
"z. c #94756B",
"x. c #9B7C6D",
"c. c #977766",
"v. c #857C7B",
"b. c #897975",
"n. c #947C75",
"m. c #9B7D72",
"M. c #967A76",
"N. c #836D70",
"B. c #A67B68",
"V. c #A87E73",
"C. c #94827B",
"Z. c #9C837B",
"A. c #9D8478",
"S. c #928172",
"D. c #A9816C",
"F. c #A2847C",
"G. c #A78879",
"H. c #B28474",
"J. c #B5846D",
"K. c #C4947E",
"L. c #7E7C81",
"P. c #847F81",
"I. c #8D8383",
"U. c #89878B",
"Y. c #9D8B84",
"T. c #948C8B",
"R. c #958784",
"E. c #9A918E",
"W. c #969394",
"Q. c #9B9494",
"!. c #9B979A",
"~. c #9C999B",
"^. c #9A9897",
"/. c #918D92",
"(. c #AB8C83",
"). c #A28C85",
"_. c #A3928D",
"`. c #AC9288",
"'. c #B2988C",
"]. c #A29694",
"[. c #AB9A95",
"{. c #A49B9B",
"}. c #A99E9D",
"|. c #A89894",
" X c #B49C94",
".X c #B69C97",
"XX c #B4A29D",
"oX c #B9A399",
"OX c #ACA09E",
"+X c #9F9CA0",
"@X c #A39EA2",
"#X c #A89FA0",
"$X c #A6A1A4",
"%X c #ACA3A3",
"&X c #ABA6AA",
"*X c #AEA9AE",
"=X c #A7A5A8",
"-X c #B4A6A4",
";X c #BBA6A3",
":X c #B5A9A5",
">X c #BBAAA4",
",X c #B4ABAB",
"<X c #BAADAC",
"1X c #B0A7AA",
"2X c #BCB1AD",
"3X c #AEABB1",
"4X c #B3AEB3",
"5X c #B9AFB1",
"6X c #B5B1B6",
"7X c #BDB3B3",
"8X c #B6B3B9",
"9X c #BAB5BB",
"0X c #BDB9BE",
"qX c #BDB9B7",
"wX c #C4ADA8",
"eX c #C2B2AD",
"rX c #C9B0A9",
"tX c #C2B6B4",
"yX c #C4B9B6",
"uX c #C1B7BB",
"iX c #C4BBBB",
"pX c #C9BEBD",
"aX c #CAB9B4",
"sX c #D3B1AB",
"dX c #CAC1BE",
"fX c #BEBAC1",
"gX c #BCBDC7",
"hX c #C2BDC3",
"jX c #C9BFC0",
"kX c #BFC2CB",
"lX c #C5C1C6",
"zX c #CBC2C3",
"xX c #C5C3CA",
"cX c #CAC5CB",
"vX c #CDC8CE",
"bX c #D1C5C4",
"nX c #D3C7CA",
"mX c #CECAD0",
"MX c #D0CBD1",
/* pixels */
"O O ; ; ; ; : : > ; 3 5 < $ % 4 < < < < < t 6 3 3 : > > > > > > 1 o + ; , + , 6 ; , 5 3 : > 1 1 O = X X = X . - U b T b s ( n. .",
"O ; ; ; ; ; : : : ; , , < $ % 0 < < , > , , < 3 5 5 : : > > : : O O O O +   + , 6 7 5 ; + ; 1 ; O * X X = X X 0 | ( m I ) I m N.",
"; ; ; ; ; ; 2 : > ; 5 5 $ $ % % 0 6 , , , O + + ; ; > o o o o o   X $ O # $ $ $ $ 0 u ; + 3 1   O O + O = . $ a R X.( m ( | Q ' ",
"; ; ; ; ; ; : : > 3 6 6 % % % @ % $ < 6 7 3 O O O O + o o o o + . $ % $ % 0 % @ . 0 a u 3 3 3   = O + O = . $ v I | b.Y v N.P.z ",
"3 3 1 1 1 1 2 2 5 6 5 $ % 0 s d % # # - 4 - = - = = = * O X X X # & & & 9 0 % @ q m Y v 0 $ = O = * X O = X 4 b ( U }  .T Y _ I ",
"3 3 1 1 1 1 2 ; t t , . 0 m ( ` S d 0 9 - . . # # # # # X X . . @ @ @ 9 e z k e Q [  .T 0 @ # - O = X X = 4 w S I R U ( | m s | ",
"3 3 3 3 2 2 2 5 5 6 % % p Q d.k.d.~ A m k 9 9 9 e e e e e e q 9 r q r c F M F / ` 8.d.` x & @ % X 4 $ . 4 i f L I } ( I ( T m ( ",
"3 3 3 3 2 2 2 5 + 5 0 0 v _  .[ f.` / 6./ A N N / / / / / / ~ H J K J 7.*.F F 7.! ! ` [ Q e & & . 4 $ . 0 f S U v.) | ) b n Y v ",
"; 5 5 3 ; ; ; ; 7 , 0 s n { j./ 6.=.*.-.*.1.9.e.1.=.%.G H H ^ %.2.1.1.-.H K G *.*.,.8.f.f./ x w #   4 $ 4 f p b v.I.I.v.X.R f f ",
"; ; 1 1 2 2 5 , 6 $ i ( k.j.8./ H G +.&.:.3.3.:.&.&.%.O.D o.+.&.&.&.&.+.+.+.%.%.G G ! / 6.{ ~ W d $ # # 4 w w f L ....U L L f p ",
"; ; ; 1 5 5 3 ; + a R  . .~ F G C D O.:.0.4.;.@.@.O.O.o.o.O.@.>.$.#.#.#.5.4.:.%.%.^ ! / 6.8.[ { Y p   # 0 0 f L s f L )  .( U ( ",
"1 ; ; 1 5 5 , , 5 R | A M F F K +.@.>.4.p.4.>.O.O.O.o.o.o.o.O.@.$.#.#.2.w.p.w.3.9.6.,.6.6.` ~ A ) I @ # 0 i ) | ( f a ) I.X. .T.",
"5 ; : 5 5 1 ; 5 g Y m e F 8.6.^ 3.;.>.;.5.;.@.@.O.O.o.o.o.o.o.O.@.@.$.;.4.0.w.0.9.,.*.6.{ / F n ( ) i # $ h v.v.I. .b a L ( ..T.",
"5 1 ; 5 5 ; 3 t P f p m ~ / ` y.q.2.#.#.$.&.#.#.@.O.D o.o.O.O.O.O.@.$.;.;.:.4.0.=.*./ ,.8.8.[ ` I ) b % @ h |  .v...( U L v Y v.",
"5 ; 2 5 2 ; 6 h b d n _ Q c ! y.q.2.#.#.&.$.#.D #.O.D o.O.@.@.@.o.@.;.4.4.4.4.0.9.9.6.8.g.j.d.[ m I U 0 $ d b I U U _ C.v.P g } ",
"1 ; 1 5 1 ; t g f d A ~ Q / 7.=.q.2.2.2.5.2.H B +.J G J #.&.;.$.O.#.5.p.a.a.w.0.B.r.e.g.g.6.~ A z f Y d 0 p 0 s p L (  .v...P a ",
"3 O ; 5 3 O 7 f b v A { 7.^ %.q.i.q.2.K K 1.7.V 7.e.%.J +.+.w.3.G -.2.&.5.i.a.q.a.u.r.e.y.g.c.z._ M m s 0 0 T | | ..v.v.P.~.~.v.",
"3 O * 3 3 ; 7 f v x A / 6.&.;.w.i.1.2.-.%.7.7.G t.l.7.=.=.=.B.a.H e.D.u.&.&.w.a.i.a.a.u.q.7.8.g.j.~ M s 0 n ) ( S p f R U g L E ",
"3 O 1 3 3 3 0 f d x F / 6.e.w.w.$.$.w.u.=.*.h.B.7.l.9.9.9.1.B.a.=.q.u.q.q.a.s.s.w.s.D.B.e.7.7.e.j.` Q p @ m ) n @ 0 f f L  .X.E ",
"3 * 1 3 3 3 w f d M ~ / 7.u.p.3.w.q.q.+.B Z V V *.e.,.7.=.&.r.9.G K B Z G w.p.5.p.s.B.B.B.l.l.g.[ `  .M @ 9 I v p v  .T.X.) X.W.",
"1 1 3 3 3 3 i f v Q 6.8.e.u.w.=.2.+.B j 8 j j 8 ^ 9.=.,.=.%.9.=.k k 8 8 j B +.@.p.p.a.B.D.H.V.B.j.d.n.` 0 % v n n s U v.I.X.X.v.",
"1 1 3 3 3 4 i f T { z.g.7.9.3.=.H 2.=.l 8 8 l l H %.H ^ %.^ =.^ l j 8 8 l &.w.4.0.4.3.w.B.H.H.V.(.z.j.j.' z z A n v b Y  .T.T. .",
"; 3 3 3 3 4 p z { f.x.g.*.^ -.3.w.J.K.q.l j B C B H B H ^ %.7.^ ! V l B =.J.J.0.4.3.:.4.a.B.H.H.(.M.d.d.k.T x T ] I ) I.) d U E.",
"; 1 5 3 3 4 p z k.z.x.e.! K %.r.1.+.1.w.3.:.:.-.V H B H ,.8.z.6.! ,.7.=.=.9.:.@.0.4.4.4.w.B.V.H.m.).j.d.j.~ n _ Q z v Y R R R U ",
"2 1 5 7 4 - d T z.m.z.,.H V G =.+.H K D G G D B %.B.V.h.V.sXsX.X/ F c V V B C +.:.0.4.;.9.B.V.B.F.Z.M.j.[ ` ( ~ ` Y S n i ] v.{.",
"2 : ; 3 $ 4 m ` z.x.z.7.! G %.9.J H D K C C C C -.<.g.m.(..XrXsXz./ V V B B K +.3.0.0.&.9.B.H.V.F.F.Z.M.j.[ _ Q M x Y n m U R R ",
"2 > o , % 0 A d.z.z.g.t.,.*.,.9.^ J H K B C H G H t.g./ d. XaXwX.XM./ ! H H ^ =.0.w.3.&.=.a.V.V.G.F.F.Z.M.j.` Q Q M | Y ) )  .) ",
": : 1 6 0 p A ` z.g.t.t.t.t.t.9.2./ ^ J G G &.1.%.g.g./ ` Y.;X;XaX.XA.g.6.*.=.9.r.r.3.-.%.9.l.l.G.F.F.F.F.M.d.` _ T  .( ]  . .] ",
"2 2 : 3 4 w M ~ z.g.t.e.h.h.r.e.y.8.1.1.1.5.5.9.l.*.f.`.[.b.R.7XwX;X.X(.c.6.1.9.B.B.r.1.-.2.e.y.G.F.m.A.F.A.j.d.` `  .N._ k._ Y ",
"y 2 ; + $ w M / z.g.e.e.h.h.h.e.x.c.y.y.y.q.9.1.7.6.A.rXaX].T.{.OX>XwXoXG.g.e.e.H.D.B.u.q.q.r.l.G.F.F.F.F.Z.M.j.j.N.N.b.( b. ...",
"2 2 : , 0 z ~ 8.c.l.r.r.h.h.h.e.c.S.S.c.y.i.q.e.*.V. XoX>X7X$XI.].XXwXoX`.x.x.l.B.D.D.B.l.u.B.D.(.(.(.(.(.F.C.n.n. .N.{ W N.b.R.",
"> : 7 i f Y  .z.x.c.l.h.h.h.h.g.f.z.S.S.c.y.x.G.G.(. X;X<X<X&X@XT.].[.`.F.D.x.u.u.s.B.D.B.B.D.G.`.'. X'.`.).C.n.Z.k.[.b.b.k.C.C.",
"3 O $ i U ..n.C.A.m.c.x.V.V.l.g. .b.C.R.Y._._._._.[.-X-X:X1X1X%X$X{.Q.).F.D.y.2.1.q.i.e.l.V.G.F.[..XXXXX.X[._.Y.C.n.C.C. .Q { C.",
"4 4 0 v ) b.C.C.Z.m.x.x.m.V.c.f.k.I.T.T.T.Q.Q.Q.Q.{.}.%X%X%X%X%X&X@XQ.Y.Z.c.7.-.2.q.q.q.y.x.G.`..XXX-X-XXX}.|._._.R.Z.C.[ Q ~ d.",
"  . 0 S | C.R.Z.Y.A.x.x.m.x.x.z.C.T.E.T.T.Q.^.Q.{.}.OX%X%X%X%X%X&X@X]._.Z.x.e.*.2.1.7.7.y.A.`.'.XX-X>X<X>X-X.X[.[.Y.R.Z.k.` ` d.",
"$ 4 a U ..C.R.R.Y.Z.m.m.m.m.m.m.Y.].{.{.{.{.{.{.%X{.{.OX%XOX}.#X&X$X}.[.`.G.x.y.1.q.y.y.c.G.'.XX:X<X<X<X<X>X-XXX.X_.Y.Y.C.d.[ d.",
") ] } X.v.I.C.C.).Y.Z.A.A.F.F.F._.}.,X<X<X<X:X%XQ.T.T.].{.{.}.%X4X4X,X-XXX'.G.D.e.l.D.D.G.'.oXXX<X<X<X2X2X<X:X-X-X|.).Y.C. .` _ ",
"^.^.T.T.T.R.R.R.).).).).(.(.`.`.[.,XtXiXiXiXtX,XE.I.R.{.-X,X2XiXiXiXiXtX>X.X`.G.x.G.`.'.'.oX>X;X2X7X7X7X7X<X,X:XXX[._._.R.k.[ { ",
"~.^.Q.T.T.T.E.]._._.[. X X.X.XoX-X7XpXzXzXzXiXtX%XQ.Q.-X7XtXiXnXlXlXjXiXeXoX'.`.`.'.oX XoX>XeX2XtX7X7X7X7X2X<X,X}.[.].|.Y.b.N. .",
"^.^.W.T.I.T.Q.].|.[.XXXX;X;X;X>X<XiXzXzXdXzXpXiX7X}.{.,XtX7XiXzXuXiXiXiXeX;XXX X.XoXoXoXXX>XeXtXiXuXuXiX9X7X<X,X%X%XOX|.R...) _ ",
"W.^.~.^.T.E.{.%X:X-X-X-X;X;X;X;X7XyXiXiXiXtXyXiX7X}.^.%X7XtXyXiXhXhXiXpXpXyXeXeXXXoX>XwXeXaXaXpXlXlXhXhXuX9X9X7X<X%X{.E.R.v.X. .",
"^.^.^.Q.W.^.%X1X,X,X,X<X<X<X<X<X7XtXiXiXiXyXiXiXtX%X}.<XiXiXiXdXjXlXjXpXpXaXyXyX<X2XeXtXyXiXpXiXlXlXlXhXhX0X9X9X1X%X{.{.{.{.].].",
"{.~.W.W.^.@X*X5X<X<X<X<X5XtXtXtX7XtXiXiXiXiXiXiXtX1X-XtXdXiXyXiXzXlXhXiXiXpXpXdXiXpXiXpXpXpXjXlXxXxXxXlXfX0X9X9X6X,X%X{.{.}.%X}.",
"{.^.W.^.{.=X,X4X<X<X7X7X7XuXuXiX7XyXiXpXzXzXzXzXyX<X<XiXzXiX7XyXhXhXiXiXiXlXzXzXzXzXzXzXzXzXzXzXxXxXxXlXfXfX9X9X0X4X%X{.{.{.{.{.",
"~.!.W.^.@X=X*X*X,X,X6X7XuXuXuXuXiXiXpXzXzXbXzXzXpX7XtXzXzXtX7XyXiXuXuXuXiXhXlXcXlXcXzXcXcXcXcXcXxXxXxXgXgX9X8X8X6X*X$X{.@X=X*X,X",
"^.^.W.W.!.~.$X&X,X4X6X9XuXhXhXuXpXpXdXzXbXnXbXzXzXiXiXzXpX7X2XiXuXuXuXuXhXlXxXxXxXxXxXxXcXcXcXvXxXkXkXgXfX8X8X6X4X*X$X@X@X=X*X,X",
"~.^.W./.U./.~.=X4X6X9X0XhXhXhXuXzXpXpXzXbXbXzXpXzXiXiXiX7X-X-XtXuXuXhXlXlXxXxXxXxXxXxXxXxXcXcXcXkXgXgXgXfX8X4X3X8X3X=X+X@X@X$X$X",
"+X~.W.U.P.U.!.&X6X6X0XuXhXhXhXuXpXiXiXpXzXzXpXiXdXtX7X7X-X{.}.5XuXhXlXcXcXcXxXxXmXvXmXcXxXcXxXxXgXgXgXfX8X8X3X3X4X*X=X$X$X&X*X*X",
"@X~.W./.!.&X,X,X9X9XuXuXiXiXiXiXyXtXaXdXpXtXtXyXtX2X<X,X<X<X<X5XzXlXlXcXvXvXcXlXxXxXxXxXxXcXcXcXfX9X9X9X8X8X8X9X4X4X3X*X&X&X&X&X",
"@X~.W./.~.*X4X,X5X6X7XuXiXiXpXpXtX2XeXaXaXeXeXaXtXtXtXtXyXyXtX7XhXhXhXlXcXcXlXhXhXhXhXhXhXhXhXhXfX0X0X0X9X9X9X9X8X6X4X3X*X*X*X*X",
"@X~./.U.!.*X6X*X<X5X7XtXiXiXpXpXeX>X:X2XaXtXtXaXpXpXpXzXbXbXpXiX0X0X0XhXlXlXhXhXlXlXlXlXhXhXhXhX0X0X9X9X9X9X9X9X9X8X4X4X4X3X3X3X",
"$X!.U.U./.$X,X*X4X7X7XuXiXiXpXpXtX:XXX>XtXaXyXaXbXbXbXbXnXnXbXzXhXhXhXhXhXhX0X0X9X9X9X9X9X9X8X8X0X0XfXfXfX0X0X0X8X6X4X4X4X3X*X*X",
"=X~.U.L.U.~.&X*X6X7XtXiXiXiXiXiXyX>X-X<XyXiXiXpXnXbXzXzXbXnXnXnXzXlXhXhX0X9X8X8X9X9X9X9X9X9X9X9X0XfXhXhXhXhXhXfX6X4X4X4X4X*X*X&X",
"&X$XW.U.U.W.$X&X6X7XtXiXiXiXiXyXiX2X>X2XyXyXiXpXbXzXpXpXzXnXnXnXcXlXlXfX8X4X4X4X*X*X*X3X4X4X4X4X4X6X8X9X9X9X8X6X8X8X8X6X4X4X3X*X",
"*X3X&X~./.W.@X=X<X4X7X7X7XtXtXtXiX2X2XyXyX7XtXiXzXpXpXzXzXnXnXcXlXlXhX9X4X*X*X4X!.!.~.+X@X@X@X@X4X6X9X0X0X0X9X8X0XfXfXfX0X9X8X6X",
"3X9X9X*X~.~.@X=X%X1X,X5X7X7XtXtXyXtXtXyXtX2X7XiXiXiXpXzXnXnXzXjXhXhX0X8X3X&X*X4X0X0XhXhXlXxXcXcXlXlXcXvXmXvXcXcXlXlXxXxXlXhX0X0X",
"0X8X4X3X$XW.W.{.%X1X5X7XtXyXiXpXiX2X7XiXiX7X7XiXuX7X5X<X4X6XuXhXhXlXlXxXlXcXcXcXmXmXmXmXmXmXmXmXvXvXvXvXcXcXcXcXlXlXlXhXhXhXhXhX",
"8X6X8X6X$XW.W.~.,X,X5X7XiXpXpXpXnXdXdXiX7X,X2XiX1X1X1X,X4X9XiXhXMXmXmXmXMXMXMXMXcXcXcXcXcXcXcXcXcXcXcXlXlXxXxXlXlXhXhXhXhXhXhXhX",
"3X6X9X8X&X~.W.^.1X1X,X<X7XtXtX7XyXiXdXiX7X,X7XzX6X6X9XuXhXlXvXvXvXcXcXcXcXcXcXcXlXlXlXlXlXlXlXlXlXlXhXhXhXhXhXhXhXhXhXhXhXhXhXhX",
"6X6X8X9X6X&X{.W.{.%X1X1X1X,X<X7X2X7XyXyXqXqXiXzXzXzXcXcXvXvXvXvXlXlXhXhXhXhXhXhXhXhXhXhXhXhXhXhXhXhXhXhXhXhXhXhXhXhXhXhXhXhXhXhX",
"9X8X6X8XiX9X&X^.T.{.%X1X%X%X7XpXdXqX,X1X,XqXiXiXlXlXlXlXlXhXhXhXcXcXlXxXlXlXlXhXhXhXhXhXhXhXhXhXhXhXhXhXhXhXhXhXhXhXhXhXhXfXfX0X",
"9X9X6X8XhXlX6X$XI.T.{.{.{.}.<XiXyX1X^.T.~.6XiXlXuXuXhXhXhXhXhXhXxXxXxXlXlXlXlXlXhXhXhXhXhXhXhXhXhXhXhXhXhXhXhXhXhXhXhXfX0X0X0X0X",
"6X9X9X8X9XiX9X4X{.{.{.{.}.%X-X,X%X$X~.^.$XqXlXlXhXhXhXhXhXhXlXlXhXhXhXhXhXhXhXhXhXhXhXhXhXhXhXhXhXhXhXhXhXhXfXfXfXfXfX0X0X0X0X0X",
"3X9XfX8X4X9XuXuXcXuX5X<X<X<X-XOX1XqXzXzXzXzXlX9XhXhXhXhXhXhXhXhXhXhXhXhXhXhXhXhXfXfXfXfXfXfXfXfXhXhXhXfXfX0X0X0XfXfX0X0X0X0X0X0X"
};
