/* XPM */
static char *bd2139b5fcbc4677b2efe4afd7c31737T5ZTWql6PuewDYS5[] = {
/* columns rows colors chars-per-pixel */
"64 64 182 2 ",
"   c #060B15",
".  c #090816",
"X  c #010619",
"o  c #030E1C",
"O  c #080F1F",
"+  c #01101C",
"@  c #18121C",
"#  c #1D191A",
"$  c #310E0C",
"%  c #3C1909",
"&  c #231F1E",
"*  c #3D1D16",
"=  c #3C1711",
"-  c #2D241F",
";  c #010E22",
":  c #080E28",
">  c #021123",
",  c #051927",
"<  c #03172B",
"1  c #051A2B",
"2  c #091E2E",
"3  c #111A24",
"4  c #141B2D",
"5  c #051D33",
"6  c #0A1E31",
"7  c #0A212E",
"8  c #10202D",
"9  c #132124",
"0  c #052230",
"q  c #0B2132",
"w  c #0F2B37",
"e  c #0A253A",
"r  c #122333",
"t  c #1C2635",
"y  c #102A39",
"u  c #1A2D38",
"i  c #212129",
"p  c #272424",
"a  c #3B322D",
"s  c #342B30",
"d  c #293134",
"f  c #343434",
"g  c #383337",
"h  c #3C3C3C",
"j  c #4E1A0C",
"k  c #441E15",
"l  c #411E18",
"z  c #4A1F16",
"x  c #442416",
"c  c #492815",
"v  c #4C251C",
"b  c #49291E",
"n  c #452B1C",
"m  c #502610",
"M  c #50251E",
"N  c #51291F",
"B  c #4C2822",
"V  c #502820",
"C  c #513F3F",
"Z  c #40403E",
"A  c #7E4830",
"S  c #263741",
"D  c #2A3544",
"F  c #2C3B48",
"G  c #443E40",
"H  c #37424C",
"J  c #294256",
"K  c #344351",
"L  c #394251",
"P  c gray25",
"I  c #4D4D4D",
"U  c #48424C",
"Y  c #514F54",
"T  c #4C5157",
"R  c #585858",
"E  c #4C5763",
"W  c #4D5A62",
"Q  c #525A64",
"!  c #645C67",
"~  c #5C636D",
"^  c #5B6473",
"/  c #606060",
"(  c #61666C",
")  c #6E706B",
"_  c #727274",
"`  c #68757B",
"'  c #8A695A",
"]  c #AA685C",
"[  c #A37F71",
"{  c #E77D63",
"}  c #F57B6C",
"|  c #8F827C",
" . c #DB9A7A",
".. c #C99679",
"X. c #E5856C",
"o. c #EA866F",
"O. c #E78D6D",
"+. c #E98B6E",
"@. c #FC8A6F",
"#. c #F99F6D",
"$. c #E68670",
"%. c #E88A70",
"&. c #E98470",
"*. c #EC9773",
"=. c #F09376",
"-. c #F69C7A",
";. c #F89D7F",
":. c #F09B76",
">. c #EBA67F",
",. c #E0A27D",
"<. c #F4A57C",
"1. c #F9A77F",
"2. c #F6A87F",
"3. c #FBAA7D",
"4. c #FCA377",
"5. c #6A7782",
"6. c #7D848C",
"7. c #8E8E8E",
"8. c #888B90",
"9. c #818A91",
"0. c #918E95",
"q. c #939393",
"w. c #97A0A5",
"e. c #A2A7AC",
"r. c #A5AAAF",
"t. c #AAABAD",
"y. c #A0A7B1",
"u. c #ACAFB3",
"i. c #A6ACB8",
"p. c #B2B7B9",
"a. c #B7B8BD",
"s. c #B2B2B2",
"d. c #E9A787",
"f. c #EEAD87",
"g. c #F6A784",
"h. c #F9A682",
"j. c #F5A982",
"k. c #F9AA82",
"l. c #F4AA89",
"z. c #FAAC88",
"x. c #FBB185",
"c. c #F8CBAC",
"v. c #FAD2B9",
"b. c #B8BFC7",
"n. c #C1C6CA",
"m. c #C6CACD",
"M. c #D2C9C4",
"N. c #C4CCD5",
"B. c #C9CDD1",
"V. c #CBD1D4",
"C. c #D3D6DB",
"Z. c #D7D9DC",
"A. c #DBDBDE",
"S. c #E3D9D7",
"D. c #E7E3DD",
"F. c #FCE6DC",
"G. c #FDE1D6",
"H. c #DCDEE3",
"J. c #D4DBE1",
"K. c #E8DFE0",
"L. c #DEE0E3",
"P. c #DEE3E9",
"I. c #E2E3E5",
"U. c #E8E8E6",
"Y. c #E3E7EC",
"T. c #ECECED",
"R. c #FBEDE4",
"E. c #ECEDF1",
"W. c #F9EFF0",
"Q. c #EFF0F2",
"!. c #F5F5F2",
"~. c #F4FCFE",
"^. c #FBFFFF",
"/. c #F9FDFC",
"(. c #FFFFFD",
"). c #FEFEFE",
"_. c #FFFEFF",
"`. c #FEFFFF",
"'. c white",
"]. c #FDFDFE",
"[. c #FFFFFF",
"{. c #F2F5FC",
/* pixels */
"'.'.'.'.'.'.'.'.'.'.'.'.'.'.'.'.'.'.'.'.'.'.'.'.'.'.'.'.'.'.'.'.'.'.'.'.'.'.'.'.'.'.'.'.'.'.'.'.'.'.'.'.'.'.'.'.'.'.'.'.'.'.'.'.",
"'.'.'.'.'.'.'.'.'.'.'.'.'.'.'.'.'.'.'.'.'.'.'.'.'.'.'.'.'.'.'.'.'.'.'.'.'.'.'.'.'.'.'.'.'.'.'.'.'.'.'.'.'.'.'.'.'.'.'.'.'.'.'.'.",
"'.'.'.'.'.'.'.'.'.'.'.'.'.'.'.'.'.'.'.'.'.'.'.'.'.'.'.'.'.'.'./.D.!.'.'.'.'.'.'.'.'.'.'.'.'.'.'.'.'.'.'.'.'.'.'.'.'.'.'.'.'.'.'.",
"'.'.'.'.'.'.'.'.'.'.'.'.'.'.'.'.'.'.'.'.'.'.'.'.'.'.'./.D.z N k k k | ~.'.'.'.'.'.'.'.'.'.'.'.'.'.'.'.'.'.'.'.'.'.'.'.'.'.'.'.'.",
"'.'.'.'.'.'.'.'.'.'.'.'.'.'.'.'.'.'.'.'.'.'.'.'.'.'.'.* k v M v v k k k v '.'.'.'.'.'.'.'.'.'.'.'.'.'.'.'.'.'.'.'.'.'.'.'.'.'.'.",
"'.'.'.'.'.'.'.'.'.'.'.'.'.'.'.'.'.'.'.'.'.'.'.'.'.'.'.k k k v v k k k k !.'.'.'.'.'.'.'.'.'.'.'.'.'.'.'.'.'.'.'.'.'.'.'.'.'.'.'.",
"'.'.'.'.'.'.'.'.'.'.'.'.'.'.'.'.'.'.'.'.'.'.'.'.'.'./.% * k V v v k k v /.'.'.'.'.'.'.'.'.'.'.'.'.'.'.'.'.'.'.'.'.'.'.'.'.'.'.'.",
"'.'.'.'.'.'.'.'.'.'.'.'.'.'.'.'.'.'.'.'.'.'.'.'.'.'.S.k z.z.j.z.2.3.<.l K.'.'.'.'.'.'.'.'.'.'.'.'.'.'.'.'.'.'.'.'.'.'.'.'.'.'.'.",
"'.'.'.'.'.'.'.'.'.'.'.'.'.'.'.'.'.'.'.'.'.'.'.'.'.'.M.k  .= A <.j $ <.x '.'.'.'.'.'.'.'.'.'.'.'.'.'.'.'.'.'.'.'.'.'.'.'.'.'.'.'.",
"'.'.'.'.'.'.'.'.'.'.'.'.'.'.'.'.'.'.'.'.'.'.'.'.'.'.^.B w w 2 T H J ! = '.'.'.'.'.'.'.'.'.'.'.'.'.'.'.'.'.'.'.'.'.'.'.'.'.'.'.'.",
"'.'.'.'.'.'.'.'.'.'.'.'.'.'.'.'.'.'.'.'.'.'.'.'.'.'.'.:.Y y 2 g.K 5 ..,.(.'.'.'.'.'.'.'.'.'.'.'.'.'.'.'.'.'.'.'.'.'.'.'.'.'.'.'.",
"'.'.'.'.'.'.'.'.'.'.'.'.'.'.'.'.'.'.'.'.'.'.'.'.'.'.'.#.k.-.<.} h.-.f.;.'.'.'.'.'.'.'.'.'.'.'.'.'.'.'.'.'.'.'.'.'.'.'.'.'.'.'.'.",
"'.'.'.'.'.'.'.'.'.'.'.'.'.'.'.'.'.'.'.'.'.'.'.'.'.'.'./.j.h.X.;.<.2.c.0.^.'.'.'.'.'.'.'.'.'.'.'.'.'.'.'.'.'.'.'.'.'.'.'.'.'.'.'.",
"'.'.'.'.'.'.'.'.'.'.'.'.'.'.'.'.'.'.'.'.'.'.'.'.'.'.'.'.].h.k.2.2.<.^.5.'.'.'.'.'.'.'.'.'.'.'.'.'.'.'.'.'.'.'.'.'.'.'.'.'.'.'.'.",
"'.'.'.'.'.'.'.'.'.'.'.'.'.'.'.'.'.'.'.'.'.'.'.'.'.'.'.'.^.W.X.O.X.{ '.5.(.'.'.'.'.'.'.'.'.'.'.'.'.'.'.'.'.'.'.'.'.'.'.'.'.'.'.'.",
"'.'.'.'.'.'.'.'.'.'.'.'.'.'.'.'.'.'.'.'.'.'.'.'.'.'.'.'.^._ %.o.=.z.D E /.'.'.'.'.'.'.'.'.'.'.'.'.'.'.'.'.'.'.'.'.'.'.'.'.'.'.'.",
"'.'.'.'.'.'.'.'.'.'.'.'.'.'.'.'.'.'.'.'.'.'.'.'.'.'.u 7 2 , 3.k.2.[ 2 2 2 1 V./.'.'.'.'.'.'.'.'.'.'.'.'.'.'.'.'.'.'.'.'.'.'.'.'.",
"'.'.'.'.'.'.'.'.'.'.'.'.'.'.'.'.'.'.'.'.'.'.'.'.'.7 2 2 2 2 ' <.x.e 2 6 2 2 7 F /.'.'.'.'.'.'.'.'.'.'.'.'.'.'.'.'.'.'.'.'.'.'.'.",
"'.'.'.'.'.'.'.'.'.'.'.'.'.'.'.'.'.'.'.'.'.'.'.'.1 q 6 2 2 2 q 2 5 q 2 2 2 2 6 2 /.'.'.'.'.'.'.'.'.'.'.'.'.'.'.'.'.'.'.'.'.'.'.'.",
"'.'.'.'.'.'.'.'.'.'.'.'.'.'.'.'.'.'.'.'.'.'.'.^.2 2 2 2 2 2 2 2 6 2 2 2 2 2 2 2 ` '.'.'.'.'.'.'.'.'.'.'.'.'.'.'.'.'.'.'.'.'.'.'.",
"'.'.'.'.'.'.'.'.'.'.'.'.'.'.'.'.'.'.'.'.'.'.'.t 2 2 2 2 2 2 2 6 2 2 2 2 2 2 2 2 q '.'.'.'.'.'.'.'.'.'.'.'.'.'.'.'.'.'.'.'.'.'.'.",
"'.'.'.'.'.'.'.'.'.'.'.'.'.'.'.'.'.'.'.'.'.'.'.7 2 2 1 q 2 2 5 q q 1 q 6 2 2 2 2 2 (.'.'.'.'.'.'.'.'.'.'.'.'.'.'.'.'.'.'.'.'.'.'.",
"'.'.'.'.'.'.'.'.'.'.'.'.'.'.'.'.'.'.'.'.'.'.'.1 6 2 1 D 2 3 + y.~   E o N.2 2 2 q Y.^.'.'.'.'.'.'.'.'.'.'.'.'.'.'.'.'.'.'.'.'.'.",
"'.'.'.'.'.'.'.'.'.'.'.'.'.'.'.'.'.'.'.'.'.'.'.6 2 2 , 2 2 F H 6 q 2 r 1 r 2 2 2 2 S (.'.'.'.'.'.'.'.'.'.'.'.'.'.'.'.'.'.'.'.'.'.",
"'.'.'.'.'.'.'.'.'.'.'.'.'.'.'.'.'.'.'.'.'.'.'.5 G g 1 1 7 2 6 2 5 2 q U t 2 7 2 2 > ^.'.'.'.'.'.'.'.'.'.'.'.'.'.'.'.'.'.'.'.'.'.",
"'.'.'.'.'.'.'.'.'.'.'.'.'.'.'.'.'.'.'.'.'.'.'.k.h.z.l.3.< U d.l.<.3.l.3.j.2.X.X.&.{ ].'.'.'.'.'.'.'.'.'.'.'.'.'.'.'.'.'.'.'.'.'.",
"'.'.'.'.'.'.'.'.'.'.'.'.'.'.'.'.'.'.'.'.'.'.'.+.h.*.+.2.h.k.2.2.2.2.k.2.O.2.3.2.2.4.'.'.'.'.'.'.'.'.'.'.'.'.'.'.'.'.'.'.'.'.'.'.",
"'.'.'.'.'.'.'.'.'.'.'.'.'.'.'.'.'.'.'.'.'.'.'.G.k.k.2.2.2.2.2.h.2.=.o.o.h.2.2.2.2.v.'.'.'.'.'.'.'.'.'.'.'.'.'.'.'.'.'.'.'.'.'.'.",
"'.'.'.'.'.'.'.'.'.'.'.'.'.'.'.'.'.'.'.'.'.'.'.~.<.>.2.j.3.l.x.] @.$.+.*.z.h.j.h.3.'.'.'.'.'.'.'.'.'.'.'.'.'.'.'.'.'.'.'.'.'.'.'.",
"'.'.'.'.'.'.'.'.'.'.'.'.'.'.'.'.'.'.'.'.'.'.'.'.F.1.2.h.C >   ; ; > : o o s F.R.].'.'.'.'.'.'.'.'.'.'.'.'.'.'.'.'.'.'.'.'.'.'.'.",
"'.'.'.'.'.'.'.'.'.'.'.'.'.'.'.'.'.'.'.'.'.'.'.'.'.~.a > ; , 6 2 q 1 ; > ; 4 7.'.'.'.'.'.'.'.'.'.'.'.'.'.'.'.'.'.'.'.'.'.'.'.'.'.",
"'.'.'.'.'.'.'.'.'.'.'.'.'.'.'.'.'.'.'.'.'.'.I q.U.'.d - , & 9 e.e.w.7 , i p h I '.'.'.'.'.'.'.'.'.'.'.'.'.'.'.'.'.'.'.'.'.'.'.'.",
"'.'.'.'.'.'.'.'.'.'.'.'.'.'.'.'.'.'.'.'.'.'.'.s./ h ; c @ m c p.u.u.n # B b f R '.'.'.'.'.'.'.'.'.'.'.'.'.'.'.'.'.'.'.'.'.'.'.'.",
"'.'.'.'.'.'.'.'.'.'.'.'.'.'.'.'.'.'.'.'.'.'.'.'.'.8.) ; o + o > > > o o ; > h P '.'.'.'.'.'.'.'.'.'.'.'.'.'.'.'.'.'.'.'.'.'.'.'.",
"'.'.'.'.'.'.'.'.'.'.'.'.'.'.'.'.'.'.'.'.'.'.'.'.'.t.q.; > ; ; > ; ; ; ; > o h I '.'.'.'.'.'.'.'.'.'.'.'.'.'.'.'.'.'.'.'.'.'.'.'.",
"'.'.'.'.'.'.'.'.'.'.'.'.'.'.'.'.'.'.'.'.'.'.'.'.'.R t.2 2 6 2 2 2 2 2 2 2 r /.'.'.'.'.'.'.'.'.'.'.'.'.'.'.'.'.'.'.'.'.'.'.'.'.'.",
"'.'.'.'.'.'.'.'.'.'.'.'.'.'.'.'.'.'.'.'.'.'.'.'.'.f r.2 2 2 2 2 2 2 2 2 2 r '.'.'.'.'.'.'.'.'.'.'.'.'.'.'.'.'.'.'.'.'.'.'.'.'.'.",
"'.'.'.'.'.'.'.'.'.'.'.'.'.'.'.'.'.'.'.'.'.'.'.'.'.f 9.2 6 6 2 W e.2 2 2 2 r '.'.'.'.'.'.'.'.'.'.'.'.'.'.'.'.'.'.'.'.'.'.'.'.'.'.",
"'.'.'.'.'.'.'.'.'.'.'.'.'.'.'.'.'.'.'.'.'.'.'.'./.Z ^ 2 2 6 q b.V.6 6 2 6 r '.'.'.'.'.'.'.'.'.'.'.'.'.'.'.'.'.'.'.'.'.'.'.'.'.'.",
"'.'.'.'.'.'.'.'.'.'.'.'.'.'.'.'.'.'.'.'.'.'.'.'.'.h L 2 2 2 q Q.T.2 2 2 2 r '.'.'.'.'.'.'.'.'.'.'.'.'.'.'.'.'.'.'.'.'.'.'.'.'.'.",
"'.'.'.'.'.'.'.'.'.'.'.'.'.'.'.'.'.'.'.'.'.'.'.'.'.f u 6 2 6 , '.'.2 2 2 2 r '.'.'.'.'.'.'.'.'.'.'.'.'.'.'.'.'.'.'.'.'.'.'.'.'.'.",
"'.'.'.'.'.'.'.'.'.'.'.'.'.'.'.'.'.'.'.'.'.'.'.'.'.f 6 2 2 6 q '.'.q 2 2 2 r '.'.'.'.'.'.'.'.'.'.'.'.'.'.'.'.'.'.'.'.'.'.'.'.'.'.",
"'.'.'.'.'.'.'.'.'.'.'.'.'.'.'.'.'.'.'.'.'.'.'.'.'.f 1 2 2 2 q '.'.q 6 2 2 r '.'.'.'.'.'.'.'.'.'.'.'.'.'.'.'.'.'.'.'.'.'.'.'.'.'.",
"'.'.'.'.'.'.'.'.'.'.'.'.'.'.'.'.'.'.'.'.'.'.'.'.'.p 1 2 2 2 6 '.'.6 6 2 2 r '.'.'.'.'.'.'.'.'.'.'.'.'.'.'.'.'.'.'.'.'.'.'.'.'.'.",
"'.'.'.'.'.'.'.'.'.'.'.'.'.'.'.'.'.'.'.'.'.'.'.'.T.f 1 2 2 6 1 '.'.q 2 2 2 r '.'.'.'.'.'.'.'.'.'.'.'.'.'.'.'.'.'.'.'.'.'.'.'.'.'.",
"'.'.'.'.'.'.'.'.'.'.'.'.'.'.'.'.'.'.'.'.'.'.'.'.'.'.2 2 2 2 K '.'.q 2 2 6 r '.'.'.'.'.'.'.'.'.'.'.'.'.'.'.'.'.'.'.'.'.'.'.'.'.'.",
"'.'.'.'.'.'.'.'.'.'.'.'.'.'.'.'.'.'.'.'.'.'.'.'.'.'.6 2 2 2 N.'.'.q 2 2 2 r '.'.'.'.'.'.'.'.'.'.'.'.'.'.'.'.'.'.'.'.'.'.'.'.'.'.",
"'.'.'.'.'.'.'.'.'.'.'.'.'.'.'.'.'.'.'.'.'.'.'.'.'.'.2 2 2 2 '.'.'.2 2 2 2 r '.'.'.'.'.'.'.'.'.'.'.'.'.'.'.'.'.'.'.'.'.'.'.'.'.'.",
"'.'.'.'.'.'.'.'.'.'.'.'.'.'.'.'.'.'.'.'.'.'.'.'.'.'.2 6 6 2 (.'.'.O 2 6 2 r '.'.'.'.'.'.'.'.'.'.'.'.'.'.'.'.'.'.'.'.'.'.'.'.'.'.",
"'.'.'.'.'.'.'.'.'.'.'.'.'.'.'.'.'.'.'.'.'.'.'.'.'.'., 1 , , (.'.'.2 , , , r '.'.'.'.'.'.'.'.'.'.'.'.'.'.'.'.'.'.'.'.'.'.'.'.'.'.",
"'.'.'.'.'.'.'.'.'.'.'.'.'.'.'.'.'.'.'.'.'.'.'.'.'.'.< , , 1 '.'.'.Q , , , r '.'.'.'.'.'.'.'.'.'.'.'.'.'.'.'.'.'.'.'.'.'.'.'.'.'.",
"'.'.'.'.'.'.'.'.'.'.'.'.'.'.'.'.'.'.'.'.'.'.'.'.'.'., , < < '.'.'.r., , , r '.'.'.'.'.'.'.'.'.'.'.'.'.'.'.'.'.'.'.'.'.'.'.'.'.'.",
"'.'.'.'.'.'.'.'.'.'.'.'.'.'.'.'.'.'.'.'.'.'.'.'.'.'., , 5 8 '.'.'.{., , , r '.'.'.'.'.'.'.'.'.'.'.'.'.'.'.'.'.'.'.'.'.'.'.'.'.'.",
"'.'.'.'.'.'.'.'.'.'.'.'.'.'.'.'.'.'.'.'.'.'.'.'.'.'., < 1 Q '.'.'.'., , , r '.'.'.'.'.'.'.'.'.'.'.'.'.'.'.'.'.'.'.'.'.'.'.'.'.'.",
"'.'.'.'.'.'.'.'.'.'.'.'.'.'.'.'.'.'.'.'.'.'.'.'.'.'.< , , p.'.'.'.'., , 1 r '.'.'.'.'.'.'.'.'.'.'.'.'.'.'.'.'.'.'.'.'.'.'.'.'.'.",
"'.'.'.'.'.'.'.'.'.'.'.'.'.'.'.'.'.'.'.'.'.'.'.'.'.E.< , , ^.'.'.'.'., < , r '.'.'.'.'.'.'.'.'.'.'.'.'.'.'.'.'.'.'.'.'.'.'.'.'.'.",
"'.'.'.'.'.'.'.'.'.'.'.'.'.'.'.'.'.'.'.'.'.'.'.'.'.a.1 , 1 (.'.'.'.'., < , r '.'.'.'.'.'.'.'.'.'.'.'.'.'.'.'.'.'.'.'.'.'.'.'.'.'.",
"'.'.'.'.'.'.'.'.'.'.'.'.'.'.'.'.'.'.'.'.'.'.'.'./.!.X X . '.'.'.'.'.3 > > ( '.'.'.'.'.'.'.'.'.'.'.'.'.'.'.'.'.'.'.'.'.'.'.'.'.'.",
"'.'.'.'.'.'.'.'.'.'.'.'.'.'.'.'.'.'.'.'.'.'.'.'.L.7 6 , 0 (.'.'.'.'.2 6 2 2 m.'.'.'.].'.'.'.'.'.'.'.'.'.'.'.'.'.'.'.'.'.'.'.'.'.",
"'.'.'.'.'.'.'.'.'.'.'.'.'.'.'.'.'.'.'.'.'.i.K > 2 q 2 2 7 (.'.'.'.(.6 q 2 1 r , K 6.].'.'.'.'.'.'.'.'.'.'.'.'.'.'.'.'.'.'.'.'.'.",
"'.'.'.'.'.'.'.'.'.'.'.'.'.'.'.'.'.'.'.'.'.q 6 7 q 2 2 1 2 '.'.'.'.!.2 2 q 2 2 2 2 q '.'.'.'.'.'.'.'.'.'.'.'.'.'.'.'.'.'.'.'.'.'.",
"'.'.'.'.'.'.'.'.'.'.'.!.U.I.L.A.A.A.A.A.Z.A.J.n.B.C.L.A.H.A.A.A.A.H.I.H.P.Z.B.n.C.A.A.A.A.A.A.A.A.I.I.T.'.'.'.'.'.'.'.'.'.'.'.'.",
"'.'.'.'.'.'.'.'.'.'.'.'.'.'.'.'.'.'.'.'.'.'.^.'.'.(.'.'.'.'.'.'.'.'.'.'.'.'.'.(.'.'.'.'.'.'.'.'.'.'.'.'.'.'.'.'.'.'.'.'.'.'.'.'.",
"'.'.'.'.'.'.'.'.'.'.'.'.'.'.'.'.'.'.'.'.'.'.'.'.'.'.'.'.'.'.'.'.'.'.'.'.'.'.'.'.'.'.'.'.'.'.'.'.'.'.'.'.'.'.'.'.'.'.'.'.'.'.'.'."
};
