/* XPM */
static char *e76af761e36747eaa32a534fba165badtRaKj0zyzbiGcAFe[] = {
/* columns rows colors chars-per-pixel */
"64 64 182 2 ",
"   c #1F121B",
".  c #25161E",
"X  c #2A151C",
"o  c #3C1E1E",
"O  c #241721",
"+  c #2A1622",
"@  c #271C25",
"#  c #2A1A25",
"$  c #2D1F29",
"%  c #301C27",
"&  c #361F2F",
"*  c #2F2025",
"=  c #2E212B",
"-  c #322127",
";  c #382127",
":  c #32232D",
">  c #3A242D",
",  c #3A2A2D",
"<  c #362631",
"1  c #3A2733",
"2  c #352933",
"3  c #3A2935",
"4  c #3A2E38",
"5  c #3B2639",
"6  c #401D21",
"7  c #432620",
"8  c #472826",
"9  c #45242C",
"0  c #4C282C",
"q  c #422C35",
"w  c #402E3A",
"e  c #462A39",
"r  c #4E303A",
"t  c #42303C",
"y  c #5C3E3E",
"u  c #723D35",
"i  c #66423D",
"p  c #68423F",
"a  c #453942",
"s  c #4E3942",
"d  c #4A3E48",
"f  c #743F45",
"g  c #4E424D",
"h  c #54444D",
"j  c #5B444B",
"k  c #57484B",
"l  c #5E4B4E",
"z  c #554A53",
"x  c #5B4D55",
"c  c #5C5159",
"v  c #664A47",
"b  c #6C4947",
"n  c #63464C",
"m  c #644B4D",
"M  c #694C4C",
"N  c #614446",
"B  c #714748",
"V  c #744D4B",
"C  c #744C44",
"Z  c #67504A",
"A  c #69504C",
"S  c #654C52",
"D  c #6A4D52",
"F  c #644D59",
"G  c #6E4E59",
"H  c #714C54",
"J  c #655154",
"K  c #6A5254",
"L  c #685952",
"P  c #63545D",
"I  c #6B525A",
"U  c #6C595B",
"Y  c #705157",
"T  c #7A5250",
"R  c #695F67",
"E  c #615A61",
"W  c #725E64",
"Q  c #6F696D",
"!  c #7C6D74",
"~  c #7F757D",
"^  c #874E3D",
"/  c #88453D",
"(  c #985B58",
")  c #915B59",
"_  c #936156",
"`  c #9A6A66",
"'  c #A86962",
"]  c #B07567",
"[  c #CE7E75",
"{  c #CA8170",
"}  c #FE9D7F",
"|  c #837981",
" . c #8B7C83",
".. c #917D89",
"X. c #8F8085",
"o. c #8E878E",
"O. c #95898D",
"+. c #9D8C92",
"@. c #BF8184",
"#. c #A89A8D",
"$. c #A09498",
"%. c #B8A795",
"&. c #A19AA1",
"*. c #AEA3AB",
"=. c #B3A8AE",
"-. c #BFAFAF",
";. c #BFB4B0",
":. c #BBB4BB",
">. c #CC8980",
",. c #D18A84",
"<. c #DA9A9A",
"1. c #ED9C8B",
"2. c #FD9D85",
"3. c #F59D8E",
"4. c #FE9E8C",
"5. c #E49B92",
"6. c #F59E92",
"7. c #EAA28C",
"8. c #FEA185",
"9. c #F3A18D",
"0. c #FDA18A",
"q. c #F0A183",
"w. c #EBA49B",
"e. c #E6A69C",
"r. c #F6A392",
"t. c #FEA392",
"y. c #FEAA90",
"u. c #F2A69B",
"i. c #F6A999",
"p. c #FAAC9C",
"a. c #ECACA2",
"s. c #F0B9B2",
"d. c #E7B6A8",
"f. c #ECC7B4",
"g. c #F4C5BF",
"h. c #C5BCC4",
"j. c #C7C2C8",
"k. c #CCC4CB",
"l. c #CAC1C2",
"z. c #D5CBCD",
"x. c #DACFCB",
"c. c #D4CDD4",
"v. c #D5D1D4",
"b. c #E6D2CB",
"n. c #FED8CD",
"m. c #F4D3C9",
"M. c #EFDDD3",
"N. c #F8DCD0",
"B. c #FBDDDA",
"V. c #ECE3DE",
"C. c #F9E8D6",
"Z. c #FAE3DC",
"A. c #FFEDDF",
"S. c #F8E2D4",
"D. c #DFD8E0",
"F. c #E6E1E7",
"G. c #EFEDEE",
"H. c #EDE2E5",
"J. c #FDEBE9",
"K. c #FDE8E5",
"L. c #FFF8E6",
"P. c #FBF2EE",
"I. c #F6E6F1",
"U. c #F1EBF1",
"Y. c #F8EFF0",
"T. c #F7EDF8",
"R. c #F7F3F4",
"E. c #FCF4F4",
"W. c #FDFBF6",
"Q. c #FCF6FB",
"!. c #F6FEFD",
"~. c #FDFFFC",
"^. c #FFFFFD",
"/. c #FEFEFC",
"(. c #FDFFFF",
"). c #FEFEFE",
"_. c #FFFEFF",
"`. c #FEFFFF",
"'. c white",
"]. c #FDFCFD",
"[. c #FFFFFF",
"{. c #F5FBF1",
/* pixels */
"'.'.'.'.'.'.'.'.'.'.'.'.'.'.'.'.'.'.'.'.'.'.'.'.'.'.'.'.'.'.'.'.'.'.'.'.'.'.'.'.'.'.'.'.'.'.'.'.'.'.'.'.'.'.'.'.'.'.'.'.'.'.'.'.",
"'.'.'.'.'.'.'.'.'.'.'.'.'.'.'.'.'.'.'.'.'.'.'.'.'.'.'.'.'.'.'.'.(.'.'.'.'.'.'.'.'.'.'.'.'.'.'.'.'.'.'.'.'.'.'.'.'.'.'.'.'.'.'.'.",
"'.'.'.'.'.'.'.'.'.'.'.'.'.'.'.'.'.'.'.'.'.'.'.'.'.'.'.'.'.'.].].'.].'.].'.'.'.'.'.'.'.'.'.'.'.'.'.'.'.'.'.'.'.'.'.'.'.'.'.'.'.'.",
"'.'.'.'.'.'.'.'.'.'.'.'.'.'.'.'.'.'.'.'.'.'.'.'.'.'.'.'.'.'.].Q.+.E.].W.'.'.'.'.'.'.'.'.'.'.'.'.'.'.'.'.'.'.'.'.'.'.'.'.'.'.'.'.",
"'.'.'.'.'.'.'.'.'.'.'.'.'.'.'.'.'.'.'.'.'.'.'.'.'.'.'.~.'.H.U m B.S W U.'.'.'.'.'.'.'.'.'.'.'.'.'.'.'.'.'.'.'.'.'.'.'.'.'.'.'.'.",
"'.'.'.'.'.'.'.'.'.'.'.'.'.'.'.'.'.'.'.'.'.'.'.'.'.'.'.(.Q.S Z D %.m b K '.'.'.'.'.'.'.'.'.'.'.'.'.'.'.'.'.'.'.'.'.'.'.'.'.'.'.'.",
"'.'.'.'.'.'.'.'.'.'.'.'.'.'.'.'.'.'.'.'.'.'.'.'.'.'.'.{.(.R.M.z.;.z.m.P.'.'.'.'.'.'.'.'.'.'.'.'.'.'.'.'.'.'.'.'.'.'.'.'.'.'.'.'.",
"'.'.'.'.'.'.'.'.'.'.'.'.'.'.'.'.'.'.'.'.'.'.'.'.'.'.'.W.!.E._ 7 > 9 T P.(.'.'.'.'.'.'.'.'.'.'.'.'.'.'.'.'.'.'.'.'.'.'.'.'.'.'.'.",
"'.'.'.'.'.'.'.'.'.'.'.'.'.'.'.'.'.'.'.'.'.'.'.'.'.'.'.W.!.B.t.{ p.[ 9.Z.'.'.'.'.'.'.'.'.'.'.'.'.'.'.'.'.'.'.'.'.'.'.'.'.'.'.'.'.",
"'.'.'.'.'.'.'.'.'.'.'.'.'.'.'.'.'.'.'.'.'.'.'.'.'.'.'.W.'.Q.u.} 2.2.e.E.'.'.'.'.'.'.'.'.'.'.'.'.'.'.'.'.'.'.'.'.'.'.'.'.'.'.'.'.",
"'.'.'.'.'.'.'.'.'.'.'.'.'.'.'.'.'.'.'.'.'.'.'.'.'.'.'.'.(.W.d.0.2.0.g.W.'.'.'.'.'.'.'.'.'.'.'.'.'.'.'.'.'.'.'.'.'.'.'.'.'.'.'.'.",
"'.'.'.'.'.'.'.'.'.'.'.'.'.'.'.'.'.'.'.'.'.'.'.'.'.'.'.W.(.!.L.t.0.9.E.(.'.'.'.'.'.'.'.'.'.'.'.'.'.'.'.'.'.'.'.'.'.'.'.'.'.'.'.'.",
"'.'.'.'.'.'.'.'.'.'.'.'.'.'.'.'.'.'.'.'.'.'.'.'.'.'.'.(.Q.'.#.6.2.7.-.].W.'.'.'.'.'.'.'.'.'.'.'.'.'.'.'.'.'.'.'.'.'.'.'.'.'.'.'.",
"'.'.'.'.'.'.'.'.'.'.'.'.'.'.'.'.'.'.'.'.'.'.'.'.'.'.'.!.... L >.1.] n 4 R.'.'.'.'.'.'.'.'.'.'.'.'.'.'.'.'.'.'.'.'.'.'.'.'.'.'.'.",
"'.'.'.'.'.'.'.'.'.'.'.'.'.'.'.'.'.'.'.'.'.'.'.'.'.R.l 9 r j S m 6 n m h : * X.].!.'.'.'.'.'.'.'.'.'.'.'.'.'.'.'.'.'.'.'.'.'.'.'.",
"'.'.'.'.'.'.'.'.'.'.'.'.'.'.'.'.'.'.'.'.'.'.(.'.R.k D n I m D S q S n G S S D  .Q.'.'.'.'.'.'.'.'.'.'.'.'.'.'.'.'.'.'.'.'.'.'.'.",
"'.'.'.'.'.'.'.'.'.'.'.'.'.'.'.'.'.'.'.'.'.'.'.'.l.S D n K D m M 1 S D M M D D m ].'.'.'.'.'.'.'.'.'.'.'.'.'.'.'.'.'.'.'.'.'.'.'.",
"'.'.'.'.'.'.'.'.'.'.'.'.'.'.'.'.'.'.'.'.'.'.'.].W D D M Z.K.J.D > J b.S.v D D K V.'.'.'.'.'.'.'.'.'.'.'.'.'.'.'.'.'.'.'.'.'.'.'.",
"'.'.'.'.'.'.'.'.'.'.'.'.'.'.'.'.'.'.'.'.'.'.'.W.S H b D S S S D 1 D N.C.n x P H H.'.'.'.'.'.'.'.'.'.'.'.'.'.'.'.'.'.'.'.'.'.'.'.",
"'.'.'.'.'.'.'.'.'.'.'.'.'.'.'.'.'.'.'.'.'.'.'.Y.S G S m M M M M 9 D N Y f V y H U.'.'.'.'.'.'.'.'.'.'.'.'.'.'.'.'.'.'.'.'.'.'.'.",
"'.'.'.'.'.'.'.'.'.'.'.'.'.'.'.'.'.'.'.'.'.'.'.R.m V K l D D D S 5 x A ( 6.i.u K ].'.'.'.'.'.'.'.'.'.'.'.'.'.'.'.'.'.'.'.'.'.'.'.",
"'.'.'.'.'.'.'.'.'.'.'.'.'.'.'.'.'.'.'.'.'.'.'.].B.a.' C ` <.@.) 0 i ^ y.8.2.a.x.].'.'.'.'.'.'.'.'.'.'.'.'.'.'.'.'.'.'.'.'.'.'.'.",
"'.'.'.'.'.'.'.'.'.'.'.'.'.'.'.'.'.'.'.'.'.'.'.W.f.0.2.q.0.2.2.0.2.4.4.t.2.4.e.W.].'.'.'.'.'.'.'.'.'.'.'.'.'.'.'.'.'.'.'.'.'.'.'.",
"'.'.'.'.'.'.'.'.'.'.'.'.'.'.'.'.'.'.'.'.'.'.'.'.m.0.8.0.8.2.0.0.4.0.0.8.} p.J.W.W.'.'.'.'.'.'.'.'.'.'.'.'.'.'.'.'.'.'.'.'.'.'.'.",
"'.'.'.'.'.'.'.'.'.'.'.'.'.'.'.'.'.'.'.'.'.'.'.(.A.r.4.2.4.0.4.0.3.3.0.0.r.s.W.(.'.'.'.'.'.'.'.'.'.'.'.'.'.'.'.'.'.'.'.'.'.'.'.'.",
"'.'.'.'.'.'.'.'.'.'.'.'.'.'.'.'.'.'.'.'.'.'.'.'.W.n.e.u.w.5.,./ o 8 p p B E.'.(.'.'.'.'.'.'.'.'.'.'.'.'.'.'.'.'.'.'.'.'.'.'.'.'.",
"'.'.'.'.'.'.'.'.'.'.'.'.'.'.'.'.'.'.'.'.'.'.'.'.(.W.].m M m J J - j j D I ].~.'.'.'.'.'.'.'.'.'.'.'.'.'.'.'.'.'.'.'.'.'.'.'.'.'.",
"'.'.'.'.'.'.'.'.'.'.'.'.'.'.'.'.'.'.'.'.'.'.'.'.'.Q.! # s F x P F F F j # ].(.'.'.'.'.'.'.'.'.'.'.'.'.'.'.'.'.'.'.'.'.'.'.'.'.'.",
"'.'.'.'.'.'.'.'.'.'.'.'.'.'.'.'.'.'.'.'.'.'.'.'.'.].J % # # # + + + # + @ '.'.'.W.'.'.'.'.'.'.'.'.'.'.'.'.'.'.'.'.'.'.'.'.'.'.'.",
"'.'.'.'.'.'.'.'.'.'.'.'.'.'.'.'.'.'.'.'.'.'.'.'.'.Q.k 3 < 3 1 1 3 3 1 > : Q.'.'.W.'.'.'.'.'.'.'.'.'.'.'.'.'.'.'.'.'.'.'.'.'.'.'.",
"'.'.'.'.'.'.'.'.'.'.'.'.'.'.'.'.'.'.'.'.'.'.'.'.'.G.s 1 1 3 1 1 1 3 3 1 2 h.'.'.W.'.'.'.'.'.'.'.'.'.'.'.'.'.'.'.'.'.'.'.'.'.'.'.",
"'.'.'.'.'.'.'.'.'.'.'.'.'.'.'.'.'.'.'.'.'.'.'.'.'.].q 1 3 3 1 1 1 3 3 1 < Q '.'.'.'.'.'.'.'.'.'.'.'.'.'.'.'.'.'.'.'.'.'.'.'.'.'.",
"'.'.'.'.'.'.'.'.'.'.'.'.'.'.'.'.'.'.'.'.'.'.'.'.'.].z 1 1 1 3 3 1 1 1 1 < c '.'.'.'.'.'.'.'.'.'.'.'.'.'.'.'.'.'.'.'.'.'.'.'.'.'.",
"'.'.'.'.'.'.'.'.'.'.'.'.'.'.'.'.'.'.'.'.'.'.'.'.'.].a 1 1 1 < t 3 3 1 1 < z '.'.'.'.'.'.'.'.'.'.'.'.'.'.'.'.'.'.'.'.'.'.'.'.'.'.",
"'.'.'.'.'.'.'.'.'.'.'.'.'.'.'.'.'.'.'.'.'.'.'.'.'.Q.a 1 1 3 :  .w 3 1 1 < g '.'.'.'.'.'.'.'.'.'.'.'.'.'.'.'.'.'.'.'.'.'.'.'.'.'.",
"'.'.'.'.'.'.'.'.'.'.'.'.'.'.'.'.'.'.'.'.'.'.'.'.'.].2 1 1 1 3 I.! 3 1 1 < g '.'.'.'.'.'.'.'.'.'.'.'.'.'.'.'.'.'.'.'.'.'.'.'.'.'.",
"'.'.'.'.'.'.'.'.'.'.'.'.'.'.'.'.'.'.'.'.'.'.'.'.'.'.: 3 1 1 4 '.U.: 1 1 3 h '.'.'.'.'.'.'.'.'.'.'.'.'.'.'.'.'.'.'.'.'.'.'.'.'.'.",
"'.'.'.'.'.'.'.'.'.'.'.'.'.'.'.'.'.'.'.'.'.'.'.'.'.'.= 3 1 1 = '.].: 1 1 3 z ].'.'.'.'.'.'.'.'.'.'.'.'.'.'.'.'.'.'.'.'.'.'.'.'.'.",
"'.'.'.'.'.'.'.'.'.'.'.'.'.'.'.'.'.'.'.'.'.'.'.'.'.'.@ 3 1 1 @ '.'.2 3 1 1 z ].'.'.'.'.'.'.'.'.'.'.'.'.'.'.'.'.'.'.'.'.'.'.'.'.'.",
"'.'.'.'.'.'.'.'.'.'.'.'.'.'.'.'.'.'.'.'.'.'.'.'.'.'.@ 3 1 1 P '.'.$ 1 1 3 c '.'.'.'.'.'.'.'.'.'.'.'.'.'.'.'.'.'.'.'.'.'.'.'.'.'.",
"'.'.'.'.'.'.'.'.'.'.'.'.'.'.'.'.'.'.'.'.'.'.'.'.'.].@ 3 1 1 *.].'.  1 1 : R '.'.'.'.'.'.'.'.'.'.'.'.'.'.'.'.'.'.'.'.'.'.'.'.'.'.",
"'.'.'.'.'.'.'.'.'.'.'.'.'.'.'.'.'.'.'.'.'.'.'.'.'.'.= 3 3 1 k.'.'.< 1 1 1 o.'.(.'.'.'.'.'.'.'.'.'.'.'.'.'.'.'.'.'.'.'.'.'.'.'.'.",
"'.'.'.'.'.'.'.'.'.'.'.'.'.'.'.'.'.'.'.'.'.'.'.'.'.'.$ 3 1 1 v.(.'.1 1 1 1 :.'.(.'.'.'.'.'.'.'.'.'.'.'.'.'.'.'.'.'.'.'.'.'.'.'.'.",
"'.'.'.'.'.'.'.'.'.'.'.'.'.'.'.'.'.'.'.'.'.'.'.'.'.'.= 3 1 1 j.'.].. 1 1 $ :.'.(.'.'.'.'.'.'.'.'.'.'.'.'.'.'.'.'.'.'.'.'.'.'.'.'.",
"'.'.'.'.'.'.'.'.'.'.'.'.'.'.'.'.'.'.'.'.'.'.'.'.'.'.= 3 1 3 k.'.'.O 1 1 < &.'.(.'.'.'.'.'.'.'.'.'.'.'.'.'.'.'.'.'.'.'.'.'.'.'.'.",
"'.'.'.'.'.'.'.'.'.'.'.'.'.'.'.'.'.'.'.'.'.'.'.'.'.'.= 3 1 1 v.'.'.= 1 1 3 | ].'.'.'.'.'.'.'.'.'.'.'.'.'.'.'.'.'.'.'.'.'.'.'.'.'.",
"'.'.'.'.'.'.'.'.'.'.'.'.'.'.'.'.'.'.'.'.'.'.'.'.'.'.: 1 1 1 F.'.'.z 1 1 3 P ].'.'.'.'.'.'.'.'.'.'.'.'.'.'.'.'.'.'.'.'.'.'.'.'.'.",
"'.'.'.'.'.'.'.'.'.'.'.'.'.'.'.'.'.'.'.'.'.'.'.'.'.'.= 1 1 1 R.'.'.| 1 1 3 z '.'.'.'.'.'.'.'.'.'.'.'.'.'.'.'.'.'.'.'.'.'.'.'.'.'.",
"'.'.'.'.'.'.'.'.'.'.'.'.'.'.'.'.'.'.'.'.'.'.'.'.'.].2 1 1 < ].'.'.=.3 1 3 d '.'.'.'.'.'.'.'.'.'.'.'.'.'.'.'.'.'.'.'.'.'.'.'.'.'.",
"'.'.'.'.'.'.'.'.'.'.'.'.'.'.'.'.'.'.'.'.'.'.'.'.'.'.: 1 1 : '.'.'.D.1 3 < 4 '.'.'.'.'.'.'.'.'.'.'.'.'.'.'.'.'.'.'.'.'.'.'.'.'.'.",
"'.'.'.'.'.'.'.'.'.'.'.'.'.'.'.'.'.'.'.'.'.'.'.'.'.].: 1 1 4 '.'.'.Q.2 3 3 - '.'.'.'.'.'.'.'.'.'.'.'.'.'.'.'.'.'.'.'.'.'.'.'.'.'.",
"'.'.'.'.'.'.'.'.'.'.'.'.'.'.'.'.'.'.'.'.'.'.'.'.'.].< 1 < a Q.'.'.'.: 3 1 $ '.'.'.'.'.'.'.'.'.'.'.'.'.'.'.'.'.'.'.'.'.'.'.'.'.'.",
"'.'.'.'.'.'.'.'.'.'.'.'.'.'.'.'.'.'.'.'.'.'.'.'.'.].: 1 : :.'.'.'.'.4 3 > # '.'.'.'.'.'.'.'.'.'.'.'.'.'.'.'.'.'.'.'.'.'.'.'.'.'.",
"'.'.'.'.'.'.'.'.'.'.'.'.'.'.'.'.'.'.'.'.'.'.'.'.'.Q.: 1 3 ].'.'.'.'.E 3 1 2 '.'.'.'.'.'.'.'.'.'.'.'.'.'.'.'.'.'.'.'.'.'.'.'.'.'.",
"'.'.'.'.'.'.'.'.'.'.'.'.'.'.'.'.'.'.'.'.'.'.'.'.'.R.< 1 . ].'.'.'.'.Q.> q P '.'.'.'.'.'.'.'.'.'.'.'.'.'.'.'.'.'.'.'.'.'.'.'.'.'.",
"'.'.'.'.'.'.'.'.'.'.'.'.'.'.'.'.'.'.'.'.'.'.'.Q.].'., r k.'.'.'.'.(.'.X ; $.'.'.'.'.'.'.'.'.'.'.'.'.'.'.'.'.'.'.'.'.'.'.'.'.'.'.",
"'.'.'.'.'.'.'.'.'.'.'.'.'.'.'.'.'.'.'.'.'.'.'.Q.z 2 3 > O.'.'.'.W.'.].& & : O h.T.'.'.'.'.'.'.'.'.'.'.'.'.'.'.'.'.'.'.'.'.'.'.'.",
"'.'.'.'.'.'.'.'.'.'.'.'.'.'.'.'.'.'.'.'.'.'.'.O < < @ z v.'.'.'.W.'.'.~ 2 = - < c.'.'.'.'.'.'.'.'.'.'.'.'.'.'.'.'.'.'.'.'.'.'.'.",
"'.'.'.'.'.'.'.'.'.'.'.'.'.'.'.'.'.'.'.'.'.'.'.'.'.].'.Q.Q.'.'.'.'.'.'.W.W.'.].].].'.'.'.'.'.'.'.'.'.'.'.'.'.'.'.'.'.'.'.'.'.'.'.",
"'.'.'.'.'.'.'.'.'.'.'.'.'.'.'.'.'.'.'.'.'.'.'.'.'.'.'.'.'.'.'.'.'.'.'.'.'.'.'.'.'.'.'.'.'.'.'.'.'.'.'.'.'.'.'.'.'.'.'.'.'.'.'.'.",
"'.'.'.'.'.'.'.'.'.'.'.'.'.'.'.'.'.'.'.'.'.'.'.'.'.'.'.'.'.'.'.'.'.'.'.'.'.'.'.'.'.'.'.'.'.'.'.'.'.'.'.'.'.'.'.'.'.'.'.'.'.'.'.'.",
"'.'.'.'.'.'.'.'.'.'.'.'.'.'.'.'.'.'.'.'.'.'.'.'.'.'.'.'.'.'.'.'.'.'.'.'.'.'.'.'.'.'.'.'.'.'.'.'.'.'.'.'.'.'.'.'.'.'.'.'.'.'.'.'.",
"'.'.'.'.'.'.'.'.'.'.'.'.'.'.'.'.'.'.'.'.'.'.'.'.'.'.'.'.'.'.'.'.'.'.'.'.'.'.'.'.'.'.'.'.'.'.'.'.'.'.'.'.'.'.'.'.'.'.'.'.'.'.'.'.",
"'.'.'.'.'.'.'.'.'.'.'.'.'.'.'.'.'.'.'.'.'.'.'.'.'.'.'.'.'.'.'.'.'.'.'.'.'.'.'.'.'.'.'.'.'.'.'.'.'.'.'.'.'.'.'.'.'.'.'.'.'.'.'.'."
};
