/* XPM */
static char *_40b32733f7f4416cf868288588476cb4ABYdeFt7EAIxz7U[] = {
/* columns rows colors chars-per-pixel */
"64 64 187 2 ",
"   c #848D96",
".  c #858E97",
"X  c #868F98",
"o  c #879099",
"O  c #88919A",
"+  c #89929B",
"@  c #8B949D",
"#  c #8B959E",
"$  c #8C969F",
"%  c #8D969F",
"&  c #8E97A0",
"*  c #8F98A1",
"=  c #8F99A2",
"-  c #909AA3",
";  c #919AA3",
":  c #919BA4",
">  c #929CA5",
",  c #99A0AA",
"<  c #98A1AA",
"1  c #9AA1AB",
"2  c #9BA2AC",
"3  c #9CA3AD",
"4  c #A1AAB3",
"5  c #A2ABB4",
"6  c #A3ACB5",
"7  c #A4ADB6",
"8  c #A5AEB7",
"9  c #A7AFBA",
"0  c #A7AFBC",
"q  c #A7B0B9",
"w  c #A9B2BB",
"e  c #A9B1BC",
"r  c #A8B0BD",
"t  c #AAB3BC",
"y  c #A9B1BE",
"u  c #AAB2BF",
"i  c #ACB5BE",
"p  c #ADB6BF",
"a  c #AEB6C1",
"s  c #ADB5C2",
"d  c #AEB6C3",
"f  c #B0B9C2",
"g  c #B3BCC5",
"h  c #B6BFC8",
"j  c #B7C0C9",
"k  c #B8C1CA",
"l  c #B9C2CB",
"z  c #BAC3CC",
"x  c #D5DADE",
"c  c #D6DBDE",
"v  c #D6DBDF",
"b  c #D5DAE0",
"n  c #D7DCE0",
"m  c #D7DCE2",
"M  c #D9DEE1",
"N  c #DADFE2",
"B  c #DADFE3",
"V  c #D9E1E3",
"C  c #DBE0E3",
"Z  c #D9E1E4",
"A  c #DBE0E4",
"S  c #DAE2E5",
"D  c #D9E0E6",
"F  c #DAE1E7",
"G  c #DCE4E6",
"H  c #DCE4E7",
"J  c #E3EBEE",
"K  c #EBEFEE",
"L  c #ECF0EF",
"P  c #E3EAF0",
"I  c #E5EDF0",
"U  c #E6EEF0",
"Y  c #E6EEF1",
"T  c #E5ECF2",
"R  c #E8F0F2",
"E  c #E8F0F3",
"W  c #EBF3F6",
"Q  c #ECF1F5",
"!  c #ECF1F7",
"~  c #EDF2F6",
"^  c #EAF4F5",
"/  c #EAF4F6",
"(  c #EDF2F8",
")  c #F0F4F3",
"_  c #F1F5F4",
"`  c #F3FCF9",
"'  c #F4FDF8",
"]  c #F5FEF9",
"[  c #F5FEFB",
"{  c #F6FFFA",
"}  c #F7FFFB",
"|  c #F3FAFF",
" . c #F7FBFC",
".. c #F4FBFF",
"X. c #F6FBFE",
"o. c #F6FBFF",
"O. c #F3FDFC",
"+. c #F6FCFC",
"@. c #F7FDFD",
"#. c #F4FEFD",
"$. c #F5FEFD",
"%. c #F6FFFC",
"&. c #F7FFFD",
"*. c #F5FCFF",
"=. c #F5FDFF",
"-. c #F6FCFF",
";. c #F7FCFF",
":. c #F6FDFF",
">. c #F7FDFF",
",. c #F5FFFE",
"<. c #F5FFFF",
"1. c #F6FFFE",
"2. c #F6FEFF",
"3. c #F7FEFF",
"4. c #F6FFFF",
"5. c #F7FFFF",
"6. c #FCFBF9",
"7. c #F8FCFB",
"8. c #F9FEFA",
"9. c #FAFFFB",
"0. c #FCFDF8",
"q. c #FDFEF9",
"w. c #FDFCFA",
"e. c #FDFDFB",
"r. c #FFFDFA",
"t. c #FEFDFB",
"y. c #FCFEFB",
"u. c #FEFFFA",
"i. c #FFFFFA",
"p. c #FFFEFB",
"a. c #FEFFFB",
"s. c #FFFFFB",
"d. c #F8FBFF",
"f. c #FCFBFF",
"g. c #F9FDFC",
"h. c #F8FCFD",
"j. c #FBFDFC",
"k. c #F8FEFC",
"l. c #F8FFFC",
"z. c #F9FFFD",
"x. c #FAFEFD",
"c. c #F9FDFE",
"v. c #F8FCFF",
"b. c #F9FCFF",
"n. c #F8FDFF",
"m. c #F9FDFF",
"M. c #FBFCFE",
"N. c #FAFDFF",
"B. c #F8FEFE",
"V. c #F8FFFE",
"C. c #F8FEFF",
"Z. c #F9FEFF",
"A. c #F8FFFF",
"S. c #F9FFFF",
"D. c #FBFFFE",
"F. c #FAFEFF",
"G. c #FBFEFF",
"H. c #FAFFFF",
"J. c #FBFFFF",
"K. c gray99",
"L. c #FDFDFD",
"P. c #FFFCFC",
"I. c #FFFDFC",
"U. c #FEFCFD",
"Y. c #FFFDFD",
"T. c #FDFFFC",
"R. c #FCFEFD",
"E. c #FCFFFD",
"W. c #FEFEFC",
"Q. c #FFFEFC",
"!. c #FFFEFD",
"~. c #FEFFFD",
"^. c #FFFFFD",
"/. c #FDFCFF",
"(. c #FCFDFF",
"). c #FDFDFF",
"_. c #FFFDFE",
"`. c #FEFDFF",
"'. c #FFFDFF",
"]. c #FDFFFE",
"[. c #FDFEFF",
"{. c #FCFFFF",
"}. c #FEFEFE",
"|. c #FEFEFF",
" X c #FFFEFF",
".X c #FEFFFF",
"XX c white",
/* pixels */
"a.a.a.a.a.a.a.a.a.a.a.a.a.a.a.a.E.E.E.E.E.E.E.E.E.E.E.E.E.E.E.E.a.a.a.a.a.a.a.a.a.a.a.a.E.E.E.E.E.E.E.E.E.E.E.E.E.E.E.E.E.E.E.E.",
"E.E.E.E.E.E.E.E.E.E.E.E.E.E.E.E.E.E.E.E.E.E.E.E.E.E.E.E.E.E.E.E.E.E.E.E.E.E.E.E.E.E.E.E.E.E.E.E.E.E.E.E.E.E.E.E.E.E.E.E.E.E.E.E.",
"x.x.x.x.x.x.x.x.x.x.x.x.x.x.x.x.x.x.x.x.x.x.x.x.x.x.x.x.x.x.x.x.x.x.E.x.E.x.E.x.E.E.E.E.E.E.E.E.E.E.E.E.E.E.E.E.E.x.E.x.E.E.E.E.",
"x.x.x.x.x.x.x.x.x.x.x.x.x.x.x.x.x.x.x.x.x.x.x.x.x.x.x.x.x.x.x.x.x.x.x.x.x.x.x.X.x.x.x.x.x.x.x.x.x.x.h.x.h.x.h.x.x.x.x.x.x.x.x.x.",
"H H H H H H H H Z Z Z Z Z Z Z Z Z Z Z Z Z Z Z Z F Z F Z Z Z Z Z B M A A B M n c c c n c n c c c c c n c n c n c m m m m M M M M ",
"x.x.x.x.x.x.x.x.x.x.x.x.x.x.x.x.x.x.x.x.x.x.x.x.E.x.x.x.E.x.x.x.x.x.E.E.E.x.h.h.x.x.x.x.x.x.x.x.x.x.x.x.x.x.x.x.x.x.x.x.x.x.x.x.",
"x.x.x.x.x.x.x.x.E.x.E.x.E.E.E.E.E.x.E.x.E.x.E.x.E.x.E.x.E.x.E.E.E.E.E.E.E.E.E.E.E.E.E.E.E.E.E.E.E.E.E.E.E.E.E.E.E.E.E.E.E.E.E.E.",
"E.E.E.E.E.E.E.E.E.E.E.E.E.E.E.E.E.E.E.E.E.E.E.E.E.E.E.E.E.E.E.E.E.E.E.E.E.E.E.E.E.E.E.E.E.E.E.E.E.E.E.E.E.E.E.E.E.x.E.x.E.x.E.E.",
"E.E.E.E.E.E.E.E.E.E.E.E.E.E.E.E.E.E.E.E.E.E.E.E.E.E.E.E.E.E.E.E.E.E.E.E.E.E.E.E.E.E.E.E.E.E.E.E.E.E.E.E.E.E.E.E.E.E.E.E.E.E.E.E.",
"E.E.E.E.E.E.E.E.E.E.E.E.E.E.E.E.E.E.E.E.E.E.E.E.E.E.E.E.E.E.E.E.E.E.E.E.E.E.E.E.E.E.E.E.E.E.E.E.E.E.E.E.E.E.E.E.E.E.E.E.E.E.E.E.",
"E.E.E.E.E.E.E.E.E.E.E.E.a.a.a.E.E.E.E.E.E.E.E.E.E.E.E.E.E.E.a.a.E.E.E.E.E.E.E.E.E.E.E.E.E.E.E.E.E.E.E.E.E.E.E.E.E.E.E.E.E.E.E.E.",
"E.E.E.E.E.E.E.E.E.E.E.E.E.E.E.E.E.a.E.a.E.a.E.a.E.E.E.E.E.E.E.E.E.E.E.E.f.E.E.E.f.f.E.f.E.E.E.E.E.E.E.E.E.E.E.E.E.E.E.E.E.E.E.E.",
"E.E.E.E.E.E.E.E.E.E.E.E.E.E.E.E.E.E.E.E.E.E.E.E.E.E.E.E.E.E.E.E.E.E.E.E.E.E.E.E.E.E.E.E.E.E.E.E.E.E.E.E.E.E.E.E.E.E.E.E.E.E.E.E.",
"E.E.E.E.x.x.x.x.x.x.x.x.x.x.x.x.X.+.X.+.X.+.X.+.x.x.x.x.x.x.x.x.x.x.h.+.h.x.h.x.h.x.x.x.x.x.x.x.x.+.+.+.+.+.+.+.+.+.+.+.+.+.+.+.",
"P J P J P J P J T T T T T T T T R R R R E R R R T T T T T T T T ~ ~ ~ ~ ~ ~ ( ~ ( ~ ( ~ ( ~ ( ~ / / / / / / / / / / / / / / / / ",
"x.x.x.x.x.x.x.x.x.x.x.x.x.x.x.x.x.x.x.x.x.x.x.x.x.x.x.x.x.x.x.x.x.x.x.x.x.x.x.x.x.x.x.x.x.x.x.x.x.x.x.+.+.+.+.+.+.+.+.+.+.+.+.+.",
"E.E.E.E.E.E.E.E.E.E.E.E.E.E.E.E.E.E.E.E.E.E.E.E.E.E.E.E.E.E.E.E.E.E.E.E.E.E.E.E.E.E.E.E.E.E.E.E.E.E.E.E.E.E.E.E.E.E.E.E.E.E.E.E.",
"E.a.E.a.E.E.E.E.E.a.E.a.E.E.E.E.E.E.E.E.E.E.E.E.E.E.E.E.E.E.E.E.E.E.E.a.E.a.E.a.E.a.E.a.E.E.E.E.E.E.E.E.E.E.E.E.E.E.E.E.E.E.E.E.",
"a.a.a.a.a.a.E.a.a.a.a.a.a.a.E.a.a.a.a.a.a.a.a.a.a.a.a.a.a.a.a.a.a.a.E.a.a.a.a.a.a.a.a.a.E.a.E.E.a.a.a.a.a.a.E.E.a.a.a.a.a.a.E.E.",
"E.E.E.E.E.E.E.E.E.E.E.E.E.E.E.E.a.a.E.E.a.a.a.E.a.a.E.E.E.E.a.a.E.E.E.E.E.E.E.E.E.E.E.E.E.E.E.E.E.E.E.E.E.E.E.E.E.E.E.E.E.E.E.E.",
"E.E.E.E.E.E.E.E.E.E.E.E.E.E.E.E.E.E.E.E.E.E.E.E.E.E.E.E.E.E.E.E.E.E.E.E.E.E.E.E.E.E.E.E.E.E.E.E.E.E.E.E.E.E.E.E.E.E.E.E.E.E.E.E.",
"E.E.E.E.E.E.E.E.E.E.E.E.E.E.E.E.E.E.E.E.E.E.E.E.E.E.E.E.E.E.E.E.E.E.E.E.E.E.E.E.E.E.E.E.E.E.E.E.E.E.E.E.E.E.E.E.E.E.E.E.E.E.E.E.",
"E.E.E.E.E.E.E.E.E.E.E.E.E.E.E.E.E.E.E.E.E.E.E.E.E.E.E.E.E.E.E.E.E.E.E.E.E.E.E.E.E.E.E.E.E.E.E.E.E.E.E.E.E.E.E.E.E.E.E.E.E.E.E.x.",
"E.E.E.E.E.E.E.E.E.E.E.E.x.x.x.x.E.E.E.E.x.x.E.E.x.E.E.E.E.E.E.E.E.E.E.E.E.x.x.x.E.E.E.E.x.E.E.E.E.E.E.E.E.E.E.E.E.E.E.E.x.x.x.x.",
"x.x.+.x.x.x.x.+.x.x.x.x.x.x.x.x.+.+.+.+.x.x.x.x.x.x.x.x.x.x.x.x.x.x.x.x.x.x.x.x.x.x.x.x.+.+.+.+.+.+.+.+.+.+.+.+.x.x.x.x.x.x.+.+.",
"z z k j h g f s u u u w w w w u 9 0 u u u u s u s s s s d d d s s s i u q 8 8 6 6 6 6 5 5 5 5 5 5 5 5 5 4 5 5 6 5 5 5 5 5 5 5 5 ",
"x.+.+.+.+.+.+.O.x.x.x.x.+.+.+.+.+.+.+.+.x.x.x.x.+.+.+.+.+.+.+.+.x.x.x.x.+.+.+.+.+.+.+.+.+.+.+.+.+.O.+.+.+.+.+.+.+.+.+.+.+.+.+.+.",
"+.] +.x.x.x.x.x.+.] ] ] ] ] ] ] +.+.+.+.+.+.+.+.+.+.+.+.+.+.+.+.] ] ] ] +.x.x.x.x.+.x.x.x.x.x.9.x.+.+.+.+.x.x.x.x.x.x.x.x.x.x.+.",
"x.x.x.x.x.x.x.+.x.x.x.x.x.x.x.x.x.x.E.E.E.E.E.E.E.E.E.E.E.E.E.E.E.E.E.E.E.E.E.E.x.x.x.x.E.E.x.x.E.E.E.E.x.x.E.E.E.E.E.E.E.E.E.E.",
"E.E.E.E.E.E.E.E.E.E.E.E.E.E.E.E.E.E.E.E.E.E.E.E.f.f.f.E.E.E.E.E.E.E.E.E.E.E.E.E.E.E.E.E.E.E.E.E.E.E.E.E.E.E.E.E.E.E.E.E.E.E.E.E.",
"E.E.E.E.E.E.E.E.E.E.E.E.E.E.E.E.E.E.E.E.E.E.E.E.E.E.E.E.E.E.E.E.E.E.E.E.E.E.E.E.E.E.E.E.E.E.E.E.E.E.E.E.E.E.E.E.E.E.E.E.E.E.E.E.",
"E.E.E.E.E.E.E.E.E.E.E.E.E.E.E.E.E.E.E.E.a.a.a.a.a.a.E.E.E.E.E.E.E.E.E.E.E.E.E.E.E.E.E.E.E.E.E.E.E.a.E.a.E.a.E.a.E.E.E.a.E.a.E.E.",
"E.E.E.E.E.E.E.E.E.E.E.E.E.E.E.E.E.E.E.E.E.E.E.E.E.E.E.E.E.E.E.E.E.E.E.E.E.E.E.E.E.E.E.E.E.E.E.E.E.E.E.E.E.E.E.E.E.E.E.E.E.E.E.E.",
"E.E.E.E.E.E.E.E.E.E.E.E.E.E.E.E.E.E.E.E.E.E.E.E.E.E.E.E.E.E.E.E.E.E.E.E.E.E.E.E.E.E.E.E.E.E.E.E.E.E.E.E.E.E.E.E.E.E.E.E.E.E.E.E.",
"E.E.E.E.E.x.E.x.E.E.E.E.E.E.E.E.E.x.E.x.E.E.E.E.E.x.E.x.E.x.E.E.E.E.E.E.E.E.E.E.E.E.E.E.E.E.E.E.E.E.E.E.E.E.E.E.E.E.E.E.E.E.E.E.",
"h.h.h.h.X.X.X.X.h.h.h.h.h.h.h.h.x.x.x.x.x.x.x.x.x.x.x.x.x.x.x.x.x.x.E.x.E.x.E.x.E.E.E.E.E.E.E.E.E.x.E.x.E.E.E.E.E.E.E.E.E.x.E.x.",
"x.x.x.x.x.x.+.+.x.x.x.x.x.x.x.x.+.+.+.+.+.x.x.x.x.x.+.+.+.+.+.+.X.X.x.+.x.x.x.x.x.x.x.x.x.x.x.x.x.x.x.x.x.x.x.x.x.x.x.x.x.x.x.x.",
"x.x.x.x.x.x.x.x.x.x.x.x.x.x.x.x.x.x.x.x.x.x.x.x.x.x.x.x.x.x.x.x.X.+.+.+.+.x.x.x.x.x.x.x.x.x.x.x.x.x.x.x.x.x.x.x.x.x.x.x.x.x.x.x.",
"x.x.x.x.x.x.x.x.x.x.x.x.x.x.x.x.x.x.x.x.x.x.x.x.x.x.x.x.x.x.x.x.x.x.x.x.x.x.x.x.x.x.x.x.x.x.x.x.x.x.E.x.E.x.E.x.E.x.E.x.E.x.E.x.",
"E.9.E.9.E.9.E.9.E.9.E.x.E.9.E.9.x.9.x.9.x.9.E.9.E.x.E.x.E.9.E.9.E.x.E.x.E.9.E.9.E.9.E.x.E.x.E.E.E.E.E.a.E.a.E.a.E.E.E.E.E.E.E.E.",
"E.a.E.a.E.E.E.E.E.a.E.a.E.a.E.a.E.E.E.a.E.a.E.a.E.a.E.a.E.E.E.a.E.a.E.a.E.E.E.E.E.a.E.a.E.a.E.a.E.E.E.a.E.a.E.a.E.a.E.a.E.E.E.a.",
"a.a.a.a.a.a.a.a.a.a.a.a.a.a.a.a.E.E.E.a.a.a.a.a.a.a.a.a.E.E.E.E.a.a.a.a.E.E.E.E.a.a.a.a.a.a.a.a.E.E.a.a.a.a.a.a.a.a.a.a.a.E.a.a.",
"E.E.E.E.E.E.E.E.E.E.E.E.E.E.E.E.6.a.E.E.E.E.E.E.E.E.E.E.E.E.E.E.E.E.a.a.a.a.E.E.E.E.E.E.E.E.E.E.E.E.E.E.E.E.E.E.E.E.E.E.E.E.E.E.",
"E.E.E.E.E.E.E.E.E.E.E.E.E.E.E.E.E.E.E.E.E.E.E.E.E.E.E.E.E.E.E.E.E.E.E.E.E.E.E.E.x.x.E.E.E.E.E.x.E.E.E.E.E.E.E.E.E.E.E.E.E.E.E.E.",
"E.E.x.E.x.x.x.x.x.x.x.x.E.E.E.E.E.E.E.x.x.x.x.x.x.x.x.x.x.x.x.x.E.x.x.x.x.x.x.x.E.E.E.E.E.E.E.E.E.E.E.E.E.E.E.E.E.E.E.E.E.E.E.E.",
"x.x.x.x.x.x.+.+.+.+.+.+.x.x.x.x.X.+.+.+.x.x.x.x.x.x.+.x.x.x.+.+.+.+.+.x.+.+.+.+.| X.+.+.+.+.+.+.X.+.x.x.x.x.x.x.x.x.x.x.x.x.x.x.",
"O O o X X X X                   X o O @ & * : : & & % % & & & & & & % % & @ @ @ * - : : > > > > < < 2 2 2 3 3 3 2 2 3 3 3 3 3 3 ",
"x.x.x.x.x.+.+.+.x.x.x.x.x.x.x.x.+.x.x.x.x.x.+.+.x.x.x.x.x.x.x.x.x.x.x.x.x.x.x.x.+.+.+.x.x.x.x.x.+.+.x.x.x.x.x.x.x.x.E.x.E.x.E.x.",
"E.E.E.E.E.E.E.E.E.E.E.E.E.E.E.E.E.E.E.E.E.E.E.E.E.E.E.E.E.E.E.E.E.E.E.E.E.E.E.E.E.E.E.E.E.E.E.E.E.E.E.E.E.E.E.E.E.E.E.E.E.E.E.E.",
"E.E.E.E.E.E.E.E.E.E.E.E.E.E.E.E.E.E.E.E.E.E.E.E.E.E.E.E.E.E.E.E.E.E.E.E.E.E.E.E.E.E.E.E.E.E.E.E.E.E.E.E.E.E.E.E.E.E.E.E.E.E.E.E.",
"E.E.E.E.E.E.E.E.E.E.E.E.E.E.E.E.E.E.E.E.E.E.E.E.E.E.E.E.E.E.E.E.E.E.E.E.E.E.E.E.E.E.E.E.E.E.E.E.E.E.E.E.E.E.E.E.E.E.E.E.E.E.E.E.",
"E.E.E.E.E.E.E.E.E.E.E.E.E.E.E.E.E.E.E.E.E.E.E.E.E.E.E.E.E.E.E.E.E.E.E.E.E.E.E.E.E.E.E.E.E.E.E.E.E.E.E.E.E.E.E.E.E.E.E.E.E.E.E.E.",
"E.E.E.E.E.E.E.E.E.E.E.E.E.E.E.E.E.E.E.E.E.E.E.E.E.E.E.E.E.E.E.E.E.E.E.E.E.E.E.E.E.E.E.E.E.E.E.E.E.E.E.E.E.E.E.E.E.E.E.E.E.E.E.E.",
"E.E.E.E.E.E.E.E.E.E.E.E.E.E.E.E.E.E.E.E.E.E.E.E.E.E.E.E.E.E.E.E.E.E.E.E.E.E.E.E.E.E.E.E.E.E.E.E.E.E.E.E.E.E.E.E.E.E.E.E.E.E.E.E.",
"E.E.E.E.E.E.E.E.E.E.E.E.E.E.E.E.E.E.E.E.E.E.E.E.E.E.E.E.E.E.E.E.E.E.E.E.E.E.E.E.E.E.E.E.E.E.E.E.E.E.E.E.E.E.E.E.E.E.E.E.E.E.E.E.",
"E.E.E.E.E.E.E.E.E.E.E.E.E.E.E.E.E.E.E.E.E.E.E.E.E.E.E.E.E.E.E.E.E.E.E.E.E.E.E.E.E.E.E.E.E.E.E.E.E.E.E.E.E.E.E.E.E.E.E.E.E.E.E.E.",
"x.x.x.x.x.x.x.x.x.x.x.x.x.x.x.x.x.x.x.x.x.x.x.9.9.9.9.9.x.x.x.9.x.x.x.x.x.x.x.9.9.9.9.9.x.x.x.9.x.x.x.x.x.x.x.x.x.x.x.x.x.x.x.x.",
"_ _ _ _ _ _ _ _ _ _ _ _ _ _ _ _ _ _ _ _ _ _ _ _ ) ) ) ) _ _ _ _ _ _ _ _ _ _ _ _ ) ) ) ) _ ) ) ) R R R R L L L R K K K K K K K K ",
"E.E.E.E.E.E.E.E.E.E.E.E.E.E.E.E.E.E.E.E.E.E.E.E.E.E.E.E.E.E.E.E.E.E.E.E.E.E.E.E.E.E.E.E.E.E.E.E.E.E.E.E.E.E.E.E.E.E.E.E.E.E.E.E.",
"E.E.E.E.E.E.E.E.E.E.E.E.E.E.E.E.E.E.E.E.E.E.E.E.E.E.E.E.E.E.E.E.E.E.E.E.E.E.E.E.E.E.E.E.E.E.E.E.E.E.E.E.E.E.E.E.E.E.E.E.E.E.E.E.",
"E.E.E.E.E.E.E.E.E.E.E.E.E.E.E.E.E.E.E.E.E.E.E.E.E.E.E.E.E.E.E.E.E.E.E.E.E.E.E.E.E.E.E.E.E.E.E.E.E.E.E.E.E.E.E.E.E.E.E.E.E.E.E.E.",
"E.E.E.E.E.E.E.E.E.E.E.E.E.E.E.E.E.E.E.E.E.E.E.E.E.E.E.E.E.E.E.E.E.E.E.E.E.E.E.E.E.E.E.E.E.E.E.E.E.E.E.E.f.f.E.E.E.E.E.E.E.E.E.E.",
"E.E.E.E.E.E.E.E.E.E.E.E.E.E.E.E.E.E.E.E.E.E.E.E.E.E.E.E.E.E.E.E.E.E.E.E.E.E.E.E.E.E.E.E.E.E.E.E.E.E.E.E.E.E.E.E.E.E.E.E.E.E.E.E.",
"E.E.E.E.E.E.E.E.E.E.E.E.E.E.E.E.E.E.E.E.E.E.E.E.E.E.E.E.E.E.E.E.E.E.E.E.E.E.E.E.E.E.E.E.E.E.E.E.E.E.E.E.E.E.E.E.E.E.E.E.E.E.E.E."
};
