/* XPM */
static char *e36f61ccad174b8afe4460184668f670fJOmiLL8TJ8xKRIM[] = {
/* columns rows colors chars-per-pixel */
"64 64 255 2 ",
"   c #030303",
".  c #080706",
"X  c #0B0B0B",
"o  c #150A06",
"O  c #19130A",
"+  c #060816",
"@  c #0F1015",
"#  c #171615",
"$  c #1B1B1B",
"%  c #290A05",
"&  c #360C09",
"*  c #25170A",
"=  c #261B16",
"-  c #31260C",
";  c #282418",
":  c #362618",
">  c #3A3217",
",  c #0C1729",
"<  c #281C31",
"1  c #1D2224",
"2  c #0C233B",
"3  c #152636",
"4  c #282827",
"5  c #372A26",
"6  c #383229",
"7  c #2A2C35",
"8  c #2D3335",
"9  c #343434",
"0  c #373637",
"q  c #3C3C3C",
"w  c #580904",
"e  c #4C1009",
"r  c #650C01",
"t  c #6A0B01",
"y  c #6A0907",
"u  c #730B00",
"i  c #790907",
"p  c #681304",
"a  c #791304",
"s  c #6C1810",
"d  c #52310D",
"f  c #432819",
"g  c #49381A",
"h  c #533C18",
"j  c #672809",
"k  c #493926",
"l  c #543A29",
"z  c #4B3330",
"x  c #692B22",
"c  c #304335",
"v  c #4D4316",
"b  c #584418",
"n  c #644C1B",
"m  c #6D541D",
"M  c #79621C",
"N  c #4B432A",
"B  c #574728",
"V  c #524636",
"C  c #644C25",
"Z  c #695427",
"A  c #765A28",
"S  c #6C4933",
"D  c #655534",
"F  c #745B35",
"G  c #6D622E",
"H  c #7C6227",
"J  c #7B6737",
"K  c #0C1E44",
"L  c #0C2646",
"P  c #132D44",
"I  c #133452",
"U  c #2F3B47",
"Y  c #143A68",
"T  c #473C42",
"R  c #3A4647",
"E  c #164B75",
"W  c #254C71",
"Q  c #444444",
"!  c #474848",
"~  c #4B4B4B",
"^  c #554F4A",
"/  c #545555",
"(  c #585658",
")  c #5B5B5B",
"_  c #6A544C",
"`  c #716254",
"'  c #56626F",
"]  c #646464",
"[  c #696566",
"{  c #6C6B6C",
"}  c #6E6E71",
"|  c #737373",
" . c #7B7B7B",
".. c #861303",
"X. c #861407",
"o. c #A91B09",
"O. c #BA1702",
"+. c #8E300A",
"@. c #B1310D",
"#. c #C41703",
"$. c #C41A01",
"%. c #CA1D01",
"&. c #CE190C",
"*. c #C72702",
"=. c #CC2301",
"-. c #D22502",
";. c #D62B03",
":. c #CD300D",
">. c #DB3402",
",. c #DB3A03",
"<. c #E62C00",
"1. c #E23A02",
"2. c #C13C22",
"3. c #B75010",
"4. c #866724",
"5. c #866B38",
"6. c #917231",
"7. c #97773B",
"8. c #A67A29",
"9. c #A17835",
"0. c #D54F08",
"q. c #E64902",
"w. c #ED4E0A",
"e. c #E95704",
"r. c #ED5D02",
"t. c #F35704",
"y. c #E96107",
"u. c #F1620A",
"i. c #E36215",
"p. c #885C47",
"a. c #977945",
"s. c #8C6E50",
"d. c #AB7655",
"f. c #8E746A",
"g. c #D76D5E",
"h. c #D97666",
"j. c #E4706A",
"k. c #AE8330",
"l. c #AA8237",
"z. c #9D834C",
"x. c #A7874B",
"c. c #AE914F",
"v. c #BA974C",
"b. c #AB8956",
"n. c #B78658",
"m. c #B89655",
"M. c #8E8678",
"N. c #B18C6E",
"B. c #BEA868",
"V. c #C59453",
"C. c #C49D58",
"Z. c #E69B5C",
"A. c #C8A559",
"S. c #D3A954",
"D. c #C99667",
"F. c #D79A68",
"G. c #CF9874",
"H. c #E6946D",
"J. c #C9A666",
"K. c #D8AA6C",
"L. c #E6A46B",
"P. c #EFAB72",
"I. c #E7A978",
"U. c #11328F",
"Y. c #1A5387",
"T. c #1F5E9F",
"R. c #235388",
"E. c #2657B2",
"W. c #1D6CB4",
"Q. c #266DB1",
"!. c #6F7882",
"~. c #2474D4",
"^. c #1E6BFA",
"/. c #2572F5",
"(. c #2A7CFC",
"). c #2F82BE",
"_. c #3D85DB",
"`. c #1C8BFC",
"'. c #2887FB",
"]. c #2A84FE",
"[. c #2F91F1",
"{. c #369CF9",
"}. c #29A2FA",
"|. c #36A2FE",
" X c #39A4FD",
".X c #39A8FB",
"XX c #41A5F4",
"oX c #848484",
"OX c #8C8C8B",
"+X c #979087",
"@X c #939393",
"#X c #9A9895",
"$X c #999999",
"%X c #AF978A",
"&X c #AFA29D",
"*X c #A4A4A4",
"=X c #A8A7A6",
"-X c #ACACAC",
";X c #B5ACAC",
":X c #B3B3B3",
">X c #BCBCBB",
",X c #F29C8C",
"<X c #CAAC96",
"1X c #D0AE90",
"2X c #DCB399",
"3X c #E9B588",
"4X c #F2B088",
"5X c #E9BB97",
"6X c #F4BD94",
"7X c #D7BBA5",
"8X c #C9B8B3",
"9X c #F0C79F",
"0X c #F6C59C",
"qX c #DBC3A7",
"wX c #D6C8B3",
"eX c #E9C5A8",
"rX c #EECAAC",
"tX c #F7CBA8",
"yX c #F5CDAE",
"uX c #EBD1AC",
"iX c #F8D2AC",
"pX c #EACBB3",
"aX c #F4CEB1",
"sX c #F9CEB2",
"dX c #F1CCB9",
"fX c #EBD3B7",
"gX c #F5D1B4",
"hX c #FAD2B3",
"jX c #F4D4BB",
"kX c #FAD6BA",
"lX c #B7BCC3",
"zX c #CBBCC6",
"xX c #C3C3C3",
"cX c #CCCBCB",
"vX c #D3D0CD",
"bX c #D4D4D4",
"nX c #DBDAD6",
"mX c #DCDCDC",
"MX c #F6DAC5",
"NX c #ECD9D2",
"BX c #FBE2CD",
"VX c #FAE7D6",
"CX c #FDECDC",
"ZX c #FBF0DA",
"AX c #E3E3E3",
"SX c #E4E8E7",
"DX c #EAE8E5",
"FX c #ECECEC",
"GX c #F9ECE4",
"HX c #FAF4EA",
"JX c #FEF5EC",
"KX c #F2F3F3",
"LX c #F4F4F4",
"PX c #FBF9F5",
"IX c #FCFCFC",
/* pixels */
"IXPXFXIXKXPXIXFXLXIXbXOXq ~ ) ] / 9 ] ~ X ) { { { { ] { { { ] { { { [ { { { { { ) 9 9 ] ! @ { ] ) / / ! @XcXIXPXFXIXPXFXIXLXPXIX",
"PXPXPXPXPXPXPXIX/ ) =XxXbXbXFXFX-X9 ] ~ 4 AXmXFXFXAXcXFXFXFXLX# DX9 bXFXFXFXFXFXAX-X9 ] ! 4 mXbXcXcXbXcXcX=X{ ! KXKXPXPXPXPXPXPX",
"FXPXPXFXIXPX{ [ =XnXPXPXPXPXIXIX-X8 ] ! 4 PXPXPXPXPX  PXIXLXnX= LXo 4 PXPXPXPXIXPX>X9 ] ! 4 FXDXmXmXAXAXDXFXFXcX! ] IXIXLXIXPXKX",
"IXPXLXIXLXX  .*X:XbXFXIXPXPXPXLX*X9 ] ! $ >XxXxX>XxX# M.-X-X4 o oX; ; @X:X:X:X-X$X] 9 ] ! $ :X>XmXDXDXAXFXFXFXmX-XOX/ LXLXPXPXPX",
"LXPXPXDX~ X -X-X-X>XmXIXLXmXcXxXoX9 ] ~ $ *X:X-X=X*X5 6 ; @X$ o ; : g ;  .@X#X@XoX! 9 ] ! @ { ] ) / / ~ :XLXAXxX@X*X$XQ FXPXPXLX",
"PXPXPX] / X -X:X:XAXIXIXIXvX;X*X] 9 ] ~ @ ' !.!.!.' ; 6 k k o k N B h B N 4 ' } ) 1 9 ] ~ @ ~ ! Q Q V ~ / / oXxX!.=X-X! { PXPXFX",
"IXPX/ ] / X -X:XIXIXIXAXlX' 2 L , 9 ] ~ X 3 P P P P   v l D Z F k 5.J J D B k @ 3 + 9 ] ~ + P P P P 3 9 q ! / Q @X=X-XQ ] ] LXPX",
"DXPX9 ] / X -XIXIXIXcXU I P P I L 7 ] ! X I W Y.3 v ^ @ F 5.5.x.x.5.z.a.5.F D B 6 X q { ! X W E Y L L L P 9 ~ Q 9 -X:XQ ] q PXLX",
"PX~ 9 ] / X IXIXPXlXP 2 I R.Q.~.R.9 ] ! + '.T.O : ; p.a.* 5.x.c.v.m.m.m.x.a.5.Z Z B N # V , _.[.~.~.Y.Y P L 7 9 8 ) cXQ ] 9 4 PX",
"IX) 9 ] / X IXPXlXP P W ).{..X[.E.7 ] Q , 4 k . F s.d.N.N.. 6.l.v.A.J.D.m.c.x.a.5.5.D C N ; Q.'./.'.'.~.Y.P L 1 4 ) $XQ ] q # IX",
"bX@X9 ] / X PXbX2 P R.[..X.X.X.XE.8 9 * B B = p.a.%X<X7XeXaXf.O C 4.9.9.7.5.A s.f.M.v n Z C N ; Q.].].'.'.T.I 3 $ Q | Q ] q $ bX",
"oX>X9 ] / X AXU 2 Y [. X.X}. X XW.  > B D g s.d.D.2XeXrXyXyXyXyXsXyXyXyXyXyXrXVXBXNXnX@ A n F C h $ `.'.(..XQ.2 , 9 ] Q ] q $ @X",
"Q cX9 ] / X lXL I W.`.[..X|. X|.Q.X g C : d.n.D.G.eXrXyXyXaXyXaXaXaXaXaXaXaXaXMXKXGXNXNXO 4.A F Z g , '. X.X{.Y , 8 ) Q ] q $ ] ",
") bX9 ] ) X ' L R./.'.'.'..X|.|.W.  g > d.V.D.L.F.aXaXaXaXaXyXaXaXaXaXaXaXaXaXaXgXJXJXZXGX- 4.H J D f .X|..X.XT., 3 / Q ] q $  .",
"] mX9 ] / X 2 L W.].].].'.'.|.|.Q.  h = n.F.L.L.L.gXgXyXyXyXaXyXyXyXyXyXyXyXyXyXyXaXBXHXJXJXZ 6.A C N {. X.X.X~.2 3 Q Q ] q $  .",
"{ mX9 ] / X L I ~.].].].].].].{.Q.  g . n.F.L.L.9XgXgXyXyXyXyXyXyXyXyXyXyXyXyXyXyXtXgXjXCXPXDX6.A C B {. X X.X[.I 3 U Q ] q $ oX",
"| mX9 ] / X P Y '.'.].].].(.(.(.Q.  g N n.D.I.hXhXyXyXyXyXyXyXyXyXyXyXyXyXyXyXyXyXyXyXtXjXJXPX* H Z B {.|.|. X[.Y L 9 Q ] q $ OX",
"| mX9 ] / X P E  X{.'.].].(.(.(.E.. g n * N.gXaXhXyXyXyXyXyXyXyXyXyXyXyXyXyXyXyXyXyXyXgXpXPXGX{ M F N |.|.|.{.^.U.K 9 Q ] q $ OX",
"| mX9 ] / X P E  X X|.'.].(.(.(.E.$ g g S m.b.g <XrXaXaXaXaXaXaXaXaXrXtXsXhXeXsXtXgX<Xs.D N ) >XH D k }.{.'.(.^.U.2 U Q ] q $ @X",
"| mX9 ] / X P E  X X|.{.{.'.(.(.E.+ * n 7.m.A.J.K.g 7XtXhXgXyXyXaXaXl kXtXfX+Xo m.A.S.C.J.V.m.  H D X '.(.(.].^.U.2 U Q ] q $ @X",
"| mX9 ] / X P Y. X|.{.}.{.`.'.(.E.  v C 4.6.8.l.V.A.A.F M.iXsXyX%XrXN . C c.A.v.m.J.A.C.C.C.A.z.z S 2 (.(.(.].^.U.L U Q ] q $ @X",
"| mX9 ] / X P Y.{. X|.`.{.}._.+ . . ; z .   G 9.8.k.A.J.C.a.^ pXN hXS k.8.8.k.8.8.8.k.l.a.Z h C X D   R.'./.(.^.U.L U Q ] q $ @X",
"| mX9 ] / X P Y.{.|.XXY O +.0.u.3.O ; V = o o = O C 8.l.A.J.J.A.B.MXf.8.l.8.k.k.H > N.aXBXHXAXh B C i.3.* . Y ^.U.L U Q ] q $ @X",
"| mX9 ] / O 3 E W j i.u.t.y.y.$ O 4 F   O o / PXM.&X-XO 9.8.V.C.c.hXtX. > o   N.P.P.hXhXyXMXnXH C k y.r.y.r.3..   3 R Q ] q $ @X",
"| mX9 ] / X O 3.r.i.r.e.y.r.r.5 z X F . o o %XIXIXIXIXPXAX_ Z l.; uXhXC 4 . o _ O f.: f.aXeXNXB B 4 r.r.u.u.y.w.@.% R Q ] q # OX",
" .mX9 ] / X r.r.r.r.r.r.r.r.u.k 5   s.o l l l ;XIXIXIXPXIX%X3Xf.M.hXgXn.=Xo $ IXPXPXIXKXvXz cX5 b f y.r.r.y.e.q.<.e.c Q ] 9 # $ ",
"Q cX9 ] / X r.r.r.r.r.r.r.r.e.N ; ` b.n.: > f ;XPXIXIXPXzXG.tXyXsXtXhXI.= - k PXIXIXPXPXIXf.oX9 v +.r.r.e.r.0.0.>.t.Q Q ] q 1 BX",
"VXNX9 { ( # e.r.e.e.e.r.e.e.i.l z s.1XD.F.X DXIXIXKXPX&XD.hXjX%X^ 7XhXtX6 B l B | PXIXJXPX_ 8X+Xj 0.+.. e.o wXNX^ ; . 9 { 9 ; hX",
"yXwX9 ] / o d o @ { . i.y.t.r.l : d.<XeX5XL.b.= z T l 3XsXgXwXGXJXDXf.yX5X= +XFXIXPXPXPXf 5X<X#X- e ^ z e.[ VXCXVXCXVXGXVXxXM.V ",
"7X%X9 / vXGXZXVXVXCXZXe t.r.u.l = d.1XeXyXrXtXn.: pXtX_ uXsXrXhXMXJXPXgXhX1X} IXIXKX} p.K.eX<X=X+ ^ l $ r.f.rXrXkXyXhXdXjXMXBXBX",
"ZXZXVXBXjXjXgXaXaXpXMX  t.r.r.z k d.1XeXeXgXgXgXyXtX; aXaXaXyXyXyXyXCXVXz gX4X5 s.n.3X9XaXeX<X;X9 : V +.t.# yXaXaXaXaXaXaXyXgXBX",
"VXMXaXhXtXyXtXyXyXtXhXd t.r.r.z _ V 1XeXaXyXtXyXgX+X<XaXhXaXaXyXtXgXhXMXtX= sX0XI.C kXaXaXrX2X8XO ^ < e.t.3.iXaXaXaXaXaXaXaXgXBX",
"VXBXaXyXtXtXtXgXgXfX` e.t.t.r.z l B p.eXaXrXaXeXjXl G.I.3X0XtXrXyXyXhXhXyXaXG.yXyX0X3XtXyXeXqX>Xo _ j e.e.t.O I.L.L.P.I.3XaXaXaX",
"aXyXrXhX0X0X0X6X6XI.j e.e.e.e.f O n M l I.0XyXtXV F.f 6 ` N.6XgXyXyXaXyX5X0X# rXyXaXaXyXyXeXvX5 k f t.e.0.w.5 tXtX1XN.n.  <XaXaX",
"yXaXkXV G.L.D.tXyXdXj q.q.q.e.w O n 4.6.g I.L.5XD.I.6XL.n.s.p.6XkXpX5X= * ` F.` hXyXaXkXeXGXO s.z +.q.q.t.+.MXCXVXBXyXfXM.qXaXkX",
"kXsXyXX z dXeXBXCXZX@ q.q.q.q.i.> m 4.8.h L.F.s.0XaXeX7X7X2XwX$ 5 ` N.M.N.5XtX3XtXaXyXeX+Xk H p.k w.q.q.q.& fXCXMXdXyXaXyXsXMXCX",
"CXBXtXyXhXaXsXBXGXVX%Xq.q.q.w.% g m 4.m.D Z.I.hXpXrXwX7XqX7XM.<X<X<XqXqXqXeXdXyX9XyXMX: 7.4.A _   w.q.q.q.:.<XhXpXgXgXtXiXtXMXVX",
"CXCXkXkXyXaXaXyXgXjX_ q.q.q.q.= h Z 7.c.d.L.aXrXeX7XeX/ = [ 7X<X<X<XqX7XqX7XeXgXyXf.I.F 8.4.H V & q.q.q.0.q.@.l I.5X0X6XL.tXaXrX",
"aXyXtX9XtXyXyXtXI.$ 0.q.q.q.@.d b A x.B.I.tX<X. 7XuXf h.g.,XO 7X<X` = = qXqXqXeXgXtXI.; 8.4.J : 2.q.q.q.1.,.1.@.6 = = = = eXyXtX",
"yXsXpX1Xn.n.n.n.9 :.,.1.1.q.O v n 5.c.- 3X[ J wXeXS j.j.g.H.,Xl l ,X,X,Xd.%Xo ~ 9XyXP.g 7.5.D j q.0.q.1.1.1.1.a MXjXyXaXhXhXdXBX",
"BXgXyX7XwXfXpXjX^ ,.1.,.,.,.> d Z x.m.o D J.6 pXf.S O * p.j.h.,XH.j.j.g.h.N.wXJ.- MXP.n c.5.D j ,.q.,.,.>.>.>.o GXVXeXkXaXyXBXGX",
"CXVXaXaXaXaXkXCX8X:.>.,.1.j > b A x.A.^ J.b.5X= 7XaXjXBXpX%X5 z z z _ z d.H.N - J.A S.g x.a.D * ,.,.>.>.>.>.>.% fXaXaX0XtXhXdXgX",
"jXkXaXaXgXaXaXkX8X&.;.*.;.  g b A c.s.m.J.. yXhXjXyXCXGXJXJXBXtXdXMXGXPXNXl H.d.K.A.- g b.a.F ; 1.1.>.>.>.>.>.*.& N.6X6X4XF.sXyX",
"aXgXeXI.sXtXyXs.s -.-.*.:.5 g b m x.m.A.A.* tXgXhXhXaXVXJXJXJXJXJXJXJXJXKXMXhX= O A.J.= c.a.F B <.>.>.>.>.>.>.=.$.+ f.5Xp.<XaXyX",
"yXyXfXo l G.o e %.=.=.:.;.% ; d n 5.x.c.C.A L.tXgXeXN.pXkXeXkXMXBXVXVXBXfXeXyXL.S J.C.J.m.z.J B 2.>.;.;.;.;.;.%.#.  sXhXtXhXCXCX",
"gXVXMXrXdXgXeXo.=.=.=.*.*.;.X.O h b 5.z.c.v.- I.yXyXsXtX1X= : _ s.f.f.f.1XyXjXL.* A.A.C.m.a.J B x *.;.-.-.;.;.%.#.% 6XyXgXaXMXfX",
"aXBXkXaXhXpX5Xo.$.$.$.=.=.=.-.:.% k b 5.a.x.x.s.N.6XfXaXtX* 8.8.k.L.0XyXhXhX1X5.A.A.C.m.c.7.F k r =.-.-.-.-.-.%.O.;.@ G.3XyXpXpX",
"rXgXhXyX5XG.w O.O.$.$.$.%.%.*.-.s < f h J a.x.m.J.l N.I.4Xg 8.8.l.5X9X6XP.l C.J.A.m.m.x.a.A B - @.-.-.-.=.-.-.$.O.-.~ R Q k d.P.",
"3XZ.Z.S 7 @ i &.O.$.$.$.$.$.%.%.X.9 ^ ; h J a.x.m.A.J.B N.z.v.8.8.s.K.o B.v.C.m.c.x.a.5.C v = s ;.=.=.=.=.=.=.$.O.*./ Q ] q $ Q ",
"6 mX9 ] / X w t o.#.#.#.#.$.$.$.X.9 ] ! O b G a.x.m.C.A.J.S.v.C.C.B.C.v.m.c.x.x.7.A n h >   o.=.$.%.=.=.=.=.=.$.O.o.~ Q ] z # oX",
"/ bX9 ] ( X ` p t ..#.O.O.O.$.$.a 8 ] ! X X h Z 5.x.v.C.A.A.A.A.C.m.c.c.x.a.5.n b b *   Q % &.%.%.%.%.%.=.=.-.O.O.f ( Q ] q $ | ",
"! bX9 ] / X =Xy p t r ..O.&.O.O.a 8 ] ! o O.o h b 5.x.m.m.A.C.m.m.x.a.5.n n b > X o 9 [ ! * &.%.%.%.%.%.%.=.*.o.e 7 ] Q ] q $ { ",
"OXxX9 ] ) . bXf p t t t t t X.O.a 8 ] ! X #.%.  k b 5.7.x.m.m.x.x.Z Z b h   o @.O.u 9 ] ! & %.%.$.%.%.%.=.o...r & q ] Q ] q $ *X",
"bX=X9 ] ( X PX;Xy t t t t t t r e 9 ] ! O o.O.o.o g h A 5.a.5.A n b f . e y p u e & 9 ] ! & $.#.O.o.....a ....p # Q { Q ] q $ bX",
"IX] 9 ] / X IXSXOXr t t t t t u e 9 ] ! X w t r r & * v C n n b B o w a i p u r r % 9 ] ! o u a u a ..a a ....$ 4 / OXQ ] q # IX",
"IX) 9 ] ) X IXIXmXOXw r t p t t e 9 ] ! o w r r r r y   ; h g O & y t t t t t r w % 9 ] ! o p u u a a ....a 7 9 9 ) FXQ ] q 8 LX",
"PXPX9 ] ) X :XIXPXDX=Xz t t t t e 9 ] ! X w r r r w p t w o   s t t r r r r r t w % 8 ] ! o p u u a a a f 9 T Q q -X*XQ ] 9 PXPX",
"IXFX~ { / X -X:XIXPXFX8XOX^ e y e 8 { ~ o w t r r u u u u u t t u u u u u u u u r % 8 ] ! % u u i s f 5 Q ~ / Q OX*X-XQ ] ] LXIX",
"PXPXPX] / X -XxXPXIXPXIXDXnX;X@X{ 8 ] ~ $ ( } | | } | { { { { { [ [ [ [ ] ] ] ] / 4 8 ] ! X T Q q T Q ^ ) ] OX$X@X*X-XQ ) PXLXKX",
"FXPXIXFX~ @ :XbXIXIXIXIXIXIXPXFX>X9 ] Q Q mXmXmXmXmXmXmXmXmXmXmXbXvXcXcXxXxXxX>X=X{ 9 ] ! O  .| { { [ ) :XIXmX$XoX=X=Xq DXIXPXLX",
"IXPXLXIXPX@ -XFXIXIXIXIXIXIXIXIXxX8 ] Q ) IXIXIXIXIXIXIXIXIXIXPXLXLXFXDXAXAXmXmXbX$Xq ] ! # >XcXFXIXIXIXIXPXIX:XoX@X| FXPXPXPXPX",
"LXPXIXKXIXIX .$XFXPXIXIXIXIXIXIXxX8 ] Q ) IXIXIXIXIXIXIXIXIXIXIXIXIXIXIXIXIXIXIXIX>Xq ] ! $ IXIXIXIXIXIXPXIXIXPX]  .PXIXLXIXPXLX",
"PXPXPXPXPXPXLXPX .OXvXLXPXIXIXIXcX9 ] Q ) PXIXIXIXIXIXIXIXIXIXIXIXIXIXIXIXIXIXIXIXxX9 ] ! $ IXIXIXPXIXPXLXmXOX{ FXFXPXPXPXPXPXPX",
"IXPXFXIXLXKXIXLXPXIXbX@X] | oXOX| 9 ] Q 4 oX@X$X$X$X$X$X$X$X$X$X$X$X$X$X$X$X$X$XoX~ 9 ] ! O $X#X@XoX .{ $XmXIXPXFXIXPXFXIXLXPXIX"
};
