/* XPM */
static char *_0326f44bff045de9a52f05132ea6edcpAMrXMxYqazqHvxJ[] = {
/* columns rows colors chars-per-pixel */
"64 64 172 2 ",
"   c #010101",
".  c #0B0202",
"X  c #080806",
"o  c #040508",
"O  c #0B0B0B",
"+  c #0D0709",
"@  c #1E0906",
"#  c #1A110A",
"$  c #041010",
"%  c #141415",
"&  c #1A1A1B",
"*  c #291509",
"=  c #321B15",
"-  c #1E201F",
";  c #3D220F",
":  c #24201F",
">  c #33201A",
",  c #232424",
"<  c #272729",
"1  c #29272B",
"2  c #27292A",
"3  c #29292B",
"4  c #2D2523",
"5  c #2D3132",
"6  c #343333",
"7  c #363837",
"8  c #37343A",
"9  c #3C3C3C",
"0  c #39373A",
"q  c #411F15",
"w  c #48271E",
"e  c #5D4B3D",
"r  c #6C4D3C",
"t  c #654634",
"y  c #3E3F41",
"u  c #424145",
"i  c #4A4B4C",
"p  c #48494D",
"a  c #4F5052",
"s  c #535556",
"d  c #565658",
"f  c #57585A",
"g  c #5A5B5B",
"h  c #725142",
"j  c #5F5D60",
"k  c #5F6165",
"l  c #5E6168",
"z  c #636264",
"x  c #666668",
"c  c #6D6D6E",
"v  c #6F7170",
"b  c #737374",
"n  c #7B7C7C",
"m  c #757678",
"M  c #A67559",
"N  c #837E7C",
"B  c #8C7D7A",
"V  c #8C7B74",
"C  c #9A7968",
"Z  c #A77961",
"A  c #81817E",
"S  c #B2846D",
"D  c #AB8674",
"F  c #AB8874",
"G  c #C38D75",
"H  c #CE9A79",
"J  c #D79D78",
"K  c #DD9D7A",
"L  c #EE9B6E",
"P  c #F29A6E",
"I  c #E69D73",
"U  c #EB9D73",
"Y  c #E39F7B",
"T  c #F19975",
"R  c #E6A17B",
"E  c #FFAE7F",
"W  c #FEB17D",
"Q  c #7F7E83",
"!  c #807F84",
"~  c #847E89",
"^  c #8A7E80",
"/  c #7E8185",
"(  c #7E8288",
")  c #818085",
"_  c #838288",
"`  c #8D8B88",
"'  c #8B8F90",
"]  c #8F9190",
"[  c #929394",
"{  c #9D9D9E",
"}  c #94989C",
"|  c #A39B9F",
" . c #9E9EA0",
".. c #9FA0A2",
"X. c #A3A3A5",
"o. c #ACACAD",
"O. c #B4B5B4",
"+. c #BCBCBC",
"@. c #C89582",
"#. c #CEA38A",
"$. c #DAAD8C",
"%. c #D2AD9B",
"&. c #CAA794",
"*. c #EAA683",
"=. c #E6A883",
"-. c #FEAF84",
";. c #FEAE8A",
":. c #F6AD80",
">. c #EEB28E",
",. c #F7B086",
"<. c #FCB185",
"1. c #F4B38C",
"2. c #FCB28A",
"3. c #EEB594",
"4. c #EAB69B",
"5. c #EEB999",
"6. c #F2B392",
"7. c #F9B492",
"8. c #FBBA93",
"9. c #F0BB9B",
"0. c #E9BBA4",
"q. c #F2C6AD",
"w. c #F1CCB1",
"e. c #F9D5BD",
"r. c #BEBFC1",
"t. c #BFC0C2",
"y. c #C4C4C4",
"u. c #CCCCCE",
"i. c #C7C7C9",
"p. c #CDCDD0",
"a. c #D1CFD2",
"s. c #D0D0D0",
"d. c #D8D8D6",
"f. c #D7D9D9",
"g. c #D9D9D9",
"h. c #FEDAC4",
"j. c #DEE0DF",
"k. c #FAEBD6",
"l. c #FCE9D8",
"z. c #DFDFE1",
"x. c #DCE0E2",
"c. c #E3E4E5",
"v. c #E6E7E9",
"b. c #ECEDEE",
"n. c #EAEBE9",
"m. c #F4EBE6",
"M. c #FBEEE4",
"N. c #F0EFEE",
"B. c #F5EBE8",
"V. c #EEF0EF",
"C. c #F0F0EE",
"Z. c #FFFBEE",
"A. c #FFF1E4",
"S. c #EDEEF0",
"D. c #EDEEF0",
"F. c #F1EFF4",
"G. c #EEF0F2",
"H. c #E6F0F2",
"J. c #F1F2F3",
"K. c #FFF7F4",
"L. c #FFFBF5",
"P. c #FBFBFB",
"I. c #FEFEFA",
"U. c #FFFFFD",
"Y. c #FEFEFC",
"T. c #FEFEFE",
"R. c #FFFEFF",
"E. c #FEFFFF",
"W. c white",
"Q. c #FEFEFF",
"!. c #FDFDFD",
"~. c #FFFFFF",
/* pixels */
") ! W.W.W.W.W.W.W.) { W.W.W.W.W.W.W.) g.W.W.W.W.W.W.W.Q W.W.W.W.W.W.W.!.) W.W.W.W.W.W.W.g.! W.W.W.W.W.W.W. .) W.W.W.W.W.W.W.) ) ",
") ! W.W.W.W.W.W.W.) { W.W.W.W.W.W.W.) g.W.W.W.W.W.W.W.Q W.W.W.W.W.W.W.P.) W.W.W.W.W.W.W.g.! W.W.W.W.W.W.W. .) W.W.W.W.W.W.W.) ) ",
") ! W.W.W.W.W.W.W.) { W.W.W.W.W.W.W.) g.W.W.W.W.W.W.W.Q W.W.W.W.W.W.W.W.) W.W.W.W.W.W.W.g.! W.W.W.W.W.W.W. .) W.W.W.W.W.W.W.) ) ",
") ! W.W.W.W.W.W.W.) { W.W.W.W.W.W.W.) g.W.W.W.W.W.W.W.Q W.W.W.W.W.W.W.I.) W.W.W.W.W.W.W.g.! W.W.W.W.W.W.W. .) W.W.W.W.W.W.W.) ) ",
") ! W.W.W.W.W.W.W.) { W.W.W.W.W.W.W.) g.W.W.W.W.W.W.W.Q W.W.W.W.W.W.W.W.) W.W.W.W.W.W.W.g.! W.W.W.W.W.W.W. .) W.W.W.W.W.W.W.) ) ",
") ! W.W.W.W.W.W.W.) { W.W.W.W.W.W.W.) g.W.W.W.W.W.W.W.! c             o ) n.W.W.W.W.W.W.g.! W.W.W.W.W.W.W. .) W.W.W.W.W.W.W.) ) ",
") ! W.W.W.W.W.W.W.) { W.W.W.W.W.W.W.) g.W.W.W.W.W.P.  )               o )     o W.W.W.W.g.! W.W.W.W.W.W.W. .) W.W.W.W.W.W.W.) ) ",
") ! W.W.W.W.W.W.W.) { W.W.W.W.W.W.W.) g.W.W.W.W.W.    )               o !       W.W.W.W.g.! W.W.W.W.W.W.W. .) W.W.W.W.W.W.W.) ) ",
") ! W.W.W.W.W.W.W.) { W.W.W.W.W.W.W.) g.W.W.W.W.W.    _ o             o )       W.W.W.W.g.! W.W.W.W.W.W.W. .) W.W.W.W.W.W.W.) ) ",
") ! W.W.W.W.W.W.W.) { W.W.W.W.W.W.W.) f.W.W.W.W.J.  C ) 6.2.<.,.2.2.<.6.! %.    W.W.W.W.g.! W.W.W.W.W.W.W. .) W.W.W.W.W.W.W.) ) ",
") ! W.W.W.W.W.W.W.) { W.W.W.W.W.W.W.) g.W.W.W.I.o.. 1.) >.2.2.<.<.<.<.6.) 1.. 7 W.W.W.W.g.! W.W.W.W.W.W.W. .) W.W.W.W.W.W.W.) ) ",
") ! W.W.W.W.W.W.W.) { W.W.W.W.W.W.W.) g.W.W.W.W.` M 1.! 3.,.<.2.<.<.-.1.( 2.M u.W.W.W.W.g.! W.W.W.W.W.W.W. .) W.W.W.W.W.W.W.) ) ",
") ! W.W.W.W.W.W.W.) { W.W.W.W.W.W.W.) g.W.W.W.W.z 5.6._ o   <.2.;.<.r + ( 6.J I.W.W.W.W.g.! W.W.W.W.W.W.W. .) W.W.W.W.W.W.W.) ) ",
") ! W.W.W.W.W.W.W.) { W.W.W.W.W.W.W.) g.W.W.W.L.-.,.6./ ; 2.<.6.H ;.2.* _ 6.7.L.W.W.W.W.g.! W.W.W.W.W.W.W. .) W.W.W.W.W.W.W.) ) ",
") ! W.W.W.W.W.W.W.) { W.W.W.W.W.W.W.) g.W.I.W.2.2.<.1.Q S 2.<.2.. 2.:.Z ) 1.<.,.W.W.W.W.g.( W.W.W.W.W.W.W. .) W.W.W.W.W.W.W.) ) ",
") ! W.W.W.W.W.W.W.) { W.W.W.W.W.W.W.) g.W.W.W.2.,.2.1.) 6.<.<.<.* 2.<.3.) 2.<.;.W.W.W.W.g.! W.W.W.W.W.W.W. .) W.W.W.W.W.W.W.) ) ",
") ! W.W.W.W.W.W.W.) { W.W.W.W.W.W.W.) g.W.W.W.W.7.E 1.) >.2.2.2.7.H <.6.) 2.W l.W.I.W.W.g.! W.W.W.W.W.W.W. .) W.W.W.W.W.W.W.) ) ",
") ! W.W.W.W.W.W.W.) { W.W.W.W.W.W.W.) g.W.W.W.W.!.;.1.) >.<.<.> . =.<.6.) 2.I.W.L.E.W.W.g.! W.W.W.W.W.W.W. .) W.W.W.W.W.W.W.) ) ",
") ! W.W.W.W.W.W.W.) | W.W.W.W.W.W.W.! g.W.W.W.I.W.3.1.) 1.2.2.1.2.2.<.1.) 0.W.W.W.W.W.W.d.Q W.W.W.W.W.W.W. .) W.W.W.W.W.W.W.) ) ",
") ! W.W.W.W.W.W.W.) { W.W.W.W.W.W.W.Q p.D.D.D.H.I L 1.) 1.;.@     1.-.1.) U *.b.D.b.D.D.u.) W.W.W.W.W.W.W. .) W.W.W.W.W.W.W.) ) ",
") ! W.W.W.W.W.W.W.) ..W.W.g.o.) f u ) 9 O       K P *.) 1.<.<.2.<.<.-.6.( U r 7 i z [ +.i.) D.C.b.P.W.W.W. .) W.W.W.W.W.W.W.) ) ",
") ! W.W.W.W.W.W.W.) {               ) 2         # P U ! >.2.2.2.;.2.<.=._ U             2 )         b.b.W.{ ) W.W.W.W.W.W.W.) ) ",
") ! W.W.W.W.W.W.W.) { )             ) 2           R I ) R L U U L L P K / @.            < )         b.+.  z ) W.W.W.W.W.W.W.) ) ",
") ! W.W.W.W.W.W.o ) z       o X O % ) x _ X.y.x.J.B.Y ) Y P L L L L L K _ b p , % O X   < )               z ) W.W.W.W.W.W.W.) ) ",
") ! W.W.W.W.W.    ) z   D.b.b.G.G.D.) u.D.D.D.b.D.b.n.) Y L L L L L P K ) V.b.D.J.D.b.D.p.Q b.D.D.X.o     z ) v.W.W.W.W.W.W.) ) ",
") ! W.W.W.W.b.D.i.) z   J.D.D.D.D.D.) u.D.D.D.D.D.b.b.Q m.4.U L T *.m.D.! D.b.D.D.b.D.D.u.! D.D.b.        { Q D.P.W.W.W.W.W.) ) ",
") ! W.W.W.W.D.D.D.) {   b G.u.X.n f ) 9               ) o             o !               < )         & G.b.{ ) D.b.W.W.W.W.W.) ! ",
") ! W.W.W.  j.D.D.) { D.D.          ) 2               )               o )               < )     X D.D.D.D.{ ) b.    W.W.W.W.) ) ",
") ! W.W.)       ] ) { b.b.          ) 2               )               o )               < )     X D.D.D.D.} )       P.W.W.W.) ) ",
") ! W.W.          ) x G.D.        o ) Q +.b.n.n.b.b.b.! b.b.G.b.G.b.D.b.) b.b.D.J.G.J.D.a.Q D.V.J.D.D.r.o z )         W.W.W.) ) ",
") ! W.P.b.        ) k     b.D.D.D.D.) u.D.D.D.D.D.D.D.! b.D.D.H.D.D.D.b.) D.b.D.D.D.D.D.u.! D.D.D.Q       z )     c.D.W.W.W.) ) ",
") ! W.b.D.D.D.%   ) z     s D.D.D.D.) u.D.D.D.D.D.D.b.! b.D.D.D.D.D.D.b.) D.D.D.D.D.b.D.u.! D.D.          z ) b.n.D.D.D.W.W.) ) ",
") ! W.b.b.D.D.G.D.) z       b.D.D.D.) u.D.D.b.b.D.G.b.Q b.v.x.f.p.i.y.O.) o.X. .[ ' ) m b ! s s           { ! D.b.D.D.D.W.W.! ) ",
") ) O G.D.D.D.D.D.) { g.            ) 1               )                 )               2 )         X J.D.{ ) D.D.b.t.  % W.) ) ",
") )       b.D.D.D.) { b.J.J.        N <               )               o )               4 ^     X n.D.D.D.{ ) D.&         W.) ) ",
") )           x b.) { b.D.!.    $.2.8.<.=             Q o               )           . 2.2.;.>.1 L.D.D.D.b.{ Q             W.) ) ",
") Q             o )  .D.D.I.H.3.2.<.2.<.<.3.D.D.D.D.b.) b.D.D.D.D.D.D.D.) D.D.b.D.4.2.2.<.2.2.2.E.W.D.+.  z )           b.J.) ) ",
") Q D.J.o         ) l   P.E.m.W <.<.<.<.<.3.b.D.D.D.b.) n.D.D.b.b.b.D.b.) D.b.D.D.0.<.2.<.<.<.<.A.W.9     z )     g G.G.D.D.) ) ",
"! ) D.D.D.b.&     ) z   L.6.<.2.<.<.<.2.<.k k j d d f ! a i u 9 0 7 3 3 _ , % % O $ 8.2.,.<.2.<.2.<.M.    z ) c.b.D.D.D.D.D.) ) ",
") Q P.b.b.b.J.b.[ ) g 2.2.<.<.2.<.<.<.;.2.            )               o )           1.2.,.,.<.<.<.2.<.,.q } N D.D.b.J.v.o   ) ) ",
") )   5 J.D.D.D.M.( D <.2.<.<.2.2.<.<.;.#.            )               o )           t 2.<.<.<.<.<.<.2.2.<.F ( D.J.i         ) ) ",
") !       X F.9.2.~ D 2.<.<.<.,.2.2.2.G : - , 2 2 2 0 ) 7 0 9 y i i s d ) x x v b n N &.2.;.,.<.<.2.<.<.<.F ) 6..           ) ) ",
") !       h <.<.2.~ F 2.<.<.<.,.,.7.#.u.D.D.D.b.H.D.b.) b.b.D.D.D.D.D.b.) D.b.D.D.D.D.N.w.;.2.<.<.<.<.<.<.F ~ 2.<.6.o     G.) ) ",
") _ 6 . 1.<.<.<.2.~ F 2.<.2.2.2.3.b.) u.b.D.D.D.D.D.b.) b.D.D.D.D.D.D.D.( D.D.D.D.D.D.D.p.( k.2.1.<.<.<.<.F ) 2.<.2.2.e.N.D.) ) ",
") ) 0.1.<.<.<.<.2.~ F 2.<.2.E 3.    ) 2               )                 )               , Q 8 e <.2.<.<.<.F ) 2.<.<.2.2.<.b.~ ) ",
") B <.<.<.<.2.<.2.~ D 2.2.E w       ) <               _               o )               < )     K.<.1.,.<.F ) 2.<.<.2.,.<.2.B ) ",
") B <.<.<.<.2.2.<.~ D 2.1.L.        ) 2               )               o )               < )     W.W.q.<.<.F ) 2.<.<.2.,.<.<.B ) ",
"~ B <.2.,.2.<.<.2.! D e.E.W.D.D.D.D.) p.D.G.b.D.G.G.b.! b.D.D.D.D.G.D.g.) u.r.O.X.{ ` n b ) p 6 W.W.W.Z.1.F ) 2.<.<.<.<.<.1.B ( ",
"_ V <.<.<.<.,.<.2.~  .I.W.W.D.b.D.D.) u.D.D.b.D.b.D.b.! b.D.D.D.D.D.D.b.) b.D.D.D.b.D.D.u.! D.b.W.W.W.I.E.| A 2.<.<.<.<.1.W B ) ",
") ) h.<.<.<.7.k.I.) { W.W.W.D.D.D.D.) u.D.D.D.D.D.D.b.) b.D.D.b.D.D.b.D.) G.D.G.D.D.D.D.u.) J.b.W.W.W.W.W. .) Z.5.,.<.2.4.L.) ) ",
"! A I.W.L.W.E.W.W.)  .W.W.W.        ! 1               )               o )               < )     W.W.W.W.W. .) W.I.W.W.W.I.W.) ) ",
") ! W.W.W.W.W.W.W.) { W.W.W.        ) 2               )               o )               < )     W.W.W.W.W. .) W.W.W.W.W.W.W.) ) ",
") ! W.W.W.W.W.W.W.) { W.W.W.        ) 1               _                 )               < Q     W.W.W.W.W. .) W.W.W.W.W.W.W.) ) ",
") ) W.W.W.W.W.W.W.) { W.W.W.D.b.D.G.) u.D.D.b.b.D.D.D.) b.D.D.D.D.D.b.D.) D.D.D.D.D.D.D.u.! D.b.W.W.W.W.W. .) W.W.W.W.W.W.W.) ) ",
") ! W.W.W.W.W.W.W.) { W.W.W.D.D.D.D.) u.D.D.D.D.D.D.b.! b.D.D.D.D.D.D.D.) D.D.D.D.D.D.D.u.! D.D.W.W.W.W.W. .) W.W.W.W.W.W.W.) ) ",
") ! W.W.W.W.W.W.W.) X.W.W.P.b.D.D.D.Q u.J.G.D.J.b.b.b.! v.b.D.D.b.D.V.b._ D.b.b.b.b.b.D.u.! b.J.W.W.W.W.W. .) W.W.W.W.W.W.W.) ) ",
") ! W.W.W.W.W.W.W.) { W.W.W.        ) 2               )               o )               < )     W.W.W.W.W. .) W.W.W.W.W.W.W.) ) ",
") ! W.W.W.W.W.W.W.) { W.W.W.        ) 2               )               o )               < )     W.W.W.W.W. .) W.W.W.W.W.W.W.) ) ",
") ! W.W.W.W.W.W.W.) { W.W.W.        ) 2               )               o Q               3 )     W.W.W.W.W. .) W.W.W.W.W.W.W.) ) ",
") ! W.W.W.W.W.W.W.) { W.W.W.D.D.D.D.) u.b.D.D.D.D.G.b.! b.b.D.D.D.D.D.D.) D.D.D.b.D.D.D.u.( D.D.W.W.W.W.W. .) W.W.W.W.W.W.W.) ) ",
") ! W.W.W.W.W.W.W.) { W.W.W.D.D.D.D.! u.D.D.D.D.D.D.b.! b.D.D.D.D.D.D.D.) D.D.D.D.D.D.D.u.( D.D.W.W.W.W.W. .) W.W.W.W.W.W.W.) ) ",
") ! W.W.W.W.W.W.W.) { W.W.W.6 i g c Q ) { o.+.y.u.s.z.) b.J.b.J.b.J.J.b.) z.g.g.s.y.O.o.[ Q Q c W.W.W.W.W. .) W.W.W.W.W.W.W.) ) ",
") ! W.W.W.W.W.W.W.) { W.W.W.        ) 2               )               o )               < )     W.W.W.W.W. .) W.W.W.W.W.W.W.) ) ",
") ! W.W.W.W.W.W.W.! { W.W.W.        ) 2               )               o )               < )     W.W.W.W.W. .) W.W.W.W.W.W.W.) ) "
};
