/* XPM */
static char *e327ae1228ed4d3cee686bd8d74aedd6IV6HYInWqxRmv829[] = {
/* columns rows colors chars-per-pixel */
"64 64 53 1 ",
"  c #020202",
". c #040404",
"X c gray3",
"o c #0C0C0C",
"O c #101010",
"+ c gray8",
"@ c #1B1B1B",
"# c gray11",
"$ c #202020",
"% c gray15",
"& c gray17",
"* c #2C2C2C",
"= c gray20",
"- c #373737",
"; c gray23",
": c #3E3E3E",
"> c gray25",
", c #4C4C4C",
"< c gray35",
"1 c gray37",
"2 c #676767",
"3 c #6F6F6F",
"4 c #717171",
"5 c gray46",
"6 c gray48",
"7 c gray49",
"8 c #888888",
"9 c #8E8E8E",
"0 c #909090",
"q c #9B9B9B",
"w c gray61",
"e c #A0A0A0",
"r c #A4A4A4",
"t c gray68",
"y c #B1B1B1",
"u c #B7B7B7",
"i c gray74",
"p c #C0C0C0",
"a c gray78",
"s c #CBCBCB",
"d c gray80",
"f c #D0D0D0",
"g c #D5D5D5",
"h c #DADADA",
"j c #DFDFDF",
"k c gray88",
"l c #E6E6E6",
"z c gray92",
"x c gray93",
"c c #F3F3F3",
"v c #F6F6F6",
"b c #FBFBFB",
"n c white",
/* pixels */
"nnnnnnnnnnnnnnnnnnnnnnnnnnnnnnnnnnnnnnnnnnnnnnnnnnnnnnnnnnnnnnnn",
"nnnnnnnnnnnnnnnnnnnnnnnnnnnnnnnnnnnnnnnnnnnnnnnnnnnnnnnnnnnnnnnn",
"nnnnnnnnnnnnnnnnnnnnnnnnnnnnp+  Xo. .6bnnnnnnnnnnnnnnnnnnnnnnnnn",
"nnnnnnnnnnnnnnnnnnnnnnv= .    ..   .     gvnnnnnnnnnnnnnnnnnnnnn",
"nnnnnnnnnnnnnnnnnnnvn   .&hbnnnnnnnnnnb:.  ynnnnnnnnnnnnnnnnnnnn",
"nnnnnnnnnnnnnnnnnnb. Xwnnnnnnnnnnnnnnnnnnno .bnnnnnnnnnnnnnnnnnn",
"nnnnnnnnnnnnnnnnnv. ,bnnnnnnnnnnnnnnnnnnnnnj  vnnnnnnnnnnnnnnnnn",
"nnnnnnnnnnnnnnnnnX cnnnnnnnnnnnnnnnnnnnnnnnncX bnnnnnnnnnnnnnnnn",
"nnnnnnnnnnnnnnnn  nnnnnnnnnnnnnnnnnnnnnnnnnnnn..nnnnnnnnnnnnnnnn",
"nnnnnnnnnnnnnnny ebnnnnnnnnnnnnnnnnnnnnnnnnnnnb  nnnnnnnnnnnnnnn",
"nnnnnnnnnnnnnnv. nnnnnnnnnnnnnnnnnnnnnnnnnnnnnn3.bnnnnnnnnnnnnnn",
"nnnnnnnnnnnnnn-.nnnnnnnnnnnnnnnnnnnnnnnnnnnnnnnn  nnnnnnnnnnnnnn",
"nnnnnnnnnnnnnnX nnnnnnnnnnnnnnx41vnnnnnnnnnnnnnn%.nnnnnnnnnnnnnn",
"nnnnnnnnnnnnnc nnnnnnnnnnnnnl   . Oxnnnnnnnnnnnnn znnnnnnnnnnnnn",
"nnnnnnnnnnnnn .nnnnnnnnnnnnc Xbnvn  bnnnnnnnnnnnn onnnnnnnnnnnnn",
"nnnnnnnnnnnnn .nnnnnnnnnnnn .nnnnnn qnnnnnnnnnnnb onnnnnnnnnnnnn",
"nnnnnnnnnnnnb pnnnnnnnnnnnn. nnnnnnX bnnnnnnnnnnn  nnnnnnnnnnnnn",
"nnnnnnnnnnnnb nnnnnnnnnnnnn *nnnnnn  nnnnnnnnnnnn .nnnnnnnnnnnnn",
"nnnnnnnnnnnng nnnnnnnnnnnnn @nnnnnn  nnnnnnnnnnnn .nnnnnnnnnnnnn",
"nnnnnnnnnnnnw nnnnnnnnnnnnb  nnnnnn  zbbbbbbbbbbb .nnnnnnnnnnnnn",
"nnnnnnnnnnnn4 nnnnnnnnnnnnn4 bnnnnn                nnnnnnnnnnnnn",
"nnnnnnnnnnnn0 nnnnnnnnnnnnnb +bnnnnbbbbbbbbbbbbbbbbnnnnnnnnnnnnn",
"nnnnnnnnnnnnf nnnnnnnnnnnnnbn .bnnnnnnnnnnnnnnnnnnnnnnnnnnnnnnnn",
"nnnnnnnnnnnnn nnnnnnnnnnnnnnnn..ovnnnnnnnnnnnnnnnnnnnnnnnnnnnnnn",
"nnnnnnnnnnnnn pnnnnnnnnnnnnnnnn&. .cnnnnnnnnnnnnnnnnnnnnnnnnnnnn",
"nnnnnnnnnnnnb..nnnnnnnnnnnnnnnnnn&  .bnnnnnnnnnnnnnnnnnnnnnnnnnn",
"nnnnnnnnnnnnn .nnnnnnnnnnnnnnnnnnnv,   nnnnnnnnnnnnnnnnnnnnnnnnn",
"nnnnnnnnnnnnnn knnnnnnnnnnnnnnnnnnnbb5 Xonnnnnnnnnnnnnnnnnnnnnnn",
"nnnnnnnnnnnnnn onnnnnnnnnnnnnnnnnnnnnnn0   bbnnnnnnnnnnnnnnnnnnn",
"nnnnnnnnnnnnnnj rnnnnnnnnnnnnnnnnnnnnnnnny...nnnnnnnnnnnnnnnnnnn",
"nnnnnnnnnnnnnnn  vnnnnnnnnnnnnnnnnnnnnnnnnn6  unnnnnnnnnnnnnnnnn",
"nnnnnnnnnnnnnnnv obnnnnnnnnnnnnnnnnnnnnnnnnnv. .nnnnnnnnnnnnnnnn",
"nnnnnnnnnnnnnnnnn Xbnnnnnnnnnnnnnnnnnnnnnnnnnb5 .nnnnnnnnnnnnnnn",
"nnnnnnnnnnnnnnnnnx  tnnnnnnnnnnnnnnnnnnnnnnnnnna  nnnnnnnnnnnnnn",
"nnnnnnnnnnnnnnnnnnn...vbnnnnnnnnnnnnnnnnnnnnnnnn< xnnnnnnnnnnnnn",
"nnnnnnnnnnnnnnnnnnnnl. XxbnnnnnnnnnnnnnnnnnnnnnnnX.nnnnnnnnnnnnn",
"nnnnnnnnnnnnnnnnnnnnnnu   0nnnnnnnnnnnnnnnnnnnnnnb bnnnnnnnnnnnn",
"nnnnnnnnnnnnnnnnnnnnnnnbcX  $bnnnnnnnnnnnnnnnnnnnb  nnnnnnnnnnnn",
"nnnnnnnnnnnnnnnnnnnnnnnnnnv. o vnnnnnnnnnnnnnnnnnb..bnnnnnnnnnnn",
"nnnnnnnnnnnnnnnnnnnnnnnnnnnnn-   znnnnnnnnnnnnnnnn8 bnnnnnnnnnnn",
"nnnnnnnnnnnnnnnnnnnnnnnnnnnnnnniX .bnnnnnnnnnnnnnnn bnnnnnnnnnnn",
"nnnnnnnnnnnnnnnnnnnnnnnnnnnnnnnnna Xbnnnnnnnnnnnnnn bnnnnnnnnnnn",
"nnnnnnnnnnnnbnnnnnnnnnnnnnnbnnnnnnn %nnnnnnnnnnnnnv bnnnnnnnnnnn",
"nnnnnnnnnnnn.              onnnnnnno bnnnnnnnnnnnnb cnnnnnnnnnnn",
"nnnnnnnnnnnnX%nnnnnnnnnnnn.onnnnnnnb nnnnnnnnnnnnnb cnnnnnnnnnnn",
"nnnnnnnnnnnn.,nnnnnnnnnnnn Xnnnnnnnn nnnnnnnnnnnnnb bnnnnnnnnnnn",
"nnnnnnnnnnnn.#nnnnnnnnnnnn  nnnnnnnb vnnnnnnnnnnnnn cnnnnnnnnnnn",
"nnnnnnnnnnnn .nnnnnnnnnnnnX nnnnnnnv nnnnnnnnnnnnnl bnnnnnnnnnnn",
"nnnnnnnnnnnn  nnnnnnnnnnnn- nnnnnnnk vnnnnnnnnnnnn+.bnnnnnnnnnnn",
"nnnnnnnnnnnn .nnnnnnnnnnnnb 3nnnnnb  vnnnnnnnnnnnn .nnnnnnnnnnnn",
"nnnnnnnnnnnne nnnnnnnnnnnnb. uvnnc  ybnnnnnnnnnnnn >nnnnnnnnnnnn",
"nnnnnnnnnnnnb snnnnnnnnnnnnbX    . <nnnnnnnnnnnnny.nnnnnnnnnnnnn",
"nnnnnnnnnnnnn  nnnnnnnnnnnnnnb; @hnnnnnnnnnnnnnnn .nnnnnnnnnnnnn",
"nnnnnnnnnnnnn8 bnnnnnnnnnnnnnnnnnnnnnnnnnnnnnnnnp cnnnnnnnnnnnnn",
"nnnnnnnnnnnnnv Xnnnnnnnnnnnnnnnnnnnnnnnnnnnnnnnc. nnnnnnnnnnnnnn",
"nnnnnnnnnnnnnns.7nnnnnnnnnnnnnnnnnnnnnnnnnnnnnn .nnnnnnnnnnnnnnn",
"nnnnnnnnnnnnnnbXXjnnnnnnnnnnnnnnnnnnnnnnnnnnnno nnnnnnnnnnnnnnnn",
"nnnnnnnnnnnnnnnnX.7bnnnnnnnnnnnnnnnnnnnnnnnnc  cnnnnnnnnnnnnnnnn",
"nnnnnnnnnnnnnnnnn  XvnnnnnnnnnnnnnnnnnnnnnnoX.bnnnnnnnnnnnnnnnnn",
"nnnnnnnnnnnnnnnnnns   xnnnnnnnnnnnnnnnnb9.  8nnnnnnnnnnnnnnnnnnn",
"nnnnnnnnnnnnnnnnnnnb2.   +sbvbvbvvbd=    Xynnnnnnnnnnnnnnnnnnnnn",
"nnnnnnnnnnnnnnnnnnnnnvn@.              dbnnnnnnnnnnnnnnnnnnnnnnn",
"nnnnnnnnnnnnnnnnnnnnnnnnbbbnvzlkvbvbnnnnnnnnnnnnnnnnnnnnnnnnnnnn",
"nnnnnnnnnnnnnnnnnnnnnnnnnnnnnnnnnnnnnnnnnnnnnnnnnnnnnnnnnnnnnnnn"
};
