/* XPM */
static char *e53bfc42ce3c4e9bb5bbb0bc2588f909QlxT08P5VzU4JYYQ[] = {
/* columns rows colors chars-per-pixel */
"64 64 253 2 ",
"   c #040403",
".  c #0B0603",
"X  c #060905",
"o  c #0D0A05",
"O  c #030609",
"+  c #09070A",
"@  c #030A0D",
"#  c #0C0B0B",
"$  c #130601",
"%  c #130C05",
"&  c #1B0D03",
"*  c #130D0B",
"=  c #1A0E0B",
"-  c #0D100D",
";  c #14120C",
":  c #1A1309",
">  c #1B130D",
",  c #060E11",
"<  c #0D0D12",
"1  c #110F13",
"2  c #0B1215",
"3  c #0E151A",
"4  c #0F1B1C",
"5  c #141313",
"6  c #1B1513",
"7  c #161814",
"8  c #1C1A15",
"9  c #14151A",
"0  c #18171A",
"q  c #131A1D",
"w  c #1C1B1C",
"e  c #230D03",
"r  c #241205",
"t  c #2C1403",
"y  c #2C1907",
"u  c #23140C",
"i  c #2A160A",
"p  c #25190E",
"a  c #2C1A0D",
"s  c #361A04",
"d  c #331C0C",
"f  c #3B1E0B",
"g  c #231612",
"h  c #291610",
"j  c #241B14",
"k  c #2B1C13",
"l  c #221D1B",
"z  c #2B1E19",
"x  c #331E12",
"c  c #391D10",
"v  c #36210E",
"b  c #3B220D",
"n  c #2C2016",
"m  c #25221C",
"M  c #28241A",
"N  c #2B231C",
"B  c #342115",
"V  c #3C2315",
"C  c #3E2915",
"Z  c #33241B",
"A  c #3C261A",
"S  c #36291E",
"D  c #3D2A1D",
"F  c #161D22",
"G  c #1A1E21",
"H  c #141F28",
"J  c #281F21",
"K  c #1C2225",
"L  c #1B2729",
"P  c #1D252B",
"I  c #1E2832",
"U  c #242323",
"Y  c #2B2522",
"T  c #262826",
"R  c #2C2A24",
"E  c #23262B",
"W  c #242A2D",
"Q  c #2C2B2B",
"!  c #322623",
"~  c #3B2721",
"^  c #332B24",
"/  c #3B2D24",
"(  c #342E2A",
")  c #3A2E29",
"_  c #2D312A",
"`  c #3C3125",
"'  c #35312B",
"]  c #363429",
"[  c #3B332B",
"{  c #242C33",
"}  c #262B35",
"|  c #2B2D33",
" . c #242E3A",
".. c #322F32",
"X. c #243235",
"o. c #2B3134",
"O. c #26323A",
"+. c #2C343B",
"@. c #2B3A3C",
"#. c #343433",
"$. c #3A3633",
"%. c #353A34",
"&. c #3C3B35",
"*. c #31353A",
"=. c #333A3C",
"-. c #3C3C3A",
";. c #421E04",
":. c #43240C",
">. c #4B260C",
",. c #582B0B",
"<. c #5A330E",
"1. c #432414",
"2. c #4D2415",
"3. c #452A14",
"4. c #4B2B14",
"5. c #41251A",
"6. c #4B271A",
"7. c #432B1C",
"8. c #4B2D1B",
"9. c #532C13",
"0. c #572B17",
"q. c #47311B",
"w. c #4C321D",
"e. c #543114",
"r. c #5B3314",
"t. c #54331C",
"y. c #5B341A",
"u. c #5B391E",
"i. c #69340B",
"p. c #69330D",
"a. c #673614",
"s. c #6C3A16",
"d. c #63341B",
"f. c #653A1B",
"g. c #6C3C1C",
"h. c #723E19",
"j. c #432E22",
"k. c #4B2E21",
"l. c #452E29",
"z. c #453225",
"x. c #4C3323",
"c. c #43342B",
"v. c #4A362C",
"b. c #44382E",
"n. c #4C3A2D",
"m. c #513523",
"M. c #593924",
"N. c #52362A",
"B. c #533A2B",
"V. c #5A3C2A",
"C. c #443B33",
"Z. c #463A35",
"A. c #4C3C33",
"S. c #423C3B",
"D. c #513730",
"F. c #523E33",
"G. c #643C23",
"H. c #693D23",
"J. c #723D23",
"K. c #3B413F",
"L. c #6A421E",
"P. c #74421C",
"I. c #7B471A",
"U. c #5B4229",
"Y. c #5C422C",
"T. c #494136",
"R. c #43423B",
"E. c #4C433B",
"W. c #4C493F",
"Q. c #544135",
"!. c #5B4334",
"~. c #52443A",
"^. c #55483D",
"/. c #5C4A3C",
"(. c #6C4324",
"). c #65452C",
"_. c #6C452B",
"`. c #744423",
"'. c #784926",
"]. c #744A2C",
"[. c #78542C",
"{. c #674935",
"}. c #614B3C",
"|. c #744C32",
" X c #7A4E30",
".X c #6C5339",
"XX c #785539",
"oX c #2D3B43",
"OX c #2C3A46",
"+X c #353B43",
"@X c #343D43",
"#X c #473E41",
"$X c #344144",
"%X c #3B4344",
"&X c #3F4847",
"*X c #35444A",
"=X c #3B454A",
"-X c #3B494C",
";X c #3E4B53",
":X c #3E5054",
">X c #444443",
",X c #4A4845",
"<X c #434B4A",
"1X c #4A4D4D",
"2X c #544B43",
"3X c #5A4943",
"4X c #5A4B42",
"5X c #534C49",
"6X c #4C504E",
"7X c #56524D",
"8X c #444D51",
"9X c #534F54",
"0X c #495154",
"qX c #575557",
"wX c #624D43",
"eX c #6B5444",
"rX c #645448",
"tX c #735847",
"yX c #685C53",
"uX c #7D6650",
"iX c #7A6C63",
"pX c #854B1B",
"aX c #8A5318",
"sX c #99601D",
"dX c #844D27",
"fX c #8A5629",
"gX c #955C2A",
"hX c #834D31",
"jX c #865636",
"kX c #935D34",
"lX c #99622B",
"zX c #886337",
"xX c #996637",
"cX c #9C723D",
"vX c #A46B3A",
"bX c #AD7633",
"nX c #A97138",
"mX c #845D46",
"MX c #8C6641",
"NX c #95734E",
"BX c #987249",
"VX c #876752",
"CX c #A56E45",
"ZX c #A87444",
"AX c #B17B4B",
"SX c #B97C50",
"DX c #BA8239",
"FX c #B98546",
"GX c #A9855B",
"HX c #B58A56",
"JX c #B58E69",
"KX c #C88E4F",
"LX c #DFA164",
/* pixels */
"OXOXOX@XP O.I {  .O.;XO. . . . . . .{ { { o.=.@X@X@X+X+X@X$X=X=.@.4 4 q K L X.@.@.@.O.O.O.oX$X@.X.F 4 2 3 q 2 , , 2 2 2 2 2 2 2 ",
"OXOXOXoXH O.I +.oXO. .I {  . .O. . .{ W W +.=.+X+X=.=.=.=.+X=X=.o.2 q q q K L X.X.X.X.O.{ X.X.I K , , 2 3 3 2 , , 2 2 , , 2 3 3 ",
"O.O.O. .O.{ I +.+X{ F H E o.o.L X.{ Q _ ' %.&.-.&.&.%.%.%.+X-.%.U 8 * w 9 K { P { { O.@.oX+.{ { P q 3 3 3 2 2 , , @ @ # - - - - ",
"O.O.O.oX*X*XOXOX@XoX+.O.@.| o.W o.{ 7 ; 7 7 7 - X X X X X O     * 8 6 l Q =.=.{ | +.*.=.+.o.{ E E K F q , @ O @ @ 2 2 9 7 7 7 7 ",
"oXoXoXO.*X*XoXoX@XOX@X@.O.+.=.+.=.*.G G w w q F G G G w G K 9 5 8 l m l Q | W E E W Q | W E E U K F q 4 2 2 , , , @ @ O         ",
"@XoXoXoX-X*X$X*X*X-X*X@X+X+X%X%X<X+XE K P P P { { { E P P G w w l m R l G 9 3 G w w w w q q 9 7 9 3 3 3 q q 2 2 , @ O O X X X + ",
"$X$X$X*X=X$X=.-X:X-X*X@X+X>X1X1X9X,XE P {  .+. .{ { { { { E G w Y ^ R m 9 @ 3 G w w 0 0 w w w w w 9 3 4 q q O O @ , , O O +   + ",
"-X=X=.$X$X=X-X<X-X-X*X%X&X1XqXqX9X#XK P O.+.O.} } { } } { | U w m Y ( U T < *.Q Q T T T W U W U U K K F 3 2 2 2 , @ @ O + # < < ",
"&X<X<X%X%X%X%X%X%X=.#.-.>X,X5X7X5XE.U E *.+X+X+.| | | | | W U w m R R U + +.*.o.| o.o.o.*.| +.W W { W P K F F F F F w 3 < < < # ",
"=.K.K.%X-.-.=.=.>X-.%.R.5X2X2X2XE.[ 0 w Q #.#.| Q Q | | | W K w Y ^ R l w %X=.=.=.+X+X$X&X%X%X=.=.+.o.o.W P P P K K K q 9 5 < + ",
"#.%.%.S.-.-.-.-.E.A.A.~.2X4X^.~.b./ m Y ' #.( ( ' ' ( ( Q E G w Y ( Y 0 >X1X=.$X=X-X8X8X8X-X8X-X8X+.o.{ E P { W P K K F w 9 3 < ",
"Q R U #.#.$.&.&.c.A.A.A.c.` ` ` ` S M R ' ( Y m m m m m U E G l R ' l 8 S.qX| @X$X-X;X:XoX@X=X=X;X&X%X+X=.+.=.+.{ P G F q q 9 1 ",
"R T U 7 w K T T Y Y m   8 l l Y R ( m m M Y m m m m Y R T E E T T m Y ! c.4X>X+X=X0X$X=X+.%X%X>X>X0X&X@.{ { P { o.W F 9 5 5 9 G ",
"#._ Q #.%.=.K.%X#.#.Q + m U T T ' #.U m R R R R R R R R R Q | Q Q Q m N / 4X4X1XqX%XqX<X%X%.$.5XS.9X8X%X+.+.*.=.=.{ H w 9 5 5 9 ",
"-.=.%.<X<X1X6X6X>XR.#.0 Q Q Q ' #.$.R R ' ] ' R R R R R Q ....#.#.%.^ N Z A.rX>X>X>X,X-.%.$.R $.S.>X%X-.*.*.*.=.*.| E K G 5 < 1 ",
">X<X<X6X6X6X6X6X,X,X-.Q -.%.&.&.-.-.^ ^ ] ] ' ( ^ ( ' ' ' ..( #.-.R.' Z Z l.rXyXyXyXqXS.] $.( Y &.-.-.%.Q U w w m w l U F 5 < < ",
"<X1X0X6X1X1X6X1X,X,X&.#.>XR.R.R.R.R.^ ^ ' ' ( ( ( ' ' ' ' ( Q ( -.R.C.[ Z Z F./.eX~.E.[ ^ ' $.w $.$.&.-.&.$.Y m m m m w 0 1 < 1 ",
"0X9X6X5X5X5X5X5X5X,XM $.7XW.,X,XW.R.( ^ ( ' ' [ ' ' ' ( ( $.[ ' ] ] &.] / ^ B !.}.wXn.~.C.C.&.R ; l ; . . % o o ; 8 j 0 0 9 9 5 ",
"6X5X5X5X2X2X2X2XW.W.8 ] 2XW.W.W.W.W.^ ^ ( ' [ [ [ ' ' ( ( ^ [ &.R.T.] ^ N Z z.C 7.eX!.F.~.C.$.' U j > % o % % ; > j m w w 9 < # ",
",X5X2X2X4X^././.E.2X& ^ T.^.E.E.W.2X[ ^ ( ' [ ] [ [ [ ( / [ [ [ ( ^ ] C.[ C.rXn.y z.yXv.4X[ ^ &.R.&.R.C.] ' 8 8 j m m 0 9 1 < + ",
"R.E.~.4X/.}.}./.Q.~.& ` A.~.~.A.~.^.^ ^ ( ) [ [ [ [ [ ) [ C.A.C.] ( ] E.E.E.4XrXA.D v.v.F.^ ! $.R.&.&.R.%._ m m 8 8 0 # < < 5 5 ",
"[ c.n.Q.!.Y.Y.Y.F.z.& D c.n.A.A.A.v.^ ^ ( ) [ [ [ [ [ [ ) c.E.2XW.T.] $.C.c.[ ` Z Z u u z u > j 8 w w 8 7 ; ; o o     < 5 5 9 9 ",
"n B B d A A / j 6 8 * N [ C.C.c.A.v.Z Z ^ / [ [ [ [ ^ ^ [ c.2XrX^.[ [ [ E.C.C.` b.` S B Z z N N l m 8 6 > ; 8 8 7 7 ; 5 5 1 * * ",
"a a y D B Z N * 0 G 0 l $.Z.Z.c.A.Q.S S / ` c.c.b.[ / [ C.~.rXiX4Xc.A.b.~.c.v.` z.c./ n Z Z Z Y Y j j l m m 0 0 7 7 7 * * % % . ",
"Z Z B B u g g m &.S.$.l ! [ c.c.F.n./ ^ / / / [ c.c.b.~./.tXeXiX}.}.!.!.!.z.7.v.v.z.` Z ^ ^ ! Y Y Y N N R R 5 5 5 ; - * * # o + ",
"N N Z z N j 6 $.S.5X5X/ k c.v.v.Q.B.Z Y ! ! ! / / / v.F.F.{.eXVXY.Y.{.!.N.x.N.v.x.z.D S ` [ ' ^ ^ m N m Y Y 0 6 5 ; ; ; ; o + o ",
"' ( ( ( ( Q $.5XZ.4X4X4XB 7.x.x.V.N.z J Y ! ) ) / A x.B.M.G.u.M.).XXXX{.4.4.M.8.7.A V B u p > > > : > j M M j w 8 0 0 7 7 7 5 - ",
"l U l U J T ,X9X^.wXQ.wX7.d V C 7.f z J ! ( ) c.l.5.k.N.m.y.0.9.H.].|.|.y.9.9.8.7.5.7.B S ` ^ M M N j > j j Y m 8 0 0 0 7 7 5 7 ",
"T Q U E U ..>X5XwXeXwX}.7.t t d s t h j j h h x 5.f d M.).].f._.(.9.>.:.9.y.u.V.7.7.n.F.A.^.T.] C.C.` j N m $.^ j 8 8 0 7 7 5 7 ",
"T Q U E Q &.2X2X/.}.eXB.d V V C 5.7.c.c.v.n.n.N.!.N.k.tXVXVX_.u.G.G.).).u.>.>.w.w.b C n.z.A.c.^ ` S ` Z n n ^ N M l m w 0 0 5 5 ",
"R ( E T Q S.2X~.!.V..X7.t x x B V 5.A C 7.z.x.x.x.w.x.Y.V.XXmXtX).M.e.9.t.4.:.x..Xw.q.z.z.A.c./ / Z n N N j M j j j l l l 8 6 * ",
"^ #.T Q T ) A.Q.!.N.!.d d A 7.z.j.D w.w.w.w.w.8.m.w.7.x.8.V.m.V.).).V.V.w.3.m.w.U.q.7.Q.Q.z.D / c.S n Z N S n M j j j N l j 6 * ",
"z Y w ( Y ! c.F./.n.B.y B V j.x.j.V b :.3.8.w.m.Y.q.s b f :.:.f f 4.w.Y.{.M.4.f 3.x.C /.v.j.j./ ~ D / ` n c.Z N N n j N N l 6 * ",
"tXS J ( ! ! c.A.~.F.D B x r V z.5.x.4.:.N.N.B..XuXNXNXNXJXGXMXXXNXXX_.].jXCXhXjXjXXXY.eXx./ D A j./ Z Z ^ [ A./ N k z ^ z j ! m ",
"tXx j Y j Z j./ l.v.j.7.V d C 5.C x.w.b N.D.Q.{..XzXMXNXJXHXBXzXNXMX(.jXxXfXCXhXf.).u.B.q.D A A ~ Z Z Z ^ / b./ Z Z Z ^ N j N l ",
"x.i N N ^ / / j.5.N.N.B.N.N.x.7.V 7.x.B.x l.i Y.).L.zXBXAXHXfXBXxXI.zXZXKXlXfXfXkX'.f.3.3.D A Z Z Z Z Z Z n / / S S / N j g 8 ; ",
"k.B Z k Z x a C f 3.1.w.x.x.7.D V x 7.Q.u ~ x Y.[.[.xXzXxXfXI.gXgXI.fXxXlXgXaXpXI.a.L.4.3.7.D S N Z Z Z Z z Z Z Z S ^ ! N j g > ",
"N.n./ C.Z B j.k.f :.s 3.8.1.5.z.x.7.n.n.Z k F.Y.NXcXgXxXSXxXZXxXAXxXI.i.pXaXi.pXI.i.a.e.4.q.z./ Z Z Z / z k j k Z Z Z z j g * o ",
"7.z.v./ z.z.A B C 1.3.5.5.7.C D x.j.D / C.& wX).GXcXnXAXCXZXxXvXZXZXkXdXgXvXgXaXpXI.`.r.t.7.D S n Z Z Z Z n Z Z c.S z N z > * . ",
"/ c.A.c.c.c.D B D D D 7.7.7.D C 1.1.a D S & }..XGXHXFXAXvXSXZXvXSXSXdXh.I.P.P.s.i.'.jXg.e.8.z.z./ [ / / / / A.A.A.` Z N N g > * ",
"^ [ b.C.[ / Z N N N N Z Z j.7.C d d t B x e x..XNXHXZXvXnXKXKXKXLXKXgXfXkXfXkXfXdX'.h.0.0.2.k.n.c.v.c./ / [ k / Z / / j g > * o ",
"R ^ [ C.` ! M l w w j j k r e t t t t t y e t U.[.xXZXxXnXFXDXKXLXLXnXlXlXfX`.s.`.s.a.d.0.2.k.N.z.c./ S ^ / k z h h h u > = % . ",
"Y Y Y &.^ l 6 0 w G l l z Z D }.VXtX.X.X).{.m.u.<.I.ZXvXFXFXKXDXDXKXbXlXxXcXP.`.`.J.J.d.0.2.6.k.7.z.Z k n Z / z Z k j j g > > * ",
"Y Y l m m l 0 ; 0 6 8 g g x 7.).XXXX].`.`._.e.r.L.`.ZXCXCXlXxXbXDXbXlXnXvXxX,.g.s.s.g.d.d.2.1.5.k.A x x B h a k n j p ; 6 6 6 ; ",
"N ! N 8 l U T ( C.b.C.A.A.N.V.G.(.(.a.P.hX[. X(.r.,.`.fXfXxXdXlXaXsXbXaXI.dX`.P.s.s.g.d.0.2.1.5.j.7.B B Z B p j j j > * * 5 ; % ",
"$.&.Y l 8 6 5 5 ^ / ` c.n.V.V.G.(.`.'.dXjX X].(.r.<.`.'.h.I.fXlXbXFXKXlXI.jXg.h.g.s.g.d.0.2.1.V 5.A x x B h u g j g > * ; 0 5 ; ",
"N Y Y N w 0 w U [ z.c.n.B.m.M._.].[.'.P.(.'.(.r.g.jX'.s.s.p.fXpXlXvXgXfXxXhX`.f.a.a.d.0.2.2.1.V A x i u a r > p g > : ; 0 w 8 0 ",
"j N m R l 8 l R D 7.z.N.B.M.).|. X'.`.`.L.f.f.a.'.BX'.g.g.'.dXkXZXnXpXpXkXhXJ.y.r.r.y.2.2.1.5.V B B a a h u : > 8 > ; ; 5 0 0 5 ",
"g ! 6 6 l w ; m B !.}.N.t.t.u._.XX|.g.g.(.(.g.g.MXjX'.f.`.`.hXkXgXfXdXs.jX].0.e.y.u.t.4.f f c x x k h h u u > > ; ; * ; ; * * * ",
"j m 6 6 o ; ; * u B.x.m.t.4.M._._._.(.H.g.g.g.`.`.g.jXH.r.f.g.a.P.'.h.`.a.0.9.4.w.t.8.6.6.5.V V B k h u u > > > ; ; * o # # o o ",
"E.7XY S.$.#.l l & 7.j.x.m.t.t.V.{.).H.H.f.f.g.P.a.a.].y.y.f.f.,.a.`.].'.mX|.|.U.U.V.V.V.k.j.D B B h j p u > 6 > > ; ; o # # # # ",
"R.7Xl m 8 T Q Q k k z.7.w.b 3.m.B.).{.|. X X'.h.a.,.d.>.9.t.e.u.H._.H.G.).M.w.q.7.3.7.7.5.A B x k h g u > > 6 6 5 ; ; ; 5 ; * * ",
"N [ ; m 8 l 0 8 g u S D 7.3.w.w.x.N.M.H.].'.s.p.p.,.d.9.9.e.s :.>.>.s ;.:.f b d y t t d a a a i u j u u > > 6 6 6 ; ; * * * * o ",
"% . 6 l N m l l 6 j z Z D B x V 5.8.V.V.M.t.9.0.G.u.9.>.4.8.8.8.8.w.t.t.4.4.1.b v d d d i i u u u : = * > 6 8 6 6 7 5 ; * * % % ",
"8 6 j 8 m Y l 6 > g j Z Z B x x C 7.x.x.8.8.6.6.t.t.4.:.:.3.3.3.3.3.8.7.3.:.b b d d d a i u u u u > > > > > 6 6 6 > > % % % % % ",
"Y m 6 ; l m 8 * * > u h z B x d V C V V 5.7.6.1.1.8.4.:.:.f b b b b V V b f s d d d a a u u u u u g j j 6 * > > > > > % % % % % ",
"6 j * * 0 6 6 * > 6 6 j j x x a x B V V C 5.7.1.1.8.m.3.b d d d d d d d d d d d d a i i u u u u u > N Y j ; ; ; ; ; ; % % % % % ",
"5 6 5 0 1 * * * 0 6 6 l j z z a a x x x x V V V c 7.x.V y a a d d d d a a x x a a a i i u u u u > * N ( Y 6 ; ; ; ; ; * * o o o ",
"1 # # # + + # 0 w w 0 6 l > u u u u B a x a i x x V V d a k n a y r a d B k p B B a a u u u g u = * j N l > . o % % o o o . o o ",
"0 w w U T Q ..#.#.Q Q Q ( ^ C.c.c.j.Z h k a r a x x d a u : u r r t t r r u j B d i u u u g j g = % > l > %   . o o o o .     . ",
"# # # < 9 w w 0 w 9 5 5 * N Y 7Xc.u k S j p p & r a i e & : & e t s 3.C B j : r r & & & & = = * $ % = > * o o * ; ; o o X     X ",
"# < < 0 9 5 9 w 9 9 5 # # * > C.! & $ > & u j u u k k a p > & d B..X.XB.B n n r r e & & = > 6 = * * = > * % > > 6 > ; ; o o + # ",
"9 w w 9 9 5 9 9 q w q <     % . . $ * % % % $ % $ $ & k Z / n.!.{._.u.3.a & $ $ & $ $ $ & > 6 = % * % % % o ; > > ; o - # X + # ",
"# +   # < < # # 5 9 9 <   . % > % * : : p k B Z p u N ^ / z.z.!.eXVX!.7.z k N n k k k z Z ! ! N j % % . . . o * o o   + X     + "
};
