/* XPM */
static char *c8bc1711e2c6460395985dde0f53156ayAP2GMv7Fku1Lmjk[] = {
/* columns rows colors chars-per-pixel */
"64 64 166 2 ",
"   c #020504",
".  c #060805",
"X  c #090A06",
"o  c #020709",
"O  c #040C0C",
"+  c #0C0D0B",
"@  c #100F0D",
"#  c #07100F",
"$  c #0D110E",
"%  c #12110E",
"&  c #050E11",
"*  c #0A0E11",
"=  c #110F10",
"-  c #061212",
";  c #0C1314",
":  c #0F1817",
">  c #071218",
",  c #0E1619",
"<  c #0E191B",
"1  c #141413",
"2  c #191615",
"3  c #151816",
"4  c #1A1916",
"5  c #121619",
"6  c #131B1C",
"7  c #1B1D1C",
"8  c #211E1D",
"9  c #17201F",
"0  c #1D211E",
"q  c #22211F",
"w  c #0F1A20",
"e  c #151E21",
"r  c #1A1E21",
"t  c #221F22",
"y  c #162122",
"u  c #1B2324",
"i  c #1F2827",
"p  c #1E2629",
"a  c #1E292A",
"s  c #1F2A30",
"d  c #232524",
"f  c #292624",
"g  c #252926",
"h  c #2A2926",
"j  c #232629",
"k  c #2A2728",
"l  c #232B2C",
"z  c #2B2C2B",
"x  c #312E2C",
"c  c #2D312E",
"v  c #32322E",
"b  c #262E31",
"n  c #2A2E31",
"m  c #332F30",
"M  c #263132",
"N  c #2B3334",
"B  c #2E3639",
"V  c #2D393A",
"C  c #333433",
"Z  c #383735",
"A  c #353936",
"S  c #393936",
"D  c #323639",
"F  c #333B3C",
"G  c #3C3C3B",
"H  c #413E3E",
"J  c #3D413D",
"K  c #43413F",
"L  c #2F3A40",
"P  c #353D41",
"I  c #393E41",
"U  c #364141",
"Y  c #3B4345",
"T  c #3F4847",
"R  c #3E4649",
"E  c #3E494A",
"W  c #424443",
"Q  c #484444",
"!  c #454946",
"~  c #4D4946",
"^  c #42474A",
"/  c #434B4C",
"(  c #4A4C4B",
")  c #4C524E",
"_  c #54534F",
"`  c #454D51",
"'  c #4A4F52",
"]  c #455151",
"[  c #4A5354",
"{  c #4E565A",
"}  c #4C575D",
"|  c #4D5558",
" . c #4D5959",
".. c #4E5A5A",
"X. c #4F585D",
"o. c #4E5A5A",
"O. c #525354",
"+. c #565857",
"@. c #51565A",
"#. c #51585E",
"$. c #515A5F",
"%. c #515D5D",
"&. c #525B5D",
"*. c #585C5D",
"=. c #535A60",
"-. c #545B61",
";. c #535E60",
":. c #515C62",
">. c #545D62",
",. c #565D63",
"<. c #575F61",
"1. c #595E61",
"2. c #576363",
"3. c #576065",
"4. c #566262",
"5. c #5A6362",
"6. c #596261",
"7. c #5B6463",
"8. c #5A6264",
"9. c #586166",
"0. c #596267",
"q. c #5B6767",
"w. c #5B6364",
"e. c #586369",
"r. c #5A6368",
"t. c #59646A",
"y. c #5E6669",
"u. c #5D6969",
"i. c #5D686E",
"p. c #5E6A6A",
"a. c #60676D",
"s. c #62676A",
"d. c #61686E",
"f. c #62696F",
"g. c #616A6F",
"h. c #626D6F",
"j. c #636F6F",
"k. c #666F6E",
"l. c #626A6C",
"z. c #646D72",
"x. c #666F74",
"c. c #646B71",
"v. c #696E72",
"b. c #677373",
"n. c #677075",
"m. c #677077",
"M. c #657171",
"N. c #6A7274",
"B. c #6A7375",
"V. c #6E777C",
"C. c #6D7979",
"Z. c #6E7A7A",
"A. c #70797E",
"S. c #717B7C",
"D. c #737C81",
"F. c #778383",
"G. c #788180",
"H. c #788186",
"J. c #798585",
"K. c #798585",
"L. c #788389",
"P. c #7B8489",
"I. c #7F8B8B",
"U. c #7F8B8B",
"Y. c #859191",
"T. c #8C9898",
/* pixels */
"] b.F.B.J.F.I.u.w.l - l %.E 6 F T B : o 6 l l l M p u u p u e e < w B B B e N t.P N e w y b P p u & < - a E a y y , , 6 y < - , ",
"M E U a F U / V p M l , a V 6 y : o   O - O O - ; ; ; & & & ; , O > & > y s s b w e & & > w p e , - 6 < 6 u < 6 6 < 6 u p y < < ",
"a F a - M V Y B V u.w.l y M ,   b u i l i N F M , u l e , e p l R } p e & & > & w b u w < , w > u l a l l y u 6 < < , - - < < < ",
"M Y M u ] ....U , M B a V E V a F T 5.5.7.G.N.b : N / ` ' ;.a.d.x.L.=.| V > b B L i.e.E P B N e ] ..B F E U Y < 6 u y , , 6 6 < ",
"V V u 6 / | | B a y < a U V u - l F  . .[ k.5.u O l / { ,.c.a.-.` c.z.r.r.u Y P P V.D.;.R Y P , j.Z.Y U ] | .., a B F V B B M p ",
"F M < - B / 2.Y u a a U / Y V y l i M M u l F N * p P ` #.=.` P N 3.H.X.&.u | | E m.V.r.Y P P & ;.b.E V J Y / < M B V M l b M B ",
"V a y , a Y j.] y M V / E F V 6 ; 6 l M i : 6 i & 5 l P ` { ' ` b ` x.R R b r.P.| } 8.8.P B P , M Y M a a a V y M l a u < , y l ",
"u , y < , a | B < a B | / B M < O : - O O O & : O o O ; e 6 , , b 6 p e p ; p [ b > y F 6 & u o o - O , < < u y a l V V l < - , ",
"V / E M l R | / ../ y | u.M ] B.6.F i 6 Y ^ B & l F e 6 #.,.P Y M l b i u u F e l N p   & 6 u 6 y a 6 O 6 9 O y < y y < , 6 a M ",
"] %.E l F u.B.%.U E F Z.Y.S./ Y J M B F [ / w.M./ / N u R c.y.` Y D I p u p F p P B l 6 Y [ [ F 6 a u - y a , u , y u 6 , 6 a M ",
"p ] %.F V ..w./ 4.] B w.S.T./ Y Y B B l Y ^ 8.d.&.N u l b R [ P F N / l p l p 6 [ P l e R / Y l y a y O 6 l 6 u y a M a 6 6 a M ",
"6 | b...U E ] E ..U l w.J.I.Y Y F N l : B [ 5.R B , , l b P ` P / F &.B F Y b l { Y M 6 b u e : < < 6 , a B y y 6 u u y < 6 u l ",
"a M B l a M M l F M < V ../ U Y Y Y J 5 6 u i O ; b l , u P P r I l Y 6 j b 6 j b j u : j 6 6 6 o   o , a l - - 6 < 6 6 y a M B ",
"- O O - 6 y y y - M V E ..V u , l u j u l u p i ; N p & e e & , u 6 N u l 6 o ; 6 6 e 6 D b l j M < , O - 6 , 6 O o   o - - - , ",
"- a Y ] E U U U Y ] [ ] ] E a B  .F F F / F F M e u p N B e 5 Y D I @.@.*.N b ^ F I I l I N M l E Y U y - u l M u y y u a u y y ",
"O V ;.4.] E R Y F M E u.&.%.- F [ / ^ F / ^ / P F P ^ ` D e e B I / ' ' [ j Y N.[ @.[ j e * ; ; o a Y y O y u < # - < y u 6 6 y ",
"O F 5.| F M F P Y P Y w.d.| e R &.B F U ^ Y &.[ ^ [ ;.s. .l 6 b N B F Y P ; I 1.w.-.' D u , 6 u , : # O ; 6 6 : , - > < e < e p ",
"b /  .F i b P Y p l B &.w.{ p R E E w.5.[ P *.k.N.B.A.S.w.N : e b N D F D e ' v.&.@./ D u 5 5 6 7 7 6 , ; , < : y 6 < < < , < e ",
"; i l , ; u l u - : ; l M M ; l p u V N l 6 l M Y Y F Y Y i ; 6 5 6 e 6 ; o b Y l l j e 5 : 5 6 u u u 6 ; ; ; ; u u e , > , < < ",
"& ; , 6 u u u 6 l i O & ; i u F N u i i Y Y [ ^ / F e , 6 , & , e i u 6 ; 1 u j u u e 1 ; ; 6 6 6 7 7 6 : : - O , 6 < & & , < , ",
"F u 6 p l e u l F B ; , 6 N F / B b b u B B Y Y y.[ l , 6 u u p F A N j j F F A W Y F j 6 5 5 1 6 6 6 6 7 u 6 & O , , & & , < , ",
"F e , p l 6 e M b l ; i u M B B Y Y Y l F N N b Y P p 6 u M B F Y F g 6 3 F A F Y Y A g 6 6 7 6 u u u u j l e ; , 6 e 6 6 y u u ",
"p 6 , l N M l N B M 6 M l b B l B B M u R ^ Y B N F M u p M M M J A z 3 + c z F z A C d 6 7 0 0 z z j u u 7 6 ; u 6 e y y y p l ",
"u , - , p B B b F l & l u l F B B P N 6 B B B b l F B u u l l l g z g 6 . g u A W ) ( A j u 0 0 c N l 6 ; - + O 6 ; - , , , 6 a ",
"6 i p l b e & - 6 l l 6 e 6 O l p F B O 6 6 u , & 6 ; ; : - p F l 0 5 1 0 g g d ) ! g $ d ( ( c c C d 1 3 7 7 7 6 O O 6 e : O o ",
"Y  .[ Y Y F i , B B M l F F b [ {  .;.F u : p 5 , N B F F l N B N C z 3 O $ 7 u F c 0 $ 3 u u 6 0 0 0 0 z W  .[ l u p F Y l 6 , ",
"b / / B F P b : N M F Y [ F 6 M Y B &.;.Y l F u N / ^ Y F b N M l c z u 6 7 6 ; j j z A c 7 ; 5 +   % q N ) 7.[ l 6 1 j l 6 - , ",
"[ y.;.Y P Y l ; N b F P Y F l Y / M Y { ^ B M e F [ R F M p M b 6 u l l c A C g z l B Y A 0 : 6 7 $ q A J O.*.G N 6 + 6 e , 6 p ",
"` { ^ F B b 6 ; i l F N l l i B M N Y 8.w.Y 6 ; i Y Y Y F l b l * u z i 6 j I [ ^ A B N b u e u g 1 q v c J W j j 6 6 l N l u l ",
"6 , O O 6 6 : 6 - 6 b l u e & O - M Y ;.;.Y 6 u p P F F N e e u O ; 5 1 * * e N N b l l l u 6 5 q $ % 1 $ 3 7 + ; ; 6 j l j 9 6 ",
"B l 6 : e u e p u - 6 p B ^ ^ ` [ [ Y Y l B F R Y / F F b , e l 6 * ; e u 6 e l j p j l p 5 - : z h f q 0 7 0 0 7 u u 0 i l l u ",
"/ Y l 6 e i i l F , l ` k.A.s.w.s.&.{ &.F &.5./ [  .^ / Y l N ^ N l b P D N ^ k.8.[ ^ Y l 5 u A c S G J W G C G u z z g l n l 7 ",
"u R e u b b ` M Y l e B [ &.{ { &.Y Y &./ E y.^ [ Y F P N j l F P b u /  .b Y s.1.W Y C l u 7 z v d c C c C G z g c O.l z d n 7 ",
"[ ^ , F ` B / Y M 6 , N ` &.&.*.E B V / F F &.R F b l b u 5 5 u F N l ` [ M Y 1.*.! W A N l 7 z c c W ! C z c z z z O.G G k k t ",
"s./ 6 Y ;.F Y Y l 6 6 N ^ / / ` P M B U l l Y N N l l b k 7 6 u F B N ^ Y l N Y ( G Y A C z d z A v G G g 0 z c N C O.O.( k * * ",
"l l o 6 l , 6 o , O & 6 l l p l p 6 p b 6 6 i ; 5 * * 5 5 ; ; 6 u 5 6 l l e u u u 2 0 7 7 0 1 7 q 1 $ 5 1 ; 1 3 1 1 z D D z 2 t ",
"i F M B F p u - u e u l B B B F l a F R Y Y F l b i u j z z b D b e j D F ^ ! I u e z d z Z z z 4 0 d c A c d d 7 7 2 o 1 k r b ",
"l F F Y Y l e 6 u e u p l l b N y 6 N F Y R N u l e 2 6 u j l b j & e l b I A z 1 1 d 7 d z q 7 . 0 z g h d d g Z W G 2 d z u d ",
"F P B P ^ B i , N l l l l b M N i i F F Y ! F B l 7 1 5 r j k l b : b D b F N l 7 0 z h z G h 7 % v C q f c C Z j Y O.z Y A N D ",
"[ / B B / [ B - p u 6 6 u p l l 6 0 F B F ( Y ! z d 7 u z C Z Z l ; D Y C G A N 7 d C z Z G z 7 X z z 7 z G C d 7 A ' 7 C e j D ",
"F F Y [ ` F u : : ; - : 6 6 6 6 - 6 B ! / ( [ ! A 2 2 1 C C C n u 1 u z ! N Z W d g Z G _ _ f 1 + 4 q q d z C z u C A j 0 l l i ",
"b M B Y Y N e : ; - O O ; 6 e 6 6 6 u i u j N N u 7 7 O 1 + 7 7 7 7 j u j j C c v z z h S G 7 1 4 8 4 + X 1 1 + X ; 5 ; - ; 1 : ",
"B B F Y Y F M l l p e : 6 b M l M d u 7 6 l G W C ! W C C d W Z z z C A d z A C v h f 7 z S q q Q ~ G q 4 d 0 + 1 1 6 7 6 6 : : ",
"M b M N B B N N b b u ; 6 b B i l 0 7 0 7 z W ! z ! G W ~ z ( Z l 7 z ( z z C S z d h q v S f f K ~ Q x z Z z 1 7 7 e u i i e 6 ",
"p p l l l M M b l l e & : l M i l 7 7 6 6 u c N z G G ( ( d G z 0 1 d W d z v Z h h x f x v q q q x x f f C z 1 1 7 u u l F B u ",
"6 u u u p l l l 6 6 , O ; i l i z u 7 6 1 7 z z C W ( [ ! 4 k d 7 7 j g 6 z C d h h h 8 f v f x h x z 8 7 f 7 1 3 d i 6 i F B y ",
"O ; 6 6 6 6 6 : O O O o o - : : 7 ; $ ; ; 6 d j d d C k k 1 7 1 + 1 6 + 1 7 q 1 4 4 8 % 8 h q v f f 8 2 % @ + . 1 1 : O - 6 6 O ",
"* 6 u i u u e 6 : , , , ; - ; , 6 $ ; 3 3 u d d d 7 d = z C C d 7 1 7 7 S f q 7 @ % 1 X @ 4 % 8 @ % 1 1 1 % + 1 1 + o O - ; , , ",
"1 N ! A j z b 6 ; 7 u e p B l , : 6 6 7 r z H ( ~ H z 7 z G G z d 7 7 h v f q q 1 h x 7 1 q x v % 7 h z f 7 7 6 + - : : : : , 6 ",
"+ C +.[ c d j u ; u i e u l l e - , 6 e d z G Q K Z f d v H Z f d 8 q h h q 7 q 1 z Z z z Z G G 1 4 7 7 4 3 7 u O + - - - - ; : ",
"+ z O.+.A 7 6 6 : u j 6 6 e u e & : 7 u k z C G Q C d f Z K Z h q f z z f 8 8 q % q z C S Q K Z + % 7 7 7 4 3 1 O + - + O O - - ",
"0 z Y ! G z u ; 1 7 e 5 & - , , O - 1 7 d d k z H z 8 8 z z z h 7 f h f 7 7 7 7 + % 4 q z Z z q   X 1 7 7 1 + X X O O O O O O & ",
"7 7 d 7 7 d 7   : 1 ; * & - ; ; & * * ; 2 7 8 8 d 7 1 2 1 % % 2 + 1 1 1 1 1 1 @ @ + X % 7 7 4 @ % $ + + + + + + X X X X o o O O ",
"3 7 7 +   + 1 o ; + O ; , , , , 6 5 1 1 7 r 8 8 2 7 8 7 1 % + + X X X + % 1 % + 4 % + @ 1 1 % + 1 1 3 7 7 7 ; + # # - + O # ; : ",
"z z z 7 ; 1 u 7 ; + * 5 6 6 , 6 u 6 1 5 7 r 8 7 2 t f q 7 4 2 % % X X 1 1 % @ 1 4 1 % 1 2 1 % 1 % 2 0 h z d 1 X ; ; : ; - : 6 6 ",
"N 0 7 7 1 + ; ; : - ; 6 6 ; ; , 6 , * ; 1 2 2 = 1 8 8 1 % 4 4 $ % X + 1 1 + + 1 % + % 7 7 1 % 1 1 % 1 7 0 7 1 + + + + + O - : , ",
"7 j d 1 ; 1 1 + +   O 5 e , ; , 6 6 1 + O = 1 1 k x x f 8 7 4 % + X X X X % 1 4 % % % 1 1 1 4 4 1 X + 1 3 7 7 ; O ; ; + O : 6 6 ",
"7 0 7 1 7 d e ; O   o ; : & & ; ; & X O = 2 4 4 8 t t 7 4 2 % $ + X X X + @ % 1 % % % % 1 1 1 1 + X + $ $ 3 3 X # ; - X O - : ; ",
"7 7 1 $ 7 d 6 X O o O ; ; & ; 6 6 O X 1 d d d f x x f d q d 7 2 % @ + + @ % % @ @ + + + + + + + . X % + + 4 7 + 5 ; - O # ; ; - ",
"7 7 1 + + 1 O   O O ; 5 , ; , e i , ; u z k z C Q H C z h z f 7 2 1 @ @ % 1 % @ 1 1 % @ + + + +   + 1 $ + q z 7 7 6 : : : 6 : & ",
"7 7 7 1 + X + ; O - 5 6 6 : , 6 e ; ; 7 d d x G Q G z 8 8 d 0 2 4 1 + + @ % % @ 4 4 2 1 1 1 1 1   + 1 + X q c j 0 6 6 6 6 6 ; O ",
"+ 1 7 1 + . 1 u 1 6 6 e 6 6 : ; ; O + 1 r d C H S m 8 2 2 7 7 1 2 % + X @ % % + 1 1 1 1 % % % % X X +     1 d 7 5 ; : 5 6 : O O ",
". + ; $ + X * 1 : : 5 5 5 , ; & & & O ; 7 d z x z f 8 2 2 7 4 1 % @ + % 1 2 % X + + + + + + + + X . X .   $ 6 ; ; + + # # o o O ",
"+ + + ; ; + X           O & & O , - O O 1 7 7 1 8 8 2 1 1 1 % X % @ % 2 7 7 1 + @ @ @ @ % % 1 1 +   X + + % 1 ; # X o X o   o & "
};
